M48
;GenerationSoftware,Autodesk,EAGLE,9.6.2*%
;CreationDate,2022-02-24T09:33:48Z*%
FMAT,2
ICI,OFF
METRIC,TZ,000.000
T12C0.350
T11C0.356
T10C0.381
T9C0.400
T8C0.500
T7C1.016
T6C1.040
T5C1.200
T4C1.400
T3C1.700
T2C1.800
T1C2.540
%
G90
M71
T1
X58420Y15240
X2540Y15240
X58420Y59690
X2540Y59690
T2
X49515Y6528
T3
X49515Y2028
T4
X8516Y51613
X2516Y51613
X52444Y51613
X2516Y37656
X58444Y51613
X58444Y37656
X52444Y23698
X58444Y23698
X8516Y23698
X52444Y37656
X2516Y23698
X8516Y37656
T5
X5080Y21900
X59055Y5715
X59055Y2215
X5080Y25400
X5080Y35870
X5080Y39370
X5080Y49840
X5080Y53340
X55880Y25471
X55880Y21971
X55880Y39441
X55880Y35941
X55880Y53284
X55880Y49784
T6
X20320Y21031
X20320Y18491
X20320Y23571
X20320Y26111
X20320Y28651
X20320Y31191
X43180Y10871
X20320Y33731
X20320Y36271
X20320Y38811
X20320Y41351
X20320Y43891
X20320Y46431
X20320Y48971
X20320Y51511
X20320Y54051
X20320Y56591
X20320Y59131
X20320Y15951
X43180Y15950
X43180Y18490
X43180Y21030
X43180Y23570
X43180Y26110
X43180Y28650
X20320Y13411
X43180Y13410
X17780Y10871
X17780Y59130
X43180Y31190
X43180Y33730
X43180Y36270
X43180Y38810
X43180Y41350
X43180Y43890
X43180Y46430
X43180Y48970
X43180Y51510
X43180Y54050
X43180Y56590
X43180Y59130
X17780Y15950
X17780Y18490
X17780Y21030
X17780Y23570
X17780Y26110
X17780Y28650
X17780Y31190
X17780Y56590
X20320Y10871
X17780Y33730
X17780Y36270
X17780Y38810
X17780Y41350
X17780Y43890
X17780Y46430
X17780Y48970
X17780Y51510
X17780Y54050
X17780Y13410
T7
X12700Y2540
X15240Y2540
X2540Y2540
X5080Y2540
X7620Y2540
X10160Y2540
X17780Y2540
X20320Y2540
T8
X45876Y60574
X52626Y60574
T9
X25146Y6299
X27483Y7925
X26340Y6299
X27483Y6299
X26340Y7925
X25121Y7925
T10
X29845Y20955
X28575Y25133
X37973Y22479
T11
X23536Y47970
X29210Y45720
X38100Y33007
X34468Y33655
X40640Y29210
X32893Y33655
X35154Y35878
X35829Y29235
X39853Y16662
X53340Y3810
X41910Y1854
X31270Y33655
X24765Y33652
X24989Y41281
X29845Y41281
X40005Y35560
X16789Y38015
X21569Y38019
X38503Y43180
X39345Y43180
X43942Y17272
X14097Y40640
X34290Y17732
X34712Y13935
X27254Y53619
X24991Y39624
X22857Y39656
X34925Y57785
X24384Y53619
X38735Y57807
X32360Y52832
X35331Y54458
X39862Y45577
X39370Y44247
X21286Y34550
X38125Y47015
X26645Y29058
X39548Y54610
X42491Y45333
X39575Y55956
X33655Y34895
X44620Y34964
X44196Y47212
X38125Y49454
X26645Y26619
X45263Y31606
X38125Y47828
X26645Y28245
X44493Y32587
X41788Y39965
X23361Y33662
X35960Y33007
X41272Y40726
X23013Y34464
X15863Y14630
X40808Y41538
X22091Y32935
X31905Y33020
X40377Y42283
X21583Y33570
X21209Y19812
X30480Y33020
X41891Y60458
X34925Y55245
X35560Y50879
X32885Y51895
X38125Y48641
X26645Y27432
X44450Y31656
X41275Y28575
X15621Y17907
X49522Y43197
X49454Y29108
X49530Y15649
X44450Y26670
X41910Y26670
X44450Y24130
X41910Y24765
X24206Y57048
X26670Y45720
X22860Y45720
X24124Y30321
X23462Y29768
X9417Y61068
X23508Y28920
X28499Y18411
X28931Y24308
X33500Y42915
X32385Y42240
X35560Y19685
X25425Y33020
X26267Y33020
X41275Y25400
X44450Y22860
T12
X52070Y47371
X47970Y46812
X27077Y33017
X49672Y56364
X48928Y20911
X51264Y23513
X44221Y61214
X25603Y22733
X28067Y584
X48810Y56364
X45085Y55880
X11455Y32080
X47600Y56364
X54621Y58903
X12700Y44450
X46685Y56364
X8890Y36195
X54610Y29210
X47493Y26919
X8890Y39474
X21155Y47377
X53340Y29635
X47498Y27813
X16921Y47401
X14478Y48895
X52070Y35837
X51963Y38969
X50743Y55804
X48514Y30861
X54641Y58077
X55194Y56464
X52877Y47371
X46107Y54680
X7620Y45676
X14483Y49789
X6350Y46101
X11455Y60020
X40640Y4445
X13208Y54356
X11176Y53213
X15863Y16262
X21300Y14280
X25291Y21912
X37693Y43180
X49257Y59118
X49257Y61277
X46990Y46355
X53670Y45618
X53670Y41808
X23190Y52197
X25730Y58547
X45701Y51816
X53296Y50228
X55836Y61023
X60255Y57645
X53296Y52768
X49619Y54305
X32360Y53645
X15240Y38100
X36525Y58547
X38075Y34087
X45085Y20320
X35814Y23495
X33274Y11938
X34290Y12700
X34798Y29591
X31242Y42164
X12700Y6350
X30480Y17780
X24130Y17780
X31858Y15136
X30099Y7569
X36322Y9525
X38100Y9525
X30099Y6604
X13970Y6350
X35306Y635
X34036Y635
X35306Y2032
X34036Y2032
X38100Y21590
X45720Y18161
X22860Y6350
X4877Y13868
X37948Y29261
X31750Y36195
X19050Y6350
X22860Y2540
X30480Y36322
X48260Y19431
X889Y889
X59690Y17780
X22860Y38735
X36271Y20803
X26092Y55124
X22860Y5080
X15240Y6350
X16510Y6350
X36830Y34290
X29210Y42418
X35357Y39522
X28252Y14932
X19050Y5080
X30099Y10236
X38100Y7239
X36322Y7239
X40640Y38735
X45720Y27940
X52070Y20320
X52070Y34290
X59690Y20320
X59690Y29845
X59690Y34290
X59690Y43815
X59690Y48260
X50902Y45517
X46990Y40005
X53340Y32131
X34290Y21590
X26670Y25781
X30683Y24486
X27733Y29930
X26772Y35408
X28575Y26035
X38100Y24765
X53340Y18415
X55880Y17780
X13970Y47625
X8890Y54610
X8890Y26670
X8890Y40640
X3175Y45720
X3175Y40640
X1270Y31750
X1270Y26670
X4369Y8052
X10160Y29845
X5080Y29210
X15240Y40005
X7620Y43180
X5080Y43180
X41986Y57061
X38075Y50749
X33579Y50952
X40005Y52705
X38049Y40640
X36195Y47625
X8890Y56515
X2540Y57150
X12990Y28499
X8890Y27940
X16764Y44704
X39658Y60127
X12065Y51308
X11430Y46025
M30