G04 EAGLE Gerber RS-274X export*
G75*
%MOMM*%
%FSLAX34Y34*%
%LPD*%
%IN*%
%IPPOS*%
%AMOC8*
5,1,8,0,0,1.08239X$1,22.5*%
G01*
%ADD10C,0.254000*%


D10*
X0Y12700D02*
X48Y11593D01*
X193Y10495D01*
X433Y9413D01*
X766Y8356D01*
X1190Y7333D01*
X1701Y6350D01*
X2297Y5416D01*
X2971Y4537D01*
X3720Y3720D01*
X4537Y2971D01*
X5416Y2297D01*
X6350Y1701D01*
X7333Y1190D01*
X8356Y766D01*
X9413Y433D01*
X10495Y193D01*
X11593Y48D01*
X12700Y0D01*
X596900Y0D01*
X598007Y48D01*
X599105Y193D01*
X600187Y433D01*
X601244Y766D01*
X602267Y1190D01*
X603250Y1701D01*
X604184Y2297D01*
X605063Y2971D01*
X605880Y3720D01*
X606629Y4537D01*
X607303Y5416D01*
X607899Y6350D01*
X608410Y7333D01*
X608834Y8356D01*
X609167Y9413D01*
X609407Y10495D01*
X609552Y11593D01*
X609600Y12700D01*
X609600Y609600D01*
X609552Y610707D01*
X609407Y611805D01*
X609167Y612887D01*
X608834Y613944D01*
X608410Y614967D01*
X607899Y615950D01*
X607303Y616884D01*
X606629Y617763D01*
X605880Y618580D01*
X605063Y619329D01*
X604184Y620003D01*
X603250Y620599D01*
X602267Y621110D01*
X601244Y621534D01*
X600187Y621867D01*
X599105Y622107D01*
X598007Y622252D01*
X596900Y622300D01*
X12700Y622300D01*
X11593Y622252D01*
X10495Y622107D01*
X9413Y621867D01*
X8356Y621534D01*
X7333Y621110D01*
X6350Y620599D01*
X5416Y620003D01*
X4537Y619329D01*
X3720Y618580D01*
X2971Y617763D01*
X2297Y616884D01*
X1701Y615950D01*
X1190Y614967D01*
X766Y613944D01*
X433Y612887D01*
X193Y611805D01*
X48Y610707D01*
X0Y609600D01*
X0Y12700D01*
X456256Y598242D02*
X456374Y598029D01*
X456511Y597827D01*
X456665Y597638D01*
X456834Y597462D01*
X457019Y597303D01*
X457216Y597159D01*
X457425Y597034D01*
X457644Y596927D01*
X457872Y596840D01*
X458107Y596773D01*
X458346Y596727D01*
X458589Y596702D01*
X458832Y596698D01*
X459076Y596715D01*
X459316Y596754D01*
X459553Y596813D01*
X459783Y596893D01*
X460006Y596992D01*
X460219Y597110D01*
X460421Y597247D01*
X460610Y597401D01*
X460786Y597570D01*
X460945Y597754D01*
X461089Y597952D01*
X461214Y598161D01*
X461256Y598242D01*
X461256Y613242D01*
X461138Y613455D01*
X461001Y613657D01*
X460847Y613846D01*
X460678Y614022D01*
X460494Y614181D01*
X460296Y614325D01*
X460087Y614450D01*
X459868Y614557D01*
X459640Y614644D01*
X459405Y614711D01*
X459166Y614757D01*
X458923Y614782D01*
X458680Y614786D01*
X458436Y614769D01*
X458196Y614730D01*
X457959Y614671D01*
X457729Y614591D01*
X457506Y614492D01*
X457293Y614374D01*
X457091Y614237D01*
X456902Y614083D01*
X456726Y613914D01*
X456567Y613730D01*
X456423Y613532D01*
X456298Y613323D01*
X456256Y613242D01*
X456256Y598242D01*
X523756Y598242D02*
X523798Y598161D01*
X523924Y597952D01*
X524067Y597754D01*
X524226Y597570D01*
X524402Y597401D01*
X524591Y597247D01*
X524793Y597110D01*
X525006Y596992D01*
X525229Y596893D01*
X525459Y596813D01*
X525696Y596754D01*
X525936Y596715D01*
X526180Y596698D01*
X526424Y596702D01*
X526666Y596727D01*
X526905Y596773D01*
X527140Y596840D01*
X527368Y596927D01*
X527587Y597034D01*
X527796Y597159D01*
X527994Y597303D01*
X528178Y597462D01*
X528347Y597638D01*
X528501Y597827D01*
X528638Y598029D01*
X528756Y598242D01*
X528756Y613242D01*
X528714Y613323D01*
X528589Y613532D01*
X528445Y613730D01*
X528286Y613914D01*
X528110Y614083D01*
X527921Y614237D01*
X527719Y614374D01*
X527506Y614492D01*
X527283Y614591D01*
X527053Y614671D01*
X526816Y614730D01*
X526576Y614769D01*
X526332Y614786D01*
X526089Y614782D01*
X525846Y614757D01*
X525607Y614711D01*
X525372Y614644D01*
X525144Y614557D01*
X524925Y614450D01*
X524716Y614325D01*
X524519Y614181D01*
X524334Y614022D01*
X524165Y613846D01*
X524011Y613657D01*
X523874Y613455D01*
X523756Y613242D01*
X523756Y598242D01*
X32158Y515784D02*
X32091Y515100D01*
X31956Y514425D01*
X31757Y513767D01*
X31494Y513132D01*
X31169Y512525D01*
X30787Y511953D01*
X30351Y511421D01*
X29865Y510935D01*
X29333Y510499D01*
X28761Y510117D01*
X28155Y509792D01*
X27519Y509529D01*
X26861Y509330D01*
X26186Y509195D01*
X25502Y509128D01*
X24814Y509128D01*
X24130Y509195D01*
X23455Y509330D01*
X22797Y509529D01*
X22162Y509792D01*
X21555Y510117D01*
X20983Y510499D01*
X20451Y510935D01*
X19965Y511421D01*
X19529Y511953D01*
X19147Y512525D01*
X18822Y513132D01*
X18559Y513767D01*
X18360Y514425D01*
X18225Y515100D01*
X18158Y515784D01*
X18158Y516472D01*
X18225Y517156D01*
X18360Y517831D01*
X18559Y518489D01*
X18822Y519125D01*
X19147Y519731D01*
X19529Y520303D01*
X19965Y520835D01*
X20451Y521321D01*
X20983Y521757D01*
X21555Y522139D01*
X22162Y522464D01*
X22797Y522727D01*
X23455Y522926D01*
X24130Y523061D01*
X24814Y523128D01*
X25502Y523128D01*
X26186Y523061D01*
X26861Y522926D01*
X27519Y522727D01*
X28155Y522464D01*
X28761Y522139D01*
X29333Y521757D01*
X29865Y521321D01*
X30351Y520835D01*
X30787Y520303D01*
X31169Y519731D01*
X31494Y519125D01*
X31757Y518489D01*
X31956Y517831D01*
X32091Y517156D01*
X32158Y516472D01*
X32158Y515784D01*
X92158Y515784D02*
X92091Y515100D01*
X91956Y514425D01*
X91757Y513767D01*
X91494Y513132D01*
X91169Y512525D01*
X90787Y511953D01*
X90351Y511421D01*
X89865Y510935D01*
X89333Y510499D01*
X88761Y510117D01*
X88155Y509792D01*
X87519Y509529D01*
X86861Y509330D01*
X86186Y509195D01*
X85502Y509128D01*
X84814Y509128D01*
X84130Y509195D01*
X83455Y509330D01*
X82797Y509529D01*
X82162Y509792D01*
X81555Y510117D01*
X80983Y510499D01*
X80451Y510935D01*
X79965Y511421D01*
X79529Y511953D01*
X79147Y512525D01*
X78822Y513132D01*
X78559Y513767D01*
X78360Y514425D01*
X78225Y515100D01*
X78158Y515784D01*
X78158Y516472D01*
X78225Y517156D01*
X78360Y517831D01*
X78559Y518489D01*
X78822Y519125D01*
X79147Y519731D01*
X79529Y520303D01*
X79965Y520835D01*
X80451Y521321D01*
X80983Y521757D01*
X81555Y522139D01*
X82162Y522464D01*
X82797Y522727D01*
X83455Y522926D01*
X84130Y523061D01*
X84814Y523128D01*
X85502Y523128D01*
X86186Y523061D01*
X86861Y522926D01*
X87519Y522727D01*
X88155Y522464D01*
X88761Y522139D01*
X89333Y521757D01*
X89865Y521321D01*
X90351Y520835D01*
X90787Y520303D01*
X91169Y519731D01*
X91494Y519125D01*
X91757Y518489D01*
X91956Y517831D01*
X92091Y517156D01*
X92158Y516472D01*
X92158Y515784D01*
X32158Y376211D02*
X32091Y375527D01*
X31956Y374852D01*
X31757Y374194D01*
X31494Y373559D01*
X31169Y372952D01*
X30787Y372380D01*
X30351Y371848D01*
X29865Y371362D01*
X29333Y370926D01*
X28761Y370544D01*
X28155Y370219D01*
X27519Y369956D01*
X26861Y369757D01*
X26186Y369622D01*
X25502Y369555D01*
X24814Y369555D01*
X24130Y369622D01*
X23455Y369757D01*
X22797Y369956D01*
X22162Y370219D01*
X21555Y370544D01*
X20983Y370926D01*
X20451Y371362D01*
X19965Y371848D01*
X19529Y372380D01*
X19147Y372952D01*
X18822Y373559D01*
X18559Y374194D01*
X18360Y374852D01*
X18225Y375527D01*
X18158Y376211D01*
X18158Y376899D01*
X18225Y377583D01*
X18360Y378258D01*
X18559Y378916D01*
X18822Y379552D01*
X19147Y380158D01*
X19529Y380730D01*
X19965Y381262D01*
X20451Y381748D01*
X20983Y382184D01*
X21555Y382566D01*
X22162Y382891D01*
X22797Y383154D01*
X23455Y383353D01*
X24130Y383488D01*
X24814Y383555D01*
X25502Y383555D01*
X26186Y383488D01*
X26861Y383353D01*
X27519Y383154D01*
X28155Y382891D01*
X28761Y382566D01*
X29333Y382184D01*
X29865Y381748D01*
X30351Y381262D01*
X30787Y380730D01*
X31169Y380158D01*
X31494Y379552D01*
X31757Y378916D01*
X31956Y378258D01*
X32091Y377583D01*
X32158Y376899D01*
X32158Y376211D01*
X92158Y376211D02*
X92091Y375527D01*
X91956Y374852D01*
X91757Y374194D01*
X91494Y373559D01*
X91169Y372952D01*
X90787Y372380D01*
X90351Y371848D01*
X89865Y371362D01*
X89333Y370926D01*
X88761Y370544D01*
X88155Y370219D01*
X87519Y369956D01*
X86861Y369757D01*
X86186Y369622D01*
X85502Y369555D01*
X84814Y369555D01*
X84130Y369622D01*
X83455Y369757D01*
X82797Y369956D01*
X82162Y370219D01*
X81555Y370544D01*
X80983Y370926D01*
X80451Y371362D01*
X79965Y371848D01*
X79529Y372380D01*
X79147Y372952D01*
X78822Y373559D01*
X78559Y374194D01*
X78360Y374852D01*
X78225Y375527D01*
X78158Y376211D01*
X78158Y376899D01*
X78225Y377583D01*
X78360Y378258D01*
X78559Y378916D01*
X78822Y379552D01*
X79147Y380158D01*
X79529Y380730D01*
X79965Y381262D01*
X80451Y381748D01*
X80983Y382184D01*
X81555Y382566D01*
X82162Y382891D01*
X82797Y383154D01*
X83455Y383353D01*
X84130Y383488D01*
X84814Y383555D01*
X85502Y383555D01*
X86186Y383488D01*
X86861Y383353D01*
X87519Y383154D01*
X88155Y382891D01*
X88761Y382566D01*
X89333Y382184D01*
X89865Y381748D01*
X90351Y381262D01*
X90787Y380730D01*
X91169Y380158D01*
X91494Y379552D01*
X91757Y378916D01*
X91956Y378258D01*
X92091Y377583D01*
X92158Y376899D01*
X92158Y376211D01*
X32158Y236638D02*
X32091Y235954D01*
X31956Y235279D01*
X31757Y234621D01*
X31494Y233986D01*
X31169Y233379D01*
X30787Y232807D01*
X30351Y232275D01*
X29865Y231789D01*
X29333Y231353D01*
X28761Y230971D01*
X28155Y230646D01*
X27519Y230383D01*
X26861Y230184D01*
X26186Y230049D01*
X25502Y229982D01*
X24814Y229982D01*
X24130Y230049D01*
X23455Y230184D01*
X22797Y230383D01*
X22162Y230646D01*
X21555Y230971D01*
X20983Y231353D01*
X20451Y231789D01*
X19965Y232275D01*
X19529Y232807D01*
X19147Y233379D01*
X18822Y233986D01*
X18559Y234621D01*
X18360Y235279D01*
X18225Y235954D01*
X18158Y236638D01*
X18158Y237326D01*
X18225Y238010D01*
X18360Y238685D01*
X18559Y239343D01*
X18822Y239979D01*
X19147Y240585D01*
X19529Y241157D01*
X19965Y241689D01*
X20451Y242175D01*
X20983Y242611D01*
X21555Y242993D01*
X22162Y243318D01*
X22797Y243581D01*
X23455Y243780D01*
X24130Y243915D01*
X24814Y243982D01*
X25502Y243982D01*
X26186Y243915D01*
X26861Y243780D01*
X27519Y243581D01*
X28155Y243318D01*
X28761Y242993D01*
X29333Y242611D01*
X29865Y242175D01*
X30351Y241689D01*
X30787Y241157D01*
X31169Y240585D01*
X31494Y239979D01*
X31757Y239343D01*
X31956Y238685D01*
X32091Y238010D01*
X32158Y237326D01*
X32158Y236638D01*
X92158Y236638D02*
X92091Y235954D01*
X91956Y235279D01*
X91757Y234621D01*
X91494Y233986D01*
X91169Y233379D01*
X90787Y232807D01*
X90351Y232275D01*
X89865Y231789D01*
X89333Y231353D01*
X88761Y230971D01*
X88155Y230646D01*
X87519Y230383D01*
X86861Y230184D01*
X86186Y230049D01*
X85502Y229982D01*
X84814Y229982D01*
X84130Y230049D01*
X83455Y230184D01*
X82797Y230383D01*
X82162Y230646D01*
X81555Y230971D01*
X80983Y231353D01*
X80451Y231789D01*
X79965Y232275D01*
X79529Y232807D01*
X79147Y233379D01*
X78822Y233986D01*
X78559Y234621D01*
X78360Y235279D01*
X78225Y235954D01*
X78158Y236638D01*
X78158Y237326D01*
X78225Y238010D01*
X78360Y238685D01*
X78559Y239343D01*
X78822Y239979D01*
X79147Y240585D01*
X79529Y241157D01*
X79965Y241689D01*
X80451Y242175D01*
X80983Y242611D01*
X81555Y242993D01*
X82162Y243318D01*
X82797Y243581D01*
X83455Y243780D01*
X84130Y243915D01*
X84814Y243982D01*
X85502Y243982D01*
X86186Y243915D01*
X86861Y243780D01*
X87519Y243581D01*
X88155Y243318D01*
X88761Y242993D01*
X89333Y242611D01*
X89865Y242175D01*
X90351Y241689D01*
X90787Y241157D01*
X91169Y240585D01*
X91494Y239979D01*
X91757Y239343D01*
X91956Y238685D01*
X92091Y238010D01*
X92158Y237326D01*
X92158Y236638D01*
X577442Y237326D02*
X577509Y238010D01*
X577644Y238685D01*
X577843Y239343D01*
X578106Y239979D01*
X578431Y240585D01*
X578813Y241157D01*
X579249Y241689D01*
X579735Y242175D01*
X580267Y242611D01*
X580839Y242993D01*
X581446Y243318D01*
X582081Y243581D01*
X582739Y243780D01*
X583414Y243915D01*
X584098Y243982D01*
X584786Y243982D01*
X585470Y243915D01*
X586145Y243780D01*
X586803Y243581D01*
X587439Y243318D01*
X588045Y242993D01*
X588617Y242611D01*
X589149Y242175D01*
X589635Y241689D01*
X590071Y241157D01*
X590453Y240585D01*
X590778Y239979D01*
X591041Y239343D01*
X591240Y238685D01*
X591375Y238010D01*
X591442Y237326D01*
X591442Y236638D01*
X591375Y235954D01*
X591240Y235279D01*
X591041Y234621D01*
X590778Y233986D01*
X590453Y233379D01*
X590071Y232807D01*
X589635Y232275D01*
X589149Y231789D01*
X588617Y231353D01*
X588045Y230971D01*
X587439Y230646D01*
X586803Y230383D01*
X586145Y230184D01*
X585470Y230049D01*
X584786Y229982D01*
X584098Y229982D01*
X583414Y230049D01*
X582739Y230184D01*
X582081Y230383D01*
X581446Y230646D01*
X580839Y230971D01*
X580267Y231353D01*
X579735Y231789D01*
X579249Y232275D01*
X578813Y232807D01*
X578431Y233379D01*
X578106Y233986D01*
X577843Y234621D01*
X577644Y235279D01*
X577509Y235954D01*
X577442Y236638D01*
X577442Y237326D01*
X517442Y237326D02*
X517509Y238010D01*
X517644Y238685D01*
X517843Y239343D01*
X518106Y239979D01*
X518431Y240585D01*
X518813Y241157D01*
X519249Y241689D01*
X519735Y242175D01*
X520267Y242611D01*
X520839Y242993D01*
X521446Y243318D01*
X522081Y243581D01*
X522739Y243780D01*
X523414Y243915D01*
X524098Y243982D01*
X524786Y243982D01*
X525470Y243915D01*
X526145Y243780D01*
X526803Y243581D01*
X527439Y243318D01*
X528045Y242993D01*
X528617Y242611D01*
X529149Y242175D01*
X529635Y241689D01*
X530071Y241157D01*
X530453Y240585D01*
X530778Y239979D01*
X531041Y239343D01*
X531240Y238685D01*
X531375Y238010D01*
X531442Y237326D01*
X531442Y236638D01*
X531375Y235954D01*
X531240Y235279D01*
X531041Y234621D01*
X530778Y233986D01*
X530453Y233379D01*
X530071Y232807D01*
X529635Y232275D01*
X529149Y231789D01*
X528617Y231353D01*
X528045Y230971D01*
X527439Y230646D01*
X526803Y230383D01*
X526145Y230184D01*
X525470Y230049D01*
X524786Y229982D01*
X524098Y229982D01*
X523414Y230049D01*
X522739Y230184D01*
X522081Y230383D01*
X521446Y230646D01*
X520839Y230971D01*
X520267Y231353D01*
X519735Y231789D01*
X519249Y232275D01*
X518813Y232807D01*
X518431Y233379D01*
X518106Y233986D01*
X517843Y234621D01*
X517644Y235279D01*
X517509Y235954D01*
X517442Y236638D01*
X517442Y237326D01*
X577442Y376899D02*
X577509Y377583D01*
X577644Y378258D01*
X577843Y378916D01*
X578106Y379552D01*
X578431Y380158D01*
X578813Y380730D01*
X579249Y381262D01*
X579735Y381748D01*
X580267Y382184D01*
X580839Y382566D01*
X581446Y382891D01*
X582081Y383154D01*
X582739Y383353D01*
X583414Y383488D01*
X584098Y383555D01*
X584786Y383555D01*
X585470Y383488D01*
X586145Y383353D01*
X586803Y383154D01*
X587439Y382891D01*
X588045Y382566D01*
X588617Y382184D01*
X589149Y381748D01*
X589635Y381262D01*
X590071Y380730D01*
X590453Y380158D01*
X590778Y379552D01*
X591041Y378916D01*
X591240Y378258D01*
X591375Y377583D01*
X591442Y376899D01*
X591442Y376211D01*
X591375Y375527D01*
X591240Y374852D01*
X591041Y374194D01*
X590778Y373559D01*
X590453Y372952D01*
X590071Y372380D01*
X589635Y371848D01*
X589149Y371362D01*
X588617Y370926D01*
X588045Y370544D01*
X587439Y370219D01*
X586803Y369956D01*
X586145Y369757D01*
X585470Y369622D01*
X584786Y369555D01*
X584098Y369555D01*
X583414Y369622D01*
X582739Y369757D01*
X582081Y369956D01*
X581446Y370219D01*
X580839Y370544D01*
X580267Y370926D01*
X579735Y371362D01*
X579249Y371848D01*
X578813Y372380D01*
X578431Y372952D01*
X578106Y373559D01*
X577843Y374194D01*
X577644Y374852D01*
X577509Y375527D01*
X577442Y376211D01*
X577442Y376899D01*
X517442Y376899D02*
X517509Y377583D01*
X517644Y378258D01*
X517843Y378916D01*
X518106Y379552D01*
X518431Y380158D01*
X518813Y380730D01*
X519249Y381262D01*
X519735Y381748D01*
X520267Y382184D01*
X520839Y382566D01*
X521446Y382891D01*
X522081Y383154D01*
X522739Y383353D01*
X523414Y383488D01*
X524098Y383555D01*
X524786Y383555D01*
X525470Y383488D01*
X526145Y383353D01*
X526803Y383154D01*
X527439Y382891D01*
X528045Y382566D01*
X528617Y382184D01*
X529149Y381748D01*
X529635Y381262D01*
X530071Y380730D01*
X530453Y380158D01*
X530778Y379552D01*
X531041Y378916D01*
X531240Y378258D01*
X531375Y377583D01*
X531442Y376899D01*
X531442Y376211D01*
X531375Y375527D01*
X531240Y374852D01*
X531041Y374194D01*
X530778Y373559D01*
X530453Y372952D01*
X530071Y372380D01*
X529635Y371848D01*
X529149Y371362D01*
X528617Y370926D01*
X528045Y370544D01*
X527439Y370219D01*
X526803Y369956D01*
X526145Y369757D01*
X525470Y369622D01*
X524786Y369555D01*
X524098Y369555D01*
X523414Y369622D01*
X522739Y369757D01*
X522081Y369956D01*
X521446Y370219D01*
X520839Y370544D01*
X520267Y370926D01*
X519735Y371362D01*
X519249Y371848D01*
X518813Y372380D01*
X518431Y372952D01*
X518106Y373559D01*
X517843Y374194D01*
X517644Y374852D01*
X517509Y375527D01*
X517442Y376211D01*
X517442Y376899D01*
X577442Y516472D02*
X577509Y517156D01*
X577644Y517831D01*
X577843Y518489D01*
X578106Y519125D01*
X578431Y519731D01*
X578813Y520303D01*
X579249Y520835D01*
X579735Y521321D01*
X580267Y521757D01*
X580839Y522139D01*
X581446Y522464D01*
X582081Y522727D01*
X582739Y522926D01*
X583414Y523061D01*
X584098Y523128D01*
X584786Y523128D01*
X585470Y523061D01*
X586145Y522926D01*
X586803Y522727D01*
X587439Y522464D01*
X588045Y522139D01*
X588617Y521757D01*
X589149Y521321D01*
X589635Y520835D01*
X590071Y520303D01*
X590453Y519731D01*
X590778Y519125D01*
X591041Y518489D01*
X591240Y517831D01*
X591375Y517156D01*
X591442Y516472D01*
X591442Y515784D01*
X591375Y515100D01*
X591240Y514425D01*
X591041Y513767D01*
X590778Y513132D01*
X590453Y512525D01*
X590071Y511953D01*
X589635Y511421D01*
X589149Y510935D01*
X588617Y510499D01*
X588045Y510117D01*
X587439Y509792D01*
X586803Y509529D01*
X586145Y509330D01*
X585470Y509195D01*
X584786Y509128D01*
X584098Y509128D01*
X583414Y509195D01*
X582739Y509330D01*
X582081Y509529D01*
X581446Y509792D01*
X580839Y510117D01*
X580267Y510499D01*
X579735Y510935D01*
X579249Y511421D01*
X578813Y511953D01*
X578431Y512525D01*
X578106Y513132D01*
X577843Y513767D01*
X577644Y514425D01*
X577509Y515100D01*
X577442Y515784D01*
X577442Y516472D01*
X517442Y516472D02*
X517509Y517156D01*
X517644Y517831D01*
X517843Y518489D01*
X518106Y519125D01*
X518431Y519731D01*
X518813Y520303D01*
X519249Y520835D01*
X519735Y521321D01*
X520267Y521757D01*
X520839Y522139D01*
X521446Y522464D01*
X522081Y522727D01*
X522739Y522926D01*
X523414Y523061D01*
X524098Y523128D01*
X524786Y523128D01*
X525470Y523061D01*
X526145Y522926D01*
X526803Y522727D01*
X527439Y522464D01*
X528045Y522139D01*
X528617Y521757D01*
X529149Y521321D01*
X529635Y520835D01*
X530071Y520303D01*
X530453Y519731D01*
X530778Y519125D01*
X531041Y518489D01*
X531240Y517831D01*
X531375Y517156D01*
X531442Y516472D01*
X531442Y515784D01*
X531375Y515100D01*
X531240Y514425D01*
X531041Y513767D01*
X530778Y513132D01*
X530453Y512525D01*
X530071Y511953D01*
X529635Y511421D01*
X529149Y510935D01*
X528617Y510499D01*
X528045Y510117D01*
X527439Y509792D01*
X526803Y509529D01*
X526145Y509330D01*
X525470Y509195D01*
X524786Y509128D01*
X524098Y509128D01*
X523414Y509195D01*
X522739Y509330D01*
X522081Y509529D01*
X521446Y509792D01*
X520839Y510117D01*
X520267Y510499D01*
X519735Y510935D01*
X519249Y511421D01*
X518813Y511953D01*
X518431Y512525D01*
X518106Y513132D01*
X517843Y513767D01*
X517644Y514425D01*
X517509Y515100D01*
X517442Y515784D01*
X517442Y516472D01*
X495521Y28780D02*
X496261Y28715D01*
X496992Y28586D01*
X497708Y28394D01*
X498406Y28140D01*
X499079Y27827D01*
X499721Y27456D01*
X500329Y27030D01*
X500898Y26553D01*
X501423Y26028D01*
X501900Y25459D01*
X502326Y24851D01*
X502697Y24209D01*
X503010Y23536D01*
X503264Y22838D01*
X503456Y22122D01*
X503585Y21391D01*
X503650Y20651D01*
X503650Y19909D01*
X503585Y19169D01*
X503456Y18439D01*
X503264Y17722D01*
X503010Y17024D01*
X502697Y16351D01*
X502326Y15709D01*
X501900Y15101D01*
X501423Y14532D01*
X500898Y14007D01*
X500329Y13530D01*
X499721Y13104D01*
X499079Y12733D01*
X498406Y12420D01*
X497708Y12166D01*
X496992Y11974D01*
X496261Y11845D01*
X495521Y11780D01*
X494779Y11780D01*
X494039Y11845D01*
X493309Y11974D01*
X492592Y12166D01*
X491894Y12420D01*
X491221Y12733D01*
X490579Y13104D01*
X489971Y13530D01*
X489402Y14007D01*
X488877Y14532D01*
X488400Y15101D01*
X487974Y15709D01*
X487603Y16351D01*
X487290Y17024D01*
X487036Y17722D01*
X486844Y18439D01*
X486715Y19169D01*
X486650Y19909D01*
X486650Y20651D01*
X486715Y21391D01*
X486844Y22122D01*
X487036Y22838D01*
X487290Y23536D01*
X487603Y24209D01*
X487974Y24851D01*
X488400Y25459D01*
X488877Y26028D01*
X489402Y26553D01*
X489971Y27030D01*
X490579Y27456D01*
X491221Y27827D01*
X491894Y28140D01*
X492592Y28394D01*
X493309Y28586D01*
X494039Y28715D01*
X494779Y28780D01*
X495521Y28780D01*
X495543Y74280D02*
X496326Y74212D01*
X497100Y74075D01*
X497859Y73872D01*
X498597Y73603D01*
X499310Y73271D01*
X499990Y72878D01*
X500634Y72427D01*
X501236Y71922D01*
X501792Y71366D01*
X502297Y70764D01*
X502748Y70120D01*
X503141Y69440D01*
X503473Y68727D01*
X503742Y67989D01*
X503945Y67230D01*
X504082Y66456D01*
X504150Y65673D01*
X504150Y64887D01*
X504082Y64104D01*
X503945Y63330D01*
X503742Y62571D01*
X503473Y61833D01*
X503141Y61120D01*
X502748Y60440D01*
X502297Y59796D01*
X501792Y59194D01*
X501236Y58638D01*
X500634Y58133D01*
X499990Y57682D01*
X499310Y57289D01*
X498597Y56957D01*
X497859Y56688D01*
X497100Y56485D01*
X496326Y56349D01*
X495543Y56280D01*
X494757Y56280D01*
X493974Y56349D01*
X493200Y56485D01*
X492441Y56688D01*
X491703Y56957D01*
X490990Y57289D01*
X490310Y57682D01*
X489666Y58133D01*
X489064Y58638D01*
X488508Y59194D01*
X488003Y59796D01*
X487552Y60440D01*
X487159Y61120D01*
X486827Y61833D01*
X486558Y62571D01*
X486355Y63330D01*
X486219Y64104D01*
X486150Y64887D01*
X486150Y65673D01*
X486219Y66456D01*
X486355Y67230D01*
X486558Y67989D01*
X486827Y68727D01*
X487159Y69440D01*
X487552Y70120D01*
X488003Y70764D01*
X488508Y71366D01*
X489064Y71922D01*
X489666Y72427D01*
X490310Y72878D01*
X490990Y73271D01*
X491703Y73603D01*
X492441Y73872D01*
X493200Y74075D01*
X493974Y74212D01*
X494757Y74280D01*
X495543Y74280D01*
M02*
