G04 EAGLE Gerber RS-274X export*
G75*
%MOMM*%
%FSLAX34Y34*%
%LPD*%
%INSilkscreen Top*%
%IPPOS*%
%AMOC8*
5,1,8,0,0,1.08239X$1,22.5*%
G01*
%ADD10C,0.203200*%
%ADD11C,0.076200*%
%ADD12C,0.152400*%
%ADD13C,0.304800*%
%ADD14C,0.500000*%
%ADD15C,0.120000*%
%ADD16C,0.127000*%
%ADD17R,0.250000X0.250000*%
%ADD18C,0.300000*%
%ADD19C,0.400000*%
%ADD20C,0.101600*%
%ADD21C,0.200000*%
%ADD22C,0.100000*%
%ADD23C,0.254000*%
%ADD24R,2.100000X0.300000*%

G36*
X236379Y584153D02*
X236379Y584153D01*
X236380Y584152D01*
X237289Y584208D01*
X237291Y584210D01*
X237292Y584208D01*
X238129Y584307D01*
X238131Y584309D01*
X238131Y584308D01*
X238697Y584400D01*
X238699Y584401D01*
X238700Y584400D01*
X239459Y584560D01*
X239460Y584561D01*
X239461Y584560D01*
X239951Y584685D01*
X239952Y584686D01*
X239953Y584685D01*
X240761Y584928D01*
X240762Y584930D01*
X240763Y584929D01*
X241304Y585121D01*
X241304Y585122D01*
X241305Y585122D01*
X241807Y585322D01*
X241808Y585323D01*
X241809Y585322D01*
X242698Y585730D01*
X242700Y585732D01*
X242701Y585732D01*
X243618Y586234D01*
X243619Y586236D01*
X243621Y586235D01*
X243994Y586465D01*
X243995Y586467D01*
X243996Y586467D01*
X244828Y587043D01*
X244829Y587045D01*
X244831Y587045D01*
X245439Y587526D01*
X245439Y587528D01*
X245441Y587528D01*
X245873Y587905D01*
X245873Y587906D01*
X245874Y587906D01*
X246339Y588348D01*
X246339Y588350D01*
X246341Y588350D01*
X246780Y588817D01*
X246780Y588819D01*
X246781Y588819D01*
X247369Y589514D01*
X247369Y589516D01*
X247371Y589516D01*
X247795Y590084D01*
X247795Y590086D01*
X247797Y590086D01*
X248190Y590676D01*
X248189Y590677D01*
X248191Y590678D01*
X248486Y591170D01*
X248485Y591171D01*
X248487Y591171D01*
X248730Y591615D01*
X248730Y591616D01*
X248731Y591617D01*
X249029Y592222D01*
X249029Y592224D01*
X249031Y592224D01*
X249363Y592999D01*
X249362Y593002D01*
X249364Y593002D01*
X249735Y594052D01*
X249734Y594054D01*
X249736Y594055D01*
X250031Y595128D01*
X250030Y595131D01*
X250032Y595131D01*
X250227Y596090D01*
X250226Y596092D01*
X250227Y596093D01*
X250365Y597130D01*
X250364Y597132D01*
X250365Y597133D01*
X250421Y597940D01*
X250420Y597942D01*
X250421Y597943D01*
X250435Y598516D01*
X250434Y598518D01*
X250435Y598519D01*
X250409Y599227D01*
X250408Y599228D01*
X250409Y599230D01*
X250344Y599935D01*
X250342Y599936D01*
X250343Y599937D01*
X250282Y600371D01*
X250280Y600373D01*
X250281Y600374D01*
X250122Y601168D01*
X250119Y601170D01*
X250121Y601172D01*
X249885Y601981D01*
X249883Y601983D01*
X249884Y601985D01*
X249733Y602396D01*
X249732Y602398D01*
X249732Y602399D01*
X249547Y602833D01*
X249544Y602834D01*
X249545Y602836D01*
X249124Y603644D01*
X249122Y603645D01*
X249122Y603646D01*
X248878Y604051D01*
X248877Y604051D01*
X248877Y604053D01*
X248443Y604696D01*
X248441Y604697D01*
X248442Y604698D01*
X247848Y605476D01*
X247846Y605476D01*
X247846Y605478D01*
X247253Y606169D01*
X247252Y606170D01*
X247252Y606171D01*
X246842Y606618D01*
X246840Y606619D01*
X246841Y606620D01*
X245862Y607597D01*
X245860Y607597D01*
X245860Y607599D01*
X244356Y608953D01*
X244354Y608954D01*
X244354Y608955D01*
X243519Y609638D01*
X243517Y609638D01*
X243517Y609639D01*
X242979Y610046D01*
X242978Y610046D01*
X242978Y610048D01*
X241922Y610775D01*
X241920Y610775D01*
X241919Y610776D01*
X240967Y611351D01*
X240964Y611351D01*
X240964Y611353D01*
X239978Y611869D01*
X239976Y611869D01*
X239975Y611870D01*
X239485Y612096D01*
X239484Y612095D01*
X239483Y612097D01*
X238703Y612416D01*
X238700Y612415D01*
X238700Y612417D01*
X237805Y612720D01*
X237804Y612719D01*
X237803Y612721D01*
X237414Y612831D01*
X237412Y612831D01*
X237412Y612832D01*
X236623Y613017D01*
X236622Y613016D01*
X236621Y613017D01*
X236256Y613085D01*
X236255Y613084D01*
X236254Y613085D01*
X235519Y613185D01*
X235516Y613183D01*
X235515Y613185D01*
X234539Y613248D01*
X234536Y613247D01*
X234535Y613248D01*
X233827Y613235D01*
X233825Y613234D01*
X233824Y613235D01*
X233488Y613212D01*
X233486Y613211D01*
X233486Y613212D01*
X232782Y613132D01*
X232780Y613130D01*
X232779Y613131D01*
X232314Y613052D01*
X232312Y613050D01*
X232310Y613051D01*
X231457Y612850D01*
X231455Y612848D01*
X231453Y612849D01*
X230554Y612560D01*
X230553Y612558D01*
X230552Y612559D01*
X230174Y612413D01*
X230173Y612412D01*
X230172Y612412D01*
X229370Y612057D01*
X229369Y612055D01*
X229367Y612056D01*
X228414Y611549D01*
X228413Y611547D01*
X228411Y611548D01*
X227693Y611105D01*
X227692Y611104D01*
X227691Y611104D01*
X227300Y610839D01*
X227300Y610838D01*
X227299Y610838D01*
X226565Y610299D01*
X226564Y610297D01*
X226563Y610298D01*
X226089Y609918D01*
X226088Y609917D01*
X226087Y609917D01*
X225175Y609115D01*
X225175Y609113D01*
X225174Y609113D01*
X224711Y608670D01*
X224711Y608669D01*
X224710Y608669D01*
X223867Y607794D01*
X223867Y607792D01*
X223866Y607792D01*
X221806Y605427D01*
X220804Y604334D01*
X220241Y603754D01*
X219685Y603215D01*
X218100Y601801D01*
X218100Y601799D01*
X218099Y601799D01*
X217549Y601251D01*
X217549Y601248D01*
X217547Y601248D01*
X217105Y600738D01*
X217105Y600736D01*
X217103Y600736D01*
X216839Y600386D01*
X216839Y600383D01*
X216837Y600383D01*
X216560Y599960D01*
X216560Y599957D01*
X216558Y599957D01*
X216377Y599633D01*
X216377Y599630D01*
X216376Y599629D01*
X216374Y599629D01*
X216119Y599041D01*
X216119Y599039D01*
X216118Y599038D01*
X216120Y599036D01*
X216117Y599035D01*
X215950Y598452D01*
X215951Y598449D01*
X215949Y598447D01*
X215948Y598447D01*
X215891Y598114D01*
X215893Y598111D01*
X215891Y598109D01*
X215851Y597504D01*
X215854Y597500D01*
X215851Y597497D01*
X215876Y597093D01*
X215879Y597091D01*
X215877Y597089D01*
X215969Y596489D01*
X215972Y596486D01*
X215970Y596484D01*
X216069Y596092D01*
X216071Y596090D01*
X216070Y596089D01*
X216206Y595672D01*
X216208Y595670D01*
X216208Y595669D01*
X216358Y595293D01*
X216360Y595292D01*
X216359Y595290D01*
X216531Y594924D01*
X216534Y594922D01*
X216533Y594920D01*
X216838Y594395D01*
X216840Y594394D01*
X216840Y594392D01*
X217051Y594087D01*
X217054Y594086D01*
X217053Y594084D01*
X217630Y593379D01*
X217633Y593379D01*
X217632Y593377D01*
X218000Y592982D01*
X218002Y592981D01*
X218001Y592980D01*
X218673Y592316D01*
X218674Y592316D01*
X218674Y592315D01*
X219882Y591186D01*
X219883Y591186D01*
X219883Y591185D01*
X220469Y590677D01*
X220471Y590677D01*
X220471Y590676D01*
X220970Y590274D01*
X220971Y590274D01*
X220971Y590273D01*
X221780Y589665D01*
X221781Y589665D01*
X221782Y589663D01*
X223365Y588573D01*
X223366Y588573D01*
X223366Y588572D01*
X224478Y587868D01*
X224479Y587868D01*
X224479Y587867D01*
X225088Y587505D01*
X225089Y587505D01*
X225089Y587504D01*
X226149Y586912D01*
X226150Y586912D01*
X226151Y586911D01*
X226869Y586538D01*
X226870Y586538D01*
X226870Y586537D01*
X227630Y586172D01*
X227631Y586172D01*
X227632Y586171D01*
X228651Y585723D01*
X228652Y585723D01*
X228653Y585722D01*
X229849Y585262D01*
X229851Y585262D01*
X229851Y585261D01*
X230426Y585066D01*
X230427Y585066D01*
X230428Y585065D01*
X231463Y584759D01*
X231464Y584759D01*
X231465Y584758D01*
X232054Y584610D01*
X232055Y584610D01*
X232056Y584609D01*
X233046Y584402D01*
X233048Y584403D01*
X233048Y584402D01*
X233547Y584320D01*
X233549Y584320D01*
X233549Y584319D01*
X234353Y584220D01*
X234355Y584221D01*
X234355Y584220D01*
X235298Y584156D01*
X235300Y584157D01*
X235301Y584156D01*
X235840Y584152D01*
X235860Y584167D01*
X235871Y584152D01*
X236377Y584152D01*
X236379Y584153D01*
G37*
%LPC*%
G36*
X235955Y584425D02*
X235955Y584425D01*
X235316Y584422D01*
X234477Y584478D01*
X233843Y584549D01*
X232847Y584713D01*
X231862Y584933D01*
X231310Y585080D01*
X230344Y585376D01*
X229804Y585565D01*
X228799Y585953D01*
X228149Y586231D01*
X226781Y586885D01*
X226216Y587182D01*
X225187Y587760D01*
X224580Y588123D01*
X223526Y588789D01*
X222856Y589239D01*
X221781Y589997D01*
X221006Y590590D01*
X220563Y590951D01*
X220179Y591279D01*
X218391Y592968D01*
X217682Y593732D01*
X217447Y594016D01*
X217071Y594530D01*
X216880Y594843D01*
X216600Y595414D01*
X216396Y595946D01*
X216276Y596363D01*
X216173Y596889D01*
X216131Y597253D01*
X216131Y597820D01*
X216169Y598151D01*
X216239Y598510D01*
X216424Y599082D01*
X216649Y599566D01*
X216813Y599857D01*
X217053Y600220D01*
X217488Y600774D01*
X218036Y601363D01*
X218478Y601777D01*
X219190Y602395D01*
X219191Y602396D01*
X219988Y603125D01*
X219988Y603126D01*
X219989Y603126D01*
X220849Y603984D01*
X220849Y603986D01*
X220850Y603986D01*
X221654Y604850D01*
X221654Y604851D01*
X221655Y604851D01*
X222260Y605531D01*
X222260Y605532D01*
X222261Y605532D01*
X223984Y607518D01*
X224842Y608421D01*
X225427Y608978D01*
X226186Y609644D01*
X226923Y610231D01*
X227386Y610567D01*
X228085Y611034D01*
X228603Y611345D01*
X228985Y611558D01*
X229647Y611889D01*
X230138Y612106D01*
X230956Y612414D01*
X231599Y612608D01*
X232351Y612784D01*
X232880Y612873D01*
X233817Y612964D01*
X234522Y612979D01*
X235057Y612953D01*
X235926Y612862D01*
X236423Y612780D01*
X236884Y612684D01*
X237761Y612451D01*
X238367Y612251D01*
X239119Y611959D01*
X239672Y611714D01*
X240366Y611370D01*
X241274Y610858D01*
X241760Y610556D01*
X242813Y609832D01*
X243666Y609174D01*
X244183Y608743D01*
X245611Y607457D01*
X246192Y606896D01*
X246705Y606363D01*
X247337Y605663D01*
X247660Y605275D01*
X247972Y604879D01*
X248461Y604196D01*
X248937Y603423D01*
X249234Y602860D01*
X249388Y602525D01*
X249539Y602151D01*
X249741Y601547D01*
X249941Y600732D01*
X250004Y600402D01*
X250105Y599637D01*
X250165Y598563D01*
X250130Y597555D01*
X250093Y597121D01*
X250000Y596387D01*
X249837Y595494D01*
X249714Y594971D01*
X249446Y594032D01*
X249295Y593587D01*
X249105Y593084D01*
X248773Y592312D01*
X248443Y591650D01*
X247953Y590807D01*
X247580Y590248D01*
X247301Y589869D01*
X246815Y589268D01*
X246481Y588891D01*
X245963Y588362D01*
X245644Y588065D01*
X245290Y587754D01*
X244686Y587273D01*
X243772Y586644D01*
X242811Y586090D01*
X242178Y585779D01*
X241216Y585376D01*
X240325Y585073D01*
X239840Y584933D01*
X238990Y584732D01*
X238528Y584644D01*
X237696Y584521D01*
X236658Y584430D01*
X235985Y584426D01*
X235966Y584411D01*
X235955Y584425D01*
G37*
%LPD*%
G36*
X236370Y586042D02*
X236370Y586042D01*
X236378Y586042D01*
X236379Y586042D01*
X236919Y586046D01*
X236921Y586047D01*
X236922Y586046D01*
X237998Y586138D01*
X238000Y586140D01*
X238002Y586138D01*
X239167Y586330D01*
X239168Y586331D01*
X239169Y586330D01*
X239729Y586456D01*
X239730Y586457D01*
X239731Y586457D01*
X240219Y586589D01*
X240220Y586590D01*
X240221Y586589D01*
X240705Y586737D01*
X240706Y586739D01*
X240707Y586738D01*
X241562Y587051D01*
X241564Y587053D01*
X241565Y587052D01*
X242030Y587251D01*
X242031Y587253D01*
X242032Y587252D01*
X242761Y587605D01*
X242762Y587607D01*
X242763Y587606D01*
X243148Y587816D01*
X243149Y587818D01*
X243150Y587818D01*
X243925Y588296D01*
X243926Y588298D01*
X243928Y588298D01*
X244613Y588789D01*
X244614Y588791D01*
X244615Y588791D01*
X244957Y589065D01*
X244958Y589067D01*
X244959Y589067D01*
X245540Y589581D01*
X245540Y589583D01*
X245542Y589583D01*
X245903Y589937D01*
X245904Y589939D01*
X245905Y589939D01*
X246449Y590539D01*
X246449Y590541D01*
X246451Y590541D01*
X246768Y590935D01*
X246769Y590936D01*
X246770Y590936D01*
X247071Y591343D01*
X247071Y591345D01*
X247073Y591345D01*
X247516Y592022D01*
X247516Y592025D01*
X247518Y592025D01*
X247788Y592492D01*
X247788Y592494D01*
X247789Y592494D01*
X248094Y593096D01*
X248093Y593098D01*
X248095Y593099D01*
X248298Y593562D01*
X248298Y593564D01*
X248299Y593565D01*
X248585Y594322D01*
X248585Y594324D01*
X248586Y594324D01*
X248778Y594936D01*
X248777Y594938D01*
X248779Y594939D01*
X248991Y595790D01*
X248990Y595792D01*
X248991Y595793D01*
X249116Y596456D01*
X249115Y596458D01*
X249116Y596458D01*
X249220Y597261D01*
X249219Y597263D01*
X249220Y597265D01*
X249282Y598274D01*
X249280Y598277D01*
X249282Y598278D01*
X249267Y599088D01*
X249266Y599090D01*
X249267Y599091D01*
X249199Y599864D01*
X249198Y599866D01*
X249199Y599867D01*
X249132Y600334D01*
X249131Y600336D01*
X249132Y600337D01*
X249021Y600899D01*
X249019Y600901D01*
X249020Y600903D01*
X248787Y601748D01*
X248784Y601750D01*
X248785Y601752D01*
X248625Y602196D01*
X248623Y602197D01*
X248624Y602199D01*
X248452Y602602D01*
X248450Y602603D01*
X248451Y602605D01*
X248145Y603206D01*
X248142Y603207D01*
X248143Y603209D01*
X247952Y603527D01*
X247949Y603528D01*
X247950Y603530D01*
X247508Y604167D01*
X247505Y604168D01*
X247506Y604170D01*
X247039Y604747D01*
X247038Y604748D01*
X247038Y604749D01*
X246747Y605077D01*
X246745Y605077D01*
X246745Y605078D01*
X246303Y605542D01*
X246301Y605543D01*
X246302Y605544D01*
X245762Y606053D01*
X245760Y606053D01*
X245760Y606055D01*
X245084Y606645D01*
X245083Y606645D01*
X245068Y606647D01*
X245065Y606662D01*
X245063Y606661D01*
X245063Y606663D01*
X244629Y607018D01*
X244627Y607018D01*
X244627Y607019D01*
X243145Y608134D01*
X243143Y608134D01*
X243143Y608135D01*
X242646Y608483D01*
X242644Y608483D01*
X242644Y608484D01*
X241677Y609101D01*
X241676Y609101D01*
X241675Y609103D01*
X240943Y609521D01*
X240942Y609521D01*
X240942Y609522D01*
X240435Y609790D01*
X240433Y609789D01*
X240433Y609791D01*
X239609Y610178D01*
X239607Y610178D01*
X239607Y610179D01*
X239172Y610363D01*
X239170Y610363D01*
X239170Y610364D01*
X238285Y610693D01*
X238283Y610692D01*
X238282Y610694D01*
X237896Y610815D01*
X237894Y610815D01*
X237894Y610816D01*
X236948Y611066D01*
X236946Y611065D01*
X236946Y611067D01*
X236450Y611167D01*
X236448Y611166D01*
X236447Y611168D01*
X235579Y611292D01*
X235576Y611291D01*
X235575Y611293D01*
X234700Y611352D01*
X234698Y611350D01*
X234696Y611352D01*
X233853Y611338D01*
X233850Y611336D01*
X233849Y611338D01*
X233144Y611268D01*
X233142Y611266D01*
X233140Y611268D01*
X232244Y611108D01*
X232242Y611106D01*
X232240Y611107D01*
X231587Y610936D01*
X231586Y610934D01*
X231584Y610935D01*
X230724Y610633D01*
X230723Y610631D01*
X230722Y610632D01*
X230287Y610447D01*
X230286Y610445D01*
X230285Y610446D01*
X229739Y610180D01*
X229738Y610178D01*
X229736Y610179D01*
X229002Y609764D01*
X229001Y609762D01*
X229000Y609762D01*
X228573Y609490D01*
X228573Y609488D01*
X228571Y609489D01*
X227831Y608958D01*
X227830Y608955D01*
X227829Y608955D01*
X226946Y608223D01*
X226946Y608220D01*
X226944Y608221D01*
X226232Y607550D01*
X226232Y607547D01*
X226230Y607547D01*
X225471Y606734D01*
X225470Y606732D01*
X225469Y606732D01*
X224775Y605905D01*
X224775Y605902D01*
X224774Y605902D01*
X223138Y603716D01*
X222026Y602317D01*
X221065Y601234D01*
X219913Y600051D01*
X219913Y600048D01*
X219911Y600048D01*
X219604Y599690D01*
X219604Y599687D01*
X219602Y599687D01*
X219180Y599118D01*
X219180Y599114D01*
X219177Y599114D01*
X218801Y598474D01*
X218802Y598470D01*
X218799Y598470D01*
X218659Y598162D01*
X218660Y598159D01*
X218657Y598158D01*
X218476Y597614D01*
X218477Y597610D01*
X218474Y597609D01*
X218410Y597312D01*
X218412Y597309D01*
X218409Y597308D01*
X218356Y596838D01*
X218358Y596835D01*
X218356Y596833D01*
X218357Y596529D01*
X218358Y596527D01*
X218357Y596525D01*
X218382Y596223D01*
X218385Y596220D01*
X218383Y596218D01*
X218469Y595754D01*
X218472Y595751D01*
X218470Y595749D01*
X218604Y595296D01*
X218607Y595294D01*
X218605Y595292D01*
X218752Y594915D01*
X218755Y594913D01*
X218754Y594911D01*
X218980Y594458D01*
X218982Y594457D01*
X218982Y594455D01*
X219207Y594079D01*
X219210Y594077D01*
X219209Y594075D01*
X219424Y593773D01*
X219427Y593772D01*
X219426Y593770D01*
X219707Y593433D01*
X219710Y593432D01*
X219710Y593430D01*
X220085Y593043D01*
X220088Y593042D01*
X220087Y593041D01*
X220461Y592699D01*
X220463Y592699D01*
X220463Y592698D01*
X221058Y592201D01*
X221060Y592201D01*
X221060Y592200D01*
X222582Y591025D01*
X222584Y591025D01*
X222584Y591023D01*
X223505Y590398D01*
X223507Y590398D01*
X223508Y590396D01*
X224839Y589599D01*
X224840Y589600D01*
X224840Y589598D01*
X225966Y588984D01*
X225967Y588985D01*
X225967Y588984D01*
X226718Y588601D01*
X226720Y588601D01*
X226720Y588600D01*
X227973Y588014D01*
X227974Y588015D01*
X227975Y588013D01*
X229190Y587510D01*
X229191Y587510D01*
X229192Y587509D01*
X230174Y587149D01*
X230175Y587150D01*
X230175Y587149D01*
X230784Y586948D01*
X230785Y586949D01*
X230786Y586948D01*
X231725Y586675D01*
X231726Y586675D01*
X231727Y586674D01*
X232348Y586518D01*
X232350Y586519D01*
X232350Y586518D01*
X233275Y586323D01*
X233276Y586324D01*
X233276Y586323D01*
X233808Y586232D01*
X233809Y586233D01*
X233810Y586232D01*
X234311Y586161D01*
X234312Y586162D01*
X234313Y586161D01*
X235219Y586071D01*
X235221Y586072D01*
X235221Y586071D01*
X235828Y586038D01*
X235830Y586040D01*
X235831Y586038D01*
X236370Y586042D01*
G37*
%LPC*%
G36*
X234204Y588135D02*
X234204Y588135D01*
X233198Y588224D01*
X231799Y588431D01*
X230645Y588667D01*
X229502Y588954D01*
X228854Y589139D01*
X227763Y589485D01*
X226777Y589832D01*
X226276Y590026D01*
X225289Y590456D01*
X224877Y590680D01*
X224214Y591077D01*
X223494Y591572D01*
X222868Y592079D01*
X222572Y592352D01*
X222222Y592711D01*
X221824Y593207D01*
X221641Y593486D01*
X221479Y593778D01*
X221355Y594050D01*
X221253Y594331D01*
X221139Y594818D01*
X221107Y595114D01*
X221105Y595447D01*
X221128Y595711D01*
X221176Y596007D01*
X221255Y596331D01*
X221381Y596712D01*
X221536Y597082D01*
X221793Y597591D01*
X222067Y598052D01*
X222885Y599289D01*
X222885Y599291D01*
X222886Y599291D01*
X223267Y599928D01*
X223267Y599929D01*
X223268Y599929D01*
X223596Y600519D01*
X223596Y600520D01*
X223597Y600520D01*
X224377Y602054D01*
X224377Y602055D01*
X224378Y602055D01*
X225018Y603393D01*
X225497Y604281D01*
X225757Y604713D01*
X226127Y605274D01*
X226563Y605872D01*
X226835Y606213D01*
X227483Y606941D01*
X227888Y607344D01*
X228312Y607727D01*
X228622Y607983D01*
X229187Y608406D01*
X229980Y608912D01*
X230301Y609092D01*
X230753Y609314D01*
X231154Y609484D01*
X231724Y609685D01*
X232175Y609815D01*
X232633Y609916D01*
X233029Y609983D01*
X233664Y610051D01*
X234301Y610077D01*
X234937Y610052D01*
X235806Y609957D01*
X236335Y609867D01*
X237316Y609635D01*
X238344Y609313D01*
X239411Y608904D01*
X239998Y608650D01*
X242162Y607628D01*
X243079Y607132D01*
X243454Y606908D01*
X243986Y606556D01*
X244416Y606233D01*
X244715Y605983D01*
X244715Y605982D01*
X244730Y605981D01*
X244733Y605970D01*
X244733Y605967D01*
X245020Y605703D01*
X245322Y605389D01*
X245541Y605135D01*
X245843Y604735D01*
X246265Y604050D01*
X246604Y603357D01*
X246766Y602953D01*
X246997Y602251D01*
X247195Y601436D01*
X247276Y600973D01*
X247365Y600240D01*
X247409Y599535D01*
X247410Y598898D01*
X247340Y597892D01*
X247233Y597161D01*
X247147Y596734D01*
X246920Y595890D01*
X246769Y595446D01*
X246463Y594701D01*
X246032Y593864D01*
X245808Y593490D01*
X245491Y593016D01*
X245148Y592560D01*
X244626Y591946D01*
X243960Y591283D01*
X243265Y590698D01*
X242835Y590378D01*
X242246Y589988D01*
X241872Y589766D01*
X241158Y589387D01*
X240671Y589162D01*
X240205Y588971D01*
X239476Y588713D01*
X238960Y588561D01*
X238308Y588402D01*
X237514Y588258D01*
X236814Y588171D01*
X235942Y588110D01*
X235471Y588106D01*
X235413Y588106D01*
X234942Y588102D01*
X234204Y588135D01*
G37*
%LPD*%
G36*
X236922Y591523D02*
X236922Y591523D01*
X236925Y591521D01*
X237158Y591552D01*
X237165Y591558D01*
X237170Y591555D01*
X237357Y591631D01*
X237361Y591637D01*
X237366Y591635D01*
X237506Y591729D01*
X237509Y591736D01*
X237514Y591735D01*
X237633Y591854D01*
X237634Y591862D01*
X237639Y591862D01*
X237769Y592058D01*
X237768Y592067D01*
X237774Y592069D01*
X237841Y592260D01*
X237839Y592267D01*
X237844Y592270D01*
X237869Y592471D01*
X237865Y592479D01*
X237869Y592483D01*
X237845Y592684D01*
X237840Y592689D01*
X237843Y592693D01*
X237791Y592853D01*
X237785Y592858D01*
X237787Y592863D01*
X237668Y593066D01*
X237661Y593069D01*
X237661Y593075D01*
X237522Y593221D01*
X237514Y593223D01*
X237514Y593228D01*
X237346Y593341D01*
X237337Y593341D01*
X237335Y593347D01*
X237145Y593416D01*
X237139Y593414D01*
X237136Y593419D01*
X236970Y593446D01*
X236963Y593442D01*
X236959Y593447D01*
X236724Y593431D01*
X236719Y593427D01*
X236715Y593430D01*
X236584Y593395D01*
X236580Y593390D01*
X236576Y593392D01*
X236423Y593322D01*
X236420Y593316D01*
X236415Y593317D01*
X236278Y593219D01*
X236276Y593213D01*
X236272Y593214D01*
X236153Y593094D01*
X236153Y593087D01*
X236148Y593086D01*
X236106Y593025D01*
X228115Y593034D01*
X229581Y597695D01*
X229610Y597746D01*
X231168Y597746D01*
X230131Y594395D01*
X230132Y594395D01*
X230131Y594394D01*
X230133Y594392D01*
X230152Y594339D01*
X230168Y594345D01*
X230178Y594331D01*
X236861Y594313D01*
X237079Y594088D01*
X237089Y594086D01*
X237089Y594080D01*
X237234Y593993D01*
X237241Y593994D01*
X237243Y593989D01*
X237433Y593921D01*
X237441Y593924D01*
X237443Y593919D01*
X237644Y593893D01*
X237652Y593897D01*
X237656Y593892D01*
X237857Y593916D01*
X237862Y593921D01*
X237867Y593918D01*
X238058Y593982D01*
X238063Y593988D01*
X238068Y593986D01*
X238213Y594072D01*
X238216Y594079D01*
X238222Y594078D01*
X238394Y594239D01*
X238396Y594248D01*
X238402Y594249D01*
X238528Y594447D01*
X238528Y594454D01*
X238533Y594456D01*
X238582Y594581D01*
X238580Y594588D01*
X238584Y594590D01*
X238618Y594755D01*
X238617Y594757D01*
X238616Y594758D01*
X238614Y594763D01*
X238619Y594767D01*
X238607Y595036D01*
X238602Y595042D01*
X238605Y595047D01*
X238559Y595209D01*
X238553Y595214D01*
X238555Y595218D01*
X238478Y595368D01*
X238471Y595371D01*
X238472Y595376D01*
X238325Y595560D01*
X238317Y595562D01*
X238317Y595568D01*
X238184Y595671D01*
X238177Y595671D01*
X238176Y595676D01*
X238026Y595752D01*
X238019Y595751D01*
X238018Y595756D01*
X237825Y595815D01*
X237815Y595811D01*
X237810Y595817D01*
X237507Y595817D01*
X237499Y595811D01*
X237493Y595815D01*
X237300Y595758D01*
X237295Y595752D01*
X237290Y595754D01*
X237112Y595659D01*
X237108Y595652D01*
X237103Y595653D01*
X236950Y595521D01*
X236949Y595514D01*
X236944Y595514D01*
X236856Y595401D01*
X231588Y595405D01*
X232307Y597741D01*
X234255Y597746D01*
X234393Y597590D01*
X234398Y597589D01*
X234398Y597585D01*
X234528Y597477D01*
X234535Y597477D01*
X234536Y597471D01*
X234715Y597377D01*
X234722Y597378D01*
X234723Y597373D01*
X234884Y597323D01*
X234893Y597326D01*
X234897Y597321D01*
X235167Y597310D01*
X235175Y597316D01*
X235180Y597311D01*
X235409Y597366D01*
X235415Y597373D01*
X235421Y597371D01*
X235657Y597500D01*
X235661Y597509D01*
X235667Y597508D01*
X235814Y597647D01*
X235815Y597655D01*
X235821Y597655D01*
X235932Y597824D01*
X235932Y597832D01*
X235937Y597833D01*
X236000Y597989D01*
X235998Y597996D01*
X236003Y597998D01*
X236036Y598163D01*
X236033Y598171D01*
X236037Y598174D01*
X236029Y598444D01*
X236022Y598452D01*
X236026Y598457D01*
X235964Y598649D01*
X235960Y598653D01*
X235962Y598656D01*
X235901Y598777D01*
X235894Y598780D01*
X235896Y598785D01*
X235770Y598944D01*
X235762Y598946D01*
X235762Y598952D01*
X235605Y599078D01*
X235600Y599078D01*
X235599Y599082D01*
X235483Y599150D01*
X235475Y599149D01*
X235473Y599155D01*
X235280Y599216D01*
X235274Y599213D01*
X235272Y599217D01*
X235105Y599240D01*
X235098Y599236D01*
X235095Y599240D01*
X234926Y599227D01*
X234922Y599223D01*
X234918Y599226D01*
X234755Y599184D01*
X234750Y599178D01*
X234745Y599180D01*
X234534Y599075D01*
X234529Y599065D01*
X234522Y599066D01*
X234275Y598827D01*
X226710Y598827D01*
X226702Y598829D01*
X226633Y598921D01*
X226626Y598923D01*
X226627Y598928D01*
X226503Y599043D01*
X226495Y599044D01*
X226494Y599049D01*
X226261Y599184D01*
X226252Y599183D01*
X226249Y599189D01*
X226055Y599242D01*
X226046Y599238D01*
X226042Y599243D01*
X225772Y599243D01*
X225764Y599238D01*
X225759Y599242D01*
X225564Y599190D01*
X225559Y599184D01*
X225554Y599186D01*
X225404Y599109D01*
X225401Y599102D01*
X225396Y599103D01*
X225188Y598932D01*
X225186Y598923D01*
X225180Y598923D01*
X225080Y598787D01*
X225080Y598780D01*
X225075Y598779D01*
X225002Y598628D01*
X225002Y598626D01*
X225003Y598624D01*
X225003Y598621D01*
X224998Y598619D01*
X224947Y598423D01*
X224951Y598415D01*
X224946Y598411D01*
X224947Y598141D01*
X224952Y598134D01*
X224948Y598129D01*
X224991Y597966D01*
X224997Y597961D01*
X224995Y597957D01*
X225082Y597775D01*
X225090Y597771D01*
X225088Y597765D01*
X225214Y597607D01*
X225224Y597605D01*
X225224Y597598D01*
X225470Y597422D01*
X225480Y597422D01*
X225482Y597416D01*
X225639Y597355D01*
X225645Y597357D01*
X225648Y597353D01*
X225813Y597323D01*
X225820Y597326D01*
X225824Y597322D01*
X226060Y597331D01*
X226065Y597335D01*
X226066Y597336D01*
X226071Y597333D01*
X226265Y597387D01*
X226271Y597394D01*
X226277Y597392D01*
X226508Y597530D01*
X226512Y597540D01*
X226520Y597539D01*
X226707Y597746D01*
X228457Y597746D01*
X226663Y592006D01*
X226663Y592005D01*
X226662Y592005D01*
X226664Y592002D01*
X226683Y591950D01*
X226699Y591956D01*
X226710Y591942D01*
X236098Y591942D01*
X236211Y591804D01*
X236219Y591802D01*
X236219Y591797D01*
X236377Y591671D01*
X236386Y591671D01*
X236387Y591665D01*
X236633Y591555D01*
X236643Y591557D01*
X236647Y591551D01*
X236880Y591521D01*
X236884Y591523D01*
X236886Y591521D01*
X236918Y591520D01*
X236922Y591523D01*
G37*
G36*
X257765Y587167D02*
X257765Y587167D01*
X262780Y587177D01*
X262828Y587214D01*
X262822Y587221D01*
X262829Y587227D01*
X262829Y596166D01*
X262793Y596214D01*
X262786Y596208D01*
X262780Y596216D01*
X261649Y596213D01*
X261602Y596177D01*
X261607Y596170D01*
X261600Y596164D01*
X261600Y588385D01*
X258361Y588385D01*
X258351Y596151D01*
X258340Y596165D01*
X258345Y596174D01*
X258333Y596196D01*
X258297Y596213D01*
X258290Y596222D01*
X257176Y596222D01*
X257129Y596186D01*
X257135Y596179D01*
X257127Y596173D01*
X257121Y588385D01*
X253864Y588385D01*
X253861Y596158D01*
X253842Y596183D01*
X253842Y596197D01*
X253823Y596212D01*
X253800Y596212D01*
X253792Y596222D01*
X252713Y596222D01*
X252698Y596211D01*
X252688Y596216D01*
X252667Y596203D01*
X252652Y596168D01*
X252642Y596161D01*
X252642Y587221D01*
X252678Y587174D01*
X252686Y587179D01*
X252692Y587172D01*
X257713Y587167D01*
X257765Y587167D01*
X257765Y587167D01*
G37*
G36*
X236692Y599697D02*
X236692Y599697D01*
X236696Y599700D01*
X236698Y599697D01*
X236930Y599738D01*
X236937Y599745D01*
X236943Y599742D01*
X237156Y599845D01*
X237159Y599852D01*
X237165Y599851D01*
X237296Y599957D01*
X237297Y599963D01*
X237302Y599963D01*
X237434Y600115D01*
X237435Y600124D01*
X237437Y600125D01*
X237442Y600126D01*
X237544Y600339D01*
X237543Y600346D01*
X237547Y600348D01*
X237580Y600479D01*
X237578Y600483D01*
X237582Y600485D01*
X237600Y600653D01*
X237596Y600660D01*
X237600Y600664D01*
X237581Y600831D01*
X237576Y600837D01*
X237579Y600842D01*
X237494Y601096D01*
X237486Y601101D01*
X237488Y601107D01*
X237397Y601249D01*
X237390Y601252D01*
X237391Y601257D01*
X237249Y601401D01*
X237241Y601402D01*
X237240Y601408D01*
X237042Y601534D01*
X237033Y601533D01*
X237030Y601539D01*
X236838Y601602D01*
X236831Y601600D01*
X236829Y601604D01*
X236661Y601624D01*
X236654Y601620D01*
X236650Y601624D01*
X236416Y601599D01*
X236411Y601594D01*
X236406Y601597D01*
X236246Y601544D01*
X236242Y601538D01*
X236237Y601540D01*
X236091Y601455D01*
X236089Y601450D01*
X236085Y601451D01*
X235954Y601345D01*
X235953Y601338D01*
X235947Y601338D01*
X235837Y601203D01*
X233385Y601203D01*
X233926Y602928D01*
X239490Y602945D01*
X239628Y602750D01*
X239637Y602747D01*
X239636Y602740D01*
X239792Y602611D01*
X239798Y602610D01*
X239799Y602605D01*
X239917Y602539D01*
X239923Y602540D01*
X239924Y602536D01*
X240114Y602468D01*
X240121Y602470D01*
X240124Y602466D01*
X240291Y602441D01*
X240298Y602445D01*
X240301Y602441D01*
X240469Y602452D01*
X240471Y602454D01*
X240473Y602454D01*
X240475Y602455D01*
X240477Y602453D01*
X240641Y602490D01*
X240646Y602497D01*
X240652Y602494D01*
X240864Y602597D01*
X240868Y602605D01*
X240874Y602604D01*
X241029Y602735D01*
X241030Y602741D01*
X241035Y602741D01*
X241141Y602872D01*
X241141Y602880D01*
X241147Y602881D01*
X241238Y603062D01*
X241237Y603069D01*
X241241Y603071D01*
X241294Y603266D01*
X241290Y603275D01*
X241294Y603278D01*
X241293Y603278D01*
X241296Y603279D01*
X241294Y603549D01*
X241288Y603556D01*
X241292Y603561D01*
X241248Y603724D01*
X241242Y603728D01*
X241245Y603733D01*
X241141Y603945D01*
X241133Y603949D01*
X241134Y603956D01*
X241024Y604083D01*
X241019Y604085D01*
X241019Y604088D01*
X240892Y604199D01*
X240885Y604199D01*
X240884Y604205D01*
X240737Y604287D01*
X240730Y604286D01*
X240729Y604291D01*
X240537Y604356D01*
X240527Y604353D01*
X240523Y604359D01*
X240254Y604370D01*
X240247Y604365D01*
X240243Y604369D01*
X240077Y604339D01*
X240073Y604334D01*
X240069Y604336D01*
X239911Y604276D01*
X239908Y604270D01*
X239903Y604272D01*
X239760Y604183D01*
X239758Y604176D01*
X239752Y604177D01*
X239594Y604026D01*
X239581Y604026D01*
X233173Y604026D01*
X233129Y603992D01*
X233126Y603991D01*
X232239Y601203D01*
X230690Y601189D01*
X231985Y605355D01*
X240292Y605355D01*
X240301Y605354D01*
X240433Y605185D01*
X240440Y605184D01*
X240440Y605178D01*
X240567Y605068D01*
X240576Y605068D01*
X240578Y605062D01*
X240759Y604972D01*
X240765Y604973D01*
X240767Y604968D01*
X240961Y604913D01*
X240970Y604916D01*
X240971Y604916D01*
X240975Y604911D01*
X241244Y604910D01*
X241252Y604916D01*
X241257Y604911D01*
X241452Y604966D01*
X241456Y604971D01*
X241460Y604969D01*
X241612Y605042D01*
X241615Y605048D01*
X241619Y605046D01*
X241729Y605124D01*
X241731Y605131D01*
X241736Y605130D01*
X241876Y605277D01*
X241876Y605284D01*
X241882Y605284D01*
X241972Y605427D01*
X241971Y605433D01*
X241976Y605434D01*
X242027Y605559D01*
X242025Y605564D01*
X242029Y605565D01*
X242072Y605728D01*
X242068Y605738D01*
X242071Y605740D01*
X242073Y605742D01*
X242069Y606011D01*
X242063Y606018D01*
X242067Y606024D01*
X242012Y606218D01*
X242006Y606222D01*
X242008Y606227D01*
X241933Y606377D01*
X241927Y606380D01*
X241928Y606385D01*
X241827Y606520D01*
X241819Y606522D01*
X241819Y606528D01*
X241665Y606658D01*
X241659Y606658D01*
X241658Y606663D01*
X241513Y606749D01*
X241505Y606748D01*
X241503Y606753D01*
X241309Y606813D01*
X241303Y606810D01*
X241301Y606814D01*
X241134Y606835D01*
X241126Y606831D01*
X241122Y606835D01*
X240921Y606814D01*
X240915Y606808D01*
X240911Y606811D01*
X240688Y606734D01*
X240683Y606728D01*
X240678Y606730D01*
X240535Y606640D01*
X240533Y606635D01*
X240529Y606636D01*
X240427Y606548D01*
X240425Y606541D01*
X240420Y606541D01*
X240347Y606450D01*
X240339Y606449D01*
X231236Y606448D01*
X231192Y606414D01*
X231189Y606413D01*
X229223Y600179D01*
X229223Y600178D01*
X229222Y600177D01*
X229224Y600175D01*
X229243Y600123D01*
X229259Y600129D01*
X229270Y600115D01*
X235841Y600111D01*
X235847Y600111D01*
X235934Y599996D01*
X235941Y599993D01*
X235940Y599988D01*
X236067Y599877D01*
X236075Y599876D01*
X236076Y599871D01*
X236252Y599773D01*
X236259Y599774D01*
X236260Y599769D01*
X236420Y599715D01*
X236429Y599718D01*
X236432Y599713D01*
X236667Y599696D01*
X236671Y599698D01*
X236673Y599696D01*
X236692Y599697D01*
G37*
G36*
X295938Y597622D02*
X295938Y597622D01*
X295944Y597642D01*
X295928Y597683D01*
X295928Y597693D01*
X292781Y600409D01*
X293443Y600428D01*
X293447Y600432D01*
X293449Y600429D01*
X293682Y600468D01*
X293686Y600472D01*
X293688Y600470D01*
X294043Y600576D01*
X294046Y600580D01*
X294049Y600578D01*
X294235Y600658D01*
X294237Y600662D01*
X294240Y600661D01*
X294503Y600812D01*
X294504Y600816D01*
X294507Y600815D01*
X294751Y600996D01*
X294752Y601000D01*
X294755Y600999D01*
X294931Y601157D01*
X294931Y601161D01*
X294935Y601161D01*
X295178Y601441D01*
X295178Y601446D01*
X295182Y601447D01*
X295458Y601870D01*
X295457Y601876D01*
X295461Y601877D01*
X295659Y602305D01*
X295659Y602309D01*
X295661Y602310D01*
X295758Y602597D01*
X295757Y602600D01*
X295760Y602601D01*
X295825Y602863D01*
X295823Y602867D01*
X295826Y602868D01*
X295893Y603369D01*
X295891Y603374D01*
X295894Y603376D01*
X295891Y603916D01*
X295889Y603919D01*
X295891Y603921D01*
X295860Y604189D01*
X295858Y604191D01*
X295859Y604193D01*
X295795Y604524D01*
X295792Y604526D01*
X295793Y604529D01*
X295707Y604820D01*
X295705Y604822D01*
X295706Y604824D01*
X295582Y605138D01*
X295579Y605139D01*
X295580Y605142D01*
X295427Y605442D01*
X295423Y605444D01*
X295424Y605447D01*
X295199Y605784D01*
X295196Y605785D01*
X295196Y605788D01*
X295048Y605971D01*
X295044Y605972D01*
X295044Y605975D01*
X294855Y606166D01*
X294851Y606167D01*
X294851Y606170D01*
X294643Y606342D01*
X294640Y606342D01*
X294639Y606345D01*
X294415Y606495D01*
X294411Y606495D01*
X294410Y606498D01*
X294141Y606638D01*
X294137Y606637D01*
X294136Y606640D01*
X293947Y606713D01*
X293943Y606712D01*
X293942Y606714D01*
X293682Y606784D01*
X293678Y606783D01*
X293677Y606785D01*
X293411Y606829D01*
X293405Y606826D01*
X293403Y606830D01*
X286319Y606836D01*
X286271Y606801D01*
X286277Y606793D01*
X286269Y606787D01*
X286267Y605576D01*
X286277Y605562D01*
X286272Y605553D01*
X286284Y605531D01*
X286321Y605513D01*
X286327Y605504D01*
X293405Y605498D01*
X293623Y605442D01*
X293888Y605316D01*
X294074Y605182D01*
X294217Y605050D01*
X294455Y604734D01*
X294590Y604471D01*
X294686Y604190D01*
X294732Y603965D01*
X294755Y603735D01*
X294754Y603505D01*
X294689Y603079D01*
X294599Y602798D01*
X294414Y602448D01*
X294278Y602265D01*
X294042Y602037D01*
X293705Y601835D01*
X293521Y601771D01*
X293365Y601736D01*
X286319Y601729D01*
X286272Y601693D01*
X286275Y601689D01*
X286272Y601687D01*
X286275Y601683D01*
X286270Y601680D01*
X286267Y597635D01*
X286303Y597588D01*
X286311Y597594D01*
X286316Y597586D01*
X286822Y597586D01*
X286856Y597586D01*
X287356Y597592D01*
X287403Y597629D01*
X287398Y597636D01*
X287405Y597641D01*
X287411Y600419D01*
X290886Y600419D01*
X294143Y597614D01*
X294151Y597613D01*
X294152Y597608D01*
X294180Y597592D01*
X294197Y597595D01*
X294203Y597586D01*
X295890Y597586D01*
X295938Y597622D01*
G37*
G36*
X265181Y597597D02*
X265181Y597597D01*
X265228Y597634D01*
X265222Y597641D01*
X265229Y597646D01*
X265238Y604981D01*
X273118Y597619D01*
X273123Y597619D01*
X273123Y597615D01*
X273149Y597596D01*
X273171Y597597D01*
X273178Y597587D01*
X274156Y597586D01*
X274180Y597604D01*
X274193Y597603D01*
X274209Y597621D01*
X274211Y597646D01*
X274221Y597653D01*
X274215Y606762D01*
X274202Y606779D01*
X274206Y606791D01*
X274191Y606810D01*
X274160Y606820D01*
X274152Y606831D01*
X273075Y606834D01*
X273028Y606798D01*
X273033Y606791D01*
X273026Y606785D01*
X273020Y599442D01*
X265120Y606814D01*
X265094Y606816D01*
X265086Y606827D01*
X264088Y606820D01*
X264041Y606784D01*
X264047Y606776D01*
X264039Y606771D01*
X264033Y597663D01*
X264038Y597656D01*
X264035Y597652D01*
X264041Y597625D01*
X264086Y597586D01*
X264088Y597588D01*
X264089Y597586D01*
X264628Y597586D01*
X264651Y597586D01*
X264652Y597587D01*
X264652Y597586D01*
X265181Y597597D01*
G37*
G36*
X280254Y587167D02*
X280254Y587167D01*
X285002Y587175D01*
X285050Y587211D01*
X285044Y587219D01*
X285051Y587225D01*
X285049Y588336D01*
X285013Y588383D01*
X285006Y588377D01*
X285000Y588385D01*
X277849Y588385D01*
X285028Y595564D01*
X285030Y595575D01*
X285030Y595576D01*
X285032Y595590D01*
X285043Y595598D01*
X285051Y596168D01*
X285016Y596216D01*
X285008Y596210D01*
X285002Y596218D01*
X275494Y596222D01*
X275477Y596210D01*
X275466Y596214D01*
X275446Y596200D01*
X275435Y596167D01*
X275424Y596159D01*
X275432Y595053D01*
X275468Y595006D01*
X275475Y595012D01*
X275481Y595004D01*
X282638Y595004D01*
X275446Y587812D01*
X275444Y587794D01*
X275433Y587789D01*
X275426Y587758D01*
X275429Y587750D01*
X275424Y587746D01*
X275433Y587215D01*
X275470Y587168D01*
X275477Y587174D01*
X275482Y587167D01*
X280254Y587167D01*
X280254Y587167D01*
G37*
G36*
X274175Y587183D02*
X274175Y587183D01*
X274189Y587181D01*
X274206Y587197D01*
X274210Y587225D01*
X274220Y587233D01*
X274210Y588336D01*
X274174Y588383D01*
X274166Y588377D01*
X274161Y588385D01*
X270073Y588385D01*
X270080Y595004D01*
X274146Y595004D01*
X274157Y595012D01*
X274164Y595007D01*
X274188Y595017D01*
X274215Y595059D01*
X274220Y595063D01*
X274218Y596173D01*
X274182Y596221D01*
X274174Y596215D01*
X274168Y596222D01*
X264083Y596222D01*
X264035Y596186D01*
X264041Y596178D01*
X264033Y596173D01*
X264033Y595059D01*
X264069Y595012D01*
X264077Y595018D01*
X264082Y595010D01*
X268775Y594995D01*
X268775Y588385D01*
X264097Y588385D01*
X264072Y588365D01*
X264058Y588365D01*
X264044Y588346D01*
X264043Y588324D01*
X264033Y588316D01*
X264033Y587237D01*
X264045Y587222D01*
X264040Y587211D01*
X264053Y587190D01*
X264088Y587177D01*
X264095Y587167D01*
X274154Y587167D01*
X274175Y587183D01*
G37*
G36*
X257719Y597680D02*
X257719Y597680D01*
X257750Y597680D01*
X262774Y597684D01*
X262822Y597720D01*
X262816Y597728D01*
X262824Y597733D01*
X262824Y598847D01*
X262788Y598894D01*
X262780Y598888D01*
X262775Y598896D01*
X253861Y598912D01*
X253861Y601596D01*
X262769Y601602D01*
X262817Y601638D01*
X262811Y601645D01*
X262818Y601651D01*
X262824Y602758D01*
X262800Y602790D01*
X262798Y602802D01*
X262776Y602814D01*
X262759Y602811D01*
X262753Y602820D01*
X252700Y602826D01*
X252653Y602790D01*
X252659Y602782D01*
X252651Y602777D01*
X252644Y597727D01*
X252680Y597679D01*
X252687Y597685D01*
X252693Y597677D01*
X257719Y597680D01*
G37*
G36*
X285002Y597678D02*
X285002Y597678D01*
X285050Y597714D01*
X285044Y597722D01*
X285052Y597727D01*
X285052Y598841D01*
X285036Y598861D01*
X285038Y598874D01*
X285022Y598892D01*
X284994Y598896D01*
X284986Y598907D01*
X276654Y598907D01*
X276654Y601594D01*
X285002Y601597D01*
X285050Y601632D01*
X285044Y601640D01*
X285052Y601646D01*
X285052Y602759D01*
X285037Y602778D01*
X285039Y602791D01*
X285024Y602809D01*
X284995Y602815D01*
X284987Y602826D01*
X275479Y602814D01*
X275432Y602778D01*
X275438Y602771D01*
X275430Y602765D01*
X275430Y597740D01*
X275454Y597707D01*
X275456Y597696D01*
X275481Y597683D01*
X275498Y597686D01*
X275504Y597677D01*
X280246Y597677D01*
X285002Y597678D01*
G37*
G36*
X295816Y587173D02*
X295816Y587173D01*
X295823Y587169D01*
X295848Y587177D01*
X295880Y587222D01*
X295882Y587224D01*
X295881Y588336D01*
X295845Y588383D01*
X295837Y588377D01*
X295831Y588385D01*
X287485Y588389D01*
X287490Y591085D01*
X295807Y591085D01*
X295816Y591092D01*
X295822Y591088D01*
X295848Y591096D01*
X295880Y591141D01*
X295882Y591143D01*
X295881Y592254D01*
X295845Y592302D01*
X295838Y592296D01*
X295832Y592304D01*
X286319Y592304D01*
X286272Y592268D01*
X286278Y592260D01*
X286270Y592254D01*
X286267Y587231D01*
X286285Y587207D01*
X286284Y587194D01*
X286302Y587178D01*
X286326Y587177D01*
X286334Y587167D01*
X295808Y587167D01*
X295816Y587173D01*
G37*
G36*
X257702Y605518D02*
X257702Y605518D01*
X257753Y605518D01*
X262774Y605525D01*
X262822Y605561D01*
X262816Y605568D01*
X262824Y605574D01*
X262824Y606687D01*
X262788Y606735D01*
X262780Y606729D01*
X262774Y606736D01*
X252692Y606743D01*
X252644Y606707D01*
X252650Y606699D01*
X252642Y606693D01*
X252642Y605580D01*
X252660Y605557D01*
X252659Y605543D01*
X252677Y605527D01*
X252702Y605525D01*
X252710Y605515D01*
X257702Y605518D01*
G37*
G36*
X284999Y605515D02*
X284999Y605515D01*
X285046Y605551D01*
X285041Y605559D01*
X285048Y605564D01*
X285052Y606674D01*
X285040Y606689D01*
X285045Y606700D01*
X285032Y606721D01*
X284997Y606735D01*
X284990Y606745D01*
X275479Y606736D01*
X275432Y606700D01*
X275438Y606692D01*
X275430Y606687D01*
X275424Y605607D01*
X275429Y605601D01*
X275425Y605597D01*
X275432Y605565D01*
X275458Y605542D01*
X275462Y605529D01*
X275488Y605518D01*
X275501Y605522D01*
X275507Y605515D01*
X280243Y605515D01*
X284999Y605515D01*
G37*
G36*
X295876Y595040D02*
X295876Y595040D01*
X295871Y595048D01*
X295878Y595053D01*
X295882Y596162D01*
X295847Y596210D01*
X295839Y596204D01*
X295833Y596211D01*
X286331Y596222D01*
X286306Y596203D01*
X286292Y596203D01*
X286277Y596185D01*
X286277Y596162D01*
X286267Y596154D01*
X286267Y595075D01*
X286278Y595060D01*
X286273Y595050D01*
X286286Y595029D01*
X286321Y595014D01*
X286328Y595004D01*
X295829Y595004D01*
X295876Y595040D01*
G37*
D10*
X319114Y608076D02*
X319114Y618753D01*
X324452Y618753D01*
X326232Y616974D01*
X326232Y613415D01*
X324452Y611635D01*
X319114Y611635D01*
X332587Y608076D02*
X336146Y608076D01*
X337926Y609856D01*
X337926Y613415D01*
X336146Y615194D01*
X332587Y615194D01*
X330808Y613415D01*
X330808Y609856D01*
X332587Y608076D01*
X342501Y609856D02*
X342501Y615194D01*
X342501Y609856D02*
X344281Y608076D01*
X346061Y609856D01*
X347840Y608076D01*
X349620Y609856D01*
X349620Y615194D01*
X355975Y608076D02*
X359534Y608076D01*
X355975Y608076D02*
X354195Y609856D01*
X354195Y613415D01*
X355975Y615194D01*
X359534Y615194D01*
X361314Y613415D01*
X361314Y611635D01*
X354195Y611635D01*
X365889Y608076D02*
X365889Y615194D01*
X365889Y611635D02*
X369448Y615194D01*
X371228Y615194D01*
X375634Y618753D02*
X375634Y608076D01*
X375634Y618753D02*
X382752Y618753D01*
X379193Y613415D02*
X375634Y613415D01*
X387328Y618753D02*
X389108Y618753D01*
X389108Y608076D01*
X390887Y608076D02*
X387328Y608076D01*
X395124Y609856D02*
X395124Y615194D01*
X395124Y609856D02*
X396904Y608076D01*
X402242Y608076D01*
X402242Y606297D02*
X402242Y615194D01*
X402242Y606297D02*
X400463Y604517D01*
X398683Y604517D01*
X324961Y599703D02*
X324961Y589026D01*
X328520Y596144D02*
X324961Y599703D01*
X328520Y596144D02*
X332079Y599703D01*
X332079Y589026D01*
X336655Y589026D02*
X336655Y599703D01*
X341993Y599703D01*
X343773Y597924D01*
X343773Y596144D01*
X341993Y594365D01*
X343773Y592585D01*
X343773Y590806D01*
X341993Y589026D01*
X336655Y589026D01*
X336655Y594365D02*
X341993Y594365D01*
X360042Y596144D02*
X363601Y589026D01*
X367161Y596144D01*
X371736Y596144D02*
X375295Y599703D01*
X375295Y589026D01*
X371736Y589026D02*
X378854Y589026D01*
X383430Y589026D02*
X383430Y590806D01*
X385210Y590806D01*
X385210Y589026D01*
X383430Y589026D01*
X389277Y596144D02*
X392836Y599703D01*
X392836Y589026D01*
X389277Y589026D02*
X396395Y589026D01*
D11*
X137907Y596525D02*
X136679Y595297D01*
X137907Y596525D02*
X140365Y596525D01*
X141593Y595297D01*
X141593Y594068D01*
X140365Y592839D01*
X139136Y592839D01*
X140365Y592839D02*
X141593Y591610D01*
X141593Y590382D01*
X140365Y589153D01*
X137907Y589153D01*
X136679Y590382D01*
X144163Y591610D02*
X144163Y596525D01*
X144163Y591610D02*
X146620Y589153D01*
X149078Y591610D01*
X149078Y596525D01*
X151647Y595297D02*
X152876Y596525D01*
X155333Y596525D01*
X156562Y595297D01*
X156562Y594068D01*
X155333Y592839D01*
X154104Y592839D01*
X155333Y592839D02*
X156562Y591610D01*
X156562Y590382D01*
X155333Y589153D01*
X152876Y589153D01*
X151647Y590382D01*
X396883Y567589D02*
X396883Y560217D01*
X399341Y565132D02*
X396883Y567589D01*
X399341Y565132D02*
X401798Y567589D01*
X401798Y560217D01*
X405596Y567589D02*
X408053Y567589D01*
X405596Y567589D02*
X404367Y566361D01*
X404367Y561446D01*
X405596Y560217D01*
X408053Y560217D01*
X409282Y561446D01*
X409282Y566361D01*
X408053Y567589D01*
X415538Y567589D02*
X416766Y566361D01*
X415538Y567589D02*
X413080Y567589D01*
X411851Y566361D01*
X411851Y565132D01*
X413080Y563903D01*
X415538Y563903D01*
X416766Y562674D01*
X416766Y561446D01*
X415538Y560217D01*
X413080Y560217D01*
X411851Y561446D01*
X419336Y560217D02*
X421793Y560217D01*
X420564Y560217D02*
X420564Y567589D01*
X419336Y567589D02*
X421793Y567589D01*
X446341Y418255D02*
X446341Y410883D01*
X448798Y415798D02*
X446341Y418255D01*
X448798Y415798D02*
X451256Y418255D01*
X451256Y410883D01*
X453825Y410883D02*
X456283Y410883D01*
X455054Y410883D02*
X455054Y418255D01*
X453825Y418255D02*
X456283Y418255D01*
X462501Y418255D02*
X463729Y417027D01*
X462501Y418255D02*
X460043Y418255D01*
X458815Y417027D01*
X458815Y415798D01*
X460043Y414569D01*
X462501Y414569D01*
X463729Y413340D01*
X463729Y412112D01*
X462501Y410883D01*
X460043Y410883D01*
X458815Y412112D01*
X467527Y418255D02*
X469985Y418255D01*
X467527Y418255D02*
X466299Y417027D01*
X466299Y412112D01*
X467527Y410883D01*
X469985Y410883D01*
X471214Y412112D01*
X471214Y417027D01*
X469985Y418255D01*
X450203Y392755D02*
X451432Y391527D01*
X450203Y392755D02*
X447746Y392755D01*
X446517Y391527D01*
X446517Y386612D01*
X447746Y385383D01*
X450203Y385383D01*
X451432Y386612D01*
X454001Y385383D02*
X454001Y392755D01*
X454001Y385383D02*
X458916Y385383D01*
X461485Y385383D02*
X461485Y392755D01*
X461485Y387840D02*
X466400Y392755D01*
X462714Y389069D02*
X466400Y385383D01*
X406579Y589563D02*
X405351Y590791D01*
X402893Y590791D01*
X401665Y589563D01*
X401665Y584648D01*
X402893Y583419D01*
X405351Y583419D01*
X406579Y584648D01*
X406579Y587105D01*
X404122Y587105D01*
X409149Y583419D02*
X409149Y590791D01*
X414064Y583419D01*
X414064Y590791D01*
X416633Y590791D02*
X416633Y583419D01*
X420319Y583419D01*
X421548Y584648D01*
X421548Y589563D01*
X420319Y590791D01*
X416633Y590791D01*
X140203Y410779D02*
X137745Y410779D01*
X138974Y410779D02*
X138974Y418151D01*
X137745Y418151D02*
X140203Y418151D01*
X142735Y418151D02*
X142735Y410779D01*
X142735Y418151D02*
X146421Y418151D01*
X147649Y416923D01*
X147649Y414465D01*
X146421Y413236D01*
X142735Y413236D01*
X145192Y413236D02*
X147649Y410779D01*
X150219Y412008D02*
X150219Y416923D01*
X151447Y418151D01*
X153905Y418151D01*
X155134Y416923D01*
X155134Y412008D01*
X153905Y410779D01*
X151447Y410779D01*
X150219Y412008D01*
X152676Y413236D02*
X155134Y410779D01*
X157703Y415694D02*
X160160Y418151D01*
X160160Y410779D01*
X157703Y410779D02*
X162618Y410779D01*
X140457Y434747D02*
X137999Y434747D01*
X139228Y434747D02*
X139228Y442119D01*
X137999Y442119D02*
X140457Y442119D01*
X142989Y442119D02*
X142989Y434747D01*
X142989Y442119D02*
X146675Y442119D01*
X147903Y440891D01*
X147903Y438433D01*
X146675Y437204D01*
X142989Y437204D01*
X145446Y437204D02*
X147903Y434747D01*
X150473Y435976D02*
X150473Y440891D01*
X151701Y442119D01*
X154159Y442119D01*
X155388Y440891D01*
X155388Y435976D01*
X154159Y434747D01*
X151701Y434747D01*
X150473Y435976D01*
X152930Y437204D02*
X155388Y434747D01*
X157957Y435976D02*
X157957Y440891D01*
X159186Y442119D01*
X161643Y442119D01*
X162872Y440891D01*
X162872Y435976D01*
X161643Y434747D01*
X159186Y434747D01*
X157957Y435976D01*
X162872Y440891D01*
X133512Y486791D02*
X133512Y494163D01*
X135970Y489248D02*
X133512Y486791D01*
X135970Y489248D02*
X138427Y486791D01*
X138427Y494163D01*
X140997Y491706D02*
X140997Y486791D01*
X140997Y491706D02*
X143454Y494163D01*
X145911Y491706D01*
X145911Y486791D01*
X145911Y490477D02*
X140997Y490477D01*
X148481Y486791D02*
X148481Y494163D01*
X152167Y494163D01*
X153396Y492935D01*
X153396Y490477D01*
X152167Y489248D01*
X148481Y489248D01*
X150938Y489248D02*
X153396Y486791D01*
X155965Y486791D02*
X155965Y494163D01*
X160880Y486791D01*
X160880Y494163D01*
X96091Y10039D02*
X97319Y8811D01*
X96091Y10039D02*
X93633Y10039D01*
X92405Y8811D01*
X92405Y3896D01*
X93633Y2667D01*
X96091Y2667D01*
X97319Y3896D01*
X99889Y2667D02*
X99889Y10039D01*
X104804Y10039D01*
X102346Y6353D02*
X99889Y6353D01*
X111059Y2667D02*
X111059Y10039D01*
X107373Y6353D01*
X112288Y6353D01*
X70846Y8811D02*
X69618Y10039D01*
X67160Y10039D01*
X65931Y8811D01*
X65931Y3896D01*
X67160Y2667D01*
X69618Y2667D01*
X70846Y3896D01*
X73416Y2667D02*
X73416Y10039D01*
X78330Y10039D01*
X75873Y6353D02*
X73416Y6353D01*
X80900Y8811D02*
X82128Y10039D01*
X84586Y10039D01*
X85815Y8811D01*
X85815Y7582D01*
X84586Y6353D01*
X83357Y6353D01*
X84586Y6353D02*
X85815Y5124D01*
X85815Y3896D01*
X84586Y2667D01*
X82128Y2667D01*
X80900Y3896D01*
X45643Y8811D02*
X44414Y10039D01*
X41957Y10039D01*
X40728Y8811D01*
X40728Y3896D01*
X41957Y2667D01*
X44414Y2667D01*
X45643Y3896D01*
X48212Y2667D02*
X48212Y10039D01*
X53127Y10039D01*
X50670Y6353D02*
X48212Y6353D01*
X55697Y2667D02*
X60611Y2667D01*
X55697Y2667D02*
X60611Y7582D01*
X60611Y8811D01*
X59383Y10039D01*
X56925Y10039D01*
X55697Y8811D01*
X20440Y8811D02*
X19211Y10039D01*
X16754Y10039D01*
X15525Y8811D01*
X15525Y3896D01*
X16754Y2667D01*
X19211Y2667D01*
X20440Y3896D01*
X23009Y2667D02*
X23009Y10039D01*
X27924Y10039D01*
X25467Y6353D02*
X23009Y6353D01*
X30493Y7582D02*
X32951Y10039D01*
X32951Y2667D01*
X35408Y2667D02*
X30493Y2667D01*
D12*
X33931Y470107D02*
X44778Y470107D01*
X39355Y475530D02*
X39355Y464684D01*
D11*
X17996Y52203D02*
X13081Y52203D01*
X13081Y44831D01*
X17996Y44831D01*
X15538Y48517D02*
X13081Y48517D01*
X20565Y49746D02*
X20565Y44831D01*
X20565Y49746D02*
X24251Y49746D01*
X25480Y48517D01*
X25480Y44831D01*
X29278Y44831D02*
X31735Y44831D01*
X29278Y44831D02*
X28049Y46060D01*
X28049Y48517D01*
X29278Y49746D01*
X31735Y49746D01*
X32964Y48517D01*
X32964Y47288D01*
X28049Y47288D01*
X35533Y44831D02*
X35533Y49746D01*
X35533Y47288D02*
X37991Y49746D01*
X39220Y49746D01*
X44228Y42374D02*
X45456Y42374D01*
X46685Y43602D01*
X46685Y49746D01*
X42999Y49746D01*
X41770Y48517D01*
X41770Y46060D01*
X42999Y44831D01*
X46685Y44831D01*
X49254Y46060D02*
X49254Y49746D01*
X49254Y46060D02*
X50483Y44831D01*
X54169Y44831D01*
X54169Y43602D02*
X54169Y49746D01*
X54169Y43602D02*
X52941Y42374D01*
X51712Y42374D01*
X64223Y44831D02*
X64223Y52203D01*
X67909Y52203D01*
X69138Y50975D01*
X69138Y48517D01*
X67909Y47288D01*
X64223Y47288D01*
X71707Y46060D02*
X71707Y49746D01*
X71707Y46060D02*
X72936Y44831D01*
X76622Y44831D01*
X76622Y49746D01*
X79191Y52203D02*
X80420Y52203D01*
X80420Y44831D01*
X81648Y44831D02*
X79191Y44831D01*
X84180Y44831D02*
X87867Y44831D01*
X89095Y46060D01*
X87867Y47288D01*
X85409Y47288D01*
X84180Y48517D01*
X85409Y49746D01*
X89095Y49746D01*
X92893Y44831D02*
X95351Y44831D01*
X92893Y44831D02*
X91665Y46060D01*
X91665Y48517D01*
X92893Y49746D01*
X95351Y49746D01*
X96579Y48517D01*
X96579Y47288D01*
X91665Y47288D01*
X450091Y367417D02*
X451320Y366189D01*
X450091Y367417D02*
X447634Y367417D01*
X446405Y366189D01*
X446405Y361274D01*
X447634Y360045D01*
X450091Y360045D01*
X451320Y361274D01*
X457575Y367417D02*
X458804Y366189D01*
X457575Y367417D02*
X455118Y367417D01*
X453889Y366189D01*
X453889Y364960D01*
X455118Y363731D01*
X457575Y363731D01*
X458804Y362502D01*
X458804Y361274D01*
X457575Y360045D01*
X455118Y360045D01*
X453889Y361274D01*
X570351Y10795D02*
X575266Y10795D01*
X577723Y13252D01*
X575266Y15710D01*
X570351Y15710D01*
X572808Y18279D02*
X577723Y18279D01*
X572808Y18279D02*
X570351Y20737D01*
X572808Y23194D01*
X577723Y23194D01*
X574037Y23194D02*
X574037Y18279D01*
X577723Y25763D02*
X577723Y30678D01*
X577723Y25763D02*
X572808Y30678D01*
X571579Y30678D01*
X570351Y29449D01*
X570351Y26992D01*
X571579Y25763D01*
X574037Y33247D02*
X574037Y38162D01*
X576494Y35705D02*
X571579Y35705D01*
X570351Y44831D02*
X575266Y44831D01*
X577723Y47288D01*
X575266Y49746D01*
X570351Y49746D01*
X572808Y52315D02*
X577723Y52315D01*
X572808Y52315D02*
X570351Y54773D01*
X572808Y57230D01*
X577723Y57230D01*
X574037Y57230D02*
X574037Y52315D01*
X577723Y59799D02*
X577723Y64714D01*
X577723Y59799D02*
X572808Y64714D01*
X571579Y64714D01*
X570351Y63485D01*
X570351Y61028D01*
X571579Y59799D01*
X574037Y67283D02*
X574037Y72198D01*
X452968Y150241D02*
X451739Y151470D01*
X452968Y150241D02*
X455425Y150241D01*
X456654Y151470D01*
X456654Y156385D01*
X455425Y157613D01*
X452968Y157613D01*
X451739Y156385D01*
X451739Y155156D01*
X452968Y153927D01*
X456654Y153927D01*
X459223Y153927D02*
X464138Y153927D01*
X466707Y155156D02*
X469165Y157613D01*
X469165Y150241D01*
X471622Y150241D02*
X466707Y150241D01*
X474191Y150241D02*
X479106Y150241D01*
X474191Y150241D02*
X479106Y155156D01*
X479106Y156385D01*
X477878Y157613D01*
X475420Y157613D01*
X474191Y156385D01*
X451739Y145421D02*
X451739Y140506D01*
X454196Y138049D01*
X456654Y140506D01*
X456654Y145421D01*
X459223Y142964D02*
X459223Y138049D01*
X459223Y142964D02*
X461681Y145421D01*
X464138Y142964D01*
X464138Y138049D01*
X464138Y141735D02*
X459223Y141735D01*
X470393Y145421D02*
X471622Y144193D01*
X470393Y145421D02*
X467936Y145421D01*
X466707Y144193D01*
X466707Y139278D01*
X467936Y138049D01*
X470393Y138049D01*
X471622Y139278D01*
X455425Y133229D02*
X452968Y133229D01*
X451739Y132001D01*
X451739Y127086D01*
X452968Y125857D01*
X455425Y125857D01*
X456654Y127086D01*
X456654Y132001D01*
X455425Y133229D01*
X459223Y130772D02*
X459223Y125857D01*
X459223Y130772D02*
X462909Y130772D01*
X464138Y129543D01*
X464138Y125857D01*
X466707Y133229D02*
X467936Y133229D01*
X467936Y125857D01*
X466707Y125857D02*
X469165Y125857D01*
X471697Y127086D02*
X471697Y130772D01*
X471697Y127086D02*
X472925Y125857D01*
X476612Y125857D01*
X476612Y124628D02*
X476612Y130772D01*
X476612Y124628D02*
X475383Y123400D01*
X474154Y123400D01*
D12*
X44778Y330407D02*
X33931Y330407D01*
X39355Y335830D02*
X39355Y324984D01*
X44778Y190707D02*
X33931Y190707D01*
X39355Y196130D02*
X39355Y185284D01*
X554631Y562817D02*
X565478Y562817D01*
X560055Y568240D02*
X560055Y557394D01*
X565478Y423117D02*
X554631Y423117D01*
X560055Y428540D02*
X560055Y417694D01*
X565478Y283417D02*
X554631Y283417D01*
X560055Y288840D02*
X560055Y277994D01*
D11*
X122719Y8811D02*
X121491Y10039D01*
X119033Y10039D01*
X117805Y8811D01*
X117805Y3896D01*
X119033Y2667D01*
X121491Y2667D01*
X122719Y3896D01*
X125289Y2667D02*
X125289Y10039D01*
X130204Y10039D01*
X127746Y6353D02*
X125289Y6353D01*
X132773Y7582D02*
X135230Y10039D01*
X135230Y2667D01*
X132773Y2667D02*
X137688Y2667D01*
X140257Y6353D02*
X145172Y6353D01*
X147741Y2667D02*
X152656Y2667D01*
X147741Y2667D02*
X152656Y7582D01*
X152656Y8811D01*
X151427Y10039D01*
X148970Y10039D01*
X147741Y8811D01*
X148119Y46911D02*
X146891Y48139D01*
X144433Y48139D01*
X143205Y46911D01*
X143205Y41996D01*
X144433Y40767D01*
X146891Y40767D01*
X148119Y41996D01*
X150689Y40767D02*
X150689Y48139D01*
X155604Y48139D01*
X153146Y44453D02*
X150689Y44453D01*
X158173Y40767D02*
X163088Y40767D01*
X158173Y40767D02*
X163088Y45682D01*
X163088Y46911D01*
X161859Y48139D01*
X159402Y48139D01*
X158173Y46911D01*
X165657Y44453D02*
X170572Y44453D01*
X173141Y40767D02*
X178056Y40767D01*
X173141Y40767D02*
X178056Y45682D01*
X178056Y46911D01*
X176827Y48139D01*
X174370Y48139D01*
X173141Y46911D01*
X172291Y10039D02*
X173519Y8811D01*
X172291Y10039D02*
X169833Y10039D01*
X168605Y8811D01*
X168605Y3896D01*
X169833Y2667D01*
X172291Y2667D01*
X173519Y3896D01*
X176089Y2667D02*
X176089Y10039D01*
X181004Y10039D01*
X178546Y6353D02*
X176089Y6353D01*
X183573Y8811D02*
X184802Y10039D01*
X187259Y10039D01*
X188488Y8811D01*
X188488Y7582D01*
X187259Y6353D01*
X186030Y6353D01*
X187259Y6353D02*
X188488Y5124D01*
X188488Y3896D01*
X187259Y2667D01*
X184802Y2667D01*
X183573Y3896D01*
X191057Y6353D02*
X195972Y6353D01*
X198541Y2667D02*
X203456Y2667D01*
X198541Y2667D02*
X203456Y7582D01*
X203456Y8811D01*
X202227Y10039D01*
X199770Y10039D01*
X198541Y8811D01*
X217545Y9243D02*
X218773Y10472D01*
X217545Y9243D02*
X217545Y6785D01*
X218773Y5557D01*
X223688Y5557D01*
X224917Y6785D01*
X224917Y9243D01*
X223688Y10472D01*
X224917Y13041D02*
X217545Y13041D01*
X217545Y17956D01*
X221231Y15498D02*
X221231Y13041D01*
X224917Y24211D02*
X217545Y24211D01*
X221231Y20525D01*
X221231Y25440D01*
X221231Y28009D02*
X221231Y32924D01*
X224917Y35493D02*
X224917Y40408D01*
X224917Y35493D02*
X220002Y40408D01*
X218773Y40408D01*
X217545Y39179D01*
X217545Y36722D01*
X218773Y35493D01*
D13*
X227584Y103124D02*
X194056Y103124D01*
D11*
X450924Y441311D02*
X449695Y442539D01*
X447238Y442539D01*
X446009Y441311D01*
X446009Y436396D01*
X447238Y435167D01*
X449695Y435167D01*
X450924Y436396D01*
X450924Y438853D01*
X448466Y438853D01*
X453493Y435167D02*
X453493Y442539D01*
X458408Y435167D01*
X458408Y442539D01*
X460977Y442539D02*
X460977Y435167D01*
X464663Y435167D01*
X465892Y436396D01*
X465892Y441311D01*
X464663Y442539D01*
X460977Y442539D01*
X147831Y263635D02*
X146603Y264863D01*
X144145Y264863D01*
X142917Y263635D01*
X142917Y258720D01*
X144145Y257491D01*
X146603Y257491D01*
X147831Y258720D01*
X147831Y261177D01*
X145374Y261177D01*
X150401Y257491D02*
X150401Y264863D01*
X155316Y257491D01*
X155316Y264863D01*
X157885Y264863D02*
X157885Y257491D01*
X161571Y257491D01*
X162800Y258720D01*
X162800Y263635D01*
X161571Y264863D01*
X157885Y264863D01*
X450091Y291217D02*
X451320Y289989D01*
X450091Y291217D02*
X447634Y291217D01*
X446405Y289989D01*
X446405Y285074D01*
X447634Y283845D01*
X450091Y283845D01*
X451320Y285074D01*
X457575Y291217D02*
X458804Y289989D01*
X457575Y291217D02*
X455118Y291217D01*
X453889Y289989D01*
X453889Y288760D01*
X455118Y287531D01*
X457575Y287531D01*
X458804Y286302D01*
X458804Y285074D01*
X457575Y283845D01*
X455118Y283845D01*
X453889Y285074D01*
X461373Y283845D02*
X466288Y283845D01*
X461373Y283845D02*
X466288Y288760D01*
X466288Y289989D01*
X465059Y291217D01*
X462602Y291217D01*
X461373Y289989D01*
D12*
X331649Y39885D02*
X320802Y39885D01*
X326225Y45308D02*
X326225Y34462D01*
D11*
X46857Y580647D02*
X48085Y581876D01*
X46857Y580647D02*
X46857Y578190D01*
X48085Y576961D01*
X53000Y576961D01*
X54229Y578190D01*
X54229Y580647D01*
X53000Y581876D01*
X54229Y584445D02*
X54229Y589360D01*
X54229Y584445D02*
X49314Y589360D01*
X48085Y589360D01*
X46857Y588131D01*
X46857Y585674D01*
X48085Y584445D01*
X72257Y580647D02*
X73485Y581876D01*
X72257Y580647D02*
X72257Y578190D01*
X73485Y576961D01*
X78400Y576961D01*
X79629Y578190D01*
X79629Y580647D01*
X78400Y581876D01*
X73485Y584445D02*
X72257Y585674D01*
X72257Y588131D01*
X73485Y589360D01*
X74714Y589360D01*
X75943Y588131D01*
X75943Y586903D01*
X75943Y588131D02*
X77172Y589360D01*
X78400Y589360D01*
X79629Y588131D01*
X79629Y585674D01*
X78400Y584445D01*
X48085Y442176D02*
X46857Y440947D01*
X46857Y438490D01*
X48085Y437261D01*
X53000Y437261D01*
X54229Y438490D01*
X54229Y440947D01*
X53000Y442176D01*
X54229Y448431D02*
X46857Y448431D01*
X50543Y444745D01*
X50543Y449660D01*
X72257Y440947D02*
X73485Y442176D01*
X72257Y440947D02*
X72257Y438490D01*
X73485Y437261D01*
X78400Y437261D01*
X79629Y438490D01*
X79629Y440947D01*
X78400Y442176D01*
X72257Y444745D02*
X72257Y449660D01*
X72257Y444745D02*
X75943Y444745D01*
X74714Y447203D01*
X74714Y448431D01*
X75943Y449660D01*
X78400Y449660D01*
X79629Y448431D01*
X79629Y445974D01*
X78400Y444745D01*
X97657Y437261D02*
X105029Y437261D01*
X97657Y437261D02*
X97657Y440947D01*
X98885Y442176D01*
X101343Y442176D01*
X102572Y440947D01*
X102572Y437261D01*
X102572Y439718D02*
X105029Y442176D01*
X98885Y444745D02*
X97657Y445974D01*
X97657Y448431D01*
X98885Y449660D01*
X100114Y449660D01*
X101343Y448431D01*
X102572Y449660D01*
X103800Y449660D01*
X105029Y448431D01*
X105029Y445974D01*
X103800Y444745D01*
X102572Y444745D01*
X101343Y445974D01*
X100114Y444745D01*
X98885Y444745D01*
X101343Y445974D02*
X101343Y448431D01*
X105029Y576961D02*
X97657Y576961D01*
X97657Y580647D01*
X98885Y581876D01*
X101343Y581876D01*
X102572Y580647D01*
X102572Y576961D01*
X102572Y579418D02*
X105029Y581876D01*
X97657Y584445D02*
X97657Y589360D01*
X98885Y589360D01*
X103800Y584445D01*
X105029Y584445D01*
D14*
X315470Y524240D03*
D15*
X322500Y525300D02*
X322500Y521740D01*
X322500Y525300D02*
X326060Y525300D01*
X392500Y525300D02*
X392500Y521740D01*
X392500Y525300D02*
X388940Y525300D01*
X392500Y458860D02*
X392500Y455300D01*
X388940Y455300D01*
X322500Y455300D02*
X322500Y458860D01*
X322500Y455300D02*
X326060Y455300D01*
D11*
X331551Y495892D02*
X334008Y495892D01*
X332780Y495892D02*
X332780Y503264D01*
X334008Y503264D02*
X331551Y503264D01*
X340227Y503264D02*
X341455Y502036D01*
X340227Y503264D02*
X337769Y503264D01*
X336540Y502036D01*
X336540Y497121D01*
X337769Y495892D01*
X340227Y495892D01*
X341455Y497121D01*
X344025Y500807D02*
X346482Y503264D01*
X346482Y495892D01*
X344025Y495892D02*
X348939Y495892D01*
X334107Y405188D02*
X332879Y403959D01*
X332879Y401502D01*
X334107Y400273D01*
X339022Y400273D01*
X340251Y401502D01*
X340251Y403959D01*
X339022Y405188D01*
X335336Y407757D02*
X332879Y410215D01*
X340251Y410215D01*
X340251Y412672D02*
X340251Y407757D01*
X332879Y415241D02*
X332879Y420156D01*
X332879Y415241D02*
X336565Y415241D01*
X335336Y417699D01*
X335336Y418927D01*
X336565Y420156D01*
X339022Y420156D01*
X340251Y418927D01*
X340251Y416470D01*
X339022Y415241D01*
X263985Y462496D02*
X262757Y461267D01*
X262757Y458810D01*
X263985Y457581D01*
X268900Y457581D01*
X270129Y458810D01*
X270129Y461267D01*
X268900Y462496D01*
X265214Y465065D02*
X262757Y467523D01*
X270129Y467523D01*
X270129Y469980D02*
X270129Y465065D01*
X263985Y472549D02*
X262757Y473778D01*
X262757Y476235D01*
X263985Y477464D01*
X265214Y477464D01*
X266443Y476235D01*
X266443Y475007D01*
X266443Y476235D02*
X267672Y477464D01*
X268900Y477464D01*
X270129Y476235D01*
X270129Y473778D01*
X268900Y472549D01*
X237357Y556517D02*
X238585Y557746D01*
X237357Y556517D02*
X237357Y554060D01*
X238585Y552831D01*
X243500Y552831D01*
X244729Y554060D01*
X244729Y556517D01*
X243500Y557746D01*
X238585Y560315D02*
X237357Y561544D01*
X237357Y564001D01*
X238585Y565230D01*
X239814Y565230D01*
X241043Y564001D01*
X242272Y565230D01*
X243500Y565230D01*
X244729Y564001D01*
X244729Y561544D01*
X243500Y560315D01*
X242272Y560315D01*
X241043Y561544D01*
X239814Y560315D01*
X238585Y560315D01*
X241043Y561544D02*
X241043Y564001D01*
X327527Y552831D02*
X334899Y552831D01*
X327527Y552831D02*
X327527Y556517D01*
X328755Y557746D01*
X331213Y557746D01*
X332442Y556517D01*
X332442Y552831D01*
X332442Y555288D02*
X334899Y557746D01*
X329984Y560315D02*
X327527Y562773D01*
X334899Y562773D01*
X334899Y565230D02*
X334899Y560315D01*
X238585Y462496D02*
X237357Y461267D01*
X237357Y458810D01*
X238585Y457581D01*
X243500Y457581D01*
X244729Y458810D01*
X244729Y461267D01*
X243500Y462496D01*
X239814Y465065D02*
X237357Y467523D01*
X244729Y467523D01*
X244729Y469980D02*
X244729Y465065D01*
X244729Y472549D02*
X244729Y477464D01*
X244729Y472549D02*
X239814Y477464D01*
X238585Y477464D01*
X237357Y476235D01*
X237357Y473778D01*
X238585Y472549D01*
X265255Y430746D02*
X264027Y429517D01*
X264027Y427060D01*
X265255Y425831D01*
X270170Y425831D01*
X271399Y427060D01*
X271399Y429517D01*
X270170Y430746D01*
X266484Y433315D02*
X264027Y435773D01*
X271399Y435773D01*
X271399Y438230D02*
X271399Y433315D01*
X271399Y444485D02*
X264027Y444485D01*
X267713Y440799D01*
X267713Y445714D01*
D10*
X31750Y12700D02*
X19050Y12700D01*
X12700Y19050D01*
X12700Y31750D02*
X19050Y38100D01*
X57150Y12700D02*
X63500Y19050D01*
X57150Y12700D02*
X44450Y12700D01*
X38100Y19050D01*
X38100Y31750D02*
X44450Y38100D01*
X57150Y38100D01*
X63500Y31750D01*
X38100Y19050D02*
X31750Y12700D01*
X38100Y31750D02*
X31750Y38100D01*
X19050Y38100D01*
X95250Y12700D02*
X107950Y12700D01*
X95250Y12700D02*
X88900Y19050D01*
X88900Y31750D02*
X95250Y38100D01*
X88900Y19050D02*
X82550Y12700D01*
X69850Y12700D01*
X63500Y19050D01*
X63500Y31750D02*
X69850Y38100D01*
X82550Y38100D01*
X88900Y31750D01*
X114300Y31750D02*
X114300Y19050D01*
X107950Y12700D01*
X114300Y31750D02*
X107950Y38100D01*
X95250Y38100D01*
X12700Y31750D02*
X12700Y19050D01*
D11*
X5691Y30353D02*
X4463Y31582D01*
X5691Y30353D02*
X6920Y30353D01*
X8149Y31582D01*
X8149Y37725D01*
X6920Y37725D02*
X9378Y37725D01*
X11947Y35268D02*
X14404Y37725D01*
X14404Y30353D01*
X11947Y30353D02*
X16862Y30353D01*
D16*
X356650Y574507D02*
X392650Y574507D01*
X392650Y544507D01*
X358064Y544507D01*
X356650Y545921D01*
X356650Y574507D01*
D11*
X364617Y576144D02*
X364617Y583516D01*
X368303Y583516D01*
X369532Y582287D01*
X369532Y579830D01*
X368303Y578601D01*
X364617Y578601D01*
X367074Y578601D02*
X369532Y576144D01*
X372101Y576144D02*
X377016Y576144D01*
X377016Y581058D02*
X372101Y576144D01*
X377016Y581058D02*
X377016Y582287D01*
X375787Y583516D01*
X373330Y583516D01*
X372101Y582287D01*
X559175Y111279D02*
X566547Y111279D01*
X559175Y111279D02*
X559175Y114965D01*
X560403Y116193D01*
X562861Y116193D01*
X564090Y114965D01*
X564090Y111279D01*
X564090Y113736D02*
X566547Y116193D01*
X561632Y118763D02*
X559175Y121220D01*
X566547Y121220D01*
X566547Y118763D02*
X566547Y123678D01*
X565318Y126247D02*
X560403Y126247D01*
X559175Y127476D01*
X559175Y129933D01*
X560403Y131162D01*
X565318Y131162D01*
X566547Y129933D01*
X566547Y127476D01*
X565318Y126247D01*
X560403Y131162D01*
D17*
X596900Y94000D03*
D11*
X585343Y84963D02*
X577971Y84963D01*
X577971Y88649D01*
X579199Y89878D01*
X581657Y89878D01*
X582886Y88649D01*
X582886Y84963D01*
X585343Y92447D02*
X577971Y92447D01*
X582886Y94905D02*
X585343Y92447D01*
X582886Y94905D02*
X585343Y97362D01*
X577971Y97362D01*
X577971Y99931D02*
X585343Y99931D01*
X577971Y99931D02*
X577971Y103617D01*
X579199Y104846D01*
X581657Y104846D01*
X582886Y103617D01*
X582886Y99931D01*
X582886Y102389D02*
X585343Y104846D01*
D10*
X385000Y420170D02*
X377000Y420170D01*
X363730Y407900D02*
X363730Y404900D01*
X398270Y404900D02*
X398270Y407900D01*
X385000Y392630D02*
X377000Y392630D01*
D11*
X375381Y430165D02*
X375381Y431393D01*
X375381Y430165D02*
X377838Y427707D01*
X380296Y430165D01*
X380296Y431393D01*
X377838Y427707D02*
X377838Y424021D01*
X382865Y428936D02*
X385323Y431393D01*
X385323Y424021D01*
X387780Y424021D02*
X382865Y424021D01*
D16*
X159780Y502700D02*
X159780Y538700D01*
X159780Y502700D02*
X129780Y502700D01*
X129780Y537286D01*
X131194Y538700D01*
X159780Y538700D01*
D11*
X138811Y540639D02*
X138811Y548011D01*
X142497Y548011D01*
X143726Y546783D01*
X143726Y544325D01*
X142497Y543096D01*
X138811Y543096D01*
X141268Y543096D02*
X143726Y540639D01*
X146295Y546783D02*
X147524Y548011D01*
X149981Y548011D01*
X151210Y546783D01*
X151210Y545554D01*
X149981Y544325D01*
X148753Y544325D01*
X149981Y544325D02*
X151210Y543096D01*
X151210Y541868D01*
X149981Y540639D01*
X147524Y540639D01*
X146295Y541868D01*
D18*
X18658Y458628D02*
X18660Y458705D01*
X18666Y458782D01*
X18676Y458859D01*
X18690Y458935D01*
X18707Y459010D01*
X18729Y459084D01*
X18754Y459157D01*
X18784Y459229D01*
X18816Y459299D01*
X18853Y459367D01*
X18892Y459433D01*
X18935Y459497D01*
X18982Y459559D01*
X19031Y459618D01*
X19084Y459675D01*
X19139Y459729D01*
X19197Y459780D01*
X19258Y459828D01*
X19321Y459873D01*
X19386Y459914D01*
X19453Y459952D01*
X19522Y459987D01*
X19593Y460017D01*
X19665Y460045D01*
X19739Y460068D01*
X19813Y460088D01*
X19889Y460104D01*
X19965Y460116D01*
X20042Y460124D01*
X20119Y460128D01*
X20197Y460128D01*
X20274Y460124D01*
X20351Y460116D01*
X20427Y460104D01*
X20503Y460088D01*
X20577Y460068D01*
X20651Y460045D01*
X20723Y460017D01*
X20794Y459987D01*
X20863Y459952D01*
X20930Y459914D01*
X20995Y459873D01*
X21058Y459828D01*
X21119Y459780D01*
X21177Y459729D01*
X21232Y459675D01*
X21285Y459618D01*
X21334Y459559D01*
X21381Y459497D01*
X21424Y459433D01*
X21463Y459367D01*
X21500Y459299D01*
X21532Y459229D01*
X21562Y459157D01*
X21587Y459084D01*
X21609Y459010D01*
X21626Y458935D01*
X21640Y458859D01*
X21650Y458782D01*
X21656Y458705D01*
X21658Y458628D01*
X21656Y458551D01*
X21650Y458474D01*
X21640Y458397D01*
X21626Y458321D01*
X21609Y458246D01*
X21587Y458172D01*
X21562Y458099D01*
X21532Y458027D01*
X21500Y457957D01*
X21463Y457889D01*
X21424Y457823D01*
X21381Y457759D01*
X21334Y457697D01*
X21285Y457638D01*
X21232Y457581D01*
X21177Y457527D01*
X21119Y457476D01*
X21058Y457428D01*
X20995Y457383D01*
X20930Y457342D01*
X20863Y457304D01*
X20794Y457269D01*
X20723Y457239D01*
X20651Y457211D01*
X20577Y457188D01*
X20503Y457168D01*
X20427Y457152D01*
X20351Y457140D01*
X20274Y457132D01*
X20197Y457128D01*
X20119Y457128D01*
X20042Y457132D01*
X19965Y457140D01*
X19889Y457152D01*
X19813Y457168D01*
X19739Y457188D01*
X19665Y457211D01*
X19593Y457239D01*
X19522Y457269D01*
X19453Y457304D01*
X19386Y457342D01*
X19321Y457383D01*
X19258Y457428D01*
X19197Y457476D01*
X19139Y457527D01*
X19084Y457581D01*
X19031Y457638D01*
X18982Y457697D01*
X18935Y457759D01*
X18892Y457823D01*
X18853Y457889D01*
X18816Y457957D01*
X18784Y458027D01*
X18754Y458099D01*
X18729Y458172D01*
X18707Y458246D01*
X18690Y458321D01*
X18676Y458397D01*
X18666Y458474D01*
X18660Y458551D01*
X18658Y458628D01*
D11*
X-12589Y497130D02*
X-11361Y498359D01*
X-12589Y497130D02*
X-12589Y494673D01*
X-11361Y493444D01*
X-6446Y493444D01*
X-5217Y494673D01*
X-5217Y497130D01*
X-6446Y498359D01*
X-5217Y503386D02*
X-12589Y503386D01*
X-12589Y505843D02*
X-12589Y500928D01*
X-10132Y508413D02*
X-12589Y510870D01*
X-5217Y510870D01*
X-5217Y508413D02*
X-5217Y513327D01*
X-8903Y515897D02*
X-8903Y520812D01*
X-5217Y523381D02*
X-5217Y528296D01*
X-5217Y523381D02*
X-10132Y528296D01*
X-11361Y528296D01*
X-12589Y527067D01*
X-12589Y524610D01*
X-11361Y523381D01*
D18*
X18658Y319055D02*
X18660Y319132D01*
X18666Y319209D01*
X18676Y319286D01*
X18690Y319362D01*
X18707Y319437D01*
X18729Y319511D01*
X18754Y319584D01*
X18784Y319656D01*
X18816Y319726D01*
X18853Y319794D01*
X18892Y319860D01*
X18935Y319924D01*
X18982Y319986D01*
X19031Y320045D01*
X19084Y320102D01*
X19139Y320156D01*
X19197Y320207D01*
X19258Y320255D01*
X19321Y320300D01*
X19386Y320341D01*
X19453Y320379D01*
X19522Y320414D01*
X19593Y320444D01*
X19665Y320472D01*
X19739Y320495D01*
X19813Y320515D01*
X19889Y320531D01*
X19965Y320543D01*
X20042Y320551D01*
X20119Y320555D01*
X20197Y320555D01*
X20274Y320551D01*
X20351Y320543D01*
X20427Y320531D01*
X20503Y320515D01*
X20577Y320495D01*
X20651Y320472D01*
X20723Y320444D01*
X20794Y320414D01*
X20863Y320379D01*
X20930Y320341D01*
X20995Y320300D01*
X21058Y320255D01*
X21119Y320207D01*
X21177Y320156D01*
X21232Y320102D01*
X21285Y320045D01*
X21334Y319986D01*
X21381Y319924D01*
X21424Y319860D01*
X21463Y319794D01*
X21500Y319726D01*
X21532Y319656D01*
X21562Y319584D01*
X21587Y319511D01*
X21609Y319437D01*
X21626Y319362D01*
X21640Y319286D01*
X21650Y319209D01*
X21656Y319132D01*
X21658Y319055D01*
X21656Y318978D01*
X21650Y318901D01*
X21640Y318824D01*
X21626Y318748D01*
X21609Y318673D01*
X21587Y318599D01*
X21562Y318526D01*
X21532Y318454D01*
X21500Y318384D01*
X21463Y318316D01*
X21424Y318250D01*
X21381Y318186D01*
X21334Y318124D01*
X21285Y318065D01*
X21232Y318008D01*
X21177Y317954D01*
X21119Y317903D01*
X21058Y317855D01*
X20995Y317810D01*
X20930Y317769D01*
X20863Y317731D01*
X20794Y317696D01*
X20723Y317666D01*
X20651Y317638D01*
X20577Y317615D01*
X20503Y317595D01*
X20427Y317579D01*
X20351Y317567D01*
X20274Y317559D01*
X20197Y317555D01*
X20119Y317555D01*
X20042Y317559D01*
X19965Y317567D01*
X19889Y317579D01*
X19813Y317595D01*
X19739Y317615D01*
X19665Y317638D01*
X19593Y317666D01*
X19522Y317696D01*
X19453Y317731D01*
X19386Y317769D01*
X19321Y317810D01*
X19258Y317855D01*
X19197Y317903D01*
X19139Y317954D01*
X19084Y318008D01*
X19031Y318065D01*
X18982Y318124D01*
X18935Y318186D01*
X18892Y318250D01*
X18853Y318316D01*
X18816Y318384D01*
X18784Y318454D01*
X18754Y318526D01*
X18729Y318599D01*
X18707Y318673D01*
X18690Y318748D01*
X18676Y318824D01*
X18666Y318901D01*
X18660Y318978D01*
X18658Y319055D01*
D11*
X-13859Y355779D02*
X-12631Y357008D01*
X-13859Y355779D02*
X-13859Y353322D01*
X-12631Y352093D01*
X-7716Y352093D01*
X-6487Y353322D01*
X-6487Y355779D01*
X-7716Y357008D01*
X-6487Y362035D02*
X-13859Y362035D01*
X-13859Y364492D02*
X-13859Y359577D01*
X-6487Y367062D02*
X-6487Y371976D01*
X-6487Y367062D02*
X-11402Y371976D01*
X-12631Y371976D01*
X-13859Y370748D01*
X-13859Y368290D01*
X-12631Y367062D01*
X-10173Y374546D02*
X-10173Y379461D01*
X-6487Y382030D02*
X-6487Y386945D01*
X-6487Y382030D02*
X-11402Y386945D01*
X-12631Y386945D01*
X-13859Y385716D01*
X-13859Y383259D01*
X-12631Y382030D01*
D16*
X165300Y121200D02*
X165300Y665200D01*
X444300Y665200D01*
X444300Y121200D01*
X165300Y121200D01*
D11*
X164983Y673704D02*
X164983Y679847D01*
X164983Y673704D02*
X166212Y672475D01*
X168669Y672475D01*
X169898Y673704D01*
X169898Y679847D01*
X172467Y677390D02*
X174925Y679847D01*
X174925Y672475D01*
X177382Y672475D02*
X172467Y672475D01*
X263985Y524726D02*
X262757Y523497D01*
X262757Y521040D01*
X263985Y519811D01*
X268900Y519811D01*
X270129Y521040D01*
X270129Y523497D01*
X268900Y524726D01*
X265214Y527295D02*
X262757Y529753D01*
X270129Y529753D01*
X270129Y532210D02*
X270129Y527295D01*
X265214Y534779D02*
X262757Y537237D01*
X270129Y537237D01*
X270129Y539694D02*
X270129Y534779D01*
X238585Y525996D02*
X237357Y524767D01*
X237357Y522310D01*
X238585Y521081D01*
X243500Y521081D01*
X244729Y522310D01*
X244729Y524767D01*
X243500Y525996D01*
X239814Y528565D02*
X237357Y531023D01*
X244729Y531023D01*
X244729Y533480D02*
X244729Y528565D01*
X262757Y556517D02*
X263985Y557746D01*
X262757Y556517D02*
X262757Y554060D01*
X263985Y552831D01*
X268900Y552831D01*
X270129Y554060D01*
X270129Y556517D01*
X268900Y557746D01*
X268900Y560315D02*
X270129Y561544D01*
X270129Y564001D01*
X268900Y565230D01*
X263985Y565230D01*
X262757Y564001D01*
X262757Y561544D01*
X263985Y560315D01*
X265214Y560315D01*
X266443Y561544D01*
X266443Y565230D01*
X302127Y556517D02*
X303355Y557746D01*
X302127Y556517D02*
X302127Y554060D01*
X303355Y552831D01*
X308270Y552831D01*
X309499Y554060D01*
X309499Y556517D01*
X308270Y557746D01*
X304584Y560315D02*
X302127Y562773D01*
X309499Y562773D01*
X309499Y565230D02*
X309499Y560315D01*
X308270Y567799D02*
X303355Y567799D01*
X302127Y569028D01*
X302127Y571485D01*
X303355Y572714D01*
X308270Y572714D01*
X309499Y571485D01*
X309499Y569028D01*
X308270Y567799D01*
X303355Y572714D01*
X105029Y297561D02*
X97657Y297561D01*
X97657Y301247D01*
X98885Y302476D01*
X101343Y302476D01*
X102572Y301247D01*
X102572Y297561D01*
X102572Y300018D02*
X105029Y302476D01*
X98885Y307503D02*
X97657Y309960D01*
X98885Y307503D02*
X101343Y305045D01*
X103800Y305045D01*
X105029Y306274D01*
X105029Y308731D01*
X103800Y309960D01*
X102572Y309960D01*
X101343Y308731D01*
X101343Y305045D01*
X48085Y302476D02*
X46857Y301247D01*
X46857Y298790D01*
X48085Y297561D01*
X53000Y297561D01*
X54229Y298790D01*
X54229Y301247D01*
X53000Y302476D01*
X48085Y307503D02*
X46857Y309960D01*
X48085Y307503D02*
X50543Y305045D01*
X53000Y305045D01*
X54229Y306274D01*
X54229Y308731D01*
X53000Y309960D01*
X51772Y309960D01*
X50543Y308731D01*
X50543Y305045D01*
X72257Y301247D02*
X73485Y302476D01*
X72257Y301247D02*
X72257Y298790D01*
X73485Y297561D01*
X78400Y297561D01*
X79629Y298790D01*
X79629Y301247D01*
X78400Y302476D01*
X72257Y305045D02*
X72257Y309960D01*
X73485Y309960D01*
X78400Y305045D01*
X79629Y305045D01*
D18*
X18658Y179482D02*
X18660Y179559D01*
X18666Y179636D01*
X18676Y179713D01*
X18690Y179789D01*
X18707Y179864D01*
X18729Y179938D01*
X18754Y180011D01*
X18784Y180083D01*
X18816Y180153D01*
X18853Y180221D01*
X18892Y180287D01*
X18935Y180351D01*
X18982Y180413D01*
X19031Y180472D01*
X19084Y180529D01*
X19139Y180583D01*
X19197Y180634D01*
X19258Y180682D01*
X19321Y180727D01*
X19386Y180768D01*
X19453Y180806D01*
X19522Y180841D01*
X19593Y180871D01*
X19665Y180899D01*
X19739Y180922D01*
X19813Y180942D01*
X19889Y180958D01*
X19965Y180970D01*
X20042Y180978D01*
X20119Y180982D01*
X20197Y180982D01*
X20274Y180978D01*
X20351Y180970D01*
X20427Y180958D01*
X20503Y180942D01*
X20577Y180922D01*
X20651Y180899D01*
X20723Y180871D01*
X20794Y180841D01*
X20863Y180806D01*
X20930Y180768D01*
X20995Y180727D01*
X21058Y180682D01*
X21119Y180634D01*
X21177Y180583D01*
X21232Y180529D01*
X21285Y180472D01*
X21334Y180413D01*
X21381Y180351D01*
X21424Y180287D01*
X21463Y180221D01*
X21500Y180153D01*
X21532Y180083D01*
X21562Y180011D01*
X21587Y179938D01*
X21609Y179864D01*
X21626Y179789D01*
X21640Y179713D01*
X21650Y179636D01*
X21656Y179559D01*
X21658Y179482D01*
X21656Y179405D01*
X21650Y179328D01*
X21640Y179251D01*
X21626Y179175D01*
X21609Y179100D01*
X21587Y179026D01*
X21562Y178953D01*
X21532Y178881D01*
X21500Y178811D01*
X21463Y178743D01*
X21424Y178677D01*
X21381Y178613D01*
X21334Y178551D01*
X21285Y178492D01*
X21232Y178435D01*
X21177Y178381D01*
X21119Y178330D01*
X21058Y178282D01*
X20995Y178237D01*
X20930Y178196D01*
X20863Y178158D01*
X20794Y178123D01*
X20723Y178093D01*
X20651Y178065D01*
X20577Y178042D01*
X20503Y178022D01*
X20427Y178006D01*
X20351Y177994D01*
X20274Y177986D01*
X20197Y177982D01*
X20119Y177982D01*
X20042Y177986D01*
X19965Y177994D01*
X19889Y178006D01*
X19813Y178022D01*
X19739Y178042D01*
X19665Y178065D01*
X19593Y178093D01*
X19522Y178123D01*
X19453Y178158D01*
X19386Y178196D01*
X19321Y178237D01*
X19258Y178282D01*
X19197Y178330D01*
X19139Y178381D01*
X19084Y178435D01*
X19031Y178492D01*
X18982Y178551D01*
X18935Y178613D01*
X18892Y178677D01*
X18853Y178743D01*
X18816Y178811D01*
X18784Y178881D01*
X18754Y178953D01*
X18729Y179026D01*
X18707Y179100D01*
X18690Y179175D01*
X18676Y179251D01*
X18666Y179328D01*
X18660Y179405D01*
X18658Y179482D01*
D11*
X-12843Y217730D02*
X-11615Y218959D01*
X-12843Y217730D02*
X-12843Y215273D01*
X-11615Y214044D01*
X-6700Y214044D01*
X-5471Y215273D01*
X-5471Y217730D01*
X-6700Y218959D01*
X-5471Y223986D02*
X-12843Y223986D01*
X-12843Y226443D02*
X-12843Y221528D01*
X-11615Y229013D02*
X-12843Y230241D01*
X-12843Y232699D01*
X-11615Y233927D01*
X-10386Y233927D01*
X-9157Y232699D01*
X-9157Y231470D01*
X-9157Y232699D02*
X-7928Y233927D01*
X-6700Y233927D01*
X-5471Y232699D01*
X-5471Y230241D01*
X-6700Y229013D01*
X-9157Y236497D02*
X-9157Y241412D01*
X-5471Y243981D02*
X-5471Y248896D01*
X-5471Y243981D02*
X-10386Y248896D01*
X-11615Y248896D01*
X-12843Y247667D01*
X-12843Y245210D01*
X-11615Y243981D01*
X143885Y245763D02*
X151257Y245763D01*
X143885Y245763D02*
X143885Y249449D01*
X145113Y250678D01*
X147571Y250678D01*
X148800Y249449D01*
X148800Y245763D01*
X148800Y248220D02*
X151257Y250678D01*
X151257Y256933D02*
X143885Y256933D01*
X147571Y253247D01*
X147571Y258162D01*
X151257Y206393D02*
X143885Y206393D01*
X143885Y210079D01*
X145113Y211308D01*
X147571Y211308D01*
X148800Y210079D01*
X148800Y206393D01*
X148800Y208850D02*
X151257Y211308D01*
X143885Y213877D02*
X143885Y218792D01*
X143885Y213877D02*
X147571Y213877D01*
X146342Y216334D01*
X146342Y217563D01*
X147571Y218792D01*
X150028Y218792D01*
X151257Y217563D01*
X151257Y215106D01*
X150028Y213877D01*
X49911Y63119D02*
X42539Y63119D01*
X42539Y66805D01*
X43767Y68034D01*
X46225Y68034D01*
X47454Y66805D01*
X47454Y63119D01*
X47454Y65576D02*
X49911Y68034D01*
X48682Y70603D02*
X49911Y71832D01*
X49911Y74289D01*
X48682Y75518D01*
X43767Y75518D01*
X42539Y74289D01*
X42539Y71832D01*
X43767Y70603D01*
X44996Y70603D01*
X46225Y71832D01*
X46225Y75518D01*
D17*
X13208Y94254D03*
D11*
X3635Y81496D02*
X2407Y80267D01*
X2407Y77810D01*
X3635Y76581D01*
X8550Y76581D01*
X9779Y77810D01*
X9779Y80267D01*
X8550Y81496D01*
X9779Y84065D02*
X2407Y84065D01*
X2407Y88980D01*
X6093Y86523D02*
X6093Y84065D01*
X4864Y91549D02*
X2407Y94007D01*
X9779Y94007D01*
X9779Y96464D02*
X9779Y91549D01*
X529457Y164087D02*
X530685Y165316D01*
X529457Y164087D02*
X529457Y161630D01*
X530685Y160401D01*
X535600Y160401D01*
X536829Y161630D01*
X536829Y164087D01*
X535600Y165316D01*
X531914Y167885D02*
X529457Y170343D01*
X536829Y170343D01*
X536829Y172800D02*
X536829Y167885D01*
X529457Y175369D02*
X529457Y180284D01*
X530685Y180284D01*
X535600Y175369D01*
X536829Y175369D01*
X505285Y165316D02*
X504057Y164087D01*
X504057Y161630D01*
X505285Y160401D01*
X510200Y160401D01*
X511429Y161630D01*
X511429Y164087D01*
X510200Y165316D01*
X506514Y167885D02*
X504057Y170343D01*
X511429Y170343D01*
X511429Y172800D02*
X511429Y167885D01*
X505285Y175369D02*
X504057Y176598D01*
X504057Y179055D01*
X505285Y180284D01*
X506514Y180284D01*
X507743Y179055D01*
X508972Y180284D01*
X510200Y180284D01*
X511429Y179055D01*
X511429Y176598D01*
X510200Y175369D01*
X508972Y175369D01*
X507743Y176598D01*
X506514Y175369D01*
X505285Y175369D01*
X507743Y176598D02*
X507743Y179055D01*
X529457Y301247D02*
X530685Y302476D01*
X529457Y301247D02*
X529457Y298790D01*
X530685Y297561D01*
X535600Y297561D01*
X536829Y298790D01*
X536829Y301247D01*
X535600Y302476D01*
X531914Y305045D02*
X529457Y307503D01*
X536829Y307503D01*
X536829Y309960D02*
X536829Y305045D01*
X535600Y312529D02*
X536829Y313758D01*
X536829Y316215D01*
X535600Y317444D01*
X530685Y317444D01*
X529457Y316215D01*
X529457Y313758D01*
X530685Y312529D01*
X531914Y312529D01*
X533143Y313758D01*
X533143Y317444D01*
X505285Y302476D02*
X504057Y301247D01*
X504057Y298790D01*
X505285Y297561D01*
X510200Y297561D01*
X511429Y298790D01*
X511429Y301247D01*
X510200Y302476D01*
X511429Y305045D02*
X511429Y309960D01*
X511429Y305045D02*
X506514Y309960D01*
X505285Y309960D01*
X504057Y308731D01*
X504057Y306274D01*
X505285Y305045D01*
X505285Y312529D02*
X510200Y312529D01*
X505285Y312529D02*
X504057Y313758D01*
X504057Y316215D01*
X505285Y317444D01*
X510200Y317444D01*
X511429Y316215D01*
X511429Y313758D01*
X510200Y312529D01*
X505285Y317444D01*
X483489Y297561D02*
X476117Y297561D01*
X476117Y301247D01*
X477345Y302476D01*
X479803Y302476D01*
X481032Y301247D01*
X481032Y297561D01*
X481032Y300018D02*
X483489Y302476D01*
X478574Y305045D02*
X476117Y307503D01*
X483489Y307503D01*
X483489Y309960D02*
X483489Y305045D01*
X482260Y312529D02*
X483489Y313758D01*
X483489Y316215D01*
X482260Y317444D01*
X477345Y317444D01*
X476117Y316215D01*
X476117Y313758D01*
X477345Y312529D01*
X478574Y312529D01*
X479803Y313758D01*
X479803Y317444D01*
X478657Y160401D02*
X486029Y160401D01*
X478657Y160401D02*
X478657Y164087D01*
X479885Y165316D01*
X482343Y165316D01*
X483572Y164087D01*
X483572Y160401D01*
X483572Y162858D02*
X486029Y165316D01*
X481114Y167885D02*
X478657Y170343D01*
X486029Y170343D01*
X486029Y172800D02*
X486029Y167885D01*
X479885Y175369D02*
X478657Y176598D01*
X478657Y179055D01*
X479885Y180284D01*
X481114Y180284D01*
X482343Y179055D01*
X483572Y180284D01*
X484800Y180284D01*
X486029Y179055D01*
X486029Y176598D01*
X484800Y175369D01*
X483572Y175369D01*
X482343Y176598D01*
X481114Y175369D01*
X479885Y175369D01*
X482343Y176598D02*
X482343Y179055D01*
D14*
X332230Y237760D03*
D15*
X325200Y236700D02*
X325200Y240260D01*
X325200Y236700D02*
X321640Y236700D01*
X255200Y236700D02*
X255200Y240260D01*
X255200Y236700D02*
X258760Y236700D01*
X255200Y303140D02*
X255200Y306700D01*
X258760Y306700D01*
X325200Y306700D02*
X325200Y303140D01*
X325200Y306700D02*
X321640Y306700D01*
D11*
X299411Y258742D02*
X296953Y258742D01*
X298182Y258742D02*
X298182Y266114D01*
X296953Y266114D02*
X299411Y266114D01*
X305629Y266114D02*
X306858Y264886D01*
X305629Y266114D02*
X303171Y266114D01*
X301943Y264886D01*
X301943Y259971D01*
X303171Y258742D01*
X305629Y258742D01*
X306858Y259971D01*
X309427Y258742D02*
X314342Y258742D01*
X309427Y258742D02*
X314342Y263657D01*
X314342Y264886D01*
X313113Y266114D01*
X310656Y266114D01*
X309427Y264886D01*
X351657Y296167D02*
X352885Y297396D01*
X351657Y296167D02*
X351657Y293710D01*
X352885Y292481D01*
X357800Y292481D01*
X359029Y293710D01*
X359029Y296167D01*
X357800Y297396D01*
X359029Y299965D02*
X359029Y304880D01*
X359029Y299965D02*
X354114Y304880D01*
X352885Y304880D01*
X351657Y303651D01*
X351657Y301194D01*
X352885Y299965D01*
X352885Y307449D02*
X351657Y308678D01*
X351657Y311135D01*
X352885Y312364D01*
X354114Y312364D01*
X355343Y311135D01*
X356572Y312364D01*
X357800Y312364D01*
X359029Y311135D01*
X359029Y308678D01*
X357800Y307449D01*
X356572Y307449D01*
X355343Y308678D01*
X354114Y307449D01*
X352885Y307449D01*
X355343Y308678D02*
X355343Y311135D01*
X379809Y198336D02*
X378581Y197107D01*
X378581Y194650D01*
X379809Y193421D01*
X384724Y193421D01*
X385953Y194650D01*
X385953Y197107D01*
X384724Y198336D01*
X385953Y200905D02*
X385953Y205820D01*
X385953Y200905D02*
X381038Y205820D01*
X379809Y205820D01*
X378581Y204591D01*
X378581Y202134D01*
X379809Y200905D01*
X379809Y208389D02*
X378581Y209618D01*
X378581Y212075D01*
X379809Y213304D01*
X381038Y213304D01*
X382267Y212075D01*
X382267Y210847D01*
X382267Y212075D02*
X383496Y213304D01*
X384724Y213304D01*
X385953Y212075D01*
X385953Y209618D01*
X384724Y208389D01*
X292889Y185045D02*
X292889Y177673D01*
X292889Y185045D02*
X296575Y185045D01*
X297803Y183817D01*
X297803Y181359D01*
X296575Y180130D01*
X292889Y180130D01*
X295346Y180130D02*
X297803Y177673D01*
X300373Y182588D02*
X302830Y185045D01*
X302830Y177673D01*
X300373Y177673D02*
X305288Y177673D01*
X307857Y177673D02*
X312772Y177673D01*
X307857Y177673D02*
X312772Y182588D01*
X312772Y183817D01*
X311543Y185045D01*
X309086Y185045D01*
X307857Y183817D01*
X378327Y296167D02*
X379555Y297396D01*
X378327Y296167D02*
X378327Y293710D01*
X379555Y292481D01*
X384470Y292481D01*
X385699Y293710D01*
X385699Y296167D01*
X384470Y297396D01*
X385699Y299965D02*
X385699Y304880D01*
X385699Y299965D02*
X380784Y304880D01*
X379555Y304880D01*
X378327Y303651D01*
X378327Y301194D01*
X379555Y299965D01*
X378327Y307449D02*
X378327Y312364D01*
X379555Y312364D01*
X384470Y307449D01*
X385699Y307449D01*
D10*
X133350Y12700D02*
X120650Y12700D01*
X114300Y19050D01*
X114300Y31750D02*
X120650Y38100D01*
X158750Y12700D02*
X165100Y19050D01*
X158750Y12700D02*
X146050Y12700D01*
X139700Y19050D01*
X139700Y31750D02*
X146050Y38100D01*
X158750Y38100D01*
X165100Y31750D01*
X139700Y19050D02*
X133350Y12700D01*
X139700Y31750D02*
X133350Y38100D01*
X120650Y38100D01*
X196850Y12700D02*
X209550Y12700D01*
X196850Y12700D02*
X190500Y19050D01*
X190500Y31750D02*
X196850Y38100D01*
X190500Y19050D02*
X184150Y12700D01*
X171450Y12700D01*
X165100Y19050D01*
X165100Y31750D02*
X171450Y38100D01*
X184150Y38100D01*
X190500Y31750D01*
X215900Y31750D02*
X215900Y19050D01*
X209550Y12700D01*
X215900Y31750D02*
X209550Y38100D01*
X196850Y38100D01*
X114300Y31750D02*
X114300Y19050D01*
D11*
X115910Y44831D02*
X114681Y46060D01*
X115910Y44831D02*
X117138Y44831D01*
X118367Y46060D01*
X118367Y52203D01*
X117138Y52203D02*
X119596Y52203D01*
X122165Y44831D02*
X127080Y44831D01*
X122165Y44831D02*
X127080Y49746D01*
X127080Y50975D01*
X125851Y52203D01*
X123394Y52203D01*
X122165Y50975D01*
D16*
X255050Y187438D02*
X291050Y187438D01*
X255050Y187438D02*
X255050Y217438D01*
X289636Y217438D01*
X291050Y216024D01*
X291050Y187438D01*
D11*
X259461Y185553D02*
X259461Y178181D01*
X259461Y185553D02*
X263147Y185553D01*
X264376Y184325D01*
X264376Y181867D01*
X263147Y180638D01*
X259461Y180638D01*
X261918Y180638D02*
X264376Y178181D01*
X266945Y183096D02*
X269403Y185553D01*
X269403Y178181D01*
X271860Y178181D02*
X266945Y178181D01*
X274429Y184325D02*
X275658Y185553D01*
X278115Y185553D01*
X279344Y184325D01*
X279344Y183096D01*
X278115Y181867D01*
X276887Y181867D01*
X278115Y181867D02*
X279344Y180638D01*
X279344Y179410D01*
X278115Y178181D01*
X275658Y178181D01*
X274429Y179410D01*
D10*
X270700Y341830D02*
X262700Y341830D01*
X283970Y354100D02*
X283970Y357100D01*
X249430Y357100D02*
X249430Y354100D01*
X262700Y369370D02*
X270700Y369370D01*
D11*
X258113Y337985D02*
X258113Y336757D01*
X260570Y334299D01*
X263028Y336757D01*
X263028Y337985D01*
X260570Y334299D02*
X260570Y330613D01*
X265597Y330613D02*
X270512Y330613D01*
X265597Y330613D02*
X270512Y335528D01*
X270512Y336757D01*
X269283Y337985D01*
X266826Y337985D01*
X265597Y336757D01*
D16*
X451090Y250410D02*
X451090Y214410D01*
X451090Y250410D02*
X481090Y250410D01*
X481090Y215824D01*
X479676Y214410D01*
X451090Y214410D01*
D11*
X450369Y212477D02*
X450369Y205105D01*
X450369Y212477D02*
X454055Y212477D01*
X455283Y211249D01*
X455283Y208791D01*
X454055Y207562D01*
X450369Y207562D01*
X452826Y207562D02*
X455283Y205105D01*
X457853Y210020D02*
X460310Y212477D01*
X460310Y205105D01*
X457853Y205105D02*
X462768Y205105D01*
X469023Y205105D02*
X469023Y212477D01*
X465337Y208791D01*
X470252Y208791D01*
D18*
X587942Y294482D02*
X587944Y294559D01*
X587950Y294636D01*
X587960Y294713D01*
X587974Y294789D01*
X587991Y294864D01*
X588013Y294938D01*
X588038Y295011D01*
X588068Y295083D01*
X588100Y295153D01*
X588137Y295221D01*
X588176Y295287D01*
X588219Y295351D01*
X588266Y295413D01*
X588315Y295472D01*
X588368Y295529D01*
X588423Y295583D01*
X588481Y295634D01*
X588542Y295682D01*
X588605Y295727D01*
X588670Y295768D01*
X588737Y295806D01*
X588806Y295841D01*
X588877Y295871D01*
X588949Y295899D01*
X589023Y295922D01*
X589097Y295942D01*
X589173Y295958D01*
X589249Y295970D01*
X589326Y295978D01*
X589403Y295982D01*
X589481Y295982D01*
X589558Y295978D01*
X589635Y295970D01*
X589711Y295958D01*
X589787Y295942D01*
X589861Y295922D01*
X589935Y295899D01*
X590007Y295871D01*
X590078Y295841D01*
X590147Y295806D01*
X590214Y295768D01*
X590279Y295727D01*
X590342Y295682D01*
X590403Y295634D01*
X590461Y295583D01*
X590516Y295529D01*
X590569Y295472D01*
X590618Y295413D01*
X590665Y295351D01*
X590708Y295287D01*
X590747Y295221D01*
X590784Y295153D01*
X590816Y295083D01*
X590846Y295011D01*
X590871Y294938D01*
X590893Y294864D01*
X590910Y294789D01*
X590924Y294713D01*
X590934Y294636D01*
X590940Y294559D01*
X590942Y294482D01*
X590940Y294405D01*
X590934Y294328D01*
X590924Y294251D01*
X590910Y294175D01*
X590893Y294100D01*
X590871Y294026D01*
X590846Y293953D01*
X590816Y293881D01*
X590784Y293811D01*
X590747Y293743D01*
X590708Y293677D01*
X590665Y293613D01*
X590618Y293551D01*
X590569Y293492D01*
X590516Y293435D01*
X590461Y293381D01*
X590403Y293330D01*
X590342Y293282D01*
X590279Y293237D01*
X590214Y293196D01*
X590147Y293158D01*
X590078Y293123D01*
X590007Y293093D01*
X589935Y293065D01*
X589861Y293042D01*
X589787Y293022D01*
X589711Y293006D01*
X589635Y292994D01*
X589558Y292986D01*
X589481Y292982D01*
X589403Y292982D01*
X589326Y292986D01*
X589249Y292994D01*
X589173Y293006D01*
X589097Y293022D01*
X589023Y293042D01*
X588949Y293065D01*
X588877Y293093D01*
X588806Y293123D01*
X588737Y293158D01*
X588670Y293196D01*
X588605Y293237D01*
X588542Y293282D01*
X588481Y293330D01*
X588423Y293381D01*
X588368Y293435D01*
X588315Y293492D01*
X588266Y293551D01*
X588219Y293613D01*
X588176Y293677D01*
X588137Y293743D01*
X588100Y293811D01*
X588068Y293881D01*
X588038Y293953D01*
X588013Y294026D01*
X587991Y294100D01*
X587974Y294175D01*
X587960Y294251D01*
X587950Y294328D01*
X587944Y294405D01*
X587942Y294482D01*
D11*
X616039Y227922D02*
X614811Y226693D01*
X614811Y224236D01*
X616039Y223007D01*
X620954Y223007D01*
X622183Y224236D01*
X622183Y226693D01*
X620954Y227922D01*
X622183Y232948D02*
X614811Y232948D01*
X614811Y230491D02*
X614811Y235406D01*
X614811Y241661D02*
X622183Y241661D01*
X618497Y237975D02*
X614811Y241661D01*
X618497Y242890D02*
X618497Y237975D01*
X618497Y245459D02*
X618497Y250374D01*
X622183Y252944D02*
X622183Y257858D01*
X622183Y252944D02*
X617268Y257858D01*
X616039Y257858D01*
X614811Y256630D01*
X614811Y254172D01*
X616039Y252944D01*
D18*
X587942Y434055D02*
X587944Y434132D01*
X587950Y434209D01*
X587960Y434286D01*
X587974Y434362D01*
X587991Y434437D01*
X588013Y434511D01*
X588038Y434584D01*
X588068Y434656D01*
X588100Y434726D01*
X588137Y434794D01*
X588176Y434860D01*
X588219Y434924D01*
X588266Y434986D01*
X588315Y435045D01*
X588368Y435102D01*
X588423Y435156D01*
X588481Y435207D01*
X588542Y435255D01*
X588605Y435300D01*
X588670Y435341D01*
X588737Y435379D01*
X588806Y435414D01*
X588877Y435444D01*
X588949Y435472D01*
X589023Y435495D01*
X589097Y435515D01*
X589173Y435531D01*
X589249Y435543D01*
X589326Y435551D01*
X589403Y435555D01*
X589481Y435555D01*
X589558Y435551D01*
X589635Y435543D01*
X589711Y435531D01*
X589787Y435515D01*
X589861Y435495D01*
X589935Y435472D01*
X590007Y435444D01*
X590078Y435414D01*
X590147Y435379D01*
X590214Y435341D01*
X590279Y435300D01*
X590342Y435255D01*
X590403Y435207D01*
X590461Y435156D01*
X590516Y435102D01*
X590569Y435045D01*
X590618Y434986D01*
X590665Y434924D01*
X590708Y434860D01*
X590747Y434794D01*
X590784Y434726D01*
X590816Y434656D01*
X590846Y434584D01*
X590871Y434511D01*
X590893Y434437D01*
X590910Y434362D01*
X590924Y434286D01*
X590934Y434209D01*
X590940Y434132D01*
X590942Y434055D01*
X590940Y433978D01*
X590934Y433901D01*
X590924Y433824D01*
X590910Y433748D01*
X590893Y433673D01*
X590871Y433599D01*
X590846Y433526D01*
X590816Y433454D01*
X590784Y433384D01*
X590747Y433316D01*
X590708Y433250D01*
X590665Y433186D01*
X590618Y433124D01*
X590569Y433065D01*
X590516Y433008D01*
X590461Y432954D01*
X590403Y432903D01*
X590342Y432855D01*
X590279Y432810D01*
X590214Y432769D01*
X590147Y432731D01*
X590078Y432696D01*
X590007Y432666D01*
X589935Y432638D01*
X589861Y432615D01*
X589787Y432595D01*
X589711Y432579D01*
X589635Y432567D01*
X589558Y432559D01*
X589481Y432555D01*
X589403Y432555D01*
X589326Y432559D01*
X589249Y432567D01*
X589173Y432579D01*
X589097Y432595D01*
X589023Y432615D01*
X588949Y432638D01*
X588877Y432666D01*
X588806Y432696D01*
X588737Y432731D01*
X588670Y432769D01*
X588605Y432810D01*
X588542Y432855D01*
X588481Y432903D01*
X588423Y432954D01*
X588368Y433008D01*
X588315Y433065D01*
X588266Y433124D01*
X588219Y433186D01*
X588176Y433250D01*
X588137Y433316D01*
X588100Y433384D01*
X588068Y433454D01*
X588038Y433526D01*
X588013Y433599D01*
X587991Y433673D01*
X587974Y433748D01*
X587960Y433824D01*
X587950Y433901D01*
X587944Y433978D01*
X587942Y434055D01*
D11*
X617309Y369273D02*
X616081Y368044D01*
X616081Y365587D01*
X617309Y364358D01*
X622224Y364358D01*
X623453Y365587D01*
X623453Y368044D01*
X622224Y369273D01*
X623453Y374299D02*
X616081Y374299D01*
X616081Y371842D02*
X616081Y376757D01*
X616081Y379326D02*
X616081Y384241D01*
X616081Y379326D02*
X619767Y379326D01*
X618538Y381784D01*
X618538Y383012D01*
X619767Y384241D01*
X622224Y384241D01*
X623453Y383012D01*
X623453Y380555D01*
X622224Y379326D01*
X619767Y386810D02*
X619767Y391725D01*
X623453Y394295D02*
X623453Y399209D01*
X623453Y394295D02*
X618538Y399209D01*
X617309Y399209D01*
X616081Y397981D01*
X616081Y395523D01*
X617309Y394295D01*
X353901Y231356D02*
X352673Y230127D01*
X352673Y227670D01*
X353901Y226441D01*
X358816Y226441D01*
X360045Y227670D01*
X360045Y230127D01*
X358816Y231356D01*
X360045Y233925D02*
X360045Y238840D01*
X360045Y233925D02*
X355130Y238840D01*
X353901Y238840D01*
X352673Y237611D01*
X352673Y235154D01*
X353901Y233925D01*
X353901Y243867D02*
X352673Y246324D01*
X353901Y243867D02*
X356359Y241409D01*
X358816Y241409D01*
X360045Y242638D01*
X360045Y245095D01*
X358816Y246324D01*
X357588Y246324D01*
X356359Y245095D01*
X356359Y241409D01*
X378327Y230127D02*
X379555Y231356D01*
X378327Y230127D02*
X378327Y227670D01*
X379555Y226441D01*
X384470Y226441D01*
X385699Y227670D01*
X385699Y230127D01*
X384470Y231356D01*
X380784Y233925D02*
X378327Y236383D01*
X385699Y236383D01*
X385699Y238840D02*
X385699Y233925D01*
X379555Y243867D02*
X378327Y246324D01*
X379555Y243867D02*
X382013Y241409D01*
X384470Y241409D01*
X385699Y242638D01*
X385699Y245095D01*
X384470Y246324D01*
X383242Y246324D01*
X382013Y245095D01*
X382013Y241409D01*
X354409Y198082D02*
X353181Y196853D01*
X353181Y194396D01*
X354409Y193167D01*
X359324Y193167D01*
X360553Y194396D01*
X360553Y196853D01*
X359324Y198082D01*
X360553Y200651D02*
X360553Y205566D01*
X360553Y200651D02*
X355638Y205566D01*
X354409Y205566D01*
X353181Y204337D01*
X353181Y201880D01*
X354409Y200651D01*
X353181Y211821D02*
X360553Y211821D01*
X356867Y208135D02*
X353181Y211821D01*
X356867Y213050D02*
X356867Y208135D01*
X323457Y183563D02*
X322229Y184791D01*
X319771Y184791D01*
X318543Y183563D01*
X318543Y178648D01*
X319771Y177419D01*
X322229Y177419D01*
X323457Y178648D01*
X326027Y177419D02*
X330942Y177419D01*
X326027Y177419D02*
X330942Y182334D01*
X330942Y183563D01*
X329713Y184791D01*
X327255Y184791D01*
X326027Y183563D01*
X333511Y184791D02*
X338426Y184791D01*
X333511Y184791D02*
X333511Y181105D01*
X335968Y182334D01*
X337197Y182334D01*
X338426Y181105D01*
X338426Y178648D01*
X337197Y177419D01*
X334740Y177419D01*
X333511Y178648D01*
X478657Y439801D02*
X486029Y439801D01*
X478657Y439801D02*
X478657Y443487D01*
X479885Y444716D01*
X482343Y444716D01*
X483572Y443487D01*
X483572Y439801D01*
X483572Y442258D02*
X486029Y444716D01*
X481114Y447285D02*
X478657Y449743D01*
X486029Y449743D01*
X486029Y452200D02*
X486029Y447285D01*
X478657Y454769D02*
X478657Y459684D01*
X479885Y459684D01*
X484800Y454769D01*
X486029Y454769D01*
X529457Y443487D02*
X530685Y444716D01*
X529457Y443487D02*
X529457Y441030D01*
X530685Y439801D01*
X535600Y439801D01*
X536829Y441030D01*
X536829Y443487D01*
X535600Y444716D01*
X536829Y447285D02*
X536829Y452200D01*
X536829Y447285D02*
X531914Y452200D01*
X530685Y452200D01*
X529457Y450971D01*
X529457Y448514D01*
X530685Y447285D01*
X531914Y454769D02*
X529457Y457227D01*
X536829Y457227D01*
X536829Y459684D02*
X536829Y454769D01*
X505285Y444716D02*
X504057Y443487D01*
X504057Y441030D01*
X505285Y439801D01*
X510200Y439801D01*
X511429Y441030D01*
X511429Y443487D01*
X510200Y444716D01*
X511429Y447285D02*
X511429Y452200D01*
X511429Y447285D02*
X506514Y452200D01*
X505285Y452200D01*
X504057Y450971D01*
X504057Y448514D01*
X505285Y447285D01*
X511429Y454769D02*
X511429Y459684D01*
X511429Y454769D02*
X506514Y459684D01*
X505285Y459684D01*
X504057Y458455D01*
X504057Y455998D01*
X505285Y454769D01*
D18*
X587942Y573628D02*
X587944Y573705D01*
X587950Y573782D01*
X587960Y573859D01*
X587974Y573935D01*
X587991Y574010D01*
X588013Y574084D01*
X588038Y574157D01*
X588068Y574229D01*
X588100Y574299D01*
X588137Y574367D01*
X588176Y574433D01*
X588219Y574497D01*
X588266Y574559D01*
X588315Y574618D01*
X588368Y574675D01*
X588423Y574729D01*
X588481Y574780D01*
X588542Y574828D01*
X588605Y574873D01*
X588670Y574914D01*
X588737Y574952D01*
X588806Y574987D01*
X588877Y575017D01*
X588949Y575045D01*
X589023Y575068D01*
X589097Y575088D01*
X589173Y575104D01*
X589249Y575116D01*
X589326Y575124D01*
X589403Y575128D01*
X589481Y575128D01*
X589558Y575124D01*
X589635Y575116D01*
X589711Y575104D01*
X589787Y575088D01*
X589861Y575068D01*
X589935Y575045D01*
X590007Y575017D01*
X590078Y574987D01*
X590147Y574952D01*
X590214Y574914D01*
X590279Y574873D01*
X590342Y574828D01*
X590403Y574780D01*
X590461Y574729D01*
X590516Y574675D01*
X590569Y574618D01*
X590618Y574559D01*
X590665Y574497D01*
X590708Y574433D01*
X590747Y574367D01*
X590784Y574299D01*
X590816Y574229D01*
X590846Y574157D01*
X590871Y574084D01*
X590893Y574010D01*
X590910Y573935D01*
X590924Y573859D01*
X590934Y573782D01*
X590940Y573705D01*
X590942Y573628D01*
X590940Y573551D01*
X590934Y573474D01*
X590924Y573397D01*
X590910Y573321D01*
X590893Y573246D01*
X590871Y573172D01*
X590846Y573099D01*
X590816Y573027D01*
X590784Y572957D01*
X590747Y572889D01*
X590708Y572823D01*
X590665Y572759D01*
X590618Y572697D01*
X590569Y572638D01*
X590516Y572581D01*
X590461Y572527D01*
X590403Y572476D01*
X590342Y572428D01*
X590279Y572383D01*
X590214Y572342D01*
X590147Y572304D01*
X590078Y572269D01*
X590007Y572239D01*
X589935Y572211D01*
X589861Y572188D01*
X589787Y572168D01*
X589711Y572152D01*
X589635Y572140D01*
X589558Y572132D01*
X589481Y572128D01*
X589403Y572128D01*
X589326Y572132D01*
X589249Y572140D01*
X589173Y572152D01*
X589097Y572168D01*
X589023Y572188D01*
X588949Y572211D01*
X588877Y572239D01*
X588806Y572269D01*
X588737Y572304D01*
X588670Y572342D01*
X588605Y572383D01*
X588542Y572428D01*
X588481Y572476D01*
X588423Y572527D01*
X588368Y572581D01*
X588315Y572638D01*
X588266Y572697D01*
X588219Y572759D01*
X588176Y572823D01*
X588137Y572889D01*
X588100Y572957D01*
X588068Y573027D01*
X588038Y573099D01*
X588013Y573172D01*
X587991Y573246D01*
X587974Y573321D01*
X587960Y573397D01*
X587950Y573474D01*
X587944Y573551D01*
X587942Y573628D01*
D11*
X616293Y507322D02*
X615065Y506093D01*
X615065Y503636D01*
X616293Y502407D01*
X621208Y502407D01*
X622437Y503636D01*
X622437Y506093D01*
X621208Y507322D01*
X622437Y512348D02*
X615065Y512348D01*
X615065Y509891D02*
X615065Y514806D01*
X616293Y519833D02*
X615065Y522290D01*
X616293Y519833D02*
X618751Y517375D01*
X621208Y517375D01*
X622437Y518604D01*
X622437Y521061D01*
X621208Y522290D01*
X619980Y522290D01*
X618751Y521061D01*
X618751Y517375D01*
X618751Y524859D02*
X618751Y529774D01*
X622437Y532344D02*
X622437Y537258D01*
X622437Y532344D02*
X617522Y537258D01*
X616293Y537258D01*
X615065Y536030D01*
X615065Y533572D01*
X616293Y532344D01*
X462407Y491009D02*
X455035Y491009D01*
X455035Y494695D01*
X456263Y495923D01*
X458721Y495923D01*
X459950Y494695D01*
X459950Y491009D01*
X459950Y493466D02*
X462407Y495923D01*
X457492Y498493D02*
X455035Y500950D01*
X462407Y500950D01*
X462407Y498493D02*
X462407Y503408D01*
X455035Y505977D02*
X455035Y510892D01*
X455035Y505977D02*
X458721Y505977D01*
X457492Y508434D01*
X457492Y509663D01*
X458721Y510892D01*
X461178Y510892D01*
X462407Y509663D01*
X462407Y507206D01*
X461178Y505977D01*
X462407Y526569D02*
X455035Y526569D01*
X455035Y530255D01*
X456263Y531483D01*
X458721Y531483D01*
X459950Y530255D01*
X459950Y526569D01*
X459950Y529026D02*
X462407Y531483D01*
X457492Y534053D02*
X455035Y536510D01*
X462407Y536510D01*
X462407Y534053D02*
X462407Y538968D01*
X456263Y543994D02*
X455035Y546452D01*
X456263Y543994D02*
X458721Y541537D01*
X461178Y541537D01*
X462407Y542766D01*
X462407Y545223D01*
X461178Y546452D01*
X459950Y546452D01*
X458721Y545223D01*
X458721Y541537D01*
X48895Y111633D02*
X41523Y111633D01*
X41523Y115319D01*
X42751Y116548D01*
X45209Y116548D01*
X46438Y115319D01*
X46438Y111633D01*
X46438Y114090D02*
X48895Y116548D01*
X48895Y119117D02*
X48895Y124032D01*
X48895Y119117D02*
X43980Y124032D01*
X42751Y124032D01*
X41523Y122803D01*
X41523Y120346D01*
X42751Y119117D01*
X42751Y126601D02*
X47666Y126601D01*
X42751Y126601D02*
X41523Y127830D01*
X41523Y130287D01*
X42751Y131516D01*
X47666Y131516D01*
X48895Y130287D01*
X48895Y127830D01*
X47666Y126601D01*
X42751Y131516D01*
D17*
X37592Y94254D03*
D11*
X23955Y84036D02*
X22727Y82807D01*
X22727Y80350D01*
X23955Y79121D01*
X28870Y79121D01*
X30099Y80350D01*
X30099Y82807D01*
X28870Y84036D01*
X30099Y86605D02*
X22727Y86605D01*
X22727Y91520D01*
X26413Y89063D02*
X26413Y86605D01*
X25184Y94089D02*
X22727Y96547D01*
X30099Y96547D01*
X30099Y99004D02*
X30099Y94089D01*
X26413Y101573D02*
X26413Y106488D01*
X30099Y109058D02*
X30099Y113972D01*
X30099Y109058D02*
X25184Y113972D01*
X23955Y113972D01*
X22727Y112744D01*
X22727Y110286D01*
X23955Y109058D01*
X288157Y353317D02*
X289385Y354546D01*
X288157Y353317D02*
X288157Y350860D01*
X289385Y349631D01*
X294300Y349631D01*
X295529Y350860D01*
X295529Y353317D01*
X294300Y354546D01*
X289385Y357115D02*
X288157Y358344D01*
X288157Y360801D01*
X289385Y362030D01*
X290614Y362030D01*
X291843Y360801D01*
X291843Y359573D01*
X291843Y360801D02*
X293072Y362030D01*
X294300Y362030D01*
X295529Y360801D01*
X295529Y358344D01*
X294300Y357115D01*
X294300Y364599D02*
X289385Y364599D01*
X288157Y365828D01*
X288157Y368285D01*
X289385Y369514D01*
X294300Y369514D01*
X295529Y368285D01*
X295529Y365828D01*
X294300Y364599D01*
X289385Y369514D01*
X351657Y327917D02*
X352885Y329146D01*
X351657Y327917D02*
X351657Y325460D01*
X352885Y324231D01*
X357800Y324231D01*
X359029Y325460D01*
X359029Y327917D01*
X357800Y329146D01*
X359029Y331715D02*
X359029Y336630D01*
X359029Y331715D02*
X354114Y336630D01*
X352885Y336630D01*
X351657Y335401D01*
X351657Y332944D01*
X352885Y331715D01*
X357800Y339199D02*
X359029Y340428D01*
X359029Y342885D01*
X357800Y344114D01*
X352885Y344114D01*
X351657Y342885D01*
X351657Y340428D01*
X352885Y339199D01*
X354114Y339199D01*
X355343Y340428D01*
X355343Y344114D01*
X245999Y425831D02*
X238627Y425831D01*
X238627Y429517D01*
X239855Y430746D01*
X242313Y430746D01*
X243542Y429517D01*
X243542Y425831D01*
X243542Y428288D02*
X245999Y430746D01*
X245999Y433315D02*
X245999Y438230D01*
X245999Y433315D02*
X241084Y438230D01*
X239855Y438230D01*
X238627Y437001D01*
X238627Y434544D01*
X239855Y433315D01*
X239855Y443257D02*
X238627Y445714D01*
X239855Y443257D02*
X242313Y440799D01*
X244770Y440799D01*
X245999Y442028D01*
X245999Y444485D01*
X244770Y445714D01*
X243542Y445714D01*
X242313Y444485D01*
X242313Y440799D01*
X378327Y324231D02*
X385699Y324231D01*
X378327Y324231D02*
X378327Y327917D01*
X379555Y329146D01*
X382013Y329146D01*
X383242Y327917D01*
X383242Y324231D01*
X383242Y326688D02*
X385699Y329146D01*
X385699Y331715D02*
X385699Y336630D01*
X385699Y331715D02*
X380784Y336630D01*
X379555Y336630D01*
X378327Y335401D01*
X378327Y332944D01*
X379555Y331715D01*
X379555Y339199D02*
X378327Y340428D01*
X378327Y342885D01*
X379555Y344114D01*
X380784Y344114D01*
X382013Y342885D01*
X383242Y344114D01*
X384470Y344114D01*
X385699Y342885D01*
X385699Y340428D01*
X384470Y339199D01*
X383242Y339199D01*
X382013Y340428D01*
X380784Y339199D01*
X379555Y339199D01*
X382013Y340428D02*
X382013Y342885D01*
D19*
X416250Y81280D02*
X416252Y81369D01*
X416258Y81458D01*
X416268Y81547D01*
X416282Y81635D01*
X416299Y81722D01*
X416321Y81808D01*
X416347Y81894D01*
X416376Y81978D01*
X416409Y82061D01*
X416445Y82142D01*
X416486Y82222D01*
X416529Y82299D01*
X416576Y82375D01*
X416627Y82448D01*
X416680Y82519D01*
X416737Y82588D01*
X416797Y82654D01*
X416860Y82718D01*
X416925Y82778D01*
X416993Y82836D01*
X417064Y82890D01*
X417137Y82941D01*
X417212Y82989D01*
X417289Y83034D01*
X417368Y83075D01*
X417449Y83112D01*
X417531Y83146D01*
X417615Y83177D01*
X417700Y83203D01*
X417786Y83226D01*
X417873Y83244D01*
X417961Y83259D01*
X418050Y83270D01*
X418139Y83277D01*
X418228Y83280D01*
X418317Y83279D01*
X418406Y83274D01*
X418494Y83265D01*
X418583Y83252D01*
X418670Y83235D01*
X418757Y83215D01*
X418843Y83190D01*
X418927Y83162D01*
X419010Y83130D01*
X419092Y83094D01*
X419172Y83055D01*
X419250Y83012D01*
X419326Y82966D01*
X419400Y82916D01*
X419472Y82863D01*
X419541Y82807D01*
X419608Y82748D01*
X419672Y82686D01*
X419733Y82622D01*
X419792Y82554D01*
X419847Y82484D01*
X419899Y82412D01*
X419948Y82337D01*
X419993Y82261D01*
X420035Y82182D01*
X420073Y82102D01*
X420108Y82020D01*
X420139Y81936D01*
X420167Y81851D01*
X420190Y81765D01*
X420210Y81678D01*
X420226Y81591D01*
X420238Y81502D01*
X420246Y81414D01*
X420250Y81325D01*
X420250Y81235D01*
X420246Y81146D01*
X420238Y81058D01*
X420226Y80969D01*
X420210Y80882D01*
X420190Y80795D01*
X420167Y80709D01*
X420139Y80624D01*
X420108Y80540D01*
X420073Y80458D01*
X420035Y80378D01*
X419993Y80299D01*
X419948Y80223D01*
X419899Y80148D01*
X419847Y80076D01*
X419792Y80006D01*
X419733Y79938D01*
X419672Y79874D01*
X419608Y79812D01*
X419541Y79753D01*
X419472Y79697D01*
X419400Y79644D01*
X419326Y79594D01*
X419250Y79548D01*
X419172Y79505D01*
X419092Y79466D01*
X419010Y79430D01*
X418927Y79398D01*
X418843Y79370D01*
X418757Y79345D01*
X418670Y79325D01*
X418583Y79308D01*
X418494Y79295D01*
X418406Y79286D01*
X418317Y79281D01*
X418228Y79280D01*
X418139Y79283D01*
X418050Y79290D01*
X417961Y79301D01*
X417873Y79316D01*
X417786Y79334D01*
X417700Y79357D01*
X417615Y79383D01*
X417531Y79414D01*
X417449Y79448D01*
X417368Y79485D01*
X417289Y79526D01*
X417212Y79571D01*
X417137Y79619D01*
X417064Y79670D01*
X416993Y79724D01*
X416925Y79782D01*
X416860Y79842D01*
X416797Y79906D01*
X416737Y79972D01*
X416680Y80041D01*
X416627Y80112D01*
X416576Y80185D01*
X416529Y80261D01*
X416486Y80338D01*
X416445Y80418D01*
X416409Y80499D01*
X416376Y80582D01*
X416347Y80666D01*
X416321Y80752D01*
X416299Y80838D01*
X416282Y80925D01*
X416268Y81013D01*
X416258Y81102D01*
X416252Y81191D01*
X416250Y81280D01*
D16*
X450150Y-29720D02*
X540150Y-29720D01*
X540150Y4280D01*
X540150Y36280D02*
X540150Y65280D01*
X540150Y97280D02*
X540150Y118280D01*
X508150Y118280D01*
X508150Y112780D01*
X473650Y112780D01*
X473650Y107780D01*
X450150Y107780D01*
X450150Y97280D01*
X450150Y65280D02*
X450150Y36280D01*
X450150Y4280D02*
X450150Y-29720D01*
D11*
X498770Y33401D02*
X499999Y34630D01*
X499999Y35858D01*
X498770Y37087D01*
X492627Y37087D01*
X492627Y35858D02*
X492627Y38316D01*
X492627Y44571D02*
X499999Y44571D01*
X496313Y40885D02*
X492627Y44571D01*
X496313Y45800D02*
X496313Y40885D01*
D20*
X380506Y75838D02*
X380309Y75108D01*
X380094Y74383D01*
X379862Y73664D01*
X379612Y72951D01*
X379345Y72243D01*
X379060Y71543D01*
X378759Y70850D01*
X378441Y70164D01*
X378106Y69486D01*
X377754Y68817D01*
X377387Y68156D01*
X377003Y67505D01*
X376603Y66863D01*
X376188Y66231D01*
X375758Y65610D01*
X375313Y64999D01*
X374853Y64399D01*
X374378Y63811D01*
X373889Y63234D01*
X373386Y62670D01*
X372870Y62118D01*
X372340Y61579D01*
X371797Y61052D01*
X371241Y60540D01*
X370674Y60041D01*
X370094Y59556D01*
X369502Y59085D01*
X368899Y58629D01*
X368285Y58188D01*
X367661Y57762D01*
X367026Y57351D01*
X366382Y56956D01*
X365728Y56577D01*
X365065Y56213D01*
X364393Y55866D01*
X363713Y55536D01*
X363025Y55223D01*
X362330Y54926D01*
X361628Y54646D01*
X360919Y54384D01*
X360203Y54139D01*
X359483Y53911D01*
X358756Y53701D01*
X358025Y53509D01*
X357289Y53335D01*
X356550Y53179D01*
X355806Y53041D01*
X355060Y52921D01*
X354311Y52820D01*
X353560Y52737D01*
X352806Y52672D01*
X352052Y52625D01*
X351296Y52597D01*
X350540Y52588D01*
X349785Y52597D01*
X349029Y52624D01*
X348274Y52670D01*
X347521Y52735D01*
X346770Y52817D01*
X346021Y52918D01*
X345274Y53038D01*
X344531Y53175D01*
X343791Y53331D01*
X343055Y53504D01*
X342324Y53696D01*
X341597Y53905D01*
X340876Y54132D01*
X340161Y54377D01*
X339452Y54639D01*
X338749Y54918D01*
X338054Y55214D01*
X337366Y55527D01*
X336686Y55857D01*
X336014Y56204D01*
X335350Y56566D01*
X334696Y56945D01*
X334051Y57340D01*
X333417Y57750D01*
X332792Y58176D01*
X332178Y58616D01*
X331574Y59072D01*
X330983Y59542D01*
X330402Y60027D01*
X329834Y60526D01*
X329278Y61038D01*
X328735Y61564D01*
X328205Y62103D01*
X327688Y62654D01*
X327185Y63218D01*
X326695Y63795D01*
X326220Y64383D01*
X325760Y64982D01*
X325314Y65593D01*
X324883Y66214D01*
X324468Y66846D01*
X324068Y67487D01*
X323684Y68138D01*
X323316Y68799D01*
X322964Y69468D01*
X322628Y70145D01*
X322310Y70831D01*
X322008Y71524D01*
X321723Y72224D01*
X321455Y72931D01*
X321205Y73644D01*
X320972Y74363D01*
X320757Y75088D01*
X383006Y75588D02*
X383006Y51088D01*
X326006Y51088D01*
X318006Y59088D01*
X318006Y108088D02*
X326006Y116088D01*
X383006Y116088D01*
X383006Y90588D01*
X380255Y92088D02*
X380040Y92813D01*
X379807Y93532D01*
X379557Y94245D01*
X379289Y94952D01*
X379004Y95652D01*
X378702Y96345D01*
X378384Y97031D01*
X378048Y97708D01*
X377696Y98377D01*
X377328Y99038D01*
X376944Y99689D01*
X376544Y100330D01*
X376129Y100962D01*
X375698Y101583D01*
X375252Y102194D01*
X374792Y102793D01*
X374317Y103381D01*
X373827Y103958D01*
X373324Y104522D01*
X372807Y105073D01*
X372277Y105612D01*
X371734Y106138D01*
X371178Y106650D01*
X370610Y107149D01*
X370029Y107634D01*
X369438Y108104D01*
X368834Y108560D01*
X368220Y109000D01*
X367595Y109426D01*
X366961Y109836D01*
X366316Y110231D01*
X365662Y110610D01*
X364998Y110972D01*
X364326Y111319D01*
X363646Y111649D01*
X362958Y111962D01*
X362263Y112258D01*
X361560Y112537D01*
X360851Y112799D01*
X360136Y113044D01*
X359415Y113271D01*
X358688Y113480D01*
X357957Y113672D01*
X357221Y113845D01*
X356481Y114001D01*
X355738Y114138D01*
X354991Y114258D01*
X354242Y114359D01*
X353491Y114441D01*
X352738Y114506D01*
X351983Y114552D01*
X351227Y114579D01*
X350472Y114588D01*
X349716Y114579D01*
X348960Y114551D01*
X348206Y114504D01*
X347452Y114439D01*
X346701Y114356D01*
X345952Y114255D01*
X345206Y114135D01*
X344462Y113997D01*
X343723Y113841D01*
X342987Y113667D01*
X342256Y113475D01*
X341529Y113265D01*
X340809Y113037D01*
X340093Y112792D01*
X339384Y112530D01*
X338682Y112250D01*
X337987Y111953D01*
X337299Y111640D01*
X336619Y111310D01*
X335947Y110963D01*
X335284Y110599D01*
X334630Y110220D01*
X333986Y109825D01*
X333351Y109414D01*
X332727Y108988D01*
X332113Y108547D01*
X331510Y108091D01*
X330918Y107620D01*
X330338Y107135D01*
X329771Y106636D01*
X329215Y106124D01*
X328672Y105597D01*
X328142Y105058D01*
X327626Y104506D01*
X327123Y103942D01*
X326634Y103365D01*
X326159Y102777D01*
X325699Y102177D01*
X325254Y101566D01*
X324824Y100945D01*
X324409Y100313D01*
X324009Y99671D01*
X323625Y99020D01*
X323258Y98359D01*
X322906Y97690D01*
X322571Y97012D01*
X322253Y96326D01*
X321952Y95633D01*
X321667Y94933D01*
X321400Y94225D01*
X321150Y93512D01*
X320918Y92793D01*
X320703Y92068D01*
X320506Y91338D01*
D11*
X344223Y105691D02*
X345452Y104463D01*
X344223Y105691D02*
X341766Y105691D01*
X340537Y104463D01*
X340537Y99548D01*
X341766Y98319D01*
X344223Y98319D01*
X345452Y99548D01*
X348021Y104463D02*
X349250Y105691D01*
X351707Y105691D01*
X352936Y104463D01*
X352936Y103234D01*
X351707Y102005D01*
X350479Y102005D01*
X351707Y102005D02*
X352936Y100776D01*
X352936Y99548D01*
X351707Y98319D01*
X349250Y98319D01*
X348021Y99548D01*
X355505Y104463D02*
X356734Y105691D01*
X359191Y105691D01*
X360420Y104463D01*
X360420Y103234D01*
X359191Y102005D01*
X357963Y102005D01*
X359191Y102005D02*
X360420Y100776D01*
X360420Y99548D01*
X359191Y98319D01*
X356734Y98319D01*
X355505Y99548D01*
X320421Y157861D02*
X320421Y165233D01*
X324107Y165233D01*
X325336Y164005D01*
X325336Y161547D01*
X324107Y160318D01*
X320421Y160318D01*
X322878Y160318D02*
X325336Y157861D01*
X327905Y157861D02*
X332820Y157861D01*
X327905Y157861D02*
X332820Y162776D01*
X332820Y164005D01*
X331591Y165233D01*
X329134Y165233D01*
X327905Y164005D01*
X335389Y164005D02*
X336618Y165233D01*
X339075Y165233D01*
X340304Y164005D01*
X340304Y162776D01*
X339075Y161547D01*
X337847Y161547D01*
X339075Y161547D02*
X340304Y160318D01*
X340304Y159090D01*
X339075Y157861D01*
X336618Y157861D01*
X335389Y159090D01*
X247524Y32545D02*
X248753Y31316D01*
X247524Y32545D02*
X245067Y32545D01*
X243838Y31316D01*
X243838Y26401D01*
X245067Y25172D01*
X247524Y25172D01*
X248753Y26401D01*
X251322Y31316D02*
X252551Y32545D01*
X255008Y32545D01*
X256237Y31316D01*
X256237Y30087D01*
X255008Y28858D01*
X253780Y28858D01*
X255008Y28858D02*
X256237Y27630D01*
X256237Y26401D01*
X255008Y25172D01*
X252551Y25172D01*
X251322Y26401D01*
X262492Y25172D02*
X262492Y32545D01*
X258806Y28858D01*
X263721Y28858D01*
D21*
X147442Y85742D02*
X67442Y85742D01*
X67442Y167242D02*
X147442Y167242D01*
D11*
X103895Y171323D02*
X103895Y178695D01*
X103895Y171323D02*
X108810Y171323D01*
X111379Y176238D02*
X113836Y178695D01*
X113836Y171323D01*
X111379Y171323D02*
X116294Y171323D01*
X377447Y165233D02*
X378676Y164005D01*
X377447Y165233D02*
X374990Y165233D01*
X373761Y164005D01*
X373761Y159090D01*
X374990Y157861D01*
X377447Y157861D01*
X378676Y159090D01*
X381245Y164005D02*
X382474Y165233D01*
X384931Y165233D01*
X386160Y164005D01*
X386160Y162776D01*
X384931Y161547D01*
X383703Y161547D01*
X384931Y161547D02*
X386160Y160318D01*
X386160Y159090D01*
X384931Y157861D01*
X382474Y157861D01*
X381245Y159090D01*
X388729Y157861D02*
X393644Y157861D01*
X388729Y157861D02*
X393644Y162776D01*
X393644Y164005D01*
X392415Y165233D01*
X389958Y165233D01*
X388729Y164005D01*
X261836Y164005D02*
X260607Y165233D01*
X258150Y165233D01*
X256921Y164005D01*
X256921Y159090D01*
X258150Y157861D01*
X260607Y157861D01*
X261836Y159090D01*
X264405Y164005D02*
X265634Y165233D01*
X268091Y165233D01*
X269320Y164005D01*
X269320Y162776D01*
X268091Y161547D01*
X266863Y161547D01*
X268091Y161547D02*
X269320Y160318D01*
X269320Y159090D01*
X268091Y157861D01*
X265634Y157861D01*
X264405Y159090D01*
X271889Y162776D02*
X274347Y165233D01*
X274347Y157861D01*
X276804Y157861D02*
X271889Y157861D01*
X345821Y157861D02*
X345821Y165233D01*
X349507Y165233D01*
X350736Y164005D01*
X350736Y161547D01*
X349507Y160318D01*
X345821Y160318D01*
X348278Y160318D02*
X350736Y157861D01*
X353305Y157861D02*
X358220Y157861D01*
X353305Y157861D02*
X358220Y162776D01*
X358220Y164005D01*
X356991Y165233D01*
X354534Y165233D01*
X353305Y164005D01*
X360789Y157861D02*
X365704Y157861D01*
X360789Y157861D02*
X365704Y162776D01*
X365704Y164005D01*
X364475Y165233D01*
X362018Y165233D01*
X360789Y164005D01*
X295505Y39969D02*
X288133Y39969D01*
X288133Y43655D01*
X289361Y44884D01*
X291819Y44884D01*
X293048Y43655D01*
X293048Y39969D01*
X293048Y42426D02*
X295505Y44884D01*
X295505Y47453D02*
X295505Y52368D01*
X295505Y47453D02*
X290590Y52368D01*
X289361Y52368D01*
X288133Y51139D01*
X288133Y48682D01*
X289361Y47453D01*
X290590Y54937D02*
X288133Y57395D01*
X295505Y57395D01*
X295505Y59852D02*
X295505Y54937D01*
X62055Y63716D02*
X60827Y62487D01*
X60827Y60030D01*
X62055Y58801D01*
X66970Y58801D01*
X68199Y60030D01*
X68199Y62487D01*
X66970Y63716D01*
X62055Y66285D02*
X60827Y67514D01*
X60827Y69971D01*
X62055Y71200D01*
X63284Y71200D01*
X64513Y69971D01*
X64513Y68743D01*
X64513Y69971D02*
X65742Y71200D01*
X66970Y71200D01*
X68199Y69971D01*
X68199Y67514D01*
X66970Y66285D01*
X62055Y76227D02*
X60827Y78684D01*
X62055Y76227D02*
X64513Y73769D01*
X66970Y73769D01*
X68199Y74998D01*
X68199Y77455D01*
X66970Y78684D01*
X65742Y78684D01*
X64513Y77455D01*
X64513Y73769D01*
D14*
X347414Y47325D03*
D15*
X356444Y48884D02*
X356444Y44825D01*
X356444Y48884D02*
X398444Y48884D01*
X398444Y44825D01*
X356444Y3943D02*
X356444Y-116D01*
X398444Y-116D01*
X398444Y3943D01*
D11*
X366599Y8001D02*
X366599Y15373D01*
X370285Y15373D01*
X371514Y14145D01*
X371514Y12916D01*
X370285Y11687D01*
X371514Y10458D01*
X371514Y9230D01*
X370285Y8001D01*
X366599Y8001D01*
X366599Y11687D02*
X370285Y11687D01*
X374083Y8001D02*
X374083Y15373D01*
X377769Y15373D01*
X378998Y14145D01*
X378998Y11687D01*
X377769Y10458D01*
X374083Y10458D01*
X376540Y10458D02*
X378998Y8001D01*
X381567Y12916D02*
X384025Y15373D01*
X384025Y8001D01*
X386482Y8001D02*
X381567Y8001D01*
D10*
X524800Y480340D02*
X524800Y550340D01*
X586800Y550340D01*
X594800Y550340D01*
X594800Y480340D01*
X586800Y480340D01*
X524800Y480340D01*
X586800Y480340D02*
X586800Y550340D01*
D11*
X554293Y577263D02*
X553064Y578491D01*
X550606Y578491D01*
X549378Y577263D01*
X549378Y572348D01*
X550606Y571119D01*
X553064Y571119D01*
X554293Y572348D01*
X559319Y571119D02*
X559319Y578491D01*
X556862Y578491D02*
X561777Y578491D01*
X566803Y577263D02*
X569261Y578491D01*
X566803Y577263D02*
X564346Y574805D01*
X564346Y572348D01*
X565575Y571119D01*
X568032Y571119D01*
X569261Y572348D01*
X569261Y573576D01*
X568032Y574805D01*
X564346Y574805D01*
D10*
X524800Y411910D02*
X524800Y341910D01*
X524800Y411910D02*
X586800Y411910D01*
X594800Y411910D01*
X594800Y341910D01*
X586800Y341910D01*
X524800Y341910D01*
X586800Y341910D02*
X586800Y411910D01*
D11*
X560693Y436547D02*
X559465Y437775D01*
X557007Y437775D01*
X555779Y436547D01*
X555779Y431632D01*
X557007Y430403D01*
X559465Y430403D01*
X560693Y431632D01*
X565720Y430403D02*
X565720Y437775D01*
X563263Y437775D02*
X568178Y437775D01*
X570747Y437775D02*
X575662Y437775D01*
X570747Y437775D02*
X570747Y434089D01*
X573204Y435318D01*
X574433Y435318D01*
X575662Y434089D01*
X575662Y431632D01*
X574433Y430403D01*
X571976Y430403D01*
X570747Y431632D01*
D10*
X524800Y272210D02*
X524800Y202210D01*
X524800Y272210D02*
X586800Y272210D01*
X594800Y272210D01*
X594800Y202210D01*
X586800Y202210D01*
X524800Y202210D01*
X586800Y202210D02*
X586800Y272210D01*
D11*
X560693Y296847D02*
X559465Y298075D01*
X557007Y298075D01*
X555779Y296847D01*
X555779Y291932D01*
X557007Y290703D01*
X559465Y290703D01*
X560693Y291932D01*
X565720Y290703D02*
X565720Y298075D01*
X563263Y298075D02*
X568178Y298075D01*
X574433Y298075D02*
X574433Y290703D01*
X570747Y294389D02*
X574433Y298075D01*
X575662Y294389D02*
X570747Y294389D01*
D10*
X84800Y480900D02*
X84800Y550900D01*
X84800Y480900D02*
X22800Y480900D01*
X14800Y480900D01*
X14800Y550900D01*
X22800Y550900D01*
X84800Y550900D01*
X22800Y550900D02*
X22800Y480900D01*
D11*
X19266Y572945D02*
X18037Y574173D01*
X15580Y574173D01*
X14351Y572945D01*
X14351Y568030D01*
X15580Y566801D01*
X18037Y566801D01*
X19266Y568030D01*
X24293Y566801D02*
X24293Y574173D01*
X26750Y574173D02*
X21835Y574173D01*
X29319Y571716D02*
X31777Y574173D01*
X31777Y566801D01*
X34234Y566801D02*
X29319Y566801D01*
D10*
X84800Y411200D02*
X84800Y341200D01*
X22800Y341200D01*
X14800Y341200D01*
X14800Y411200D01*
X22800Y411200D01*
X84800Y411200D01*
X22800Y411200D02*
X22800Y341200D01*
D11*
X19266Y433245D02*
X18037Y434473D01*
X15580Y434473D01*
X14351Y433245D01*
X14351Y428330D01*
X15580Y427101D01*
X18037Y427101D01*
X19266Y428330D01*
X24293Y427101D02*
X24293Y434473D01*
X26750Y434473D02*
X21835Y434473D01*
X29319Y427101D02*
X34234Y427101D01*
X29319Y427101D02*
X34234Y432016D01*
X34234Y433245D01*
X33005Y434473D01*
X30548Y434473D01*
X29319Y433245D01*
D10*
X84800Y271500D02*
X84800Y201500D01*
X22800Y201500D01*
X14800Y201500D01*
X14800Y271500D01*
X22800Y271500D01*
X84800Y271500D01*
X22800Y271500D02*
X22800Y201500D01*
D11*
X19266Y293545D02*
X18037Y294773D01*
X15580Y294773D01*
X14351Y293545D01*
X14351Y288630D01*
X15580Y287401D01*
X18037Y287401D01*
X19266Y288630D01*
X24293Y287401D02*
X24293Y294773D01*
X26750Y294773D02*
X21835Y294773D01*
X29319Y293545D02*
X30548Y294773D01*
X33005Y294773D01*
X34234Y293545D01*
X34234Y292316D01*
X33005Y291087D01*
X31777Y291087D01*
X33005Y291087D02*
X34234Y289858D01*
X34234Y288630D01*
X33005Y287401D01*
X30548Y287401D01*
X29319Y288630D01*
D21*
X237344Y51620D02*
X237344Y36370D01*
D11*
X242443Y64062D02*
X242443Y66520D01*
X242443Y65291D02*
X235071Y65291D01*
X235071Y64062D02*
X235071Y66520D01*
X235071Y72738D02*
X236299Y73966D01*
X235071Y72738D02*
X235071Y70280D01*
X236299Y69052D01*
X241214Y69052D01*
X242443Y70280D01*
X242443Y72738D01*
X241214Y73966D01*
X236299Y76536D02*
X235071Y77764D01*
X235071Y80222D01*
X236299Y81451D01*
X237528Y81451D01*
X238757Y80222D01*
X238757Y78993D01*
X238757Y80222D02*
X239986Y81451D01*
X241214Y81451D01*
X242443Y80222D01*
X242443Y77764D01*
X241214Y76536D01*
X287236Y164005D02*
X286007Y165233D01*
X283550Y165233D01*
X282321Y164005D01*
X282321Y159090D01*
X283550Y157861D01*
X286007Y157861D01*
X287236Y159090D01*
X289805Y164005D02*
X291034Y165233D01*
X293491Y165233D01*
X294720Y164005D01*
X294720Y162776D01*
X293491Y161547D01*
X292263Y161547D01*
X293491Y161547D02*
X294720Y160318D01*
X294720Y159090D01*
X293491Y157861D01*
X291034Y157861D01*
X289805Y159090D01*
X297289Y165233D02*
X302204Y165233D01*
X297289Y165233D02*
X297289Y161547D01*
X299747Y162776D01*
X300975Y162776D01*
X302204Y161547D01*
X302204Y159090D01*
X300975Y157861D01*
X298518Y157861D01*
X297289Y159090D01*
X313557Y349631D02*
X320929Y349631D01*
X313557Y349631D02*
X313557Y353317D01*
X314785Y354546D01*
X317243Y354546D01*
X318472Y353317D01*
X318472Y349631D01*
X318472Y352088D02*
X320929Y354546D01*
X314785Y357115D02*
X313557Y358344D01*
X313557Y360801D01*
X314785Y362030D01*
X316014Y362030D01*
X317243Y360801D01*
X317243Y359573D01*
X317243Y360801D02*
X318472Y362030D01*
X319700Y362030D01*
X320929Y360801D01*
X320929Y358344D01*
X319700Y357115D01*
X320929Y364599D02*
X320929Y369514D01*
X320929Y364599D02*
X316014Y369514D01*
X314785Y369514D01*
X313557Y368285D01*
X313557Y365828D01*
X314785Y364599D01*
X315849Y400431D02*
X308477Y400431D01*
X308477Y404117D01*
X309705Y405346D01*
X312163Y405346D01*
X313392Y404117D01*
X313392Y400431D01*
X313392Y402888D02*
X315849Y405346D01*
X309705Y407915D02*
X308477Y409144D01*
X308477Y411601D01*
X309705Y412830D01*
X310934Y412830D01*
X312163Y411601D01*
X312163Y410373D01*
X312163Y411601D02*
X313392Y412830D01*
X314620Y412830D01*
X315849Y411601D01*
X315849Y409144D01*
X314620Y407915D01*
X315849Y419085D02*
X308477Y419085D01*
X312163Y415399D01*
X312163Y420314D01*
D16*
X359650Y386300D02*
X359650Y350300D01*
X359650Y386300D02*
X389650Y386300D01*
X389650Y351714D01*
X388236Y350300D01*
X359650Y350300D01*
D20*
X355132Y362458D02*
X347251Y362458D01*
X347251Y366398D01*
X348565Y367712D01*
X351192Y367712D01*
X352505Y366398D01*
X352505Y362458D01*
X352505Y365085D02*
X355132Y367712D01*
X349878Y370644D02*
X347251Y373271D01*
X355132Y373271D01*
X355132Y370644D02*
X355132Y375898D01*
X349878Y378830D02*
X347251Y381456D01*
X355132Y381456D01*
X355132Y378830D02*
X355132Y384083D01*
D16*
X288050Y375700D02*
X288050Y411700D01*
X288050Y375700D02*
X258050Y375700D01*
X258050Y410286D01*
X259464Y411700D01*
X288050Y411700D01*
D20*
X253532Y387858D02*
X245651Y387858D01*
X245651Y391798D01*
X246965Y393112D01*
X249592Y393112D01*
X250905Y391798D01*
X250905Y387858D01*
X250905Y390485D02*
X253532Y393112D01*
X253532Y396044D02*
X253532Y401298D01*
X253532Y396044D02*
X248278Y401298D01*
X246965Y401298D01*
X245651Y399984D01*
X245651Y397357D01*
X246965Y396044D01*
X245651Y408170D02*
X253532Y408170D01*
X249592Y404230D02*
X245651Y408170D01*
X249592Y409483D02*
X249592Y404230D01*
D10*
X624550Y74650D02*
X624550Y4650D01*
X562550Y4650D01*
X554550Y4650D01*
X554550Y74650D01*
X562550Y74650D01*
X624550Y74650D01*
X562550Y74650D02*
X562550Y4650D01*
D11*
X588621Y35179D02*
X587393Y36408D01*
X588621Y35179D02*
X589850Y35179D01*
X591079Y36408D01*
X591079Y42551D01*
X589850Y42551D02*
X592308Y42551D01*
X594877Y41323D02*
X596106Y42551D01*
X598563Y42551D01*
X599792Y41323D01*
X599792Y40094D01*
X598563Y38865D01*
X597334Y38865D01*
X598563Y38865D02*
X599792Y37636D01*
X599792Y36408D01*
X598563Y35179D01*
X596106Y35179D01*
X594877Y36408D01*
D22*
X530756Y584492D02*
X530756Y594492D01*
X454256Y594492D02*
X454256Y584492D01*
X530756Y624492D02*
X530756Y634492D01*
X454256Y634492D01*
X454256Y624492D01*
D21*
X455506Y569492D02*
X455508Y569430D01*
X455514Y569369D01*
X455523Y569308D01*
X455536Y569248D01*
X455553Y569189D01*
X455574Y569131D01*
X455598Y569074D01*
X455625Y569019D01*
X455656Y568966D01*
X455690Y568914D01*
X455727Y568865D01*
X455767Y568818D01*
X455810Y568774D01*
X455855Y568733D01*
X455903Y568694D01*
X455954Y568658D01*
X456006Y568626D01*
X456060Y568597D01*
X456116Y568571D01*
X456174Y568549D01*
X456232Y568530D01*
X456292Y568515D01*
X456353Y568504D01*
X456414Y568496D01*
X456475Y568492D01*
X456537Y568492D01*
X456598Y568496D01*
X456659Y568504D01*
X456720Y568515D01*
X456780Y568530D01*
X456838Y568549D01*
X456896Y568571D01*
X456952Y568597D01*
X457006Y568626D01*
X457058Y568658D01*
X457109Y568694D01*
X457157Y568733D01*
X457202Y568774D01*
X457245Y568818D01*
X457285Y568865D01*
X457322Y568914D01*
X457356Y568966D01*
X457387Y569019D01*
X457414Y569074D01*
X457438Y569131D01*
X457459Y569189D01*
X457476Y569248D01*
X457489Y569308D01*
X457498Y569369D01*
X457504Y569430D01*
X457506Y569492D01*
X457504Y569554D01*
X457498Y569615D01*
X457489Y569676D01*
X457476Y569736D01*
X457459Y569795D01*
X457438Y569853D01*
X457414Y569910D01*
X457387Y569965D01*
X457356Y570018D01*
X457322Y570070D01*
X457285Y570119D01*
X457245Y570166D01*
X457202Y570210D01*
X457157Y570251D01*
X457109Y570290D01*
X457058Y570326D01*
X457006Y570358D01*
X456952Y570387D01*
X456896Y570413D01*
X456838Y570435D01*
X456780Y570454D01*
X456720Y570469D01*
X456659Y570480D01*
X456598Y570488D01*
X456537Y570492D01*
X456475Y570492D01*
X456414Y570488D01*
X456353Y570480D01*
X456292Y570469D01*
X456232Y570454D01*
X456174Y570435D01*
X456116Y570413D01*
X456060Y570387D01*
X456006Y570358D01*
X455954Y570326D01*
X455903Y570290D01*
X455855Y570251D01*
X455810Y570210D01*
X455767Y570166D01*
X455727Y570119D01*
X455690Y570070D01*
X455656Y570018D01*
X455625Y569965D01*
X455598Y569910D01*
X455574Y569853D01*
X455553Y569795D01*
X455536Y569736D01*
X455523Y569676D01*
X455514Y569615D01*
X455508Y569554D01*
X455506Y569492D01*
D11*
X542553Y611738D02*
X543782Y610509D01*
X545010Y610509D01*
X546239Y611738D01*
X546239Y617881D01*
X545010Y617881D02*
X547468Y617881D01*
X550037Y611738D02*
X551266Y610509D01*
X553723Y610509D01*
X554952Y611738D01*
X554952Y616653D01*
X553723Y617881D01*
X551266Y617881D01*
X550037Y616653D01*
X550037Y615424D01*
X551266Y614195D01*
X554952Y614195D01*
D23*
X209550Y77850D02*
X217050Y67350D01*
X202550Y67350D01*
X209550Y77850D01*
D24*
X209550Y78350D03*
D11*
X196121Y62867D02*
X188749Y62867D01*
X196121Y62867D02*
X196121Y66553D01*
X194892Y67782D01*
X189977Y67782D01*
X188749Y66553D01*
X188749Y62867D01*
X191206Y70351D02*
X188749Y72808D01*
X196121Y72808D01*
X196121Y70351D02*
X196121Y75266D01*
M02*
