G04 EAGLE Gerber RS-274X export*
G75*
%MOMM*%
%FSLAX34Y34*%
%LPD*%
%INSilkscreen Bottom*%
%IPPOS*%
%AMOC8*
5,1,8,0,0,1.08239X$1,22.5*%
G01*
%ADD10C,0.076200*%
%ADD11C,0.050800*%
%ADD12C,0.152400*%

G36*
X91898Y578626D02*
X91898Y578626D01*
X92006Y578636D01*
X92019Y578642D01*
X92033Y578644D01*
X92130Y578692D01*
X92229Y578737D01*
X92242Y578748D01*
X92251Y578752D01*
X92266Y578768D01*
X92343Y578830D01*
X94928Y581415D01*
X94991Y581504D01*
X95057Y581589D01*
X95062Y581602D01*
X95070Y581614D01*
X95101Y581717D01*
X95137Y581820D01*
X95137Y581834D01*
X95141Y581847D01*
X95137Y581955D01*
X95138Y582064D01*
X95133Y582077D01*
X95133Y582091D01*
X95095Y582193D01*
X95060Y582295D01*
X95051Y582310D01*
X95047Y582319D01*
X95033Y582336D01*
X94979Y582418D01*
X92215Y585808D01*
X92772Y586890D01*
X92778Y586910D01*
X92820Y587005D01*
X93191Y588164D01*
X97542Y588607D01*
X97646Y588635D01*
X97752Y588660D01*
X97764Y588667D01*
X97777Y588670D01*
X97867Y588731D01*
X97960Y588788D01*
X97968Y588799D01*
X97980Y588807D01*
X98046Y588893D01*
X98115Y588977D01*
X98119Y588990D01*
X98128Y589001D01*
X98162Y589104D01*
X98201Y589205D01*
X98202Y589223D01*
X98206Y589232D01*
X98206Y589254D01*
X98215Y589352D01*
X98215Y593008D01*
X98198Y593115D01*
X98184Y593223D01*
X98178Y593235D01*
X98176Y593249D01*
X98124Y593345D01*
X98077Y593442D01*
X98067Y593452D01*
X98061Y593464D01*
X97981Y593538D01*
X97905Y593615D01*
X97893Y593621D01*
X97883Y593631D01*
X97784Y593676D01*
X97687Y593724D01*
X97669Y593728D01*
X97660Y593732D01*
X97639Y593734D01*
X97542Y593753D01*
X93191Y594196D01*
X92820Y595355D01*
X92811Y595373D01*
X92809Y595380D01*
X92805Y595387D01*
X92772Y595470D01*
X92215Y596552D01*
X94979Y599942D01*
X95033Y600036D01*
X95090Y600128D01*
X95093Y600141D01*
X95100Y600153D01*
X95121Y600260D01*
X95146Y600365D01*
X95144Y600379D01*
X95147Y600393D01*
X95132Y600500D01*
X95122Y600608D01*
X95116Y600621D01*
X95114Y600635D01*
X95066Y600732D01*
X95021Y600831D01*
X95010Y600844D01*
X95006Y600853D01*
X94990Y600868D01*
X94928Y600945D01*
X92343Y603530D01*
X92254Y603593D01*
X92169Y603659D01*
X92156Y603664D01*
X92144Y603672D01*
X92041Y603703D01*
X91938Y603739D01*
X91924Y603739D01*
X91911Y603743D01*
X91803Y603739D01*
X91694Y603740D01*
X91681Y603735D01*
X91667Y603735D01*
X91565Y603697D01*
X91463Y603662D01*
X91448Y603653D01*
X91439Y603649D01*
X91422Y603635D01*
X91340Y603581D01*
X87950Y600817D01*
X86868Y601374D01*
X86848Y601380D01*
X86753Y601422D01*
X85594Y601793D01*
X85151Y606144D01*
X85123Y606248D01*
X85098Y606354D01*
X85091Y606366D01*
X85088Y606379D01*
X85027Y606469D01*
X84970Y606562D01*
X84959Y606570D01*
X84951Y606582D01*
X84865Y606648D01*
X84781Y606717D01*
X84768Y606721D01*
X84757Y606730D01*
X84654Y606764D01*
X84553Y606803D01*
X84535Y606804D01*
X84526Y606808D01*
X84504Y606808D01*
X84406Y606817D01*
X80750Y606817D01*
X80643Y606800D01*
X80535Y606786D01*
X80523Y606780D01*
X80509Y606778D01*
X80413Y606726D01*
X80316Y606679D01*
X80306Y606669D01*
X80294Y606663D01*
X80220Y606583D01*
X80143Y606507D01*
X80137Y606495D01*
X80127Y606485D01*
X80082Y606386D01*
X80034Y606289D01*
X80030Y606271D01*
X80026Y606262D01*
X80024Y606241D01*
X80005Y606144D01*
X79562Y601793D01*
X78403Y601422D01*
X78385Y601412D01*
X78288Y601374D01*
X77206Y600817D01*
X73816Y603581D01*
X73722Y603635D01*
X73630Y603692D01*
X73617Y603695D01*
X73605Y603702D01*
X73498Y603723D01*
X73393Y603748D01*
X73379Y603746D01*
X73365Y603749D01*
X73258Y603734D01*
X73150Y603724D01*
X73137Y603718D01*
X73124Y603716D01*
X73026Y603668D01*
X72927Y603623D01*
X72914Y603612D01*
X72905Y603608D01*
X72890Y603592D01*
X72813Y603530D01*
X70228Y600945D01*
X70165Y600856D01*
X70099Y600771D01*
X70094Y600758D01*
X70086Y600746D01*
X70055Y600643D01*
X70019Y600540D01*
X70019Y600526D01*
X70015Y600513D01*
X70019Y600405D01*
X70018Y600296D01*
X70023Y600283D01*
X70023Y600269D01*
X70061Y600167D01*
X70096Y600065D01*
X70105Y600050D01*
X70109Y600041D01*
X70123Y600024D01*
X70177Y599942D01*
X72941Y596552D01*
X72384Y595470D01*
X72378Y595450D01*
X72336Y595355D01*
X71965Y594196D01*
X67614Y593753D01*
X67510Y593725D01*
X67404Y593700D01*
X67392Y593693D01*
X67379Y593690D01*
X67289Y593629D01*
X67196Y593572D01*
X67188Y593561D01*
X67176Y593553D01*
X67110Y593467D01*
X67042Y593383D01*
X67037Y593370D01*
X67028Y593359D01*
X66994Y593256D01*
X66955Y593155D01*
X66954Y593137D01*
X66950Y593128D01*
X66951Y593106D01*
X66941Y593008D01*
X66941Y589352D01*
X66958Y589245D01*
X66972Y589137D01*
X66978Y589125D01*
X66980Y589111D01*
X67032Y589015D01*
X67079Y588918D01*
X67089Y588908D01*
X67095Y588896D01*
X67175Y588822D01*
X67251Y588745D01*
X67263Y588739D01*
X67274Y588729D01*
X67372Y588684D01*
X67469Y588636D01*
X67487Y588632D01*
X67496Y588628D01*
X67517Y588626D01*
X67614Y588607D01*
X71965Y588164D01*
X72336Y587005D01*
X72346Y586987D01*
X72384Y586890D01*
X72941Y585808D01*
X70177Y582418D01*
X70123Y582324D01*
X70066Y582232D01*
X70063Y582219D01*
X70056Y582207D01*
X70035Y582100D01*
X70010Y581995D01*
X70012Y581981D01*
X70009Y581967D01*
X70024Y581860D01*
X70034Y581752D01*
X70040Y581739D01*
X70042Y581726D01*
X70090Y581628D01*
X70135Y581529D01*
X70146Y581516D01*
X70150Y581507D01*
X70166Y581492D01*
X70228Y581415D01*
X72813Y578830D01*
X72902Y578767D01*
X72987Y578701D01*
X73000Y578696D01*
X73012Y578688D01*
X73115Y578657D01*
X73218Y578621D01*
X73232Y578621D01*
X73245Y578617D01*
X73353Y578621D01*
X73462Y578620D01*
X73475Y578625D01*
X73489Y578625D01*
X73591Y578663D01*
X73693Y578698D01*
X73708Y578707D01*
X73717Y578711D01*
X73734Y578725D01*
X73816Y578779D01*
X77206Y581543D01*
X78288Y580986D01*
X78341Y580969D01*
X78390Y580943D01*
X78456Y580932D01*
X78520Y580911D01*
X78576Y580912D01*
X78630Y580903D01*
X78697Y580914D01*
X78764Y580915D01*
X78816Y580933D01*
X78871Y580942D01*
X78931Y580974D01*
X78994Y580997D01*
X79037Y581031D01*
X79087Y581057D01*
X79133Y581106D01*
X79185Y581148D01*
X79216Y581195D01*
X79254Y581235D01*
X79310Y581340D01*
X79318Y581353D01*
X79319Y581358D01*
X79323Y581365D01*
X81476Y586562D01*
X81496Y586645D01*
X81501Y586658D01*
X81503Y586674D01*
X81528Y586759D01*
X81527Y586780D01*
X81532Y586800D01*
X81524Y586882D01*
X81525Y586901D01*
X81521Y586921D01*
X81517Y587002D01*
X81510Y587022D01*
X81508Y587043D01*
X81476Y587112D01*
X81470Y587139D01*
X81455Y587163D01*
X81429Y587230D01*
X81416Y587246D01*
X81407Y587265D01*
X81362Y587314D01*
X81342Y587346D01*
X81311Y587371D01*
X81273Y587417D01*
X81250Y587433D01*
X81240Y587443D01*
X81219Y587455D01*
X81154Y587500D01*
X81153Y587501D01*
X81152Y587502D01*
X80253Y588008D01*
X79566Y588652D01*
X79051Y589440D01*
X78739Y590328D01*
X78647Y591265D01*
X78780Y592197D01*
X79131Y593071D01*
X79680Y593836D01*
X80394Y594449D01*
X81234Y594874D01*
X82151Y595088D01*
X83092Y595078D01*
X84004Y594844D01*
X84834Y594401D01*
X85535Y593772D01*
X86067Y592995D01*
X86398Y592114D01*
X86511Y591179D01*
X86403Y590262D01*
X86083Y589394D01*
X85569Y588625D01*
X84890Y587998D01*
X84006Y587503D01*
X83964Y587470D01*
X83922Y587447D01*
X83891Y587414D01*
X83843Y587379D01*
X83831Y587363D01*
X83815Y587350D01*
X83780Y587295D01*
X83755Y587269D01*
X83742Y587239D01*
X83700Y587181D01*
X83694Y587162D01*
X83684Y587145D01*
X83665Y587070D01*
X83655Y587047D01*
X83652Y587023D01*
X83629Y586948D01*
X83630Y586928D01*
X83625Y586908D01*
X83632Y586822D01*
X83631Y586804D01*
X83634Y586788D01*
X83637Y586704D01*
X83645Y586679D01*
X83646Y586665D01*
X83656Y586643D01*
X83680Y586562D01*
X84609Y584319D01*
X84609Y584318D01*
X85540Y582071D01*
X85541Y582071D01*
X85833Y581365D01*
X85862Y581318D01*
X85883Y581266D01*
X85926Y581215D01*
X85962Y581158D01*
X86005Y581123D01*
X86041Y581080D01*
X86098Y581046D01*
X86150Y581003D01*
X86202Y580984D01*
X86250Y580955D01*
X86316Y580941D01*
X86379Y580917D01*
X86434Y580915D01*
X86488Y580904D01*
X86555Y580911D01*
X86622Y580909D01*
X86676Y580925D01*
X86731Y580932D01*
X86842Y580976D01*
X86856Y580980D01*
X86860Y580983D01*
X86868Y580986D01*
X87950Y581543D01*
X91340Y578779D01*
X91434Y578725D01*
X91526Y578668D01*
X91539Y578665D01*
X91551Y578658D01*
X91658Y578637D01*
X91763Y578612D01*
X91777Y578614D01*
X91791Y578611D01*
X91898Y578626D01*
G37*
D10*
X234791Y597701D02*
X233562Y598929D01*
X231105Y598929D01*
X229876Y597701D01*
X229876Y596472D01*
X231105Y595243D01*
X232334Y595243D01*
X231105Y595243D02*
X229876Y594014D01*
X229876Y592786D01*
X231105Y591557D01*
X233562Y591557D01*
X234791Y592786D01*
X227307Y594014D02*
X227307Y598929D01*
X227307Y594014D02*
X224849Y591557D01*
X222392Y594014D01*
X222392Y598929D01*
X219823Y597701D02*
X218594Y598929D01*
X216137Y598929D01*
X214908Y597701D01*
X214908Y596472D01*
X216137Y595243D01*
X217365Y595243D01*
X216137Y595243D02*
X214908Y594014D01*
X214908Y592786D01*
X216137Y591557D01*
X218594Y591557D01*
X219823Y592786D01*
X231105Y586737D02*
X233562Y586737D01*
X234791Y585509D01*
X234791Y580594D01*
X233562Y579365D01*
X231105Y579365D01*
X229876Y580594D01*
X229876Y585509D01*
X231105Y586737D01*
X227307Y586737D02*
X227307Y580594D01*
X226078Y579365D01*
X223621Y579365D01*
X222392Y580594D01*
X222392Y586737D01*
X217365Y586737D02*
X217365Y579365D01*
X219823Y586737D02*
X214908Y586737D01*
X471561Y571125D02*
X471561Y563753D01*
X469104Y568668D02*
X471561Y571125D01*
X469104Y568668D02*
X466646Y571125D01*
X466646Y563753D01*
X462848Y571125D02*
X460391Y571125D01*
X462848Y571125D02*
X464077Y569897D01*
X464077Y564982D01*
X462848Y563753D01*
X460391Y563753D01*
X459162Y564982D01*
X459162Y569897D01*
X460391Y571125D01*
X452906Y571125D02*
X451678Y569897D01*
X452906Y571125D02*
X455364Y571125D01*
X456593Y569897D01*
X456593Y568668D01*
X455364Y567439D01*
X452906Y567439D01*
X451678Y566210D01*
X451678Y564982D01*
X452906Y563753D01*
X455364Y563753D01*
X456593Y564982D01*
X449108Y563753D02*
X446651Y563753D01*
X447880Y563753D02*
X447880Y571125D01*
X449108Y571125D02*
X446651Y571125D01*
X471561Y418725D02*
X471561Y411353D01*
X469104Y416268D02*
X471561Y418725D01*
X469104Y416268D02*
X466646Y418725D01*
X466646Y411353D01*
X464077Y411353D02*
X461619Y411353D01*
X462848Y411353D02*
X462848Y418725D01*
X464077Y418725D02*
X461619Y418725D01*
X455401Y418725D02*
X454172Y417497D01*
X455401Y418725D02*
X457859Y418725D01*
X459087Y417497D01*
X459087Y416268D01*
X457859Y415039D01*
X455401Y415039D01*
X454172Y413810D01*
X454172Y412582D01*
X455401Y411353D01*
X457859Y411353D01*
X459087Y412582D01*
X450374Y418725D02*
X447917Y418725D01*
X450374Y418725D02*
X451603Y417497D01*
X451603Y412582D01*
X450374Y411353D01*
X447917Y411353D01*
X446688Y412582D01*
X446688Y417497D01*
X447917Y418725D01*
X470370Y393325D02*
X469141Y392097D01*
X470370Y393325D02*
X472827Y393325D01*
X474056Y392097D01*
X474056Y390868D01*
X472827Y389639D01*
X470370Y389639D01*
X469141Y388410D01*
X469141Y387182D01*
X470370Y385953D01*
X472827Y385953D01*
X474056Y387182D01*
X462885Y393325D02*
X461657Y392097D01*
X462885Y393325D02*
X465343Y393325D01*
X466571Y392097D01*
X466571Y387182D01*
X465343Y385953D01*
X462885Y385953D01*
X461657Y387182D01*
X459087Y385953D02*
X459087Y393325D01*
X459087Y385953D02*
X454172Y385953D01*
X451603Y385953D02*
X451603Y393325D01*
X451603Y388410D02*
X446688Y393325D01*
X450374Y389639D02*
X446688Y385953D01*
X461657Y595297D02*
X462885Y596525D01*
X465343Y596525D01*
X466571Y595297D01*
X466571Y590382D01*
X465343Y589153D01*
X462885Y589153D01*
X461657Y590382D01*
X461657Y592839D01*
X464114Y592839D01*
X459087Y589153D02*
X459087Y596525D01*
X454172Y589153D01*
X454172Y596525D01*
X451603Y596525D02*
X451603Y589153D01*
X447917Y589153D01*
X446688Y590382D01*
X446688Y595297D01*
X447917Y596525D01*
X451603Y596525D01*
X164719Y406781D02*
X162262Y406781D01*
X163490Y406781D02*
X163490Y414153D01*
X162262Y414153D02*
X164719Y414153D01*
X159730Y414153D02*
X159730Y406781D01*
X159730Y414153D02*
X156043Y414153D01*
X154815Y412925D01*
X154815Y410467D01*
X156043Y409238D01*
X159730Y409238D01*
X157272Y409238D02*
X154815Y406781D01*
X152245Y408010D02*
X152245Y412925D01*
X151017Y414153D01*
X148559Y414153D01*
X147331Y412925D01*
X147331Y408010D01*
X148559Y406781D01*
X151017Y406781D01*
X152245Y408010D01*
X149788Y409238D02*
X147331Y406781D01*
X144761Y411696D02*
X142304Y414153D01*
X142304Y406781D01*
X144761Y406781D02*
X139846Y406781D01*
X240504Y436753D02*
X242961Y436753D01*
X241732Y436753D02*
X241732Y444125D01*
X240504Y444125D02*
X242961Y444125D01*
X237971Y444125D02*
X237971Y436753D01*
X237971Y444125D02*
X234285Y444125D01*
X233057Y442897D01*
X233057Y440439D01*
X234285Y439210D01*
X237971Y439210D01*
X235514Y439210D02*
X233057Y436753D01*
X230487Y437982D02*
X230487Y442897D01*
X229259Y444125D01*
X226801Y444125D01*
X225572Y442897D01*
X225572Y437982D01*
X226801Y436753D01*
X229259Y436753D01*
X230487Y437982D01*
X228030Y439210D02*
X225572Y436753D01*
X223003Y437982D02*
X223003Y442897D01*
X221774Y444125D01*
X219317Y444125D01*
X218088Y442897D01*
X218088Y437982D01*
X219317Y436753D01*
X221774Y436753D01*
X223003Y437982D01*
X218088Y442897D01*
X164719Y482981D02*
X164719Y490353D01*
X162262Y485438D02*
X164719Y482981D01*
X162262Y485438D02*
X159804Y482981D01*
X159804Y490353D01*
X157235Y487896D02*
X157235Y482981D01*
X157235Y487896D02*
X154777Y490353D01*
X152320Y487896D01*
X152320Y482981D01*
X152320Y486667D02*
X157235Y486667D01*
X149751Y482981D02*
X149751Y490353D01*
X146065Y490353D01*
X144836Y489125D01*
X144836Y486667D01*
X146065Y485438D01*
X149751Y485438D01*
X147293Y485438D02*
X144836Y482981D01*
X142267Y482981D02*
X142267Y490353D01*
X137352Y482981D01*
X137352Y490353D01*
X107693Y12833D02*
X106464Y11605D01*
X107693Y12833D02*
X110150Y12833D01*
X111379Y11605D01*
X111379Y6690D01*
X110150Y5461D01*
X107693Y5461D01*
X106464Y6690D01*
X103895Y5461D02*
X103895Y12833D01*
X98980Y12833D01*
X101437Y9147D02*
X103895Y9147D01*
X92725Y5461D02*
X92725Y12833D01*
X96411Y9147D01*
X91496Y9147D01*
X82293Y12833D02*
X81064Y11605D01*
X82293Y12833D02*
X84750Y12833D01*
X85979Y11605D01*
X85979Y6690D01*
X84750Y5461D01*
X82293Y5461D01*
X81064Y6690D01*
X78495Y5461D02*
X78495Y12833D01*
X73580Y12833D01*
X76037Y9147D02*
X78495Y9147D01*
X71011Y11605D02*
X69782Y12833D01*
X67325Y12833D01*
X66096Y11605D01*
X66096Y10376D01*
X67325Y9147D01*
X68553Y9147D01*
X67325Y9147D02*
X66096Y7918D01*
X66096Y6690D01*
X67325Y5461D01*
X69782Y5461D01*
X71011Y6690D01*
X56893Y12833D02*
X55664Y11605D01*
X56893Y12833D02*
X59350Y12833D01*
X60579Y11605D01*
X60579Y6690D01*
X59350Y5461D01*
X56893Y5461D01*
X55664Y6690D01*
X53095Y5461D02*
X53095Y12833D01*
X48180Y12833D01*
X50637Y9147D02*
X53095Y9147D01*
X45611Y5461D02*
X40696Y5461D01*
X45611Y5461D02*
X40696Y10376D01*
X40696Y11605D01*
X41925Y12833D01*
X44382Y12833D01*
X45611Y11605D01*
X31493Y12833D02*
X30264Y11605D01*
X31493Y12833D02*
X33950Y12833D01*
X35179Y11605D01*
X35179Y6690D01*
X33950Y5461D01*
X31493Y5461D01*
X30264Y6690D01*
X27695Y5461D02*
X27695Y12833D01*
X22780Y12833D01*
X25237Y9147D02*
X27695Y9147D01*
X20211Y10376D02*
X17753Y12833D01*
X17753Y5461D01*
X15296Y5461D02*
X20211Y5461D01*
X217551Y94615D02*
X217551Y101987D01*
X213865Y101987D01*
X212636Y100759D01*
X212636Y98301D01*
X213865Y97072D01*
X217551Y97072D01*
X210067Y95844D02*
X210067Y99530D01*
X210067Y95844D02*
X208838Y94615D01*
X205152Y94615D01*
X205152Y99530D01*
X202583Y101987D02*
X201354Y101987D01*
X201354Y94615D01*
X202583Y94615D02*
X200125Y94615D01*
X197593Y94615D02*
X193907Y94615D01*
X192678Y95844D01*
X193907Y97072D01*
X196365Y97072D01*
X197593Y98301D01*
X196365Y99530D01*
X192678Y99530D01*
X188880Y94615D02*
X186423Y94615D01*
X188880Y94615D02*
X190109Y95844D01*
X190109Y98301D01*
X188880Y99530D01*
X186423Y99530D01*
X185194Y98301D01*
X185194Y97072D01*
X190109Y97072D01*
X173912Y94615D02*
X171455Y94615D01*
X170226Y95844D01*
X170226Y98301D01*
X171455Y99530D01*
X173912Y99530D01*
X175141Y98301D01*
X175141Y95844D01*
X173912Y94615D01*
X167657Y95844D02*
X167657Y99530D01*
X167657Y95844D02*
X166428Y94615D01*
X162742Y94615D01*
X162742Y99530D01*
X158944Y100759D02*
X158944Y95844D01*
X157715Y94615D01*
X157715Y99530D02*
X160172Y99530D01*
X155183Y99530D02*
X155183Y92158D01*
X155183Y99530D02*
X151497Y99530D01*
X150268Y98301D01*
X150268Y95844D01*
X151497Y94615D01*
X155183Y94615D01*
X147699Y95844D02*
X147699Y99530D01*
X147699Y95844D02*
X146470Y94615D01*
X142784Y94615D01*
X142784Y99530D01*
X138986Y100759D02*
X138986Y95844D01*
X137757Y94615D01*
X137757Y99530D02*
X140215Y99530D01*
X135225Y94615D02*
X131539Y94615D01*
X130310Y95844D01*
X131539Y97072D01*
X133997Y97072D01*
X135225Y98301D01*
X133997Y99530D01*
X130310Y99530D01*
X127741Y99530D02*
X126512Y99530D01*
X126512Y98301D01*
X127741Y98301D01*
X127741Y99530D01*
X127741Y95844D02*
X126512Y95844D01*
X126512Y94615D01*
X127741Y94615D01*
X127741Y95844D01*
X212636Y88567D02*
X213865Y89795D01*
X216322Y89795D01*
X217551Y88567D01*
X217551Y83652D01*
X216322Y82423D01*
X213865Y82423D01*
X212636Y83652D01*
X210067Y82423D02*
X210067Y89795D01*
X205152Y89795D01*
X207609Y86109D02*
X210067Y86109D01*
X202583Y87338D02*
X200125Y89795D01*
X200125Y82423D01*
X197668Y82423D02*
X202583Y82423D01*
X195099Y87338D02*
X193870Y87338D01*
X193870Y86109D01*
X195099Y86109D01*
X195099Y87338D01*
X195099Y83652D02*
X193870Y83652D01*
X193870Y82423D01*
X195099Y82423D01*
X195099Y83652D01*
X183872Y82423D02*
X183872Y87338D01*
X181415Y89795D01*
X178957Y87338D01*
X178957Y82423D01*
X178957Y86109D02*
X183872Y86109D01*
X175159Y87338D02*
X171473Y87338D01*
X175159Y87338D02*
X176388Y86109D01*
X176388Y83652D01*
X175159Y82423D01*
X171473Y82423D01*
X167675Y83652D02*
X167675Y88567D01*
X167675Y83652D02*
X166447Y82423D01*
X166447Y87338D02*
X168904Y87338D01*
X163915Y87338D02*
X162686Y87338D01*
X162686Y82423D01*
X163915Y82423D02*
X161457Y82423D01*
X162686Y89795D02*
X162686Y91024D01*
X158925Y87338D02*
X156468Y82423D01*
X154010Y87338D01*
X150212Y82423D02*
X147755Y82423D01*
X150212Y82423D02*
X151441Y83652D01*
X151441Y86109D01*
X150212Y87338D01*
X147755Y87338D01*
X146526Y86109D01*
X146526Y84880D01*
X151441Y84880D01*
X135244Y82423D02*
X132787Y82423D01*
X135244Y82423D02*
X136473Y83652D01*
X136473Y86109D01*
X135244Y87338D01*
X132787Y87338D01*
X131558Y86109D01*
X131558Y84880D01*
X136473Y84880D01*
X128989Y82423D02*
X128989Y87338D01*
X125302Y87338D01*
X124074Y86109D01*
X124074Y82423D01*
X120276Y82423D02*
X117818Y82423D01*
X120276Y82423D02*
X121504Y83652D01*
X121504Y86109D01*
X120276Y87338D01*
X117818Y87338D01*
X116590Y86109D01*
X116590Y84880D01*
X121504Y84880D01*
X114020Y82423D02*
X114020Y87338D01*
X111563Y87338D02*
X114020Y84880D01*
X111563Y87338D02*
X110334Y87338D01*
X105326Y79966D02*
X104097Y79966D01*
X102869Y81194D01*
X102869Y87338D01*
X106555Y87338D01*
X107783Y86109D01*
X107783Y83652D01*
X106555Y82423D01*
X102869Y82423D01*
X100299Y83652D02*
X100299Y87338D01*
X100299Y83652D02*
X99071Y82423D01*
X95384Y82423D01*
X95384Y81194D02*
X95384Y87338D01*
X95384Y81194D02*
X96613Y79966D01*
X97842Y79966D01*
X212636Y76375D02*
X213865Y77603D01*
X216322Y77603D01*
X217551Y76375D01*
X217551Y71460D01*
X216322Y70231D01*
X213865Y70231D01*
X212636Y71460D01*
X210067Y70231D02*
X210067Y77603D01*
X205152Y77603D01*
X207609Y73917D02*
X210067Y73917D01*
X202583Y70231D02*
X197668Y70231D01*
X202583Y70231D02*
X197668Y75146D01*
X197668Y76375D01*
X198897Y77603D01*
X201354Y77603D01*
X202583Y76375D01*
X195099Y75146D02*
X193870Y75146D01*
X193870Y73917D01*
X195099Y73917D01*
X195099Y75146D01*
X195099Y71460D02*
X193870Y71460D01*
X193870Y70231D01*
X195099Y70231D01*
X195099Y71460D01*
X183872Y70231D02*
X183872Y77603D01*
X180186Y77603D01*
X178957Y76375D01*
X178957Y73917D01*
X180186Y72688D01*
X183872Y72688D01*
X181415Y72688D02*
X178957Y70231D01*
X175159Y70231D02*
X172702Y70231D01*
X175159Y70231D02*
X176388Y71460D01*
X176388Y73917D01*
X175159Y75146D01*
X172702Y75146D01*
X171473Y73917D01*
X171473Y72688D01*
X176388Y72688D01*
X167675Y75146D02*
X165218Y75146D01*
X163989Y73917D01*
X163989Y70231D01*
X167675Y70231D01*
X168904Y71460D01*
X167675Y72688D01*
X163989Y72688D01*
X160191Y75146D02*
X156505Y75146D01*
X160191Y75146D02*
X161420Y73917D01*
X161420Y71460D01*
X160191Y70231D01*
X156505Y70231D01*
X152707Y71460D02*
X152707Y76375D01*
X152707Y71460D02*
X151478Y70231D01*
X151478Y75146D02*
X153936Y75146D01*
X148946Y75146D02*
X147718Y75146D01*
X147718Y70231D01*
X148946Y70231D02*
X146489Y70231D01*
X147718Y77603D02*
X147718Y78832D01*
X143957Y75146D02*
X141499Y70231D01*
X139042Y75146D01*
X135244Y70231D02*
X132787Y70231D01*
X135244Y70231D02*
X136473Y71460D01*
X136473Y73917D01*
X135244Y75146D01*
X132787Y75146D01*
X131558Y73917D01*
X131558Y72688D01*
X136473Y72688D01*
X128989Y70231D02*
X124074Y77603D01*
X120276Y75146D02*
X117818Y75146D01*
X116590Y73917D01*
X116590Y70231D01*
X120276Y70231D01*
X121504Y71460D01*
X120276Y72688D01*
X116590Y72688D01*
X114020Y75146D02*
X114020Y67774D01*
X114020Y75146D02*
X110334Y75146D01*
X109105Y73917D01*
X109105Y71460D01*
X110334Y70231D01*
X114020Y70231D01*
X106536Y67774D02*
X106536Y75146D01*
X102850Y75146D01*
X101621Y73917D01*
X101621Y71460D01*
X102850Y70231D01*
X106536Y70231D01*
X97823Y75146D02*
X95366Y75146D01*
X94137Y73917D01*
X94137Y70231D01*
X97823Y70231D01*
X99052Y71460D01*
X97823Y72688D01*
X94137Y72688D01*
X91568Y70231D02*
X91568Y75146D01*
X91568Y72688D02*
X89110Y75146D01*
X87882Y75146D01*
X84102Y70231D02*
X81645Y70231D01*
X84102Y70231D02*
X85331Y71460D01*
X85331Y73917D01*
X84102Y75146D01*
X81645Y75146D01*
X80416Y73917D01*
X80416Y72688D01*
X85331Y72688D01*
X77847Y70231D02*
X77847Y75146D01*
X74161Y75146D01*
X72932Y73917D01*
X72932Y70231D01*
X69134Y71460D02*
X69134Y76375D01*
X69134Y71460D02*
X67905Y70231D01*
X67905Y75146D02*
X70363Y75146D01*
X56660Y70231D02*
X54203Y70231D01*
X56660Y70231D02*
X57889Y71460D01*
X57889Y73917D01*
X56660Y75146D01*
X54203Y75146D01*
X52974Y73917D01*
X52974Y72688D01*
X57889Y72688D01*
X50405Y70231D02*
X50405Y75146D01*
X46719Y75146D01*
X45490Y73917D01*
X45490Y70231D01*
X41692Y70231D02*
X39235Y70231D01*
X41692Y70231D02*
X42921Y71460D01*
X42921Y73917D01*
X41692Y75146D01*
X39235Y75146D01*
X38006Y73917D01*
X38006Y72688D01*
X42921Y72688D01*
X35437Y70231D02*
X35437Y75146D01*
X35437Y72688D02*
X32979Y75146D01*
X31750Y75146D01*
X26742Y67774D02*
X25514Y67774D01*
X24285Y69002D01*
X24285Y75146D01*
X27971Y75146D01*
X29200Y73917D01*
X29200Y71460D01*
X27971Y70231D01*
X24285Y70231D01*
X21716Y71460D02*
X21716Y75146D01*
X21716Y71460D02*
X20487Y70231D01*
X16801Y70231D01*
X16801Y69002D02*
X16801Y75146D01*
X16801Y69002D02*
X18030Y67774D01*
X19258Y67774D01*
X212636Y64183D02*
X213865Y65411D01*
X216322Y65411D01*
X217551Y64183D01*
X217551Y59268D01*
X216322Y58039D01*
X213865Y58039D01*
X212636Y59268D01*
X210067Y58039D02*
X210067Y65411D01*
X205152Y65411D01*
X207609Y61725D02*
X210067Y61725D01*
X202583Y64183D02*
X201354Y65411D01*
X198897Y65411D01*
X197668Y64183D01*
X197668Y62954D01*
X198897Y61725D01*
X200125Y61725D01*
X198897Y61725D02*
X197668Y60496D01*
X197668Y59268D01*
X198897Y58039D01*
X201354Y58039D01*
X202583Y59268D01*
X195099Y62954D02*
X193870Y62954D01*
X193870Y61725D01*
X195099Y61725D01*
X195099Y62954D01*
X195099Y59268D02*
X193870Y59268D01*
X193870Y58039D01*
X195099Y58039D01*
X195099Y59268D01*
X183872Y58039D02*
X183872Y62954D01*
X181415Y65411D01*
X178957Y62954D01*
X178957Y58039D01*
X178957Y61725D02*
X183872Y61725D01*
X175159Y62954D02*
X171473Y62954D01*
X175159Y62954D02*
X176388Y61725D01*
X176388Y59268D01*
X175159Y58039D01*
X171473Y58039D01*
X167675Y59268D02*
X167675Y64183D01*
X167675Y59268D02*
X166447Y58039D01*
X166447Y62954D02*
X168904Y62954D01*
X163915Y62954D02*
X162686Y62954D01*
X162686Y58039D01*
X163915Y58039D02*
X161457Y58039D01*
X162686Y65411D02*
X162686Y66640D01*
X158925Y62954D02*
X156468Y58039D01*
X154010Y62954D01*
X150212Y58039D02*
X147755Y58039D01*
X150212Y58039D02*
X151441Y59268D01*
X151441Y61725D01*
X150212Y62954D01*
X147755Y62954D01*
X146526Y61725D01*
X146526Y60496D01*
X151441Y60496D01*
X135244Y58039D02*
X135244Y64183D01*
X134015Y65411D01*
X134015Y61725D02*
X136473Y61725D01*
X131483Y62954D02*
X131483Y59268D01*
X130255Y58039D01*
X126568Y58039D01*
X126568Y62954D01*
X123999Y62954D02*
X123999Y58039D01*
X123999Y62954D02*
X120313Y62954D01*
X119084Y61725D01*
X119084Y58039D01*
X111600Y58039D02*
X111600Y65411D01*
X111600Y58039D02*
X115286Y58039D01*
X116515Y59268D01*
X116515Y61725D01*
X115286Y62954D01*
X111600Y62954D01*
X107802Y62954D02*
X105345Y62954D01*
X104116Y61725D01*
X104116Y58039D01*
X107802Y58039D01*
X109031Y59268D01*
X107802Y60496D01*
X104116Y60496D01*
X101547Y58039D02*
X101547Y62954D01*
X100318Y62954D01*
X99089Y61725D01*
X99089Y58039D01*
X99089Y61725D02*
X97860Y62954D01*
X96632Y61725D01*
X96632Y58039D01*
X92834Y58039D02*
X90376Y58039D01*
X92834Y58039D02*
X94062Y59268D01*
X94062Y61725D01*
X92834Y62954D01*
X90376Y62954D01*
X89148Y61725D01*
X89148Y60496D01*
X94062Y60496D01*
X86578Y58039D02*
X86578Y62954D01*
X82892Y62954D01*
X81663Y61725D01*
X81663Y58039D01*
X77865Y59268D02*
X77865Y64183D01*
X77865Y59268D02*
X76637Y58039D01*
X76637Y62954D02*
X79094Y62954D01*
X72876Y62954D02*
X70419Y62954D01*
X69190Y61725D01*
X69190Y58039D01*
X72876Y58039D01*
X74105Y59268D01*
X72876Y60496D01*
X69190Y60496D01*
X66621Y65411D02*
X65392Y65411D01*
X65392Y58039D01*
X66621Y58039D02*
X64163Y58039D01*
X52918Y58039D02*
X50461Y58039D01*
X52918Y58039D02*
X54147Y59268D01*
X54147Y61725D01*
X52918Y62954D01*
X50461Y62954D01*
X49232Y61725D01*
X49232Y60496D01*
X54147Y60496D01*
X46663Y58039D02*
X46663Y62954D01*
X42977Y62954D01*
X41748Y61725D01*
X41748Y58039D01*
X37950Y58039D02*
X35493Y58039D01*
X37950Y58039D02*
X39179Y59268D01*
X39179Y61725D01*
X37950Y62954D01*
X35493Y62954D01*
X34264Y61725D01*
X34264Y60496D01*
X39179Y60496D01*
X31694Y58039D02*
X31694Y62954D01*
X29237Y62954D02*
X31694Y60496D01*
X29237Y62954D02*
X28008Y62954D01*
X23000Y55582D02*
X21772Y55582D01*
X20543Y56810D01*
X20543Y62954D01*
X24229Y62954D01*
X25458Y61725D01*
X25458Y59268D01*
X24229Y58039D01*
X20543Y58039D01*
X17974Y59268D02*
X17974Y62954D01*
X17974Y59268D02*
X16745Y58039D01*
X13059Y58039D01*
X13059Y56810D02*
X13059Y62954D01*
X13059Y56810D02*
X14287Y55582D01*
X15516Y55582D01*
X212636Y51991D02*
X213865Y53219D01*
X216322Y53219D01*
X217551Y51991D01*
X217551Y47076D01*
X216322Y45847D01*
X213865Y45847D01*
X212636Y47076D01*
X210067Y45847D02*
X210067Y53219D01*
X205152Y53219D01*
X207609Y49533D02*
X210067Y49533D01*
X198897Y45847D02*
X198897Y53219D01*
X202583Y49533D01*
X197668Y49533D01*
X195099Y50762D02*
X193870Y50762D01*
X193870Y49533D01*
X195099Y49533D01*
X195099Y50762D01*
X195099Y47076D02*
X193870Y47076D01*
X193870Y45847D01*
X195099Y45847D01*
X195099Y47076D01*
X183872Y45847D02*
X183872Y50762D01*
X181415Y53219D01*
X178957Y50762D01*
X178957Y45847D01*
X178957Y49533D02*
X183872Y49533D01*
X175159Y50762D02*
X171473Y50762D01*
X175159Y50762D02*
X176388Y49533D01*
X176388Y47076D01*
X175159Y45847D01*
X171473Y45847D01*
X167675Y47076D02*
X167675Y51991D01*
X167675Y47076D02*
X166447Y45847D01*
X166447Y50762D02*
X168904Y50762D01*
X163915Y50762D02*
X162686Y50762D01*
X162686Y45847D01*
X163915Y45847D02*
X161457Y45847D01*
X162686Y53219D02*
X162686Y54448D01*
X158925Y50762D02*
X156468Y45847D01*
X154010Y50762D01*
X150212Y45847D02*
X147755Y45847D01*
X150212Y45847D02*
X151441Y47076D01*
X151441Y49533D01*
X150212Y50762D01*
X147755Y50762D01*
X146526Y49533D01*
X146526Y48304D01*
X151441Y48304D01*
X136473Y45847D02*
X136473Y53219D01*
X135244Y50762D02*
X136473Y49533D01*
X135244Y50762D02*
X132787Y50762D01*
X131558Y49533D01*
X131558Y45847D01*
X127760Y50762D02*
X125302Y50762D01*
X124074Y49533D01*
X124074Y45847D01*
X127760Y45847D01*
X128989Y47076D01*
X127760Y48304D01*
X124074Y48304D01*
X121504Y45847D02*
X121504Y50762D01*
X119047Y50762D02*
X121504Y48304D01*
X119047Y50762D02*
X117818Y50762D01*
X115268Y50762D02*
X115268Y45847D01*
X115268Y50762D02*
X114039Y50762D01*
X112810Y49533D01*
X112810Y45847D01*
X112810Y49533D02*
X111581Y50762D01*
X110353Y49533D01*
X110353Y45847D01*
X106555Y45847D02*
X104097Y45847D01*
X102869Y47076D01*
X102869Y49533D01*
X104097Y50762D01*
X106555Y50762D01*
X107783Y49533D01*
X107783Y47076D01*
X106555Y45847D01*
X100299Y45847D02*
X100299Y50762D01*
X96613Y50762D01*
X95384Y49533D01*
X95384Y45847D01*
X92815Y50762D02*
X91586Y50762D01*
X91586Y45847D01*
X90358Y45847D02*
X92815Y45847D01*
X91586Y53219D02*
X91586Y54448D01*
X86597Y50762D02*
X82911Y50762D01*
X86597Y50762D02*
X87826Y49533D01*
X87826Y47076D01*
X86597Y45847D01*
X82911Y45847D01*
X71629Y45847D02*
X69171Y45847D01*
X71629Y45847D02*
X72857Y47076D01*
X72857Y49533D01*
X71629Y50762D01*
X69171Y50762D01*
X67943Y49533D01*
X67943Y48304D01*
X72857Y48304D01*
X65373Y45847D02*
X65373Y50762D01*
X61687Y50762D01*
X60458Y49533D01*
X60458Y45847D01*
X56660Y45847D02*
X54203Y45847D01*
X56660Y45847D02*
X57889Y47076D01*
X57889Y49533D01*
X56660Y50762D01*
X54203Y50762D01*
X52974Y49533D01*
X52974Y48304D01*
X57889Y48304D01*
X50405Y45847D02*
X50405Y50762D01*
X50405Y48304D02*
X47947Y50762D01*
X46719Y50762D01*
X41711Y43390D02*
X40482Y43390D01*
X39253Y44618D01*
X39253Y50762D01*
X42939Y50762D01*
X44168Y49533D01*
X44168Y47076D01*
X42939Y45847D01*
X39253Y45847D01*
X36684Y47076D02*
X36684Y50762D01*
X36684Y47076D02*
X35455Y45847D01*
X31769Y45847D01*
X31769Y44618D02*
X31769Y50762D01*
X31769Y44618D02*
X32998Y43390D01*
X34227Y43390D01*
X355140Y174361D02*
X360055Y174361D01*
X355140Y174361D02*
X355140Y173133D01*
X360055Y168218D01*
X360055Y166989D01*
X355140Y166989D01*
X347656Y166989D02*
X352571Y174361D01*
X347656Y174361D02*
X352571Y166989D01*
X345087Y166989D02*
X340172Y166989D01*
X345087Y166989D02*
X340172Y171904D01*
X340172Y173133D01*
X341401Y174361D01*
X343858Y174361D01*
X345087Y173133D01*
X337603Y166989D02*
X332688Y174361D01*
X330118Y174361D02*
X325204Y174361D01*
X325204Y173133D01*
X330118Y168218D01*
X330118Y166989D01*
X325204Y166989D01*
X317719Y166989D02*
X322634Y174361D01*
X317719Y174361D02*
X322634Y166989D01*
X315150Y171904D02*
X312693Y174361D01*
X312693Y166989D01*
X315150Y166989D02*
X310235Y166989D01*
X307666Y166989D02*
X302751Y174361D01*
X300182Y174361D02*
X295267Y174361D01*
X295267Y173133D01*
X300182Y168218D01*
X300182Y166989D01*
X295267Y166989D01*
X287783Y166989D02*
X292698Y174361D01*
X287783Y174361D02*
X292698Y166989D01*
X285213Y168218D02*
X285213Y173133D01*
X283985Y174361D01*
X281527Y174361D01*
X280299Y173133D01*
X280299Y168218D01*
X281527Y166989D01*
X283985Y166989D01*
X285213Y168218D01*
X280299Y173133D01*
X277729Y171904D02*
X276501Y171904D01*
X276501Y170675D01*
X277729Y170675D01*
X277729Y171904D01*
X277729Y168218D02*
X276501Y168218D01*
X276501Y166989D01*
X277729Y166989D01*
X277729Y168218D01*
X355140Y162169D02*
X360055Y162169D01*
X355140Y162169D02*
X355140Y160941D01*
X360055Y156026D01*
X360055Y154797D01*
X355140Y154797D01*
X351342Y154797D02*
X348885Y154797D01*
X351342Y154797D02*
X352571Y156026D01*
X352571Y158483D01*
X351342Y159712D01*
X348885Y159712D01*
X347656Y158483D01*
X347656Y157254D01*
X352571Y157254D01*
X345087Y154797D02*
X345087Y159712D01*
X345087Y157254D02*
X342629Y159712D01*
X341401Y159712D01*
X337621Y154797D02*
X335164Y154797D01*
X333935Y156026D01*
X333935Y158483D01*
X335164Y159712D01*
X337621Y159712D01*
X338850Y158483D01*
X338850Y156026D01*
X337621Y154797D01*
X331366Y158483D02*
X326451Y158483D01*
X320195Y162169D02*
X318967Y160941D01*
X320195Y162169D02*
X322653Y162169D01*
X323882Y160941D01*
X323882Y156026D01*
X322653Y154797D01*
X320195Y154797D01*
X318967Y156026D01*
X316397Y154797D02*
X316397Y159712D01*
X313940Y159712D02*
X316397Y157254D01*
X313940Y159712D02*
X312711Y159712D01*
X308932Y154797D02*
X306475Y154797D01*
X305246Y156026D01*
X305246Y158483D01*
X306475Y159712D01*
X308932Y159712D01*
X310161Y158483D01*
X310161Y156026D01*
X308932Y154797D01*
X302677Y154797D02*
X298990Y154797D01*
X297762Y156026D01*
X298990Y157254D01*
X301448Y157254D01*
X302677Y158483D01*
X301448Y159712D01*
X297762Y159712D01*
X295192Y154797D02*
X291506Y154797D01*
X290278Y156026D01*
X291506Y157254D01*
X293964Y157254D01*
X295192Y158483D01*
X293964Y159712D01*
X290278Y159712D01*
X287708Y159712D02*
X286480Y159712D01*
X286480Y154797D01*
X287708Y154797D02*
X285251Y154797D01*
X286480Y162169D02*
X286480Y163398D01*
X282719Y159712D02*
X282719Y154797D01*
X282719Y159712D02*
X279033Y159712D01*
X277804Y158483D01*
X277804Y154797D01*
X272777Y152340D02*
X271548Y152340D01*
X270320Y153568D01*
X270320Y159712D01*
X274006Y159712D01*
X275235Y158483D01*
X275235Y156026D01*
X274006Y154797D01*
X270320Y154797D01*
X259038Y162169D02*
X256580Y162169D01*
X259038Y162169D02*
X260266Y160941D01*
X260266Y156026D01*
X259038Y154797D01*
X256580Y154797D01*
X255351Y156026D01*
X255351Y160941D01*
X256580Y162169D01*
X252782Y159712D02*
X252782Y156026D01*
X251553Y154797D01*
X247867Y154797D01*
X247867Y159712D01*
X244069Y160941D02*
X244069Y156026D01*
X242841Y154797D01*
X242841Y159712D02*
X245298Y159712D01*
X240309Y159712D02*
X240309Y152340D01*
X240309Y159712D02*
X236622Y159712D01*
X235394Y158483D01*
X235394Y156026D01*
X236622Y154797D01*
X240309Y154797D01*
X232824Y156026D02*
X232824Y159712D01*
X232824Y156026D02*
X231596Y154797D01*
X227910Y154797D01*
X227910Y159712D01*
X224112Y160941D02*
X224112Y156026D01*
X222883Y154797D01*
X222883Y159712D02*
X225340Y159712D01*
X220351Y154797D02*
X216665Y154797D01*
X215436Y156026D01*
X216665Y157254D01*
X219122Y157254D01*
X220351Y158483D01*
X219122Y159712D01*
X215436Y159712D01*
X405791Y573385D02*
X405791Y580757D01*
X400876Y573385D01*
X400876Y580757D01*
X397078Y580757D02*
X394621Y580757D01*
X397078Y580757D02*
X398307Y579529D01*
X398307Y574614D01*
X397078Y573385D01*
X394621Y573385D01*
X393392Y574614D01*
X393392Y579529D01*
X394621Y580757D01*
X388365Y580757D02*
X388365Y573385D01*
X390823Y580757D02*
X385908Y580757D01*
X383339Y580757D02*
X378424Y580757D01*
X383339Y580757D02*
X383339Y573385D01*
X378424Y573385D01*
X380881Y577071D02*
X383339Y577071D01*
X375854Y578300D02*
X374626Y578300D01*
X374626Y577071D01*
X375854Y577071D01*
X375854Y578300D01*
X375854Y574614D02*
X374626Y574614D01*
X374626Y573385D01*
X375854Y573385D01*
X375854Y574614D01*
X364628Y573385D02*
X364628Y578300D01*
X362171Y580757D01*
X359713Y578300D01*
X359713Y573385D01*
X359713Y577071D02*
X364628Y577071D01*
X349660Y574614D02*
X348431Y573385D01*
X345974Y573385D01*
X344745Y574614D01*
X344745Y579529D01*
X345974Y580757D01*
X348431Y580757D01*
X349660Y579529D01*
X349660Y578300D01*
X348431Y577071D01*
X344745Y577071D01*
X333463Y579529D02*
X333463Y574614D01*
X332234Y573385D01*
X332234Y578300D02*
X334692Y578300D01*
X328473Y573385D02*
X326016Y573385D01*
X324787Y574614D01*
X324787Y577071D01*
X326016Y578300D01*
X328473Y578300D01*
X329702Y577071D01*
X329702Y574614D01*
X328473Y573385D01*
X314734Y578300D02*
X312276Y580757D01*
X312276Y573385D01*
X309819Y573385D02*
X314734Y573385D01*
X307250Y573385D02*
X302335Y573385D01*
X307250Y573385D02*
X302335Y578300D01*
X302335Y579529D01*
X303564Y580757D01*
X306021Y580757D01*
X307250Y579529D01*
X299765Y580757D02*
X299765Y575842D01*
X297308Y573385D01*
X294851Y575842D01*
X294851Y580757D01*
X284797Y578300D02*
X284797Y573385D01*
X284797Y578300D02*
X282340Y580757D01*
X279882Y578300D01*
X279882Y573385D01*
X279882Y577071D02*
X284797Y577071D01*
X273627Y580757D02*
X272398Y579529D01*
X273627Y580757D02*
X276084Y580757D01*
X277313Y579529D01*
X277313Y574614D01*
X276084Y573385D01*
X273627Y573385D01*
X272398Y574614D01*
X404562Y567337D02*
X404562Y562422D01*
X403334Y561193D01*
X403334Y566108D02*
X405791Y566108D01*
X400802Y566108D02*
X400802Y561193D01*
X400802Y563650D02*
X398344Y566108D01*
X397115Y566108D01*
X393336Y566108D02*
X390879Y566108D01*
X389650Y564879D01*
X389650Y561193D01*
X393336Y561193D01*
X394565Y562422D01*
X393336Y563650D01*
X389650Y563650D01*
X387081Y561193D02*
X387081Y566108D01*
X383395Y566108D01*
X382166Y564879D01*
X382166Y561193D01*
X379596Y561193D02*
X375910Y561193D01*
X374682Y562422D01*
X375910Y563650D01*
X378368Y563650D01*
X379596Y564879D01*
X378368Y566108D01*
X374682Y566108D01*
X370884Y567337D02*
X370884Y561193D01*
X370884Y567337D02*
X369655Y568565D01*
X369655Y564879D02*
X372112Y564879D01*
X365894Y561193D02*
X363437Y561193D01*
X362208Y562422D01*
X362208Y564879D01*
X363437Y566108D01*
X365894Y566108D01*
X367123Y564879D01*
X367123Y562422D01*
X365894Y561193D01*
X359639Y561193D02*
X359639Y566108D01*
X359639Y563650D02*
X357181Y566108D01*
X355953Y566108D01*
X353402Y566108D02*
X353402Y561193D01*
X353402Y566108D02*
X352173Y566108D01*
X350945Y564879D01*
X350945Y561193D01*
X350945Y564879D02*
X349716Y566108D01*
X348487Y564879D01*
X348487Y561193D01*
X344689Y561193D02*
X342232Y561193D01*
X344689Y561193D02*
X345918Y562422D01*
X345918Y564879D01*
X344689Y566108D01*
X342232Y566108D01*
X341003Y564879D01*
X341003Y563650D01*
X345918Y563650D01*
X338434Y561193D02*
X338434Y566108D01*
X338434Y563650D02*
X335976Y566108D01*
X334748Y566108D01*
X324713Y566108D02*
X323484Y566108D01*
X323484Y561193D01*
X324713Y561193D02*
X322255Y561193D01*
X323484Y568565D02*
X323484Y569794D01*
X319723Y561193D02*
X316037Y561193D01*
X314808Y562422D01*
X316037Y563650D01*
X318495Y563650D01*
X319723Y564879D01*
X318495Y566108D01*
X314808Y566108D01*
X304755Y566108D02*
X304755Y561193D01*
X304755Y563650D02*
X302298Y566108D01*
X301069Y566108D01*
X297289Y561193D02*
X294832Y561193D01*
X297289Y561193D02*
X298518Y562422D01*
X298518Y564879D01*
X297289Y566108D01*
X294832Y566108D01*
X293603Y564879D01*
X293603Y563650D01*
X298518Y563650D01*
X286119Y566108D02*
X286119Y558736D01*
X286119Y566108D02*
X289805Y566108D01*
X291034Y564879D01*
X291034Y562422D01*
X289805Y561193D01*
X286119Y561193D01*
X283550Y562422D02*
X283550Y566108D01*
X283550Y562422D02*
X282321Y561193D01*
X278635Y561193D01*
X278635Y566108D01*
X276066Y566108D02*
X274837Y566108D01*
X274837Y561193D01*
X276066Y561193D02*
X273608Y561193D01*
X274837Y568565D02*
X274837Y569794D01*
X271076Y566108D02*
X271076Y561193D01*
X271076Y563650D02*
X268619Y566108D01*
X267390Y566108D01*
X263611Y561193D02*
X261153Y561193D01*
X263611Y561193D02*
X264839Y562422D01*
X264839Y564879D01*
X263611Y566108D01*
X261153Y566108D01*
X259925Y564879D01*
X259925Y563650D01*
X264839Y563650D01*
X252440Y561193D02*
X252440Y568565D01*
X252440Y561193D02*
X256127Y561193D01*
X257355Y562422D01*
X257355Y564879D01*
X256127Y566108D01*
X252440Y566108D01*
X241158Y567337D02*
X241158Y562422D01*
X239930Y561193D01*
X239930Y566108D02*
X242387Y566108D01*
X236169Y561193D02*
X233711Y561193D01*
X232483Y562422D01*
X232483Y564879D01*
X233711Y566108D01*
X236169Y566108D01*
X237398Y564879D01*
X237398Y562422D01*
X236169Y561193D01*
X405791Y553916D02*
X405791Y549001D01*
X405791Y553916D02*
X404562Y553916D01*
X403334Y552687D01*
X403334Y549001D01*
X403334Y552687D02*
X402105Y553916D01*
X400876Y552687D01*
X400876Y549001D01*
X397078Y549001D02*
X394621Y549001D01*
X397078Y549001D02*
X398307Y550230D01*
X398307Y552687D01*
X397078Y553916D01*
X394621Y553916D01*
X393392Y552687D01*
X393392Y551458D01*
X398307Y551458D01*
X389594Y553916D02*
X387137Y553916D01*
X385908Y552687D01*
X385908Y549001D01*
X389594Y549001D01*
X390823Y550230D01*
X389594Y551458D01*
X385908Y551458D01*
X383339Y549001D02*
X379652Y549001D01*
X378424Y550230D01*
X379652Y551458D01*
X382110Y551458D01*
X383339Y552687D01*
X382110Y553916D01*
X378424Y553916D01*
X375854Y553916D02*
X375854Y550230D01*
X374626Y549001D01*
X370940Y549001D01*
X370940Y553916D01*
X368370Y553916D02*
X368370Y549001D01*
X368370Y551458D02*
X365913Y553916D01*
X364684Y553916D01*
X360905Y549001D02*
X358447Y549001D01*
X360905Y549001D02*
X362133Y550230D01*
X362133Y552687D01*
X360905Y553916D01*
X358447Y553916D01*
X357219Y552687D01*
X357219Y551458D01*
X362133Y551458D01*
X347165Y553916D02*
X344708Y549001D01*
X342250Y553916D01*
X338452Y549001D02*
X335995Y549001D01*
X334766Y550230D01*
X334766Y552687D01*
X335995Y553916D01*
X338452Y553916D01*
X339681Y552687D01*
X339681Y550230D01*
X338452Y549001D01*
X332197Y556373D02*
X330968Y556373D01*
X330968Y549001D01*
X332197Y549001D02*
X329739Y549001D01*
X325979Y550230D02*
X325979Y555145D01*
X325979Y550230D02*
X324750Y549001D01*
X324750Y553916D02*
X327207Y553916D01*
X320989Y553916D02*
X318532Y553916D01*
X317303Y552687D01*
X317303Y549001D01*
X320989Y549001D01*
X322218Y550230D01*
X320989Y551458D01*
X317303Y551458D01*
X312276Y546544D02*
X311048Y546544D01*
X309819Y547772D01*
X309819Y553916D01*
X313505Y553916D01*
X314734Y552687D01*
X314734Y550230D01*
X313505Y549001D01*
X309819Y549001D01*
X306021Y549001D02*
X303564Y549001D01*
X306021Y549001D02*
X307250Y550230D01*
X307250Y552687D01*
X306021Y553916D01*
X303564Y553916D01*
X302335Y552687D01*
X302335Y551458D01*
X307250Y551458D01*
X291053Y553916D02*
X288595Y553916D01*
X287366Y552687D01*
X287366Y549001D01*
X291053Y549001D01*
X292281Y550230D01*
X291053Y551458D01*
X287366Y551458D01*
X284797Y549001D02*
X284797Y553916D01*
X281111Y553916D01*
X279882Y552687D01*
X279882Y549001D01*
X272398Y549001D02*
X272398Y556373D01*
X272398Y549001D02*
X276084Y549001D01*
X277313Y550230D01*
X277313Y552687D01*
X276084Y553916D01*
X272398Y553916D01*
X262345Y553916D02*
X262345Y546544D01*
X262345Y553916D02*
X258659Y553916D01*
X257430Y552687D01*
X257430Y550230D01*
X258659Y549001D01*
X262345Y549001D01*
X253632Y549001D02*
X251174Y549001D01*
X249946Y550230D01*
X249946Y552687D01*
X251174Y553916D01*
X253632Y553916D01*
X254861Y552687D01*
X254861Y550230D01*
X253632Y549001D01*
X247376Y550230D02*
X247376Y553916D01*
X247376Y550230D02*
X246148Y549001D01*
X244919Y550230D01*
X243690Y549001D01*
X242462Y550230D01*
X242462Y553916D01*
X238664Y549001D02*
X236206Y549001D01*
X238664Y549001D02*
X239892Y550230D01*
X239892Y552687D01*
X238664Y553916D01*
X236206Y553916D01*
X234977Y552687D01*
X234977Y551458D01*
X239892Y551458D01*
X232408Y549001D02*
X232408Y553916D01*
X229951Y553916D02*
X232408Y551458D01*
X229951Y553916D02*
X228722Y553916D01*
X404562Y542953D02*
X404562Y538038D01*
X403334Y536809D01*
X403334Y541724D02*
X405791Y541724D01*
X400802Y544181D02*
X400802Y536809D01*
X400802Y540495D02*
X399573Y541724D01*
X397115Y541724D01*
X395887Y540495D01*
X395887Y536809D01*
X393317Y541724D02*
X392089Y541724D01*
X392089Y536809D01*
X393317Y536809D02*
X390860Y536809D01*
X392089Y544181D02*
X392089Y545410D01*
X388328Y536809D02*
X384642Y536809D01*
X383413Y538038D01*
X384642Y539266D01*
X387099Y539266D01*
X388328Y540495D01*
X387099Y541724D01*
X383413Y541724D01*
X373360Y544181D02*
X373360Y536809D01*
X369674Y536809D01*
X368445Y538038D01*
X368445Y540495D01*
X369674Y541724D01*
X373360Y541724D01*
X364647Y536809D02*
X362189Y536809D01*
X360961Y538038D01*
X360961Y540495D01*
X362189Y541724D01*
X364647Y541724D01*
X365876Y540495D01*
X365876Y538038D01*
X364647Y536809D01*
X357163Y541724D02*
X354705Y541724D01*
X353477Y540495D01*
X353477Y536809D01*
X357163Y536809D01*
X358391Y538038D01*
X357163Y539266D01*
X353477Y539266D01*
X350907Y536809D02*
X350907Y541724D01*
X348450Y541724D02*
X350907Y539266D01*
X348450Y541724D02*
X347221Y541724D01*
X339756Y544181D02*
X339756Y536809D01*
X343442Y536809D01*
X344670Y538038D01*
X344670Y540495D01*
X343442Y541724D01*
X339756Y541724D01*
X337186Y538038D02*
X337186Y536809D01*
X337186Y538038D02*
X335958Y538038D01*
X335958Y536809D01*
X337186Y536809D01*
X325960Y536809D02*
X325960Y544181D01*
X325960Y536809D02*
X322274Y536809D01*
X321045Y538038D01*
X321045Y542953D01*
X322274Y544181D01*
X325960Y544181D01*
X317247Y536809D02*
X314790Y536809D01*
X313561Y538038D01*
X313561Y540495D01*
X314790Y541724D01*
X317247Y541724D01*
X318476Y540495D01*
X318476Y538038D01*
X317247Y536809D01*
X303508Y536809D02*
X303508Y544181D01*
X298593Y536809D01*
X298593Y544181D01*
X294795Y544181D02*
X292337Y544181D01*
X294795Y544181D02*
X296023Y542953D01*
X296023Y538038D01*
X294795Y536809D01*
X292337Y536809D01*
X291109Y538038D01*
X291109Y542953D01*
X292337Y544181D01*
X286082Y544181D02*
X286082Y536809D01*
X288539Y544181D02*
X283624Y544181D01*
X273571Y541724D02*
X272342Y541724D01*
X272342Y536809D01*
X271114Y536809D02*
X273571Y536809D01*
X272342Y544181D02*
X272342Y545410D01*
X268582Y541724D02*
X268582Y536809D01*
X268582Y541724D02*
X264895Y541724D01*
X263667Y540495D01*
X263667Y536809D01*
X261097Y534352D02*
X261097Y541724D01*
X257411Y541724D01*
X256183Y540495D01*
X256183Y538038D01*
X257411Y536809D01*
X261097Y536809D01*
X253613Y538038D02*
X253613Y541724D01*
X253613Y538038D02*
X252385Y536809D01*
X248698Y536809D01*
X248698Y541724D01*
X244900Y542953D02*
X244900Y538038D01*
X243672Y536809D01*
X243672Y541724D02*
X246129Y541724D01*
X405791Y529532D02*
X405791Y524617D01*
X405791Y529532D02*
X404562Y529532D01*
X403334Y528303D01*
X403334Y524617D01*
X403334Y528303D02*
X402105Y529532D01*
X400876Y528303D01*
X400876Y524617D01*
X397078Y524617D02*
X394621Y524617D01*
X393392Y525846D01*
X393392Y528303D01*
X394621Y529532D01*
X397078Y529532D01*
X398307Y528303D01*
X398307Y525846D01*
X397078Y524617D01*
X390823Y524617D02*
X390823Y529532D01*
X390823Y527074D02*
X388365Y529532D01*
X387137Y529532D01*
X383357Y524617D02*
X380900Y524617D01*
X383357Y524617D02*
X384586Y525846D01*
X384586Y528303D01*
X383357Y529532D01*
X380900Y529532D01*
X379671Y528303D01*
X379671Y527074D01*
X384586Y527074D01*
X368389Y525846D02*
X368389Y530761D01*
X368389Y525846D02*
X367160Y524617D01*
X367160Y529532D02*
X369618Y529532D01*
X364628Y531989D02*
X364628Y524617D01*
X364628Y528303D02*
X363399Y529532D01*
X360942Y529532D01*
X359713Y528303D01*
X359713Y524617D01*
X355915Y529532D02*
X353458Y529532D01*
X352229Y528303D01*
X352229Y524617D01*
X355915Y524617D01*
X357144Y525846D01*
X355915Y527074D01*
X352229Y527074D01*
X349660Y524617D02*
X349660Y529532D01*
X345974Y529532D01*
X344745Y528303D01*
X344745Y524617D01*
X334692Y529532D02*
X332234Y531989D01*
X332234Y524617D01*
X329777Y524617D02*
X334692Y524617D01*
X327207Y524617D02*
X322293Y524617D01*
X327207Y524617D02*
X322293Y529532D01*
X322293Y530761D01*
X323521Y531989D01*
X325979Y531989D01*
X327207Y530761D01*
X319723Y531989D02*
X319723Y527074D01*
X317266Y524617D01*
X314808Y527074D01*
X314808Y531989D01*
X312239Y529532D02*
X312239Y524617D01*
X312239Y529532D02*
X309782Y531989D01*
X307324Y529532D01*
X307324Y524617D01*
X307324Y528303D02*
X312239Y528303D01*
X301069Y531989D02*
X299840Y530761D01*
X301069Y531989D02*
X303526Y531989D01*
X304755Y530761D01*
X304755Y525846D01*
X303526Y524617D01*
X301069Y524617D01*
X299840Y525846D01*
X405791Y507605D02*
X405791Y500233D01*
X405791Y507605D02*
X400876Y507605D01*
X403334Y503919D02*
X405791Y503919D01*
X397078Y500233D02*
X394621Y500233D01*
X393392Y501462D01*
X393392Y503919D01*
X394621Y505148D01*
X397078Y505148D01*
X398307Y503919D01*
X398307Y501462D01*
X397078Y500233D01*
X390823Y500233D02*
X390823Y505148D01*
X390823Y502690D02*
X388365Y505148D01*
X387137Y505148D01*
X372187Y507605D02*
X372187Y500233D01*
X375873Y500233D01*
X377102Y501462D01*
X377102Y503919D01*
X375873Y505148D01*
X372187Y505148D01*
X368389Y500233D02*
X365931Y500233D01*
X368389Y500233D02*
X369618Y501462D01*
X369618Y503919D01*
X368389Y505148D01*
X365931Y505148D01*
X364703Y503919D01*
X364703Y502690D01*
X369618Y502690D01*
X360905Y501462D02*
X360905Y506377D01*
X360905Y501462D02*
X359676Y500233D01*
X359676Y505148D02*
X362133Y505148D01*
X355915Y505148D02*
X353458Y505148D01*
X352229Y503919D01*
X352229Y500233D01*
X355915Y500233D01*
X357144Y501462D01*
X355915Y502690D01*
X352229Y502690D01*
X349660Y505148D02*
X348431Y505148D01*
X348431Y500233D01*
X349660Y500233D02*
X347202Y500233D01*
X348431Y507605D02*
X348431Y508834D01*
X344670Y507605D02*
X343442Y507605D01*
X343442Y500233D01*
X344670Y500233D02*
X342213Y500233D01*
X338452Y500233D02*
X335995Y500233D01*
X338452Y500233D02*
X339681Y501462D01*
X339681Y503919D01*
X338452Y505148D01*
X335995Y505148D01*
X334766Y503919D01*
X334766Y502690D01*
X339681Y502690D01*
X327282Y500233D02*
X327282Y507605D01*
X327282Y500233D02*
X330968Y500233D01*
X332197Y501462D01*
X332197Y503919D01*
X330968Y505148D01*
X327282Y505148D01*
X312314Y507605D02*
X312314Y500233D01*
X316000Y500233D01*
X317229Y501462D01*
X317229Y503919D01*
X316000Y505148D01*
X312314Y505148D01*
X308516Y500233D02*
X306058Y500233D01*
X304830Y501462D01*
X304830Y503919D01*
X306058Y505148D01*
X308516Y505148D01*
X309744Y503919D01*
X309744Y501462D01*
X308516Y500233D01*
X301032Y505148D02*
X297345Y505148D01*
X301032Y505148D02*
X302260Y503919D01*
X302260Y501462D01*
X301032Y500233D01*
X297345Y500233D01*
X294776Y501462D02*
X294776Y505148D01*
X294776Y501462D02*
X293547Y500233D01*
X289861Y500233D01*
X289861Y505148D01*
X287292Y505148D02*
X287292Y500233D01*
X287292Y505148D02*
X286063Y505148D01*
X284834Y503919D01*
X284834Y500233D01*
X284834Y503919D02*
X283606Y505148D01*
X282377Y503919D01*
X282377Y500233D01*
X278579Y500233D02*
X276122Y500233D01*
X278579Y500233D02*
X279808Y501462D01*
X279808Y503919D01*
X278579Y505148D01*
X276122Y505148D01*
X274893Y503919D01*
X274893Y502690D01*
X279808Y502690D01*
X272324Y500233D02*
X272324Y505148D01*
X268637Y505148D01*
X267409Y503919D01*
X267409Y500233D01*
X263611Y501462D02*
X263611Y506377D01*
X263611Y501462D02*
X262382Y500233D01*
X262382Y505148D02*
X264839Y505148D01*
X258621Y505148D02*
X256164Y505148D01*
X254935Y503919D01*
X254935Y500233D01*
X258621Y500233D01*
X259850Y501462D01*
X258621Y502690D01*
X254935Y502690D01*
X251137Y501462D02*
X251137Y506377D01*
X251137Y501462D02*
X249908Y500233D01*
X249908Y505148D02*
X252366Y505148D01*
X247376Y505148D02*
X246148Y505148D01*
X246148Y500233D01*
X247376Y500233D02*
X244919Y500233D01*
X246148Y507605D02*
X246148Y508834D01*
X241158Y500233D02*
X238701Y500233D01*
X237472Y501462D01*
X237472Y503919D01*
X238701Y505148D01*
X241158Y505148D01*
X242387Y503919D01*
X242387Y501462D01*
X241158Y500233D01*
X234903Y500233D02*
X234903Y505148D01*
X231217Y505148D01*
X229988Y503919D01*
X229988Y500233D01*
X227419Y497776D02*
X224961Y500233D01*
X224961Y501462D01*
X226190Y501462D01*
X226190Y500233D01*
X224961Y500233D01*
X405791Y492956D02*
X405791Y485584D01*
X405791Y492956D02*
X402105Y492956D01*
X400876Y491727D01*
X400876Y489270D01*
X402105Y488041D01*
X405791Y488041D01*
X398307Y495413D02*
X397078Y495413D01*
X397078Y488041D01*
X398307Y488041D02*
X395849Y488041D01*
X392089Y488041D02*
X389631Y488041D01*
X392089Y488041D02*
X393317Y489270D01*
X393317Y491727D01*
X392089Y492956D01*
X389631Y492956D01*
X388403Y491727D01*
X388403Y490498D01*
X393317Y490498D01*
X384605Y492956D02*
X382147Y492956D01*
X380918Y491727D01*
X380918Y488041D01*
X384605Y488041D01*
X385833Y489270D01*
X384605Y490498D01*
X380918Y490498D01*
X378349Y488041D02*
X374663Y488041D01*
X373434Y489270D01*
X374663Y490498D01*
X377120Y490498D01*
X378349Y491727D01*
X377120Y492956D01*
X373434Y492956D01*
X369636Y488041D02*
X367179Y488041D01*
X369636Y488041D02*
X370865Y489270D01*
X370865Y491727D01*
X369636Y492956D01*
X367179Y492956D01*
X365950Y491727D01*
X365950Y490498D01*
X370865Y490498D01*
X355897Y492956D02*
X353439Y488041D01*
X350982Y492956D01*
X348412Y492956D02*
X347184Y492956D01*
X347184Y488041D01*
X348412Y488041D02*
X345955Y488041D01*
X347184Y495413D02*
X347184Y496642D01*
X343423Y488041D02*
X339737Y488041D01*
X338508Y489270D01*
X339737Y490498D01*
X342194Y490498D01*
X343423Y491727D01*
X342194Y492956D01*
X338508Y492956D01*
X335939Y492956D02*
X334710Y492956D01*
X334710Y488041D01*
X335939Y488041D02*
X333481Y488041D01*
X334710Y495413D02*
X334710Y496642D01*
X329721Y494185D02*
X329721Y489270D01*
X328492Y488041D01*
X328492Y492956D02*
X330949Y492956D01*
X314790Y495413D02*
X313561Y494185D01*
X314790Y495413D02*
X317247Y495413D01*
X318476Y494185D01*
X318476Y489270D01*
X317247Y488041D01*
X314790Y488041D01*
X313561Y489270D01*
X310992Y492956D02*
X309763Y492956D01*
X309763Y488041D01*
X310992Y488041D02*
X308534Y488041D01*
X309763Y495413D02*
X309763Y496642D01*
X306002Y492956D02*
X306002Y488041D01*
X306002Y490498D02*
X303545Y492956D01*
X302316Y492956D01*
X298537Y492956D02*
X294851Y492956D01*
X298537Y492956D02*
X299765Y491727D01*
X299765Y489270D01*
X298537Y488041D01*
X294851Y488041D01*
X292281Y489270D02*
X292281Y492956D01*
X292281Y489270D02*
X291053Y488041D01*
X287366Y488041D01*
X287366Y492956D01*
X284797Y492956D02*
X283568Y492956D01*
X283568Y488041D01*
X282340Y488041D02*
X284797Y488041D01*
X283568Y495413D02*
X283568Y496642D01*
X278579Y494185D02*
X278579Y489270D01*
X277350Y488041D01*
X277350Y492956D02*
X279808Y492956D01*
X271132Y495413D02*
X269903Y494185D01*
X271132Y495413D02*
X273590Y495413D01*
X274818Y494185D01*
X274818Y492956D01*
X273590Y491727D01*
X271132Y491727D01*
X269903Y490498D01*
X269903Y489270D01*
X271132Y488041D01*
X273590Y488041D01*
X274818Y489270D01*
X266105Y488041D02*
X263648Y488041D01*
X266105Y488041D02*
X267334Y489270D01*
X267334Y491727D01*
X266105Y492956D01*
X263648Y492956D01*
X262419Y491727D01*
X262419Y490498D01*
X267334Y490498D01*
X258621Y489270D02*
X258621Y494185D01*
X258621Y489270D02*
X257393Y488041D01*
X257393Y492956D02*
X259850Y492956D01*
X254861Y492956D02*
X254861Y489270D01*
X253632Y488041D01*
X249946Y488041D01*
X249946Y492956D01*
X247376Y492956D02*
X247376Y485584D01*
X247376Y492956D02*
X243690Y492956D01*
X242462Y491727D01*
X242462Y489270D01*
X243690Y488041D01*
X247376Y488041D01*
X239892Y488041D02*
X239892Y489270D01*
X238664Y489270D01*
X238664Y488041D01*
X239892Y488041D01*
X236150Y489270D02*
X236150Y492956D01*
X236150Y489270D02*
X234921Y488041D01*
X231235Y488041D01*
X231235Y492956D01*
X228666Y488041D02*
X224980Y488041D01*
X223751Y489270D01*
X224980Y490498D01*
X227437Y490498D01*
X228666Y491727D01*
X227437Y492956D01*
X223751Y492956D01*
D11*
X165354Y564134D02*
X165354Y569727D01*
X161626Y569727D01*
X163490Y566930D02*
X165354Y566930D01*
X158809Y564134D02*
X156945Y564134D01*
X156012Y565066D01*
X156012Y566930D01*
X156945Y567863D01*
X158809Y567863D01*
X159741Y566930D01*
X159741Y565066D01*
X158809Y564134D01*
X154128Y564134D02*
X154128Y567863D01*
X152264Y567863D02*
X154128Y565998D01*
X152264Y567863D02*
X151331Y567863D01*
X143837Y565066D02*
X142905Y564134D01*
X141973Y564134D01*
X141041Y565066D01*
X141041Y569727D01*
X141973Y569727D02*
X140109Y569727D01*
X138224Y569727D02*
X138224Y564134D01*
X138224Y569727D02*
X135428Y569727D01*
X134496Y568795D01*
X134496Y566930D01*
X135428Y565998D01*
X138224Y565998D01*
X132611Y567863D02*
X130747Y569727D01*
X130747Y564134D01*
X132611Y564134D02*
X128882Y564134D01*
X126998Y566930D02*
X123269Y566930D01*
X121385Y565066D02*
X120453Y564134D01*
X119521Y564134D01*
X118588Y565066D01*
X118588Y569727D01*
X117656Y569727D02*
X119521Y569727D01*
X115772Y569727D02*
X115772Y564134D01*
X115772Y569727D02*
X112975Y569727D01*
X112043Y568795D01*
X112043Y566930D01*
X112975Y565998D01*
X115772Y565998D01*
X108294Y568795D02*
X106430Y569727D01*
X108294Y568795D02*
X110159Y566930D01*
X110159Y565066D01*
X109226Y564134D01*
X107362Y564134D01*
X106430Y565066D01*
X106430Y565998D01*
X107362Y566930D01*
X110159Y566930D01*
X104545Y562270D02*
X102681Y564134D01*
X102681Y565066D01*
X103613Y565066D01*
X103613Y564134D01*
X102681Y564134D01*
X95190Y567863D02*
X94258Y567863D01*
X94258Y564134D01*
X95190Y564134D02*
X93326Y564134D01*
X94258Y569727D02*
X94258Y570659D01*
X90516Y568795D02*
X90516Y564134D01*
X90516Y568795D02*
X89584Y569727D01*
X89584Y566930D02*
X91448Y566930D01*
X82093Y567863D02*
X82093Y565066D01*
X81161Y564134D01*
X78365Y564134D01*
X78365Y563202D02*
X78365Y567863D01*
X78365Y563202D02*
X79297Y562270D01*
X80229Y562270D01*
X75548Y564134D02*
X73684Y564134D01*
X72752Y565066D01*
X72752Y566930D01*
X73684Y567863D01*
X75548Y567863D01*
X76480Y566930D01*
X76480Y565066D01*
X75548Y564134D01*
X70867Y565066D02*
X70867Y567863D01*
X70867Y565066D02*
X69935Y564134D01*
X67138Y564134D01*
X67138Y567863D01*
X65254Y567863D02*
X65254Y564134D01*
X65254Y565998D02*
X63390Y567863D01*
X62457Y567863D01*
X52167Y569727D02*
X51235Y568795D01*
X52167Y569727D02*
X54031Y569727D01*
X54963Y568795D01*
X54963Y565066D01*
X54031Y564134D01*
X52167Y564134D01*
X51235Y565066D01*
X47486Y564134D02*
X47486Y569727D01*
X49350Y569727D02*
X45622Y569727D01*
X162558Y554990D02*
X165354Y554990D01*
X162558Y554990D02*
X161626Y555922D01*
X162558Y556854D01*
X164422Y556854D01*
X165354Y557786D01*
X164422Y558719D01*
X161626Y558719D01*
X158809Y554990D02*
X156945Y554990D01*
X158809Y554990D02*
X159741Y555922D01*
X159741Y557786D01*
X158809Y558719D01*
X156945Y558719D01*
X156012Y557786D01*
X156012Y556854D01*
X159741Y556854D01*
X154128Y554990D02*
X154128Y558719D01*
X151331Y558719D01*
X150399Y557786D01*
X150399Y554990D01*
X148515Y554990D02*
X145718Y554990D01*
X144786Y555922D01*
X145718Y556854D01*
X147583Y556854D01*
X148515Y557786D01*
X147583Y558719D01*
X144786Y558719D01*
X141970Y554990D02*
X140105Y554990D01*
X139173Y555922D01*
X139173Y557786D01*
X140105Y558719D01*
X141970Y558719D01*
X142902Y557786D01*
X142902Y555922D01*
X141970Y554990D01*
X137289Y554990D02*
X137289Y558719D01*
X137289Y556854D02*
X135424Y558719D01*
X134492Y558719D01*
X132611Y554990D02*
X129815Y554990D01*
X128882Y555922D01*
X129815Y556854D01*
X131679Y556854D01*
X132611Y557786D01*
X131679Y558719D01*
X128882Y558719D01*
X121385Y560583D02*
X121385Y554990D01*
X121385Y557786D02*
X120453Y558719D01*
X118588Y558719D01*
X117656Y557786D01*
X117656Y554990D01*
X114840Y558719D02*
X112975Y558719D01*
X112043Y557786D01*
X112043Y554990D01*
X114840Y554990D01*
X115772Y555922D01*
X114840Y556854D01*
X112043Y556854D01*
X110159Y558719D02*
X108294Y554990D01*
X106430Y558719D01*
X103613Y554990D02*
X101749Y554990D01*
X103613Y554990D02*
X104545Y555922D01*
X104545Y557786D01*
X103613Y558719D01*
X101749Y558719D01*
X100817Y557786D01*
X100817Y556854D01*
X104545Y556854D01*
X92387Y558719D02*
X90523Y558719D01*
X89591Y557786D01*
X89591Y554990D01*
X92387Y554990D01*
X93319Y555922D01*
X92387Y556854D01*
X89591Y556854D01*
X82093Y554990D02*
X82093Y560583D01*
X82093Y554990D02*
X79297Y554990D01*
X78365Y555922D01*
X78365Y557786D01*
X79297Y558719D01*
X82093Y558719D01*
X76480Y558719D02*
X76480Y555922D01*
X75548Y554990D01*
X72752Y554990D01*
X72752Y558719D01*
X70867Y558719D02*
X70867Y554990D01*
X70867Y556854D02*
X69003Y558719D01*
X68071Y558719D01*
X62461Y560583D02*
X62461Y554990D01*
X65257Y554990D01*
X66189Y555922D01*
X66189Y557786D01*
X65257Y558719D01*
X62461Y558719D01*
X59644Y554990D02*
X57780Y554990D01*
X59644Y554990D02*
X60576Y555922D01*
X60576Y557786D01*
X59644Y558719D01*
X57780Y558719D01*
X56848Y557786D01*
X56848Y556854D01*
X60576Y556854D01*
X54963Y554990D02*
X54963Y558719D01*
X52167Y558719D01*
X51235Y557786D01*
X51235Y554990D01*
X165354Y549575D02*
X165354Y545846D01*
X165354Y547710D02*
X163490Y549575D01*
X162558Y549575D01*
X159744Y545846D02*
X157880Y545846D01*
X159744Y545846D02*
X160676Y546778D01*
X160676Y548642D01*
X159744Y549575D01*
X157880Y549575D01*
X156948Y548642D01*
X156948Y547710D01*
X160676Y547710D01*
X155063Y545846D02*
X152267Y545846D01*
X151335Y546778D01*
X152267Y547710D01*
X154131Y547710D01*
X155063Y548642D01*
X154131Y549575D01*
X151335Y549575D01*
X149450Y549575D02*
X148518Y549575D01*
X148518Y545846D01*
X149450Y545846D02*
X147586Y545846D01*
X148518Y551439D02*
X148518Y552371D01*
X145708Y545846D02*
X142912Y545846D01*
X141980Y546778D01*
X142912Y547710D01*
X144776Y547710D01*
X145708Y548642D01*
X144776Y549575D01*
X141980Y549575D01*
X139163Y550507D02*
X139163Y546778D01*
X138231Y545846D01*
X138231Y549575D02*
X140095Y549575D01*
X135421Y545846D02*
X133557Y545846D01*
X132625Y546778D01*
X132625Y548642D01*
X133557Y549575D01*
X135421Y549575D01*
X136353Y548642D01*
X136353Y546778D01*
X135421Y545846D01*
X130740Y545846D02*
X130740Y549575D01*
X128876Y549575D02*
X130740Y547710D01*
X128876Y549575D02*
X127944Y549575D01*
X120449Y551439D02*
X120449Y545846D01*
X117653Y545846D01*
X116721Y546778D01*
X116721Y548642D01*
X117653Y549575D01*
X120449Y549575D01*
X114836Y549575D02*
X114836Y546778D01*
X113904Y545846D01*
X111108Y545846D01*
X111108Y549575D01*
X109223Y549575D02*
X108291Y549575D01*
X108291Y545846D01*
X109223Y545846D02*
X107359Y545846D01*
X108291Y551439D02*
X108291Y552371D01*
X105481Y551439D02*
X104549Y551439D01*
X104549Y545846D01*
X105481Y545846D02*
X103617Y545846D01*
X100807Y546778D02*
X100807Y550507D01*
X100807Y546778D02*
X99875Y545846D01*
X99875Y549575D02*
X101739Y549575D01*
X92384Y549575D02*
X91452Y549575D01*
X91452Y545846D01*
X92384Y545846D02*
X90520Y545846D01*
X91452Y551439D02*
X91452Y552371D01*
X88642Y549575D02*
X88642Y545846D01*
X88642Y549575D02*
X85845Y549575D01*
X84913Y548642D01*
X84913Y545846D01*
X83029Y543982D02*
X81164Y545846D01*
X81164Y546778D01*
X82096Y546778D01*
X82096Y545846D01*
X81164Y545846D01*
X162558Y536702D02*
X165354Y536702D01*
X162558Y536702D02*
X161626Y537634D01*
X162558Y538566D01*
X164422Y538566D01*
X165354Y539498D01*
X164422Y540431D01*
X161626Y540431D01*
X158809Y536702D02*
X156945Y536702D01*
X158809Y536702D02*
X159741Y537634D01*
X159741Y539498D01*
X158809Y540431D01*
X156945Y540431D01*
X156012Y539498D01*
X156012Y538566D01*
X159741Y538566D01*
X154128Y540431D02*
X152264Y536702D01*
X150399Y540431D01*
X147583Y536702D02*
X145718Y536702D01*
X147583Y536702D02*
X148515Y537634D01*
X148515Y539498D01*
X147583Y540431D01*
X145718Y540431D01*
X144786Y539498D01*
X144786Y538566D01*
X148515Y538566D01*
X142902Y536702D02*
X142902Y540431D01*
X142902Y538566D02*
X141037Y540431D01*
X140105Y540431D01*
X131679Y540431D02*
X128882Y540431D01*
X131679Y540431D02*
X132611Y539498D01*
X132611Y537634D01*
X131679Y536702D01*
X128882Y536702D01*
X126066Y536702D02*
X124201Y536702D01*
X123269Y537634D01*
X123269Y539498D01*
X124201Y540431D01*
X126066Y540431D01*
X126998Y539498D01*
X126998Y537634D01*
X126066Y536702D01*
X121385Y536702D02*
X121385Y540431D01*
X119521Y540431D02*
X121385Y538566D01*
X119521Y540431D02*
X118588Y540431D01*
X116707Y540431D02*
X116707Y536702D01*
X116707Y538566D02*
X114843Y540431D01*
X113911Y540431D01*
X111097Y536702D02*
X109233Y536702D01*
X111097Y536702D02*
X112030Y537634D01*
X112030Y539498D01*
X111097Y540431D01*
X109233Y540431D01*
X108301Y539498D01*
X108301Y538566D01*
X112030Y538566D01*
X106416Y536702D02*
X103620Y536702D01*
X102688Y537634D01*
X103620Y538566D01*
X105484Y538566D01*
X106416Y539498D01*
X105484Y540431D01*
X102688Y540431D01*
X100803Y540431D02*
X100803Y534838D01*
X100803Y540431D02*
X98007Y540431D01*
X97075Y539498D01*
X97075Y537634D01*
X98007Y536702D01*
X100803Y536702D01*
X94258Y536702D02*
X92394Y536702D01*
X91462Y537634D01*
X91462Y539498D01*
X92394Y540431D01*
X94258Y540431D01*
X95190Y539498D01*
X95190Y537634D01*
X94258Y536702D01*
X89577Y536702D02*
X89577Y540431D01*
X86781Y540431D01*
X85849Y539498D01*
X85849Y536702D01*
X80236Y536702D02*
X80236Y542295D01*
X80236Y536702D02*
X83032Y536702D01*
X83964Y537634D01*
X83964Y539498D01*
X83032Y540431D01*
X80236Y540431D01*
X78351Y540431D02*
X77419Y540431D01*
X77419Y536702D01*
X78351Y536702D02*
X76487Y536702D01*
X77419Y542295D02*
X77419Y543227D01*
X74609Y540431D02*
X74609Y536702D01*
X74609Y540431D02*
X71813Y540431D01*
X70880Y539498D01*
X70880Y536702D01*
X67132Y534838D02*
X66199Y534838D01*
X65267Y535770D01*
X65267Y540431D01*
X68064Y540431D01*
X68996Y539498D01*
X68996Y537634D01*
X68064Y536702D01*
X65267Y536702D01*
X164422Y532219D02*
X164422Y528490D01*
X163490Y527558D01*
X163490Y531287D02*
X165354Y531287D01*
X161612Y531287D02*
X161612Y527558D01*
X161612Y529422D02*
X159748Y531287D01*
X158816Y531287D01*
X156002Y531287D02*
X154138Y531287D01*
X153206Y530354D01*
X153206Y527558D01*
X156002Y527558D01*
X156934Y528490D01*
X156002Y529422D01*
X153206Y529422D01*
X150389Y531287D02*
X147593Y531287D01*
X150389Y531287D02*
X151321Y530354D01*
X151321Y528490D01*
X150389Y527558D01*
X147593Y527558D01*
X144776Y527558D02*
X142912Y527558D01*
X144776Y527558D02*
X145708Y528490D01*
X145708Y530354D01*
X144776Y531287D01*
X142912Y531287D01*
X141980Y530354D01*
X141980Y529422D01*
X145708Y529422D01*
X140095Y527558D02*
X137299Y527558D01*
X136367Y528490D01*
X137299Y529422D01*
X139163Y529422D01*
X140095Y530354D01*
X139163Y531287D01*
X136367Y531287D01*
X127937Y532219D02*
X127937Y528490D01*
X127005Y527558D01*
X127005Y531287D02*
X128869Y531287D01*
X124195Y527558D02*
X122330Y527558D01*
X121398Y528490D01*
X121398Y530354D01*
X122330Y531287D01*
X124195Y531287D01*
X125127Y530354D01*
X125127Y528490D01*
X124195Y527558D01*
X110172Y527558D02*
X110172Y533151D01*
X110172Y527558D02*
X112969Y527558D01*
X113901Y528490D01*
X113901Y530354D01*
X112969Y531287D01*
X110172Y531287D01*
X108288Y531287D02*
X107355Y531287D01*
X107355Y527558D01*
X106423Y527558D02*
X108288Y527558D01*
X107355Y533151D02*
X107355Y534083D01*
X104545Y527558D02*
X101749Y527558D01*
X100817Y528490D01*
X101749Y529422D01*
X103613Y529422D01*
X104545Y530354D01*
X103613Y531287D01*
X100817Y531287D01*
X98000Y531287D02*
X96136Y531287D01*
X95204Y530354D01*
X95204Y527558D01*
X98000Y527558D01*
X98932Y528490D01*
X98000Y529422D01*
X95204Y529422D01*
X93319Y527558D02*
X93319Y533151D01*
X93319Y527558D02*
X90523Y527558D01*
X89591Y528490D01*
X89591Y530354D01*
X90523Y531287D01*
X93319Y531287D01*
X87706Y533151D02*
X86774Y533151D01*
X86774Y527558D01*
X87706Y527558D02*
X85842Y527558D01*
X83032Y527558D02*
X81168Y527558D01*
X83032Y527558D02*
X83964Y528490D01*
X83964Y530354D01*
X83032Y531287D01*
X81168Y531287D01*
X80236Y530354D01*
X80236Y529422D01*
X83964Y529422D01*
X161626Y518414D02*
X165354Y518414D01*
X161626Y522143D01*
X161626Y523075D01*
X162558Y524007D01*
X164422Y524007D01*
X165354Y523075D01*
X159741Y518414D02*
X156012Y518414D01*
X159741Y518414D02*
X156012Y522143D01*
X156012Y523075D01*
X156945Y524007D01*
X158809Y524007D01*
X159741Y523075D01*
X153196Y518414D02*
X151331Y518414D01*
X150399Y519346D01*
X150399Y521210D01*
X151331Y522143D01*
X153196Y522143D01*
X154128Y521210D01*
X154128Y519346D01*
X153196Y518414D01*
X148515Y518414D02*
X148515Y524007D01*
X147583Y522143D02*
X148515Y521210D01*
X147583Y522143D02*
X145718Y522143D01*
X144786Y521210D01*
X144786Y518414D01*
X142902Y518414D02*
X142902Y522143D01*
X141970Y522143D01*
X141037Y521210D01*
X141037Y518414D01*
X141037Y521210D02*
X140105Y522143D01*
X139173Y521210D01*
X139173Y518414D01*
X131675Y518414D02*
X131675Y524007D01*
X131675Y518414D02*
X128879Y518414D01*
X127947Y519346D01*
X127947Y521210D01*
X128879Y522143D01*
X131675Y522143D01*
X126062Y522143D02*
X126062Y519346D01*
X125130Y518414D01*
X122334Y518414D01*
X122334Y522143D01*
X120449Y522143D02*
X120449Y518414D01*
X120449Y520278D02*
X118585Y522143D01*
X117653Y522143D01*
X112043Y524007D02*
X112043Y518414D01*
X114840Y518414D01*
X115772Y519346D01*
X115772Y521210D01*
X114840Y522143D01*
X112043Y522143D01*
X109226Y518414D02*
X107362Y518414D01*
X109226Y518414D02*
X110159Y519346D01*
X110159Y521210D01*
X109226Y522143D01*
X107362Y522143D01*
X106430Y521210D01*
X106430Y520278D01*
X110159Y520278D01*
X104545Y518414D02*
X104545Y522143D01*
X101749Y522143D01*
X100817Y521210D01*
X100817Y518414D01*
X165354Y512999D02*
X165354Y509270D01*
X165354Y511134D02*
X163490Y512999D01*
X162558Y512999D01*
X159744Y509270D02*
X157880Y509270D01*
X159744Y509270D02*
X160676Y510202D01*
X160676Y512066D01*
X159744Y512999D01*
X157880Y512999D01*
X156948Y512066D01*
X156948Y511134D01*
X160676Y511134D01*
X155063Y509270D02*
X152267Y509270D01*
X151335Y510202D01*
X152267Y511134D01*
X154131Y511134D01*
X155063Y512066D01*
X154131Y512999D01*
X151335Y512999D01*
X149450Y512999D02*
X148518Y512999D01*
X148518Y509270D01*
X149450Y509270D02*
X147586Y509270D01*
X148518Y514863D02*
X148518Y515795D01*
X145708Y509270D02*
X142912Y509270D01*
X141980Y510202D01*
X142912Y511134D01*
X144776Y511134D01*
X145708Y512066D01*
X144776Y512999D01*
X141980Y512999D01*
X139163Y513931D02*
X139163Y510202D01*
X138231Y509270D01*
X138231Y512999D02*
X140095Y512999D01*
X135421Y509270D02*
X133557Y509270D01*
X132625Y510202D01*
X132625Y512066D01*
X133557Y512999D01*
X135421Y512999D01*
X136353Y512066D01*
X136353Y510202D01*
X135421Y509270D01*
X130740Y509270D02*
X130740Y512999D01*
X128876Y512999D02*
X130740Y511134D01*
X128876Y512999D02*
X127944Y512999D01*
X119517Y513931D02*
X119517Y509270D01*
X119517Y513931D02*
X118585Y514863D01*
X118585Y512066D02*
X120449Y512066D01*
X115775Y509270D02*
X113911Y509270D01*
X112979Y510202D01*
X112979Y512066D01*
X113911Y512999D01*
X115775Y512999D01*
X116707Y512066D01*
X116707Y510202D01*
X115775Y509270D01*
X111094Y509270D02*
X111094Y512999D01*
X109230Y512999D02*
X111094Y511134D01*
X109230Y512999D02*
X108298Y512999D01*
X161626Y504787D02*
X162558Y505719D01*
X164422Y505719D01*
X165354Y504787D01*
X165354Y501058D01*
X164422Y500126D01*
X162558Y500126D01*
X161626Y501058D01*
X157877Y500126D02*
X157877Y505719D01*
X159741Y505719D02*
X156012Y505719D01*
X154128Y503855D02*
X152264Y505719D01*
X152264Y500126D01*
X154128Y500126D02*
X150399Y500126D01*
X148515Y502922D02*
X144786Y502922D01*
X140105Y505719D02*
X139173Y504787D01*
X140105Y505719D02*
X141970Y505719D01*
X142902Y504787D01*
X142902Y501058D01*
X141970Y500126D01*
X140105Y500126D01*
X139173Y501058D01*
X135424Y500126D02*
X135424Y505719D01*
X133560Y505719D02*
X137289Y505719D01*
X129811Y504787D02*
X127947Y505719D01*
X129811Y504787D02*
X131675Y502922D01*
X131675Y501058D01*
X130743Y500126D01*
X128879Y500126D01*
X127947Y501058D01*
X127947Y501990D01*
X128879Y502922D01*
X131675Y502922D01*
X567518Y137249D02*
X568450Y138181D01*
X570314Y138181D01*
X571246Y137249D01*
X571246Y136317D01*
X570314Y135384D01*
X568450Y135384D01*
X567518Y134452D01*
X567518Y133520D01*
X568450Y132588D01*
X570314Y132588D01*
X571246Y133520D01*
X564701Y132588D02*
X562837Y132588D01*
X564701Y132588D02*
X565633Y133520D01*
X565633Y135384D01*
X564701Y136317D01*
X562837Y136317D01*
X561904Y135384D01*
X561904Y134452D01*
X565633Y134452D01*
X560020Y136317D02*
X558156Y132588D01*
X556291Y136317D01*
X553475Y132588D02*
X551610Y132588D01*
X553475Y132588D02*
X554407Y133520D01*
X554407Y135384D01*
X553475Y136317D01*
X551610Y136317D01*
X550678Y135384D01*
X550678Y134452D01*
X554407Y134452D01*
X548794Y132588D02*
X548794Y136317D01*
X548794Y134452D02*
X546929Y136317D01*
X545997Y136317D01*
X538503Y133520D02*
X537571Y132588D01*
X536639Y132588D01*
X535707Y133520D01*
X535707Y138181D01*
X536639Y138181D02*
X534774Y138181D01*
X532890Y138181D02*
X532890Y132588D01*
X532890Y138181D02*
X530093Y138181D01*
X529161Y137249D01*
X529161Y135384D01*
X530093Y134452D01*
X532890Y134452D01*
X527277Y136317D02*
X525413Y138181D01*
X525413Y132588D01*
X527277Y132588D02*
X523548Y132588D01*
X521664Y132588D02*
X517935Y132588D01*
X521664Y132588D02*
X517935Y136317D01*
X517935Y137249D01*
X518867Y138181D01*
X520732Y138181D01*
X521664Y137249D01*
X508573Y132588D02*
X506709Y134452D01*
X508573Y132588D02*
X509505Y132588D01*
X510437Y133520D01*
X510437Y134452D01*
X508573Y136317D01*
X508573Y137249D01*
X509505Y138181D01*
X510437Y137249D01*
X510437Y136317D01*
X506709Y132588D01*
X499211Y133520D02*
X498279Y132588D01*
X497347Y132588D01*
X496415Y133520D01*
X496415Y138181D01*
X497347Y138181D02*
X495483Y138181D01*
X493598Y138181D02*
X493598Y132588D01*
X493598Y138181D02*
X490802Y138181D01*
X489870Y137249D01*
X489870Y135384D01*
X490802Y134452D01*
X493598Y134452D01*
X487985Y136317D02*
X486121Y138181D01*
X486121Y132588D01*
X487985Y132588D02*
X484257Y132588D01*
X482372Y137249D02*
X481440Y138181D01*
X479576Y138181D01*
X478644Y137249D01*
X478644Y136317D01*
X479576Y135384D01*
X480508Y135384D01*
X479576Y135384D02*
X478644Y134452D01*
X478644Y133520D01*
X479576Y132588D01*
X481440Y132588D01*
X482372Y133520D01*
X470214Y133520D02*
X470214Y137249D01*
X470214Y133520D02*
X469282Y132588D01*
X469282Y136317D02*
X471146Y136317D01*
X466472Y132588D02*
X464607Y132588D01*
X463675Y133520D01*
X463675Y135384D01*
X464607Y136317D01*
X466472Y136317D01*
X467404Y135384D01*
X467404Y133520D01*
X466472Y132588D01*
X571246Y127173D02*
X571246Y124376D01*
X570314Y123444D01*
X567518Y123444D01*
X567518Y127173D01*
X565633Y123444D02*
X562837Y123444D01*
X561904Y124376D01*
X562837Y125308D01*
X564701Y125308D01*
X565633Y126240D01*
X564701Y127173D01*
X561904Y127173D01*
X559088Y123444D02*
X557223Y123444D01*
X559088Y123444D02*
X560020Y124376D01*
X560020Y126240D01*
X559088Y127173D01*
X557223Y127173D01*
X556291Y126240D01*
X556291Y125308D01*
X560020Y125308D01*
X548794Y125308D02*
X548794Y129037D01*
X548794Y125308D02*
X546929Y123444D01*
X545065Y125308D01*
X545065Y129037D01*
X543181Y127173D02*
X543181Y123444D01*
X543181Y127173D02*
X541316Y129037D01*
X539452Y127173D01*
X539452Y123444D01*
X539452Y126240D02*
X543181Y126240D01*
X537567Y123444D02*
X533839Y123444D01*
X537567Y123444D02*
X533839Y127173D01*
X533839Y128105D01*
X534771Y129037D01*
X536635Y129037D01*
X537567Y128105D01*
X531954Y126240D02*
X528226Y126240D01*
X530090Y128105D02*
X530090Y124376D01*
X519796Y127173D02*
X517932Y127173D01*
X517000Y126240D01*
X517000Y123444D01*
X519796Y123444D01*
X520728Y124376D01*
X519796Y125308D01*
X517000Y125308D01*
X515115Y123444D02*
X512319Y123444D01*
X511387Y124376D01*
X512319Y125308D01*
X514183Y125308D01*
X515115Y126240D01*
X514183Y127173D01*
X511387Y127173D01*
X503889Y123444D02*
X501093Y123444D01*
X500160Y124376D01*
X501093Y125308D01*
X502957Y125308D01*
X503889Y126240D01*
X502957Y127173D01*
X500160Y127173D01*
X497344Y123444D02*
X495479Y123444D01*
X497344Y123444D02*
X498276Y124376D01*
X498276Y126240D01*
X497344Y127173D01*
X495479Y127173D01*
X494547Y126240D01*
X494547Y125308D01*
X498276Y125308D01*
X491731Y127173D02*
X488934Y127173D01*
X491731Y127173D02*
X492663Y126240D01*
X492663Y124376D01*
X491731Y123444D01*
X488934Y123444D01*
X486117Y123444D02*
X484253Y123444D01*
X483321Y124376D01*
X483321Y126240D01*
X484253Y127173D01*
X486117Y127173D01*
X487050Y126240D01*
X487050Y124376D01*
X486117Y123444D01*
X481437Y123444D02*
X481437Y127173D01*
X478640Y127173D01*
X477708Y126240D01*
X477708Y123444D01*
X472095Y123444D02*
X472095Y129037D01*
X472095Y123444D02*
X474891Y123444D01*
X475823Y124376D01*
X475823Y126240D01*
X474891Y127173D01*
X472095Y127173D01*
X469278Y127173D02*
X467414Y127173D01*
X466482Y126240D01*
X466482Y123444D01*
X469278Y123444D01*
X470210Y124376D01*
X469278Y125308D01*
X466482Y125308D01*
X464597Y123444D02*
X464597Y127173D01*
X462733Y127173D02*
X464597Y125308D01*
X462733Y127173D02*
X461801Y127173D01*
X459920Y127173D02*
X459920Y124376D01*
X458988Y123444D01*
X456191Y123444D01*
X456191Y122512D02*
X456191Y127173D01*
X456191Y122512D02*
X457123Y121580D01*
X458055Y121580D01*
X569382Y114300D02*
X571246Y118029D01*
X567518Y118029D02*
X569382Y114300D01*
X564701Y114300D02*
X562837Y114300D01*
X561904Y115232D01*
X561904Y117096D01*
X562837Y118029D01*
X564701Y118029D01*
X565633Y117096D01*
X565633Y115232D01*
X564701Y114300D01*
X560020Y119893D02*
X559088Y119893D01*
X559088Y114300D01*
X560020Y114300D02*
X558156Y114300D01*
X555346Y115232D02*
X555346Y118961D01*
X555346Y115232D02*
X554414Y114300D01*
X554414Y118029D02*
X556278Y118029D01*
X551604Y118029D02*
X549739Y118029D01*
X548807Y117096D01*
X548807Y114300D01*
X551604Y114300D01*
X552536Y115232D01*
X551604Y116164D01*
X548807Y116164D01*
X545058Y112436D02*
X544126Y112436D01*
X543194Y113368D01*
X543194Y118029D01*
X545990Y118029D01*
X546923Y117096D01*
X546923Y115232D01*
X545990Y114300D01*
X543194Y114300D01*
X540377Y114300D02*
X538513Y114300D01*
X540377Y114300D02*
X541310Y115232D01*
X541310Y117096D01*
X540377Y118029D01*
X538513Y118029D01*
X537581Y117096D01*
X537581Y116164D01*
X541310Y116164D01*
X530083Y114300D02*
X530083Y118029D01*
X529151Y118029D01*
X528219Y117096D01*
X528219Y114300D01*
X528219Y117096D02*
X527287Y118029D01*
X526355Y117096D01*
X526355Y114300D01*
X523538Y114300D02*
X521674Y114300D01*
X523538Y114300D02*
X524470Y115232D01*
X524470Y117096D01*
X523538Y118029D01*
X521674Y118029D01*
X520742Y117096D01*
X520742Y116164D01*
X524470Y116164D01*
X517925Y118029D02*
X516061Y118029D01*
X515129Y117096D01*
X515129Y114300D01*
X517925Y114300D01*
X518857Y115232D01*
X517925Y116164D01*
X515129Y116164D01*
X513244Y114300D02*
X510448Y114300D01*
X509516Y115232D01*
X510448Y116164D01*
X512312Y116164D01*
X513244Y117096D01*
X512312Y118029D01*
X509516Y118029D01*
X507631Y118029D02*
X507631Y115232D01*
X506699Y114300D01*
X503902Y114300D01*
X503902Y118029D01*
X502018Y118029D02*
X502018Y114300D01*
X502018Y116164D02*
X500154Y118029D01*
X499221Y118029D01*
X496408Y114300D02*
X494544Y114300D01*
X496408Y114300D02*
X497340Y115232D01*
X497340Y117096D01*
X496408Y118029D01*
X494544Y118029D01*
X493612Y117096D01*
X493612Y116164D01*
X497340Y116164D01*
X491727Y114300D02*
X491727Y118029D01*
X490795Y118029D01*
X489863Y117096D01*
X489863Y114300D01*
X489863Y117096D02*
X488931Y118029D01*
X487999Y117096D01*
X487999Y114300D01*
X485182Y114300D02*
X483318Y114300D01*
X485182Y114300D02*
X486114Y115232D01*
X486114Y117096D01*
X485182Y118029D01*
X483318Y118029D01*
X482386Y117096D01*
X482386Y116164D01*
X486114Y116164D01*
X480501Y114300D02*
X480501Y118029D01*
X477705Y118029D01*
X476772Y117096D01*
X476772Y114300D01*
X473956Y115232D02*
X473956Y118961D01*
X473956Y115232D02*
X473024Y114300D01*
X473024Y118029D02*
X474888Y118029D01*
X465533Y118029D02*
X464601Y118029D01*
X464601Y114300D01*
X465533Y114300D02*
X463668Y114300D01*
X464601Y119893D02*
X464601Y120825D01*
X461791Y118029D02*
X461791Y114300D01*
X461791Y118029D02*
X458994Y118029D01*
X458062Y117096D01*
X458062Y114300D01*
X456178Y112436D02*
X456178Y118029D01*
X453381Y118029D01*
X452449Y117096D01*
X452449Y115232D01*
X453381Y114300D01*
X456178Y114300D01*
X450564Y115232D02*
X450564Y118029D01*
X450564Y115232D02*
X449632Y114300D01*
X446836Y114300D01*
X446836Y118029D01*
X444019Y118961D02*
X444019Y115232D01*
X443087Y114300D01*
X443087Y118029D02*
X444951Y118029D01*
X441209Y115232D02*
X441209Y114300D01*
X441209Y115232D02*
X440277Y115232D01*
X440277Y114300D01*
X441209Y114300D01*
X571246Y110749D02*
X571246Y107020D01*
X569382Y105156D01*
X567518Y107020D01*
X567518Y110749D01*
X565633Y108885D02*
X565633Y105156D01*
X565633Y108885D02*
X563769Y110749D01*
X561904Y108885D01*
X561904Y105156D01*
X561904Y107952D02*
X565633Y107952D01*
X560020Y105156D02*
X556291Y105156D01*
X560020Y105156D02*
X556291Y108885D01*
X556291Y109817D01*
X557223Y110749D01*
X559088Y110749D01*
X560020Y109817D01*
X554407Y107952D02*
X550678Y107952D01*
X552542Y109817D02*
X552542Y106088D01*
X543181Y105156D02*
X540384Y105156D01*
X539452Y106088D01*
X540384Y107020D01*
X542248Y107020D01*
X543181Y107952D01*
X542248Y108885D01*
X539452Y108885D01*
X537567Y110749D02*
X537567Y105156D01*
X537567Y107952D02*
X536635Y108885D01*
X534771Y108885D01*
X533839Y107952D01*
X533839Y105156D01*
X531022Y105156D02*
X529158Y105156D01*
X528226Y106088D01*
X528226Y107952D01*
X529158Y108885D01*
X531022Y108885D01*
X531954Y107952D01*
X531954Y106088D01*
X531022Y105156D01*
X526341Y106088D02*
X526341Y108885D01*
X526341Y106088D02*
X525409Y105156D01*
X522613Y105156D01*
X522613Y108885D01*
X520728Y110749D02*
X519796Y110749D01*
X519796Y105156D01*
X520728Y105156D02*
X518864Y105156D01*
X513258Y105156D02*
X513258Y110749D01*
X513258Y105156D02*
X516054Y105156D01*
X516986Y106088D01*
X516986Y107952D01*
X516054Y108885D01*
X513258Y108885D01*
X505760Y110749D02*
X505760Y105156D01*
X502964Y105156D01*
X502031Y106088D01*
X502031Y107952D01*
X502964Y108885D01*
X505760Y108885D01*
X499215Y105156D02*
X497350Y105156D01*
X499215Y105156D02*
X500147Y106088D01*
X500147Y107952D01*
X499215Y108885D01*
X497350Y108885D01*
X496418Y107952D01*
X496418Y107020D01*
X500147Y107020D01*
X488921Y105156D02*
X488921Y110749D01*
X487989Y108885D02*
X488921Y107952D01*
X487989Y108885D02*
X486124Y108885D01*
X485192Y107952D01*
X485192Y105156D01*
X482375Y105156D02*
X480511Y105156D01*
X479579Y106088D01*
X479579Y107952D01*
X480511Y108885D01*
X482375Y108885D01*
X483308Y107952D01*
X483308Y106088D01*
X482375Y105156D01*
X476762Y105156D02*
X474898Y105156D01*
X473966Y106088D01*
X473966Y107952D01*
X474898Y108885D01*
X476762Y108885D01*
X477694Y107952D01*
X477694Y106088D01*
X476762Y105156D01*
X472081Y105156D02*
X472081Y110749D01*
X472081Y107020D02*
X469285Y105156D01*
X472081Y107020D02*
X469285Y108885D01*
X466472Y105156D02*
X464607Y105156D01*
X466472Y105156D02*
X467404Y106088D01*
X467404Y107952D01*
X466472Y108885D01*
X464607Y108885D01*
X463675Y107952D01*
X463675Y107020D01*
X467404Y107020D01*
X458062Y105156D02*
X458062Y110749D01*
X458062Y105156D02*
X460859Y105156D01*
X461791Y106088D01*
X461791Y107952D01*
X460859Y108885D01*
X458062Y108885D01*
X571246Y99741D02*
X571246Y96944D01*
X570314Y96012D01*
X567518Y96012D01*
X567518Y99741D01*
X565633Y99741D02*
X565633Y94148D01*
X565633Y99741D02*
X562837Y99741D01*
X561904Y98808D01*
X561904Y96944D01*
X562837Y96012D01*
X565633Y96012D01*
X553475Y96944D02*
X553475Y100673D01*
X553475Y96944D02*
X552542Y96012D01*
X552542Y99741D02*
X554407Y99741D01*
X549733Y96012D02*
X547868Y96012D01*
X546936Y96944D01*
X546936Y98808D01*
X547868Y99741D01*
X549733Y99741D01*
X550665Y98808D01*
X550665Y96944D01*
X549733Y96012D01*
X538506Y99741D02*
X536642Y99741D01*
X535710Y98808D01*
X535710Y96012D01*
X538506Y96012D01*
X539438Y96944D01*
X538506Y97876D01*
X535710Y97876D01*
X528212Y96012D02*
X525416Y96012D01*
X524484Y96944D01*
X525416Y97876D01*
X527280Y97876D01*
X528212Y98808D01*
X527280Y99741D01*
X524484Y99741D01*
X521667Y96012D02*
X519803Y96012D01*
X521667Y96012D02*
X522599Y96944D01*
X522599Y98808D01*
X521667Y99741D01*
X519803Y99741D01*
X518871Y98808D01*
X518871Y97876D01*
X522599Y97876D01*
X516054Y99741D02*
X513258Y99741D01*
X516054Y99741D02*
X516986Y98808D01*
X516986Y96944D01*
X516054Y96012D01*
X513258Y96012D01*
X510441Y96012D02*
X508577Y96012D01*
X507645Y96944D01*
X507645Y98808D01*
X508577Y99741D01*
X510441Y99741D01*
X511373Y98808D01*
X511373Y96944D01*
X510441Y96012D01*
X505760Y96012D02*
X505760Y99741D01*
X502964Y99741D01*
X502031Y98808D01*
X502031Y96012D01*
X496418Y96012D02*
X496418Y101605D01*
X496418Y96012D02*
X499215Y96012D01*
X500147Y96944D01*
X500147Y98808D01*
X499215Y99741D01*
X496418Y99741D01*
X488921Y99741D02*
X488921Y96012D01*
X488921Y99741D02*
X487056Y101605D01*
X485192Y99741D01*
X485192Y96012D01*
X485192Y98808D02*
X488921Y98808D01*
X480511Y101605D02*
X479579Y100673D01*
X480511Y101605D02*
X482375Y101605D01*
X483308Y100673D01*
X483308Y96944D01*
X482375Y96012D01*
X480511Y96012D01*
X479579Y96944D01*
X570314Y91529D02*
X570314Y87800D01*
X569382Y86868D01*
X569382Y90597D02*
X571246Y90597D01*
X567504Y90597D02*
X567504Y86868D01*
X567504Y88732D02*
X565640Y90597D01*
X564708Y90597D01*
X561894Y90597D02*
X560030Y90597D01*
X559098Y89664D01*
X559098Y86868D01*
X561894Y86868D01*
X562826Y87800D01*
X561894Y88732D01*
X559098Y88732D01*
X557213Y86868D02*
X557213Y90597D01*
X554417Y90597D01*
X553485Y89664D01*
X553485Y86868D01*
X551600Y86868D02*
X548804Y86868D01*
X547872Y87800D01*
X548804Y88732D01*
X550668Y88732D01*
X551600Y89664D01*
X550668Y90597D01*
X547872Y90597D01*
X545055Y91529D02*
X545055Y86868D01*
X545055Y91529D02*
X544123Y92461D01*
X544123Y89664D02*
X545987Y89664D01*
X541313Y86868D02*
X539449Y86868D01*
X538517Y87800D01*
X538517Y89664D01*
X539449Y90597D01*
X541313Y90597D01*
X542245Y89664D01*
X542245Y87800D01*
X541313Y86868D01*
X536632Y86868D02*
X536632Y90597D01*
X534768Y90597D02*
X536632Y88732D01*
X534768Y90597D02*
X533836Y90597D01*
X531954Y90597D02*
X531954Y86868D01*
X531954Y90597D02*
X531022Y90597D01*
X530090Y89664D01*
X530090Y86868D01*
X530090Y89664D02*
X529158Y90597D01*
X528226Y89664D01*
X528226Y86868D01*
X525409Y86868D02*
X523545Y86868D01*
X525409Y86868D02*
X526341Y87800D01*
X526341Y89664D01*
X525409Y90597D01*
X523545Y90597D01*
X522613Y89664D01*
X522613Y88732D01*
X526341Y88732D01*
X520728Y86868D02*
X520728Y90597D01*
X518864Y90597D02*
X520728Y88732D01*
X518864Y90597D02*
X517932Y90597D01*
X509505Y86868D02*
X507641Y86868D01*
X506709Y87800D01*
X506709Y89664D01*
X507641Y90597D01*
X509505Y90597D01*
X510437Y89664D01*
X510437Y87800D01*
X509505Y86868D01*
X504824Y86868D02*
X504824Y90597D01*
X502028Y90597D01*
X501096Y89664D01*
X501096Y86868D01*
X492666Y90597D02*
X490802Y90597D01*
X489870Y89664D01*
X489870Y86868D01*
X492666Y86868D01*
X493598Y87800D01*
X492666Y88732D01*
X489870Y88732D01*
X478643Y86868D02*
X478643Y92461D01*
X478643Y86868D02*
X481440Y86868D01*
X482372Y87800D01*
X482372Y89664D01*
X481440Y90597D01*
X478643Y90597D01*
X476759Y90597D02*
X475827Y90597D01*
X475827Y86868D01*
X476759Y86868D02*
X474895Y86868D01*
X475827Y92461D02*
X475827Y93393D01*
X472085Y91529D02*
X472085Y86868D01*
X472085Y91529D02*
X471153Y92461D01*
X471153Y89664D02*
X473017Y89664D01*
X468343Y91529D02*
X468343Y86868D01*
X468343Y91529D02*
X467411Y92461D01*
X467411Y89664D02*
X469275Y89664D01*
X464601Y86868D02*
X462736Y86868D01*
X464601Y86868D02*
X465533Y87800D01*
X465533Y89664D01*
X464601Y90597D01*
X462736Y90597D01*
X461804Y89664D01*
X461804Y88732D01*
X465533Y88732D01*
X459920Y86868D02*
X459920Y90597D01*
X459920Y88732D02*
X458055Y90597D01*
X457123Y90597D01*
X454310Y86868D02*
X452446Y86868D01*
X454310Y86868D02*
X455242Y87800D01*
X455242Y89664D01*
X454310Y90597D01*
X452446Y90597D01*
X451514Y89664D01*
X451514Y88732D01*
X455242Y88732D01*
X449629Y86868D02*
X449629Y90597D01*
X446833Y90597D01*
X445900Y89664D01*
X445900Y86868D01*
X443084Y87800D02*
X443084Y91529D01*
X443084Y87800D02*
X442152Y86868D01*
X442152Y90597D02*
X444016Y90597D01*
X434661Y90597D02*
X434661Y85004D01*
X434661Y90597D02*
X431864Y90597D01*
X430932Y89664D01*
X430932Y87800D01*
X431864Y86868D01*
X434661Y86868D01*
X429048Y86868D02*
X429048Y92461D01*
X428115Y90597D02*
X429048Y89664D01*
X428115Y90597D02*
X426251Y90597D01*
X425319Y89664D01*
X425319Y86868D01*
X422502Y90597D02*
X420638Y90597D01*
X419706Y89664D01*
X419706Y86868D01*
X422502Y86868D01*
X423434Y87800D01*
X422502Y88732D01*
X419706Y88732D01*
X417821Y86868D02*
X415025Y86868D01*
X414093Y87800D01*
X415025Y88732D01*
X416889Y88732D01*
X417821Y89664D01*
X416889Y90597D01*
X414093Y90597D01*
X411276Y86868D02*
X409412Y86868D01*
X411276Y86868D02*
X412208Y87800D01*
X412208Y89664D01*
X411276Y90597D01*
X409412Y90597D01*
X408480Y89664D01*
X408480Y88732D01*
X412208Y88732D01*
X570314Y82385D02*
X570314Y78656D01*
X569382Y77724D01*
X569382Y81453D02*
X571246Y81453D01*
X567504Y83317D02*
X567504Y77724D01*
X567504Y80520D02*
X566572Y81453D01*
X564708Y81453D01*
X563775Y80520D01*
X563775Y77724D01*
X560959Y81453D02*
X559094Y81453D01*
X558162Y80520D01*
X558162Y77724D01*
X560959Y77724D01*
X561891Y78656D01*
X560959Y79588D01*
X558162Y79588D01*
X556278Y77724D02*
X556278Y81453D01*
X553481Y81453D01*
X552549Y80520D01*
X552549Y77724D01*
X544119Y78656D02*
X544119Y82385D01*
X544119Y78656D02*
X543187Y77724D01*
X543187Y81453D02*
X545052Y81453D01*
X541310Y83317D02*
X541310Y77724D01*
X541310Y80520D02*
X540377Y81453D01*
X538513Y81453D01*
X537581Y80520D01*
X537581Y77724D01*
X534764Y77724D02*
X532900Y77724D01*
X534764Y77724D02*
X535696Y78656D01*
X535696Y80520D01*
X534764Y81453D01*
X532900Y81453D01*
X531968Y80520D01*
X531968Y79588D01*
X535696Y79588D01*
X524470Y81453D02*
X524470Y75860D01*
X524470Y81453D02*
X521674Y81453D01*
X520742Y80520D01*
X520742Y78656D01*
X521674Y77724D01*
X524470Y77724D01*
X518857Y77724D02*
X518857Y81453D01*
X516993Y81453D02*
X518857Y79588D01*
X516993Y81453D02*
X516061Y81453D01*
X514180Y81453D02*
X513247Y81453D01*
X513247Y77724D01*
X512315Y77724D02*
X514180Y77724D01*
X513247Y83317D02*
X513247Y84249D01*
X510437Y81453D02*
X510437Y77724D01*
X510437Y81453D02*
X509505Y81453D01*
X508573Y80520D01*
X508573Y77724D01*
X508573Y80520D02*
X507641Y81453D01*
X506709Y80520D01*
X506709Y77724D01*
X503892Y81453D02*
X502028Y81453D01*
X501096Y80520D01*
X501096Y77724D01*
X503892Y77724D01*
X504824Y78656D01*
X503892Y79588D01*
X501096Y79588D01*
X499211Y77724D02*
X499211Y81453D01*
X497347Y81453D02*
X499211Y79588D01*
X497347Y81453D02*
X496415Y81453D01*
X494534Y81453D02*
X494534Y78656D01*
X493602Y77724D01*
X490805Y77724D01*
X490805Y76792D02*
X490805Y81453D01*
X490805Y76792D02*
X491737Y75860D01*
X492669Y75860D01*
X482375Y78656D02*
X482375Y82385D01*
X482375Y78656D02*
X481443Y77724D01*
X481443Y81453D02*
X483308Y81453D01*
X479565Y81453D02*
X479565Y77724D01*
X479565Y79588D02*
X477701Y81453D01*
X476769Y81453D01*
X473956Y81453D02*
X472091Y81453D01*
X471159Y80520D01*
X471159Y77724D01*
X473956Y77724D01*
X474888Y78656D01*
X473956Y79588D01*
X471159Y79588D01*
X469275Y77724D02*
X469275Y81453D01*
X466478Y81453D01*
X465546Y80520D01*
X465546Y77724D01*
X463662Y77724D02*
X460865Y77724D01*
X459933Y78656D01*
X460865Y79588D01*
X462730Y79588D01*
X463662Y80520D01*
X462730Y81453D01*
X459933Y81453D01*
X457116Y82385D02*
X457116Y77724D01*
X457116Y82385D02*
X456184Y83317D01*
X456184Y80520D02*
X458049Y80520D01*
X453374Y77724D02*
X451510Y77724D01*
X450578Y78656D01*
X450578Y80520D01*
X451510Y81453D01*
X453374Y81453D01*
X454307Y80520D01*
X454307Y78656D01*
X453374Y77724D01*
X448693Y77724D02*
X448693Y81453D01*
X446829Y81453D02*
X448693Y79588D01*
X446829Y81453D02*
X445897Y81453D01*
X444016Y81453D02*
X444016Y77724D01*
X444016Y81453D02*
X443084Y81453D01*
X442152Y80520D01*
X442152Y77724D01*
X442152Y80520D02*
X441219Y81453D01*
X440287Y80520D01*
X440287Y77724D01*
X437471Y77724D02*
X435606Y77724D01*
X437471Y77724D02*
X438403Y78656D01*
X438403Y80520D01*
X437471Y81453D01*
X435606Y81453D01*
X434674Y80520D01*
X434674Y79588D01*
X438403Y79588D01*
X432790Y77724D02*
X432790Y81453D01*
X432790Y79588D02*
X430925Y81453D01*
X429993Y81453D01*
X428112Y78656D02*
X428112Y77724D01*
X428112Y78656D02*
X427180Y78656D01*
X427180Y77724D01*
X428112Y77724D01*
X571246Y55885D02*
X571246Y50292D01*
X568450Y50292D01*
X567518Y51224D01*
X567518Y54953D01*
X568450Y55885D01*
X571246Y55885D01*
X564701Y55885D02*
X562837Y55885D01*
X564701Y55885D02*
X565633Y54953D01*
X565633Y51224D01*
X564701Y50292D01*
X562837Y50292D01*
X561904Y51224D01*
X561904Y54953D01*
X562837Y55885D01*
X554407Y55885D02*
X554407Y50292D01*
X550678Y50292D02*
X554407Y55885D01*
X550678Y55885D02*
X550678Y50292D01*
X547862Y55885D02*
X545997Y55885D01*
X547862Y55885D02*
X548794Y54953D01*
X548794Y51224D01*
X547862Y50292D01*
X545997Y50292D01*
X545065Y51224D01*
X545065Y54953D01*
X545997Y55885D01*
X541316Y55885D02*
X541316Y50292D01*
X543181Y55885D02*
X539452Y55885D01*
X531022Y54021D02*
X528226Y54021D01*
X531022Y54021D02*
X531954Y53088D01*
X531954Y51224D01*
X531022Y50292D01*
X528226Y50292D01*
X525409Y50292D02*
X523545Y50292D01*
X522613Y51224D01*
X522613Y53088D01*
X523545Y54021D01*
X525409Y54021D01*
X526341Y53088D01*
X526341Y51224D01*
X525409Y50292D01*
X520728Y50292D02*
X520728Y54021D01*
X517932Y54021D01*
X517000Y53088D01*
X517000Y50292D01*
X515115Y50292D02*
X515115Y54021D01*
X512319Y54021D01*
X511387Y53088D01*
X511387Y50292D01*
X508570Y50292D02*
X506706Y50292D01*
X508570Y50292D02*
X509502Y51224D01*
X509502Y53088D01*
X508570Y54021D01*
X506706Y54021D01*
X505773Y53088D01*
X505773Y52156D01*
X509502Y52156D01*
X502957Y54021D02*
X500160Y54021D01*
X502957Y54021D02*
X503889Y53088D01*
X503889Y51224D01*
X502957Y50292D01*
X500160Y50292D01*
X497344Y51224D02*
X497344Y54953D01*
X497344Y51224D02*
X496412Y50292D01*
X496412Y54021D02*
X498276Y54021D01*
X488921Y55885D02*
X488921Y50292D01*
X486124Y50292D01*
X485192Y51224D01*
X485192Y53088D01*
X486124Y54021D01*
X488921Y54021D01*
X482375Y50292D02*
X480511Y50292D01*
X479579Y51224D01*
X479579Y53088D01*
X480511Y54021D01*
X482375Y54021D01*
X483308Y53088D01*
X483308Y51224D01*
X482375Y50292D01*
X476762Y51224D02*
X476762Y54953D01*
X476762Y51224D02*
X475830Y50292D01*
X475830Y54021D02*
X477694Y54021D01*
X473952Y55885D02*
X473952Y50292D01*
X473952Y53088D02*
X473020Y54021D01*
X471156Y54021D01*
X470224Y53088D01*
X470224Y50292D01*
X571246Y44877D02*
X571246Y42080D01*
X570314Y41148D01*
X569382Y42080D01*
X568450Y41148D01*
X567518Y42080D01*
X567518Y44877D01*
X565633Y44877D02*
X564701Y44877D01*
X564701Y41148D01*
X565633Y41148D02*
X563769Y41148D01*
X564701Y46741D02*
X564701Y47673D01*
X560959Y45809D02*
X560959Y42080D01*
X560027Y41148D01*
X560027Y44877D02*
X561891Y44877D01*
X558149Y46741D02*
X558149Y41148D01*
X558149Y43944D02*
X557217Y44877D01*
X555352Y44877D01*
X554420Y43944D01*
X554420Y41148D01*
X551604Y41148D02*
X549739Y41148D01*
X548807Y42080D01*
X548807Y43944D01*
X549739Y44877D01*
X551604Y44877D01*
X552536Y43944D01*
X552536Y42080D01*
X551604Y41148D01*
X546923Y42080D02*
X546923Y44877D01*
X546923Y42080D02*
X545990Y41148D01*
X543194Y41148D01*
X543194Y44877D01*
X540377Y45809D02*
X540377Y42080D01*
X539445Y41148D01*
X539445Y44877D02*
X541310Y44877D01*
X531954Y41148D02*
X529158Y41148D01*
X528226Y42080D01*
X529158Y43012D01*
X531022Y43012D01*
X531954Y43944D01*
X531022Y44877D01*
X528226Y44877D01*
X525409Y41148D02*
X523545Y41148D01*
X525409Y41148D02*
X526341Y42080D01*
X526341Y43944D01*
X525409Y44877D01*
X523545Y44877D01*
X522613Y43944D01*
X522613Y43012D01*
X526341Y43012D01*
X520728Y44877D02*
X518864Y41148D01*
X517000Y44877D01*
X514183Y41148D02*
X512319Y41148D01*
X514183Y41148D02*
X515115Y42080D01*
X515115Y43944D01*
X514183Y44877D01*
X512319Y44877D01*
X511387Y43944D01*
X511387Y43012D01*
X515115Y43012D01*
X509502Y41148D02*
X509502Y44877D01*
X507638Y44877D02*
X509502Y43012D01*
X507638Y44877D02*
X506706Y44877D01*
X504824Y44877D02*
X503892Y44877D01*
X503892Y41148D01*
X504824Y41148D02*
X502960Y41148D01*
X503892Y46741D02*
X503892Y47673D01*
X501082Y44877D02*
X501082Y41148D01*
X501082Y44877D02*
X498286Y44877D01*
X497354Y43944D01*
X497354Y41148D01*
X493605Y39284D02*
X492673Y39284D01*
X491741Y40216D01*
X491741Y44877D01*
X494537Y44877D01*
X495469Y43944D01*
X495469Y42080D01*
X494537Y41148D01*
X491741Y41148D01*
X483311Y42080D02*
X483311Y45809D01*
X483311Y42080D02*
X482379Y41148D01*
X482379Y44877D02*
X484243Y44877D01*
X480501Y46741D02*
X480501Y41148D01*
X480501Y43944D02*
X479569Y44877D01*
X477705Y44877D01*
X476772Y43944D01*
X476772Y41148D01*
X473956Y41148D02*
X472092Y41148D01*
X473956Y41148D02*
X474888Y42080D01*
X474888Y43944D01*
X473956Y44877D01*
X472092Y44877D01*
X471159Y43944D01*
X471159Y43012D01*
X474888Y43012D01*
X469275Y41148D02*
X466478Y41148D01*
X465546Y42080D01*
X466478Y43012D01*
X468343Y43012D01*
X469275Y43944D01*
X468343Y44877D01*
X465546Y44877D01*
X462730Y41148D02*
X460865Y41148D01*
X462730Y41148D02*
X463662Y42080D01*
X463662Y43944D01*
X462730Y44877D01*
X460865Y44877D01*
X459933Y43944D01*
X459933Y43012D01*
X463662Y43012D01*
X567518Y35733D02*
X570314Y35733D01*
X571246Y34800D01*
X571246Y32936D01*
X570314Y32004D01*
X567518Y32004D01*
X564701Y32004D02*
X562837Y32004D01*
X561904Y32936D01*
X561904Y34800D01*
X562837Y35733D01*
X564701Y35733D01*
X565633Y34800D01*
X565633Y32936D01*
X564701Y32004D01*
X560020Y32004D02*
X560020Y35733D01*
X557223Y35733D01*
X556291Y34800D01*
X556291Y32004D01*
X554407Y32004D02*
X554407Y35733D01*
X551610Y35733D01*
X550678Y34800D01*
X550678Y32004D01*
X547862Y32004D02*
X545997Y32004D01*
X547862Y32004D02*
X548794Y32936D01*
X548794Y34800D01*
X547862Y35733D01*
X545997Y35733D01*
X545065Y34800D01*
X545065Y33868D01*
X548794Y33868D01*
X542248Y35733D02*
X539452Y35733D01*
X542248Y35733D02*
X543181Y34800D01*
X543181Y32936D01*
X542248Y32004D01*
X539452Y32004D01*
X536635Y32936D02*
X536635Y36665D01*
X536635Y32936D02*
X535703Y32004D01*
X535703Y35733D02*
X537567Y35733D01*
X533825Y35733D02*
X532893Y35733D01*
X532893Y32004D01*
X533825Y32004D02*
X531961Y32004D01*
X532893Y37597D02*
X532893Y38529D01*
X529151Y32004D02*
X527287Y32004D01*
X526355Y32936D01*
X526355Y34800D01*
X527287Y35733D01*
X529151Y35733D01*
X530083Y34800D01*
X530083Y32936D01*
X529151Y32004D01*
X524470Y32004D02*
X524470Y35733D01*
X521674Y35733D01*
X520742Y34800D01*
X520742Y32004D01*
X518857Y32004D02*
X516061Y32004D01*
X515129Y32936D01*
X516061Y33868D01*
X517925Y33868D01*
X518857Y34800D01*
X517925Y35733D01*
X515129Y35733D01*
X506699Y36665D02*
X506699Y32004D01*
X506699Y36665D02*
X505767Y37597D01*
X505767Y34800D02*
X507631Y34800D01*
X503889Y35733D02*
X502957Y35733D01*
X502957Y32004D01*
X503889Y32004D02*
X502025Y32004D01*
X502957Y37597D02*
X502957Y38529D01*
X500147Y35733D02*
X500147Y32004D01*
X500147Y33868D02*
X498283Y35733D01*
X497350Y35733D01*
X495469Y32004D02*
X492673Y32004D01*
X491741Y32936D01*
X492673Y33868D01*
X494537Y33868D01*
X495469Y34800D01*
X494537Y35733D01*
X491741Y35733D01*
X488924Y36665D02*
X488924Y32936D01*
X487992Y32004D01*
X487992Y35733D02*
X489856Y35733D01*
X486114Y32936D02*
X486114Y32004D01*
X486114Y34800D02*
X486114Y38529D01*
D10*
X601564Y10801D02*
X601564Y5886D01*
X599106Y3429D01*
X596649Y5886D01*
X596649Y10801D01*
X594079Y8344D02*
X594079Y3429D01*
X594079Y8344D02*
X591622Y10801D01*
X589165Y8344D01*
X589165Y3429D01*
X589165Y7115D02*
X594079Y7115D01*
X586595Y3429D02*
X581680Y3429D01*
X586595Y3429D02*
X581680Y8344D01*
X581680Y9573D01*
X582909Y10801D01*
X585367Y10801D01*
X586595Y9573D01*
X579111Y7115D02*
X574196Y7115D01*
X576654Y4658D02*
X576654Y9573D01*
X601056Y70910D02*
X601056Y75825D01*
X601056Y70910D02*
X598598Y68453D01*
X596141Y70910D01*
X596141Y75825D01*
X593571Y73368D02*
X593571Y68453D01*
X593571Y73368D02*
X591114Y75825D01*
X588657Y73368D01*
X588657Y68453D01*
X588657Y72139D02*
X593571Y72139D01*
X586087Y68453D02*
X581172Y68453D01*
X586087Y68453D02*
X581172Y73368D01*
X581172Y74597D01*
X582401Y75825D01*
X584859Y75825D01*
X586087Y74597D01*
X578603Y72139D02*
X573688Y72139D01*
X413804Y292275D02*
X415033Y293503D01*
X417490Y293503D01*
X418719Y292275D01*
X418719Y287360D01*
X417490Y286131D01*
X415033Y286131D01*
X413804Y287360D01*
X407549Y293503D02*
X406320Y292275D01*
X407549Y293503D02*
X410006Y293503D01*
X411235Y292275D01*
X411235Y291046D01*
X410006Y289817D01*
X407549Y289817D01*
X406320Y288588D01*
X406320Y287360D01*
X407549Y286131D01*
X410006Y286131D01*
X411235Y287360D01*
X403751Y286131D02*
X398836Y286131D01*
X403751Y286131D02*
X398836Y291046D01*
X398836Y292275D01*
X400065Y293503D01*
X402522Y293503D01*
X403751Y292275D01*
X214373Y12833D02*
X213144Y11605D01*
X214373Y12833D02*
X216830Y12833D01*
X218059Y11605D01*
X218059Y6690D01*
X216830Y5461D01*
X214373Y5461D01*
X213144Y6690D01*
X210575Y5461D02*
X210575Y12833D01*
X205660Y12833D01*
X208117Y9147D02*
X210575Y9147D01*
X199405Y5461D02*
X199405Y12833D01*
X203091Y9147D01*
X198176Y9147D01*
X195607Y9147D02*
X190692Y9147D01*
X188122Y5461D02*
X183208Y5461D01*
X188122Y5461D02*
X183208Y10376D01*
X183208Y11605D01*
X184436Y12833D01*
X186894Y12833D01*
X188122Y11605D01*
X187744Y42085D02*
X188973Y43313D01*
X191430Y43313D01*
X192659Y42085D01*
X192659Y37170D01*
X191430Y35941D01*
X188973Y35941D01*
X187744Y37170D01*
X185175Y35941D02*
X185175Y43313D01*
X180260Y43313D01*
X182717Y39627D02*
X185175Y39627D01*
X177691Y42085D02*
X176462Y43313D01*
X174005Y43313D01*
X172776Y42085D01*
X172776Y40856D01*
X174005Y39627D01*
X175233Y39627D01*
X174005Y39627D02*
X172776Y38398D01*
X172776Y37170D01*
X174005Y35941D01*
X176462Y35941D01*
X177691Y37170D01*
X170207Y39627D02*
X165292Y39627D01*
X162722Y35941D02*
X157808Y35941D01*
X162722Y35941D02*
X157808Y40856D01*
X157808Y42085D01*
X159036Y43313D01*
X161494Y43313D01*
X162722Y42085D01*
X166113Y12833D02*
X164884Y11605D01*
X166113Y12833D02*
X168570Y12833D01*
X169799Y11605D01*
X169799Y6690D01*
X168570Y5461D01*
X166113Y5461D01*
X164884Y6690D01*
X162315Y5461D02*
X162315Y12833D01*
X157400Y12833D01*
X159857Y9147D02*
X162315Y9147D01*
X154831Y5461D02*
X149916Y5461D01*
X154831Y5461D02*
X149916Y10376D01*
X149916Y11605D01*
X151145Y12833D01*
X153602Y12833D01*
X154831Y11605D01*
X147347Y9147D02*
X142432Y9147D01*
X139862Y5461D02*
X134948Y5461D01*
X139862Y5461D02*
X134948Y10376D01*
X134948Y11605D01*
X136176Y12833D01*
X138634Y12833D01*
X139862Y11605D01*
X136944Y42085D02*
X138173Y43313D01*
X140630Y43313D01*
X141859Y42085D01*
X141859Y37170D01*
X140630Y35941D01*
X138173Y35941D01*
X136944Y37170D01*
X134375Y35941D02*
X134375Y43313D01*
X129460Y43313D01*
X131917Y39627D02*
X134375Y39627D01*
X126891Y40856D02*
X124433Y43313D01*
X124433Y35941D01*
X121976Y35941D02*
X126891Y35941D01*
X119407Y39627D02*
X114492Y39627D01*
X111922Y35941D02*
X107008Y35941D01*
X111922Y35941D02*
X107008Y40856D01*
X107008Y42085D01*
X108236Y43313D01*
X110694Y43313D01*
X111922Y42085D01*
X419581Y109010D02*
X419581Y113925D01*
X419581Y109010D02*
X417124Y106553D01*
X414667Y109010D01*
X414667Y113925D01*
X412097Y111468D02*
X412097Y106553D01*
X412097Y111468D02*
X409640Y113925D01*
X407182Y111468D01*
X407182Y106553D01*
X407182Y110239D02*
X412097Y110239D01*
X404613Y110239D02*
X399698Y110239D01*
X454172Y538353D02*
X459087Y538353D01*
X454172Y543268D01*
X454172Y544497D01*
X455401Y545725D01*
X457859Y545725D01*
X459087Y544497D01*
X451603Y538353D02*
X446688Y538353D01*
X451603Y538353D02*
X446688Y543268D01*
X446688Y544497D01*
X447917Y545725D01*
X450374Y545725D01*
X451603Y544497D01*
X454172Y462153D02*
X459087Y462153D01*
X454172Y467068D01*
X454172Y468297D01*
X455401Y469525D01*
X457859Y469525D01*
X459087Y468297D01*
X451603Y467068D02*
X449146Y469525D01*
X449146Y462153D01*
X451603Y462153D02*
X446688Y462153D01*
X456630Y342525D02*
X459087Y340068D01*
X456630Y342525D02*
X456630Y335153D01*
X459087Y335153D02*
X454172Y335153D01*
X451603Y342525D02*
X446688Y342525D01*
X446688Y341297D01*
X451603Y336382D01*
X451603Y335153D01*
X452566Y312045D02*
X455023Y309588D01*
X452566Y312045D02*
X452566Y304673D01*
X455023Y304673D02*
X450108Y304673D01*
X445082Y310817D02*
X442624Y312045D01*
X445082Y310817D02*
X447539Y308359D01*
X447539Y305902D01*
X446310Y304673D01*
X443853Y304673D01*
X442624Y305902D01*
X442624Y307130D01*
X443853Y308359D01*
X447539Y308359D01*
X451603Y265097D02*
X451603Y260182D01*
X451603Y265097D02*
X450374Y266325D01*
X447917Y266325D01*
X446688Y265097D01*
X446688Y260182D01*
X447917Y258953D01*
X450374Y258953D01*
X451603Y260182D01*
X446688Y265097D01*
X446688Y233553D02*
X451603Y233553D01*
X446688Y238468D01*
X446688Y239697D01*
X447917Y240925D01*
X450374Y240925D01*
X451603Y239697D01*
X456630Y215525D02*
X459087Y213068D01*
X456630Y215525D02*
X456630Y208153D01*
X459087Y208153D02*
X454172Y208153D01*
X451603Y215525D02*
X446688Y215525D01*
X451603Y215525D02*
X451603Y211839D01*
X449146Y213068D01*
X447917Y213068D01*
X446688Y211839D01*
X446688Y209382D01*
X447917Y208153D01*
X450374Y208153D01*
X451603Y209382D01*
X164719Y233896D02*
X162262Y236353D01*
X162262Y228981D01*
X164719Y228981D02*
X159804Y228981D01*
X157235Y235125D02*
X156006Y236353D01*
X153549Y236353D01*
X152320Y235125D01*
X152320Y233896D01*
X153549Y232667D01*
X154777Y232667D01*
X153549Y232667D02*
X152320Y231438D01*
X152320Y230210D01*
X153549Y228981D01*
X156006Y228981D01*
X157235Y230210D01*
X159804Y260525D02*
X161033Y261753D01*
X163490Y261753D01*
X164719Y260525D01*
X164719Y255610D01*
X163490Y254381D01*
X161033Y254381D01*
X159804Y255610D01*
X159804Y258067D01*
X162262Y258067D01*
X157235Y254381D02*
X157235Y261753D01*
X152320Y254381D01*
X152320Y261753D01*
X149751Y261753D02*
X149751Y254381D01*
X146065Y254381D01*
X144836Y255610D01*
X144836Y260525D01*
X146065Y261753D01*
X149751Y261753D01*
X164719Y284696D02*
X162262Y287153D01*
X162262Y279781D01*
X164719Y279781D02*
X159804Y279781D01*
X157235Y279781D02*
X152320Y279781D01*
X157235Y279781D02*
X152320Y284696D01*
X152320Y285925D01*
X153549Y287153D01*
X156006Y287153D01*
X157235Y285925D01*
X164719Y310096D02*
X162262Y312553D01*
X162262Y305181D01*
X164719Y305181D02*
X159804Y305181D01*
X153549Y305181D02*
X153549Y312553D01*
X157235Y308867D01*
X152320Y308867D01*
X159804Y330581D02*
X164719Y330581D01*
X159804Y335496D01*
X159804Y336725D01*
X161033Y337953D01*
X163490Y337953D01*
X164719Y336725D01*
X157235Y337953D02*
X152320Y337953D01*
X152320Y336725D01*
X157235Y331810D01*
X157235Y330581D01*
X159804Y355981D02*
X164719Y355981D01*
X159804Y360896D01*
X159804Y362125D01*
X161033Y363353D01*
X163490Y363353D01*
X164719Y362125D01*
X154777Y362125D02*
X152320Y363353D01*
X154777Y362125D02*
X157235Y359667D01*
X157235Y357210D01*
X156006Y355981D01*
X153549Y355981D01*
X152320Y357210D01*
X152320Y358438D01*
X153549Y359667D01*
X157235Y359667D01*
X159804Y381381D02*
X164719Y381381D01*
X159804Y386296D01*
X159804Y387525D01*
X161033Y388753D01*
X163490Y388753D01*
X164719Y387525D01*
X157235Y388753D02*
X152320Y388753D01*
X157235Y388753D02*
X157235Y385067D01*
X154777Y386296D01*
X153549Y386296D01*
X152320Y385067D01*
X152320Y382610D01*
X153549Y381381D01*
X156006Y381381D01*
X157235Y382610D01*
X167767Y468805D02*
X166538Y470033D01*
X164081Y470033D01*
X162852Y468805D01*
X162852Y467576D01*
X164081Y466347D01*
X165310Y466347D01*
X164081Y466347D02*
X162852Y465118D01*
X162852Y463890D01*
X164081Y462661D01*
X166538Y462661D01*
X167767Y463890D01*
X160283Y470033D02*
X155368Y470033D01*
X160283Y470033D02*
X160283Y466347D01*
X157825Y467576D01*
X156597Y467576D01*
X155368Y466347D01*
X155368Y463890D01*
X156597Y462661D01*
X159054Y462661D01*
X160283Y463890D01*
X165227Y113417D02*
X165227Y108502D01*
X162770Y106045D01*
X160312Y108502D01*
X160312Y113417D01*
X157743Y110960D02*
X157743Y106045D01*
X157743Y110960D02*
X155285Y113417D01*
X152828Y110960D01*
X152828Y106045D01*
X152828Y109731D02*
X157743Y109731D01*
X150259Y109731D02*
X145344Y109731D01*
X147801Y107274D02*
X147801Y112189D01*
X454172Y366697D02*
X455401Y367925D01*
X457859Y367925D01*
X459087Y366697D01*
X459087Y361782D01*
X457859Y360553D01*
X455401Y360553D01*
X454172Y361782D01*
X447917Y367925D02*
X446688Y366697D01*
X447917Y367925D02*
X450374Y367925D01*
X451603Y366697D01*
X451603Y365468D01*
X450374Y364239D01*
X447917Y364239D01*
X446688Y363010D01*
X446688Y361782D01*
X447917Y360553D01*
X450374Y360553D01*
X451603Y361782D01*
D12*
X147320Y434340D02*
X132080Y434340D01*
X127508Y450088D02*
X127510Y450221D01*
X127516Y450354D01*
X127525Y450486D01*
X127539Y450619D01*
X127556Y450751D01*
X127577Y450882D01*
X127602Y451013D01*
X127631Y451142D01*
X127664Y451271D01*
X127700Y451399D01*
X127740Y451526D01*
X127784Y451652D01*
X127831Y451776D01*
X127882Y451899D01*
X127936Y452020D01*
X127994Y452140D01*
X128056Y452258D01*
X128121Y452374D01*
X128189Y452488D01*
X128260Y452600D01*
X128335Y452710D01*
X128413Y452818D01*
X128494Y452924D01*
X128578Y453027D01*
X128665Y453127D01*
X128754Y453225D01*
X128847Y453321D01*
X128943Y453414D01*
X129041Y453503D01*
X129141Y453590D01*
X129244Y453674D01*
X129350Y453755D01*
X129458Y453833D01*
X129568Y453908D01*
X129680Y453979D01*
X129794Y454047D01*
X129910Y454112D01*
X130028Y454174D01*
X130148Y454232D01*
X130269Y454286D01*
X130392Y454337D01*
X130516Y454384D01*
X130642Y454428D01*
X130769Y454468D01*
X130897Y454504D01*
X131026Y454537D01*
X131155Y454566D01*
X131286Y454591D01*
X131417Y454612D01*
X131549Y454629D01*
X131682Y454643D01*
X131814Y454652D01*
X131947Y454658D01*
X132080Y454660D01*
X147320Y454660D02*
X147453Y454658D01*
X147586Y454652D01*
X147718Y454643D01*
X147851Y454629D01*
X147983Y454612D01*
X148114Y454591D01*
X148245Y454566D01*
X148374Y454537D01*
X148503Y454504D01*
X148631Y454468D01*
X148758Y454428D01*
X148884Y454384D01*
X149008Y454337D01*
X149131Y454286D01*
X149252Y454232D01*
X149372Y454174D01*
X149490Y454112D01*
X149606Y454047D01*
X149720Y453979D01*
X149832Y453908D01*
X149942Y453833D01*
X150050Y453755D01*
X150156Y453674D01*
X150259Y453590D01*
X150359Y453503D01*
X150457Y453414D01*
X150553Y453321D01*
X150646Y453225D01*
X150735Y453127D01*
X150822Y453027D01*
X150906Y452924D01*
X150987Y452818D01*
X151065Y452710D01*
X151140Y452600D01*
X151211Y452488D01*
X151279Y452374D01*
X151344Y452258D01*
X151406Y452140D01*
X151464Y452020D01*
X151518Y451899D01*
X151569Y451776D01*
X151616Y451652D01*
X151660Y451526D01*
X151700Y451399D01*
X151736Y451271D01*
X151769Y451142D01*
X151798Y451013D01*
X151823Y450882D01*
X151844Y450751D01*
X151861Y450619D01*
X151875Y450486D01*
X151884Y450354D01*
X151890Y450221D01*
X151892Y450088D01*
X151892Y438912D02*
X151890Y438779D01*
X151884Y438646D01*
X151875Y438514D01*
X151861Y438381D01*
X151844Y438249D01*
X151823Y438118D01*
X151798Y437987D01*
X151769Y437858D01*
X151736Y437729D01*
X151700Y437601D01*
X151660Y437474D01*
X151616Y437348D01*
X151569Y437224D01*
X151518Y437101D01*
X151464Y436980D01*
X151406Y436860D01*
X151344Y436742D01*
X151279Y436626D01*
X151211Y436512D01*
X151140Y436400D01*
X151065Y436290D01*
X150987Y436182D01*
X150906Y436076D01*
X150822Y435973D01*
X150735Y435873D01*
X150646Y435775D01*
X150553Y435679D01*
X150457Y435586D01*
X150359Y435497D01*
X150259Y435410D01*
X150156Y435326D01*
X150050Y435245D01*
X149942Y435167D01*
X149832Y435092D01*
X149720Y435021D01*
X149606Y434953D01*
X149490Y434888D01*
X149372Y434826D01*
X149252Y434768D01*
X149131Y434714D01*
X149008Y434663D01*
X148884Y434616D01*
X148758Y434572D01*
X148631Y434532D01*
X148503Y434496D01*
X148374Y434463D01*
X148245Y434434D01*
X148114Y434409D01*
X147983Y434388D01*
X147851Y434371D01*
X147718Y434357D01*
X147586Y434348D01*
X147453Y434342D01*
X147320Y434340D01*
X132080Y434340D02*
X131947Y434342D01*
X131814Y434348D01*
X131682Y434357D01*
X131549Y434371D01*
X131417Y434388D01*
X131286Y434409D01*
X131155Y434434D01*
X131026Y434463D01*
X130897Y434496D01*
X130769Y434532D01*
X130642Y434572D01*
X130516Y434616D01*
X130392Y434663D01*
X130269Y434714D01*
X130148Y434768D01*
X130028Y434826D01*
X129910Y434888D01*
X129794Y434953D01*
X129680Y435021D01*
X129568Y435092D01*
X129458Y435167D01*
X129350Y435245D01*
X129244Y435326D01*
X129141Y435410D01*
X129041Y435497D01*
X128943Y435586D01*
X128847Y435679D01*
X128754Y435775D01*
X128665Y435873D01*
X128578Y435973D01*
X128494Y436076D01*
X128413Y436182D01*
X128335Y436290D01*
X128260Y436400D01*
X128189Y436512D01*
X128121Y436626D01*
X128056Y436742D01*
X127994Y436860D01*
X127936Y436980D01*
X127882Y437101D01*
X127831Y437224D01*
X127784Y437348D01*
X127740Y437474D01*
X127700Y437601D01*
X127664Y437729D01*
X127631Y437858D01*
X127602Y437987D01*
X127577Y438118D01*
X127556Y438249D01*
X127539Y438381D01*
X127525Y438514D01*
X127516Y438646D01*
X127510Y438779D01*
X127508Y438912D01*
X127508Y450088D01*
X151892Y450088D02*
X151892Y438912D01*
X147320Y454660D02*
X132080Y454660D01*
D10*
X149317Y457581D02*
X150545Y458810D01*
X149317Y457581D02*
X148088Y457581D01*
X146859Y458810D01*
X146859Y464953D01*
X148088Y464953D02*
X145630Y464953D01*
X143061Y464953D02*
X143061Y457581D01*
X143061Y464953D02*
X139375Y464953D01*
X138146Y463725D01*
X138146Y461267D01*
X139375Y460038D01*
X143061Y460038D01*
X135577Y457581D02*
X130662Y457581D01*
X135577Y457581D02*
X130662Y462496D01*
X130662Y463725D01*
X131891Y464953D01*
X134348Y464953D01*
X135577Y463725D01*
D12*
X132080Y574040D02*
X147320Y574040D01*
X127508Y589788D02*
X127510Y589921D01*
X127516Y590054D01*
X127525Y590186D01*
X127539Y590319D01*
X127556Y590451D01*
X127577Y590582D01*
X127602Y590713D01*
X127631Y590842D01*
X127664Y590971D01*
X127700Y591099D01*
X127740Y591226D01*
X127784Y591352D01*
X127831Y591476D01*
X127882Y591599D01*
X127936Y591720D01*
X127994Y591840D01*
X128056Y591958D01*
X128121Y592074D01*
X128189Y592188D01*
X128260Y592300D01*
X128335Y592410D01*
X128413Y592518D01*
X128494Y592624D01*
X128578Y592727D01*
X128665Y592827D01*
X128754Y592925D01*
X128847Y593021D01*
X128943Y593114D01*
X129041Y593203D01*
X129141Y593290D01*
X129244Y593374D01*
X129350Y593455D01*
X129458Y593533D01*
X129568Y593608D01*
X129680Y593679D01*
X129794Y593747D01*
X129910Y593812D01*
X130028Y593874D01*
X130148Y593932D01*
X130269Y593986D01*
X130392Y594037D01*
X130516Y594084D01*
X130642Y594128D01*
X130769Y594168D01*
X130897Y594204D01*
X131026Y594237D01*
X131155Y594266D01*
X131286Y594291D01*
X131417Y594312D01*
X131549Y594329D01*
X131682Y594343D01*
X131814Y594352D01*
X131947Y594358D01*
X132080Y594360D01*
X147320Y594360D02*
X147453Y594358D01*
X147586Y594352D01*
X147718Y594343D01*
X147851Y594329D01*
X147983Y594312D01*
X148114Y594291D01*
X148245Y594266D01*
X148374Y594237D01*
X148503Y594204D01*
X148631Y594168D01*
X148758Y594128D01*
X148884Y594084D01*
X149008Y594037D01*
X149131Y593986D01*
X149252Y593932D01*
X149372Y593874D01*
X149490Y593812D01*
X149606Y593747D01*
X149720Y593679D01*
X149832Y593608D01*
X149942Y593533D01*
X150050Y593455D01*
X150156Y593374D01*
X150259Y593290D01*
X150359Y593203D01*
X150457Y593114D01*
X150553Y593021D01*
X150646Y592925D01*
X150735Y592827D01*
X150822Y592727D01*
X150906Y592624D01*
X150987Y592518D01*
X151065Y592410D01*
X151140Y592300D01*
X151211Y592188D01*
X151279Y592074D01*
X151344Y591958D01*
X151406Y591840D01*
X151464Y591720D01*
X151518Y591599D01*
X151569Y591476D01*
X151616Y591352D01*
X151660Y591226D01*
X151700Y591099D01*
X151736Y590971D01*
X151769Y590842D01*
X151798Y590713D01*
X151823Y590582D01*
X151844Y590451D01*
X151861Y590319D01*
X151875Y590186D01*
X151884Y590054D01*
X151890Y589921D01*
X151892Y589788D01*
X151892Y578612D02*
X151890Y578479D01*
X151884Y578346D01*
X151875Y578214D01*
X151861Y578081D01*
X151844Y577949D01*
X151823Y577818D01*
X151798Y577687D01*
X151769Y577558D01*
X151736Y577429D01*
X151700Y577301D01*
X151660Y577174D01*
X151616Y577048D01*
X151569Y576924D01*
X151518Y576801D01*
X151464Y576680D01*
X151406Y576560D01*
X151344Y576442D01*
X151279Y576326D01*
X151211Y576212D01*
X151140Y576100D01*
X151065Y575990D01*
X150987Y575882D01*
X150906Y575776D01*
X150822Y575673D01*
X150735Y575573D01*
X150646Y575475D01*
X150553Y575379D01*
X150457Y575286D01*
X150359Y575197D01*
X150259Y575110D01*
X150156Y575026D01*
X150050Y574945D01*
X149942Y574867D01*
X149832Y574792D01*
X149720Y574721D01*
X149606Y574653D01*
X149490Y574588D01*
X149372Y574526D01*
X149252Y574468D01*
X149131Y574414D01*
X149008Y574363D01*
X148884Y574316D01*
X148758Y574272D01*
X148631Y574232D01*
X148503Y574196D01*
X148374Y574163D01*
X148245Y574134D01*
X148114Y574109D01*
X147983Y574088D01*
X147851Y574071D01*
X147718Y574057D01*
X147586Y574048D01*
X147453Y574042D01*
X147320Y574040D01*
X132080Y574040D02*
X131947Y574042D01*
X131814Y574048D01*
X131682Y574057D01*
X131549Y574071D01*
X131417Y574088D01*
X131286Y574109D01*
X131155Y574134D01*
X131026Y574163D01*
X130897Y574196D01*
X130769Y574232D01*
X130642Y574272D01*
X130516Y574316D01*
X130392Y574363D01*
X130269Y574414D01*
X130148Y574468D01*
X130028Y574526D01*
X129910Y574588D01*
X129794Y574653D01*
X129680Y574721D01*
X129568Y574792D01*
X129458Y574867D01*
X129350Y574945D01*
X129244Y575026D01*
X129141Y575110D01*
X129041Y575197D01*
X128943Y575286D01*
X128847Y575379D01*
X128754Y575475D01*
X128665Y575573D01*
X128578Y575673D01*
X128494Y575776D01*
X128413Y575882D01*
X128335Y575990D01*
X128260Y576100D01*
X128189Y576212D01*
X128121Y576326D01*
X128056Y576442D01*
X127994Y576560D01*
X127936Y576680D01*
X127882Y576801D01*
X127831Y576924D01*
X127784Y577048D01*
X127740Y577174D01*
X127700Y577301D01*
X127664Y577429D01*
X127631Y577558D01*
X127602Y577687D01*
X127577Y577818D01*
X127556Y577949D01*
X127539Y578081D01*
X127525Y578214D01*
X127516Y578346D01*
X127510Y578479D01*
X127508Y578612D01*
X127508Y589788D01*
X151892Y589788D02*
X151892Y578612D01*
X147320Y594360D02*
X132080Y594360D01*
D10*
X149317Y597281D02*
X150545Y598510D01*
X149317Y597281D02*
X148088Y597281D01*
X146859Y598510D01*
X146859Y604653D01*
X148088Y604653D02*
X145630Y604653D01*
X143061Y604653D02*
X143061Y597281D01*
X143061Y604653D02*
X139375Y604653D01*
X138146Y603425D01*
X138146Y600967D01*
X139375Y599738D01*
X143061Y599738D01*
X135577Y602196D02*
X133120Y604653D01*
X133120Y597281D01*
X135577Y597281D02*
X130662Y597281D01*
D12*
X132080Y294640D02*
X147320Y294640D01*
X127508Y310388D02*
X127510Y310521D01*
X127516Y310654D01*
X127525Y310786D01*
X127539Y310919D01*
X127556Y311051D01*
X127577Y311182D01*
X127602Y311313D01*
X127631Y311442D01*
X127664Y311571D01*
X127700Y311699D01*
X127740Y311826D01*
X127784Y311952D01*
X127831Y312076D01*
X127882Y312199D01*
X127936Y312320D01*
X127994Y312440D01*
X128056Y312558D01*
X128121Y312674D01*
X128189Y312788D01*
X128260Y312900D01*
X128335Y313010D01*
X128413Y313118D01*
X128494Y313224D01*
X128578Y313327D01*
X128665Y313427D01*
X128754Y313525D01*
X128847Y313621D01*
X128943Y313714D01*
X129041Y313803D01*
X129141Y313890D01*
X129244Y313974D01*
X129350Y314055D01*
X129458Y314133D01*
X129568Y314208D01*
X129680Y314279D01*
X129794Y314347D01*
X129910Y314412D01*
X130028Y314474D01*
X130148Y314532D01*
X130269Y314586D01*
X130392Y314637D01*
X130516Y314684D01*
X130642Y314728D01*
X130769Y314768D01*
X130897Y314804D01*
X131026Y314837D01*
X131155Y314866D01*
X131286Y314891D01*
X131417Y314912D01*
X131549Y314929D01*
X131682Y314943D01*
X131814Y314952D01*
X131947Y314958D01*
X132080Y314960D01*
X147320Y314960D02*
X147453Y314958D01*
X147586Y314952D01*
X147718Y314943D01*
X147851Y314929D01*
X147983Y314912D01*
X148114Y314891D01*
X148245Y314866D01*
X148374Y314837D01*
X148503Y314804D01*
X148631Y314768D01*
X148758Y314728D01*
X148884Y314684D01*
X149008Y314637D01*
X149131Y314586D01*
X149252Y314532D01*
X149372Y314474D01*
X149490Y314412D01*
X149606Y314347D01*
X149720Y314279D01*
X149832Y314208D01*
X149942Y314133D01*
X150050Y314055D01*
X150156Y313974D01*
X150259Y313890D01*
X150359Y313803D01*
X150457Y313714D01*
X150553Y313621D01*
X150646Y313525D01*
X150735Y313427D01*
X150822Y313327D01*
X150906Y313224D01*
X150987Y313118D01*
X151065Y313010D01*
X151140Y312900D01*
X151211Y312788D01*
X151279Y312674D01*
X151344Y312558D01*
X151406Y312440D01*
X151464Y312320D01*
X151518Y312199D01*
X151569Y312076D01*
X151616Y311952D01*
X151660Y311826D01*
X151700Y311699D01*
X151736Y311571D01*
X151769Y311442D01*
X151798Y311313D01*
X151823Y311182D01*
X151844Y311051D01*
X151861Y310919D01*
X151875Y310786D01*
X151884Y310654D01*
X151890Y310521D01*
X151892Y310388D01*
X151892Y299212D02*
X151890Y299079D01*
X151884Y298946D01*
X151875Y298814D01*
X151861Y298681D01*
X151844Y298549D01*
X151823Y298418D01*
X151798Y298287D01*
X151769Y298158D01*
X151736Y298029D01*
X151700Y297901D01*
X151660Y297774D01*
X151616Y297648D01*
X151569Y297524D01*
X151518Y297401D01*
X151464Y297280D01*
X151406Y297160D01*
X151344Y297042D01*
X151279Y296926D01*
X151211Y296812D01*
X151140Y296700D01*
X151065Y296590D01*
X150987Y296482D01*
X150906Y296376D01*
X150822Y296273D01*
X150735Y296173D01*
X150646Y296075D01*
X150553Y295979D01*
X150457Y295886D01*
X150359Y295797D01*
X150259Y295710D01*
X150156Y295626D01*
X150050Y295545D01*
X149942Y295467D01*
X149832Y295392D01*
X149720Y295321D01*
X149606Y295253D01*
X149490Y295188D01*
X149372Y295126D01*
X149252Y295068D01*
X149131Y295014D01*
X149008Y294963D01*
X148884Y294916D01*
X148758Y294872D01*
X148631Y294832D01*
X148503Y294796D01*
X148374Y294763D01*
X148245Y294734D01*
X148114Y294709D01*
X147983Y294688D01*
X147851Y294671D01*
X147718Y294657D01*
X147586Y294648D01*
X147453Y294642D01*
X147320Y294640D01*
X132080Y294640D02*
X131947Y294642D01*
X131814Y294648D01*
X131682Y294657D01*
X131549Y294671D01*
X131417Y294688D01*
X131286Y294709D01*
X131155Y294734D01*
X131026Y294763D01*
X130897Y294796D01*
X130769Y294832D01*
X130642Y294872D01*
X130516Y294916D01*
X130392Y294963D01*
X130269Y295014D01*
X130148Y295068D01*
X130028Y295126D01*
X129910Y295188D01*
X129794Y295253D01*
X129680Y295321D01*
X129568Y295392D01*
X129458Y295467D01*
X129350Y295545D01*
X129244Y295626D01*
X129141Y295710D01*
X129041Y295797D01*
X128943Y295886D01*
X128847Y295979D01*
X128754Y296075D01*
X128665Y296173D01*
X128578Y296273D01*
X128494Y296376D01*
X128413Y296482D01*
X128335Y296590D01*
X128260Y296700D01*
X128189Y296812D01*
X128121Y296926D01*
X128056Y297042D01*
X127994Y297160D01*
X127936Y297280D01*
X127882Y297401D01*
X127831Y297524D01*
X127784Y297648D01*
X127740Y297774D01*
X127700Y297901D01*
X127664Y298029D01*
X127631Y298158D01*
X127602Y298287D01*
X127577Y298418D01*
X127556Y298549D01*
X127539Y298681D01*
X127525Y298814D01*
X127516Y298946D01*
X127510Y299079D01*
X127508Y299212D01*
X127508Y310388D01*
X151892Y310388D02*
X151892Y299212D01*
X147320Y314960D02*
X132080Y314960D01*
D10*
X149317Y316611D02*
X150545Y317840D01*
X149317Y316611D02*
X148088Y316611D01*
X146859Y317840D01*
X146859Y323983D01*
X148088Y323983D02*
X145630Y323983D01*
X143061Y323983D02*
X143061Y316611D01*
X143061Y323983D02*
X139375Y323983D01*
X138146Y322755D01*
X138146Y320297D01*
X139375Y319068D01*
X143061Y319068D01*
X135577Y322755D02*
X134348Y323983D01*
X131891Y323983D01*
X130662Y322755D01*
X130662Y321526D01*
X131891Y320297D01*
X133120Y320297D01*
X131891Y320297D02*
X130662Y319068D01*
X130662Y317840D01*
X131891Y316611D01*
X134348Y316611D01*
X135577Y317840D01*
X130053Y120996D02*
X130053Y116081D01*
X130053Y120996D02*
X128825Y120996D01*
X123910Y116081D01*
X122681Y116081D01*
X122681Y120996D01*
X122681Y128480D02*
X130053Y123565D01*
X130053Y128480D02*
X122681Y123565D01*
X122681Y131049D02*
X122681Y135964D01*
X122681Y131049D02*
X127596Y135964D01*
X128825Y135964D01*
X130053Y134735D01*
X130053Y132278D01*
X128825Y131049D01*
X104653Y120996D02*
X104653Y116081D01*
X104653Y120996D02*
X103425Y120996D01*
X98510Y116081D01*
X97281Y116081D01*
X97281Y120996D01*
X97281Y128480D02*
X104653Y123565D01*
X104653Y128480D02*
X97281Y123565D01*
X102196Y131049D02*
X104653Y133507D01*
X97281Y133507D01*
X97281Y135964D02*
X97281Y131049D01*
X79253Y120996D02*
X79253Y116081D01*
X79253Y120996D02*
X78025Y120996D01*
X73110Y116081D01*
X71881Y116081D01*
X71881Y120996D01*
X71881Y128480D02*
X79253Y123565D01*
X79253Y128480D02*
X71881Y123565D01*
X73110Y131049D02*
X78025Y131049D01*
X79253Y132278D01*
X79253Y134735D01*
X78025Y135964D01*
X73110Y135964D01*
X71881Y134735D01*
X71881Y132278D01*
X73110Y131049D01*
X78025Y135964D01*
D12*
X462280Y314960D02*
X477520Y314960D01*
X482092Y299212D02*
X482090Y299079D01*
X482084Y298946D01*
X482075Y298814D01*
X482061Y298681D01*
X482044Y298549D01*
X482023Y298418D01*
X481998Y298287D01*
X481969Y298158D01*
X481936Y298029D01*
X481900Y297901D01*
X481860Y297774D01*
X481816Y297648D01*
X481769Y297524D01*
X481718Y297401D01*
X481664Y297280D01*
X481606Y297160D01*
X481544Y297042D01*
X481479Y296926D01*
X481411Y296812D01*
X481340Y296700D01*
X481265Y296590D01*
X481187Y296482D01*
X481106Y296376D01*
X481022Y296273D01*
X480935Y296173D01*
X480846Y296075D01*
X480753Y295979D01*
X480657Y295886D01*
X480559Y295797D01*
X480459Y295710D01*
X480356Y295626D01*
X480250Y295545D01*
X480142Y295467D01*
X480032Y295392D01*
X479920Y295321D01*
X479806Y295253D01*
X479690Y295188D01*
X479572Y295126D01*
X479452Y295068D01*
X479331Y295014D01*
X479208Y294963D01*
X479084Y294916D01*
X478958Y294872D01*
X478831Y294832D01*
X478703Y294796D01*
X478574Y294763D01*
X478445Y294734D01*
X478314Y294709D01*
X478183Y294688D01*
X478051Y294671D01*
X477918Y294657D01*
X477786Y294648D01*
X477653Y294642D01*
X477520Y294640D01*
X462280Y294640D02*
X462147Y294642D01*
X462014Y294648D01*
X461882Y294657D01*
X461749Y294671D01*
X461617Y294688D01*
X461486Y294709D01*
X461355Y294734D01*
X461226Y294763D01*
X461097Y294796D01*
X460969Y294832D01*
X460842Y294872D01*
X460716Y294916D01*
X460592Y294963D01*
X460469Y295014D01*
X460348Y295068D01*
X460228Y295126D01*
X460110Y295188D01*
X459994Y295253D01*
X459880Y295321D01*
X459768Y295392D01*
X459658Y295467D01*
X459550Y295545D01*
X459444Y295626D01*
X459341Y295710D01*
X459241Y295797D01*
X459143Y295886D01*
X459047Y295979D01*
X458954Y296075D01*
X458865Y296173D01*
X458778Y296273D01*
X458694Y296376D01*
X458613Y296482D01*
X458535Y296590D01*
X458460Y296700D01*
X458389Y296812D01*
X458321Y296926D01*
X458256Y297042D01*
X458194Y297160D01*
X458136Y297280D01*
X458082Y297401D01*
X458031Y297524D01*
X457984Y297648D01*
X457940Y297774D01*
X457900Y297901D01*
X457864Y298029D01*
X457831Y298158D01*
X457802Y298287D01*
X457777Y298418D01*
X457756Y298549D01*
X457739Y298681D01*
X457725Y298814D01*
X457716Y298946D01*
X457710Y299079D01*
X457708Y299212D01*
X457708Y310388D02*
X457710Y310521D01*
X457716Y310654D01*
X457725Y310786D01*
X457739Y310919D01*
X457756Y311051D01*
X457777Y311182D01*
X457802Y311313D01*
X457831Y311442D01*
X457864Y311571D01*
X457900Y311699D01*
X457940Y311826D01*
X457984Y311952D01*
X458031Y312076D01*
X458082Y312199D01*
X458136Y312320D01*
X458194Y312440D01*
X458256Y312558D01*
X458321Y312674D01*
X458389Y312788D01*
X458460Y312900D01*
X458535Y313010D01*
X458613Y313118D01*
X458694Y313224D01*
X458778Y313327D01*
X458865Y313427D01*
X458954Y313525D01*
X459047Y313621D01*
X459143Y313714D01*
X459241Y313803D01*
X459341Y313890D01*
X459444Y313974D01*
X459550Y314055D01*
X459658Y314133D01*
X459768Y314208D01*
X459880Y314279D01*
X459994Y314347D01*
X460110Y314412D01*
X460228Y314474D01*
X460348Y314532D01*
X460469Y314586D01*
X460592Y314637D01*
X460716Y314684D01*
X460842Y314728D01*
X460969Y314768D01*
X461097Y314804D01*
X461226Y314837D01*
X461355Y314866D01*
X461486Y314891D01*
X461617Y314912D01*
X461749Y314929D01*
X461882Y314943D01*
X462014Y314952D01*
X462147Y314958D01*
X462280Y314960D01*
X477520Y314960D02*
X477653Y314958D01*
X477786Y314952D01*
X477918Y314943D01*
X478051Y314929D01*
X478183Y314912D01*
X478314Y314891D01*
X478445Y314866D01*
X478574Y314837D01*
X478703Y314804D01*
X478831Y314768D01*
X478958Y314728D01*
X479084Y314684D01*
X479208Y314637D01*
X479331Y314586D01*
X479452Y314532D01*
X479572Y314474D01*
X479690Y314412D01*
X479806Y314347D01*
X479920Y314279D01*
X480032Y314208D01*
X480142Y314133D01*
X480250Y314055D01*
X480356Y313974D01*
X480459Y313890D01*
X480559Y313803D01*
X480657Y313714D01*
X480753Y313621D01*
X480846Y313525D01*
X480935Y313427D01*
X481022Y313327D01*
X481106Y313224D01*
X481187Y313118D01*
X481265Y313010D01*
X481340Y312900D01*
X481411Y312788D01*
X481479Y312674D01*
X481544Y312558D01*
X481606Y312440D01*
X481664Y312320D01*
X481718Y312199D01*
X481769Y312076D01*
X481816Y311952D01*
X481860Y311826D01*
X481900Y311699D01*
X481936Y311571D01*
X481969Y311442D01*
X481998Y311313D01*
X482023Y311182D01*
X482044Y311051D01*
X482061Y310919D01*
X482075Y310786D01*
X482084Y310654D01*
X482090Y310521D01*
X482092Y310388D01*
X482092Y299212D01*
X457708Y299212D02*
X457708Y310388D01*
X462280Y294640D02*
X477520Y294640D01*
D10*
X480745Y285582D02*
X479517Y284353D01*
X478288Y284353D01*
X477059Y285582D01*
X477059Y291725D01*
X478288Y291725D02*
X475830Y291725D01*
X473261Y291725D02*
X473261Y284353D01*
X473261Y291725D02*
X469575Y291725D01*
X468346Y290497D01*
X468346Y288039D01*
X469575Y286810D01*
X473261Y286810D01*
X465777Y291725D02*
X460862Y291725D01*
X465777Y291725D02*
X465777Y288039D01*
X463320Y289268D01*
X462091Y289268D01*
X460862Y288039D01*
X460862Y285582D01*
X462091Y284353D01*
X464548Y284353D01*
X465777Y285582D01*
D12*
X462280Y175260D02*
X477520Y175260D01*
X482092Y159512D02*
X482090Y159379D01*
X482084Y159246D01*
X482075Y159114D01*
X482061Y158981D01*
X482044Y158849D01*
X482023Y158718D01*
X481998Y158587D01*
X481969Y158458D01*
X481936Y158329D01*
X481900Y158201D01*
X481860Y158074D01*
X481816Y157948D01*
X481769Y157824D01*
X481718Y157701D01*
X481664Y157580D01*
X481606Y157460D01*
X481544Y157342D01*
X481479Y157226D01*
X481411Y157112D01*
X481340Y157000D01*
X481265Y156890D01*
X481187Y156782D01*
X481106Y156676D01*
X481022Y156573D01*
X480935Y156473D01*
X480846Y156375D01*
X480753Y156279D01*
X480657Y156186D01*
X480559Y156097D01*
X480459Y156010D01*
X480356Y155926D01*
X480250Y155845D01*
X480142Y155767D01*
X480032Y155692D01*
X479920Y155621D01*
X479806Y155553D01*
X479690Y155488D01*
X479572Y155426D01*
X479452Y155368D01*
X479331Y155314D01*
X479208Y155263D01*
X479084Y155216D01*
X478958Y155172D01*
X478831Y155132D01*
X478703Y155096D01*
X478574Y155063D01*
X478445Y155034D01*
X478314Y155009D01*
X478183Y154988D01*
X478051Y154971D01*
X477918Y154957D01*
X477786Y154948D01*
X477653Y154942D01*
X477520Y154940D01*
X462280Y154940D02*
X462147Y154942D01*
X462014Y154948D01*
X461882Y154957D01*
X461749Y154971D01*
X461617Y154988D01*
X461486Y155009D01*
X461355Y155034D01*
X461226Y155063D01*
X461097Y155096D01*
X460969Y155132D01*
X460842Y155172D01*
X460716Y155216D01*
X460592Y155263D01*
X460469Y155314D01*
X460348Y155368D01*
X460228Y155426D01*
X460110Y155488D01*
X459994Y155553D01*
X459880Y155621D01*
X459768Y155692D01*
X459658Y155767D01*
X459550Y155845D01*
X459444Y155926D01*
X459341Y156010D01*
X459241Y156097D01*
X459143Y156186D01*
X459047Y156279D01*
X458954Y156375D01*
X458865Y156473D01*
X458778Y156573D01*
X458694Y156676D01*
X458613Y156782D01*
X458535Y156890D01*
X458460Y157000D01*
X458389Y157112D01*
X458321Y157226D01*
X458256Y157342D01*
X458194Y157460D01*
X458136Y157580D01*
X458082Y157701D01*
X458031Y157824D01*
X457984Y157948D01*
X457940Y158074D01*
X457900Y158201D01*
X457864Y158329D01*
X457831Y158458D01*
X457802Y158587D01*
X457777Y158718D01*
X457756Y158849D01*
X457739Y158981D01*
X457725Y159114D01*
X457716Y159246D01*
X457710Y159379D01*
X457708Y159512D01*
X457708Y170688D02*
X457710Y170821D01*
X457716Y170954D01*
X457725Y171086D01*
X457739Y171219D01*
X457756Y171351D01*
X457777Y171482D01*
X457802Y171613D01*
X457831Y171742D01*
X457864Y171871D01*
X457900Y171999D01*
X457940Y172126D01*
X457984Y172252D01*
X458031Y172376D01*
X458082Y172499D01*
X458136Y172620D01*
X458194Y172740D01*
X458256Y172858D01*
X458321Y172974D01*
X458389Y173088D01*
X458460Y173200D01*
X458535Y173310D01*
X458613Y173418D01*
X458694Y173524D01*
X458778Y173627D01*
X458865Y173727D01*
X458954Y173825D01*
X459047Y173921D01*
X459143Y174014D01*
X459241Y174103D01*
X459341Y174190D01*
X459444Y174274D01*
X459550Y174355D01*
X459658Y174433D01*
X459768Y174508D01*
X459880Y174579D01*
X459994Y174647D01*
X460110Y174712D01*
X460228Y174774D01*
X460348Y174832D01*
X460469Y174886D01*
X460592Y174937D01*
X460716Y174984D01*
X460842Y175028D01*
X460969Y175068D01*
X461097Y175104D01*
X461226Y175137D01*
X461355Y175166D01*
X461486Y175191D01*
X461617Y175212D01*
X461749Y175229D01*
X461882Y175243D01*
X462014Y175252D01*
X462147Y175258D01*
X462280Y175260D01*
X477520Y175260D02*
X477653Y175258D01*
X477786Y175252D01*
X477918Y175243D01*
X478051Y175229D01*
X478183Y175212D01*
X478314Y175191D01*
X478445Y175166D01*
X478574Y175137D01*
X478703Y175104D01*
X478831Y175068D01*
X478958Y175028D01*
X479084Y174984D01*
X479208Y174937D01*
X479331Y174886D01*
X479452Y174832D01*
X479572Y174774D01*
X479690Y174712D01*
X479806Y174647D01*
X479920Y174579D01*
X480032Y174508D01*
X480142Y174433D01*
X480250Y174355D01*
X480356Y174274D01*
X480459Y174190D01*
X480559Y174103D01*
X480657Y174014D01*
X480753Y173921D01*
X480846Y173825D01*
X480935Y173727D01*
X481022Y173627D01*
X481106Y173524D01*
X481187Y173418D01*
X481265Y173310D01*
X481340Y173200D01*
X481411Y173088D01*
X481479Y172974D01*
X481544Y172858D01*
X481606Y172740D01*
X481664Y172620D01*
X481718Y172499D01*
X481769Y172376D01*
X481816Y172252D01*
X481860Y172126D01*
X481900Y171999D01*
X481936Y171871D01*
X481969Y171742D01*
X481998Y171613D01*
X482023Y171482D01*
X482044Y171351D01*
X482061Y171219D01*
X482075Y171086D01*
X482084Y170954D01*
X482090Y170821D01*
X482092Y170688D01*
X482092Y159512D01*
X457708Y159512D02*
X457708Y170688D01*
X462280Y154940D02*
X477520Y154940D01*
D10*
X480745Y145882D02*
X479517Y144653D01*
X478288Y144653D01*
X477059Y145882D01*
X477059Y152025D01*
X478288Y152025D02*
X475830Y152025D01*
X473261Y152025D02*
X473261Y144653D01*
X473261Y152025D02*
X469575Y152025D01*
X468346Y150797D01*
X468346Y148339D01*
X469575Y147110D01*
X473261Y147110D01*
X462091Y144653D02*
X462091Y152025D01*
X465777Y148339D01*
X460862Y148339D01*
D12*
X462280Y454660D02*
X477520Y454660D01*
X482092Y438912D02*
X482090Y438779D01*
X482084Y438646D01*
X482075Y438514D01*
X482061Y438381D01*
X482044Y438249D01*
X482023Y438118D01*
X481998Y437987D01*
X481969Y437858D01*
X481936Y437729D01*
X481900Y437601D01*
X481860Y437474D01*
X481816Y437348D01*
X481769Y437224D01*
X481718Y437101D01*
X481664Y436980D01*
X481606Y436860D01*
X481544Y436742D01*
X481479Y436626D01*
X481411Y436512D01*
X481340Y436400D01*
X481265Y436290D01*
X481187Y436182D01*
X481106Y436076D01*
X481022Y435973D01*
X480935Y435873D01*
X480846Y435775D01*
X480753Y435679D01*
X480657Y435586D01*
X480559Y435497D01*
X480459Y435410D01*
X480356Y435326D01*
X480250Y435245D01*
X480142Y435167D01*
X480032Y435092D01*
X479920Y435021D01*
X479806Y434953D01*
X479690Y434888D01*
X479572Y434826D01*
X479452Y434768D01*
X479331Y434714D01*
X479208Y434663D01*
X479084Y434616D01*
X478958Y434572D01*
X478831Y434532D01*
X478703Y434496D01*
X478574Y434463D01*
X478445Y434434D01*
X478314Y434409D01*
X478183Y434388D01*
X478051Y434371D01*
X477918Y434357D01*
X477786Y434348D01*
X477653Y434342D01*
X477520Y434340D01*
X462280Y434340D02*
X462147Y434342D01*
X462014Y434348D01*
X461882Y434357D01*
X461749Y434371D01*
X461617Y434388D01*
X461486Y434409D01*
X461355Y434434D01*
X461226Y434463D01*
X461097Y434496D01*
X460969Y434532D01*
X460842Y434572D01*
X460716Y434616D01*
X460592Y434663D01*
X460469Y434714D01*
X460348Y434768D01*
X460228Y434826D01*
X460110Y434888D01*
X459994Y434953D01*
X459880Y435021D01*
X459768Y435092D01*
X459658Y435167D01*
X459550Y435245D01*
X459444Y435326D01*
X459341Y435410D01*
X459241Y435497D01*
X459143Y435586D01*
X459047Y435679D01*
X458954Y435775D01*
X458865Y435873D01*
X458778Y435973D01*
X458694Y436076D01*
X458613Y436182D01*
X458535Y436290D01*
X458460Y436400D01*
X458389Y436512D01*
X458321Y436626D01*
X458256Y436742D01*
X458194Y436860D01*
X458136Y436980D01*
X458082Y437101D01*
X458031Y437224D01*
X457984Y437348D01*
X457940Y437474D01*
X457900Y437601D01*
X457864Y437729D01*
X457831Y437858D01*
X457802Y437987D01*
X457777Y438118D01*
X457756Y438249D01*
X457739Y438381D01*
X457725Y438514D01*
X457716Y438646D01*
X457710Y438779D01*
X457708Y438912D01*
X457708Y450088D02*
X457710Y450221D01*
X457716Y450354D01*
X457725Y450486D01*
X457739Y450619D01*
X457756Y450751D01*
X457777Y450882D01*
X457802Y451013D01*
X457831Y451142D01*
X457864Y451271D01*
X457900Y451399D01*
X457940Y451526D01*
X457984Y451652D01*
X458031Y451776D01*
X458082Y451899D01*
X458136Y452020D01*
X458194Y452140D01*
X458256Y452258D01*
X458321Y452374D01*
X458389Y452488D01*
X458460Y452600D01*
X458535Y452710D01*
X458613Y452818D01*
X458694Y452924D01*
X458778Y453027D01*
X458865Y453127D01*
X458954Y453225D01*
X459047Y453321D01*
X459143Y453414D01*
X459241Y453503D01*
X459341Y453590D01*
X459444Y453674D01*
X459550Y453755D01*
X459658Y453833D01*
X459768Y453908D01*
X459880Y453979D01*
X459994Y454047D01*
X460110Y454112D01*
X460228Y454174D01*
X460348Y454232D01*
X460469Y454286D01*
X460592Y454337D01*
X460716Y454384D01*
X460842Y454428D01*
X460969Y454468D01*
X461097Y454504D01*
X461226Y454537D01*
X461355Y454566D01*
X461486Y454591D01*
X461617Y454612D01*
X461749Y454629D01*
X461882Y454643D01*
X462014Y454652D01*
X462147Y454658D01*
X462280Y454660D01*
X477520Y454660D02*
X477653Y454658D01*
X477786Y454652D01*
X477918Y454643D01*
X478051Y454629D01*
X478183Y454612D01*
X478314Y454591D01*
X478445Y454566D01*
X478574Y454537D01*
X478703Y454504D01*
X478831Y454468D01*
X478958Y454428D01*
X479084Y454384D01*
X479208Y454337D01*
X479331Y454286D01*
X479452Y454232D01*
X479572Y454174D01*
X479690Y454112D01*
X479806Y454047D01*
X479920Y453979D01*
X480032Y453908D01*
X480142Y453833D01*
X480250Y453755D01*
X480356Y453674D01*
X480459Y453590D01*
X480559Y453503D01*
X480657Y453414D01*
X480753Y453321D01*
X480846Y453225D01*
X480935Y453127D01*
X481022Y453027D01*
X481106Y452924D01*
X481187Y452818D01*
X481265Y452710D01*
X481340Y452600D01*
X481411Y452488D01*
X481479Y452374D01*
X481544Y452258D01*
X481606Y452140D01*
X481664Y452020D01*
X481718Y451899D01*
X481769Y451776D01*
X481816Y451652D01*
X481860Y451526D01*
X481900Y451399D01*
X481936Y451271D01*
X481969Y451142D01*
X481998Y451013D01*
X482023Y450882D01*
X482044Y450751D01*
X482061Y450619D01*
X482075Y450486D01*
X482084Y450354D01*
X482090Y450221D01*
X482092Y450088D01*
X482092Y438912D01*
X457708Y438912D02*
X457708Y450088D01*
X462280Y434340D02*
X477520Y434340D01*
D10*
X480745Y426552D02*
X479517Y425323D01*
X478288Y425323D01*
X477059Y426552D01*
X477059Y432695D01*
X478288Y432695D02*
X475830Y432695D01*
X473261Y432695D02*
X473261Y425323D01*
X473261Y432695D02*
X469575Y432695D01*
X468346Y431467D01*
X468346Y429009D01*
X469575Y427780D01*
X473261Y427780D01*
X463320Y431467D02*
X460862Y432695D01*
X463320Y431467D02*
X465777Y429009D01*
X465777Y426552D01*
X464548Y425323D01*
X462091Y425323D01*
X460862Y426552D01*
X460862Y427780D01*
X462091Y429009D01*
X465777Y429009D01*
X308869Y120488D02*
X308869Y115573D01*
X308869Y120488D02*
X307641Y120488D01*
X302726Y115573D01*
X301497Y115573D01*
X301497Y120488D01*
X301497Y127972D02*
X308869Y123057D01*
X308869Y127972D02*
X301497Y123057D01*
X301497Y130541D02*
X301497Y135456D01*
X301497Y130541D02*
X306412Y135456D01*
X307641Y135456D01*
X308869Y134227D01*
X308869Y131770D01*
X307641Y130541D01*
X305183Y138025D02*
X305183Y142940D01*
X301497Y145510D02*
X301497Y150424D01*
X301497Y145510D02*
X306412Y150424D01*
X307641Y150424D01*
X308869Y149196D01*
X308869Y146738D01*
X307641Y145510D01*
X282453Y120996D02*
X282453Y116081D01*
X282453Y120996D02*
X281225Y120996D01*
X276310Y116081D01*
X275081Y116081D01*
X275081Y120996D01*
X275081Y128480D02*
X282453Y123565D01*
X282453Y128480D02*
X275081Y123565D01*
X279996Y131049D02*
X282453Y133507D01*
X275081Y133507D01*
X275081Y135964D02*
X275081Y131049D01*
X278767Y138533D02*
X278767Y143448D01*
X275081Y146018D02*
X275081Y150932D01*
X275081Y146018D02*
X279996Y150932D01*
X281225Y150932D01*
X282453Y149704D01*
X282453Y147246D01*
X281225Y146018D01*
X257053Y120996D02*
X257053Y116081D01*
X257053Y120996D02*
X255825Y120996D01*
X250910Y116081D01*
X249681Y116081D01*
X249681Y120996D01*
X249681Y128480D02*
X257053Y123565D01*
X257053Y128480D02*
X249681Y123565D01*
X250910Y131049D02*
X255825Y131049D01*
X257053Y132278D01*
X257053Y134735D01*
X255825Y135964D01*
X250910Y135964D01*
X249681Y134735D01*
X249681Y132278D01*
X250910Y131049D01*
X255825Y135964D01*
X253367Y138533D02*
X253367Y143448D01*
X249681Y146018D02*
X249681Y150932D01*
X249681Y146018D02*
X254596Y150932D01*
X255825Y150932D01*
X257053Y149704D01*
X257053Y147246D01*
X255825Y146018D01*
D12*
X386080Y60960D02*
X401320Y60960D01*
X405892Y45212D02*
X405890Y45079D01*
X405884Y44946D01*
X405875Y44814D01*
X405861Y44681D01*
X405844Y44549D01*
X405823Y44418D01*
X405798Y44287D01*
X405769Y44158D01*
X405736Y44029D01*
X405700Y43901D01*
X405660Y43774D01*
X405616Y43648D01*
X405569Y43524D01*
X405518Y43401D01*
X405464Y43280D01*
X405406Y43160D01*
X405344Y43042D01*
X405279Y42926D01*
X405211Y42812D01*
X405140Y42700D01*
X405065Y42590D01*
X404987Y42482D01*
X404906Y42376D01*
X404822Y42273D01*
X404735Y42173D01*
X404646Y42075D01*
X404553Y41979D01*
X404457Y41886D01*
X404359Y41797D01*
X404259Y41710D01*
X404156Y41626D01*
X404050Y41545D01*
X403942Y41467D01*
X403832Y41392D01*
X403720Y41321D01*
X403606Y41253D01*
X403490Y41188D01*
X403372Y41126D01*
X403252Y41068D01*
X403131Y41014D01*
X403008Y40963D01*
X402884Y40916D01*
X402758Y40872D01*
X402631Y40832D01*
X402503Y40796D01*
X402374Y40763D01*
X402245Y40734D01*
X402114Y40709D01*
X401983Y40688D01*
X401851Y40671D01*
X401718Y40657D01*
X401586Y40648D01*
X401453Y40642D01*
X401320Y40640D01*
X386080Y40640D02*
X385947Y40642D01*
X385814Y40648D01*
X385682Y40657D01*
X385549Y40671D01*
X385417Y40688D01*
X385286Y40709D01*
X385155Y40734D01*
X385026Y40763D01*
X384897Y40796D01*
X384769Y40832D01*
X384642Y40872D01*
X384516Y40916D01*
X384392Y40963D01*
X384269Y41014D01*
X384148Y41068D01*
X384028Y41126D01*
X383910Y41188D01*
X383794Y41253D01*
X383680Y41321D01*
X383568Y41392D01*
X383458Y41467D01*
X383350Y41545D01*
X383244Y41626D01*
X383141Y41710D01*
X383041Y41797D01*
X382943Y41886D01*
X382847Y41979D01*
X382754Y42075D01*
X382665Y42173D01*
X382578Y42273D01*
X382494Y42376D01*
X382413Y42482D01*
X382335Y42590D01*
X382260Y42700D01*
X382189Y42812D01*
X382121Y42926D01*
X382056Y43042D01*
X381994Y43160D01*
X381936Y43280D01*
X381882Y43401D01*
X381831Y43524D01*
X381784Y43648D01*
X381740Y43774D01*
X381700Y43901D01*
X381664Y44029D01*
X381631Y44158D01*
X381602Y44287D01*
X381577Y44418D01*
X381556Y44549D01*
X381539Y44681D01*
X381525Y44814D01*
X381516Y44946D01*
X381510Y45079D01*
X381508Y45212D01*
X381508Y56388D02*
X381510Y56521D01*
X381516Y56654D01*
X381525Y56786D01*
X381539Y56919D01*
X381556Y57051D01*
X381577Y57182D01*
X381602Y57313D01*
X381631Y57442D01*
X381664Y57571D01*
X381700Y57699D01*
X381740Y57826D01*
X381784Y57952D01*
X381831Y58076D01*
X381882Y58199D01*
X381936Y58320D01*
X381994Y58440D01*
X382056Y58558D01*
X382121Y58674D01*
X382189Y58788D01*
X382260Y58900D01*
X382335Y59010D01*
X382413Y59118D01*
X382494Y59224D01*
X382578Y59327D01*
X382665Y59427D01*
X382754Y59525D01*
X382847Y59621D01*
X382943Y59714D01*
X383041Y59803D01*
X383141Y59890D01*
X383244Y59974D01*
X383350Y60055D01*
X383458Y60133D01*
X383568Y60208D01*
X383680Y60279D01*
X383794Y60347D01*
X383910Y60412D01*
X384028Y60474D01*
X384148Y60532D01*
X384269Y60586D01*
X384392Y60637D01*
X384516Y60684D01*
X384642Y60728D01*
X384769Y60768D01*
X384897Y60804D01*
X385026Y60837D01*
X385155Y60866D01*
X385286Y60891D01*
X385417Y60912D01*
X385549Y60929D01*
X385682Y60943D01*
X385814Y60952D01*
X385947Y60958D01*
X386080Y60960D01*
X401320Y60960D02*
X401453Y60958D01*
X401586Y60952D01*
X401718Y60943D01*
X401851Y60929D01*
X401983Y60912D01*
X402114Y60891D01*
X402245Y60866D01*
X402374Y60837D01*
X402503Y60804D01*
X402631Y60768D01*
X402758Y60728D01*
X402884Y60684D01*
X403008Y60637D01*
X403131Y60586D01*
X403252Y60532D01*
X403372Y60474D01*
X403490Y60412D01*
X403606Y60347D01*
X403720Y60279D01*
X403832Y60208D01*
X403942Y60133D01*
X404050Y60055D01*
X404156Y59974D01*
X404259Y59890D01*
X404359Y59803D01*
X404457Y59714D01*
X404553Y59621D01*
X404646Y59525D01*
X404735Y59427D01*
X404822Y59327D01*
X404906Y59224D01*
X404987Y59118D01*
X405065Y59010D01*
X405140Y58900D01*
X405211Y58788D01*
X405279Y58674D01*
X405344Y58558D01*
X405406Y58440D01*
X405464Y58320D01*
X405518Y58199D01*
X405569Y58076D01*
X405616Y57952D01*
X405660Y57826D01*
X405700Y57699D01*
X405736Y57571D01*
X405769Y57442D01*
X405798Y57313D01*
X405823Y57182D01*
X405844Y57051D01*
X405861Y56919D01*
X405875Y56786D01*
X405884Y56654D01*
X405890Y56521D01*
X405892Y56388D01*
X405892Y45212D01*
X381508Y45212D02*
X381508Y56388D01*
X386080Y40640D02*
X401320Y40640D01*
D10*
X408287Y27010D02*
X407059Y25781D01*
X405830Y25781D01*
X404601Y27010D01*
X404601Y33153D01*
X405830Y33153D02*
X403372Y33153D01*
X400803Y33153D02*
X400803Y25781D01*
X400803Y33153D02*
X397117Y33153D01*
X395888Y31925D01*
X395888Y29467D01*
X397117Y28238D01*
X400803Y28238D01*
X393319Y30696D02*
X390862Y33153D01*
X390862Y25781D01*
X393319Y25781D02*
X388404Y25781D01*
X385835Y25781D02*
X380920Y25781D01*
X385835Y25781D02*
X380920Y30696D01*
X380920Y31925D01*
X382149Y33153D01*
X384606Y33153D01*
X385835Y31925D01*
D12*
X424180Y40640D02*
X439420Y40640D01*
X419608Y56388D02*
X419610Y56521D01*
X419616Y56654D01*
X419625Y56786D01*
X419639Y56919D01*
X419656Y57051D01*
X419677Y57182D01*
X419702Y57313D01*
X419731Y57442D01*
X419764Y57571D01*
X419800Y57699D01*
X419840Y57826D01*
X419884Y57952D01*
X419931Y58076D01*
X419982Y58199D01*
X420036Y58320D01*
X420094Y58440D01*
X420156Y58558D01*
X420221Y58674D01*
X420289Y58788D01*
X420360Y58900D01*
X420435Y59010D01*
X420513Y59118D01*
X420594Y59224D01*
X420678Y59327D01*
X420765Y59427D01*
X420854Y59525D01*
X420947Y59621D01*
X421043Y59714D01*
X421141Y59803D01*
X421241Y59890D01*
X421344Y59974D01*
X421450Y60055D01*
X421558Y60133D01*
X421668Y60208D01*
X421780Y60279D01*
X421894Y60347D01*
X422010Y60412D01*
X422128Y60474D01*
X422248Y60532D01*
X422369Y60586D01*
X422492Y60637D01*
X422616Y60684D01*
X422742Y60728D01*
X422869Y60768D01*
X422997Y60804D01*
X423126Y60837D01*
X423255Y60866D01*
X423386Y60891D01*
X423517Y60912D01*
X423649Y60929D01*
X423782Y60943D01*
X423914Y60952D01*
X424047Y60958D01*
X424180Y60960D01*
X439420Y60960D02*
X439553Y60958D01*
X439686Y60952D01*
X439818Y60943D01*
X439951Y60929D01*
X440083Y60912D01*
X440214Y60891D01*
X440345Y60866D01*
X440474Y60837D01*
X440603Y60804D01*
X440731Y60768D01*
X440858Y60728D01*
X440984Y60684D01*
X441108Y60637D01*
X441231Y60586D01*
X441352Y60532D01*
X441472Y60474D01*
X441590Y60412D01*
X441706Y60347D01*
X441820Y60279D01*
X441932Y60208D01*
X442042Y60133D01*
X442150Y60055D01*
X442256Y59974D01*
X442359Y59890D01*
X442459Y59803D01*
X442557Y59714D01*
X442653Y59621D01*
X442746Y59525D01*
X442835Y59427D01*
X442922Y59327D01*
X443006Y59224D01*
X443087Y59118D01*
X443165Y59010D01*
X443240Y58900D01*
X443311Y58788D01*
X443379Y58674D01*
X443444Y58558D01*
X443506Y58440D01*
X443564Y58320D01*
X443618Y58199D01*
X443669Y58076D01*
X443716Y57952D01*
X443760Y57826D01*
X443800Y57699D01*
X443836Y57571D01*
X443869Y57442D01*
X443898Y57313D01*
X443923Y57182D01*
X443944Y57051D01*
X443961Y56919D01*
X443975Y56786D01*
X443984Y56654D01*
X443990Y56521D01*
X443992Y56388D01*
X443992Y45212D02*
X443990Y45079D01*
X443984Y44946D01*
X443975Y44814D01*
X443961Y44681D01*
X443944Y44549D01*
X443923Y44418D01*
X443898Y44287D01*
X443869Y44158D01*
X443836Y44029D01*
X443800Y43901D01*
X443760Y43774D01*
X443716Y43648D01*
X443669Y43524D01*
X443618Y43401D01*
X443564Y43280D01*
X443506Y43160D01*
X443444Y43042D01*
X443379Y42926D01*
X443311Y42812D01*
X443240Y42700D01*
X443165Y42590D01*
X443087Y42482D01*
X443006Y42376D01*
X442922Y42273D01*
X442835Y42173D01*
X442746Y42075D01*
X442653Y41979D01*
X442557Y41886D01*
X442459Y41797D01*
X442359Y41710D01*
X442256Y41626D01*
X442150Y41545D01*
X442042Y41467D01*
X441932Y41392D01*
X441820Y41321D01*
X441706Y41253D01*
X441590Y41188D01*
X441472Y41126D01*
X441352Y41068D01*
X441231Y41014D01*
X441108Y40963D01*
X440984Y40916D01*
X440858Y40872D01*
X440731Y40832D01*
X440603Y40796D01*
X440474Y40763D01*
X440345Y40734D01*
X440214Y40709D01*
X440083Y40688D01*
X439951Y40671D01*
X439818Y40657D01*
X439686Y40648D01*
X439553Y40642D01*
X439420Y40640D01*
X424180Y40640D02*
X424047Y40642D01*
X423914Y40648D01*
X423782Y40657D01*
X423649Y40671D01*
X423517Y40688D01*
X423386Y40709D01*
X423255Y40734D01*
X423126Y40763D01*
X422997Y40796D01*
X422869Y40832D01*
X422742Y40872D01*
X422616Y40916D01*
X422492Y40963D01*
X422369Y41014D01*
X422248Y41068D01*
X422128Y41126D01*
X422010Y41188D01*
X421894Y41253D01*
X421780Y41321D01*
X421668Y41392D01*
X421558Y41467D01*
X421450Y41545D01*
X421344Y41626D01*
X421241Y41710D01*
X421141Y41797D01*
X421043Y41886D01*
X420947Y41979D01*
X420854Y42075D01*
X420765Y42173D01*
X420678Y42273D01*
X420594Y42376D01*
X420513Y42482D01*
X420435Y42590D01*
X420360Y42700D01*
X420289Y42812D01*
X420221Y42926D01*
X420156Y43042D01*
X420094Y43160D01*
X420036Y43280D01*
X419982Y43401D01*
X419931Y43524D01*
X419884Y43648D01*
X419840Y43774D01*
X419800Y43901D01*
X419764Y44029D01*
X419731Y44158D01*
X419702Y44287D01*
X419677Y44418D01*
X419656Y44549D01*
X419639Y44681D01*
X419625Y44814D01*
X419616Y44946D01*
X419610Y45079D01*
X419608Y45212D01*
X419608Y56388D01*
X443992Y56388D02*
X443992Y45212D01*
X439420Y60960D02*
X424180Y60960D01*
D10*
X446387Y27010D02*
X445159Y25781D01*
X443930Y25781D01*
X442701Y27010D01*
X442701Y33153D01*
X443930Y33153D02*
X441472Y33153D01*
X438903Y33153D02*
X438903Y25781D01*
X438903Y33153D02*
X435217Y33153D01*
X433988Y31925D01*
X433988Y29467D01*
X435217Y28238D01*
X438903Y28238D01*
X431419Y30696D02*
X428962Y33153D01*
X428962Y25781D01*
X431419Y25781D02*
X426504Y25781D01*
X423935Y31925D02*
X422706Y33153D01*
X420249Y33153D01*
X419020Y31925D01*
X419020Y30696D01*
X420249Y29467D01*
X421477Y29467D01*
X420249Y29467D02*
X419020Y28238D01*
X419020Y27010D01*
X420249Y25781D01*
X422706Y25781D01*
X423935Y27010D01*
M02*
