G04 EAGLE Gerber RS-274X export*
G75*
%MOMM*%
%FSLAX34Y34*%
%LPD*%
%INSoldermask Top*%
%IPPOS*%
%AMOC8*
5,1,8,0,0,1.08239X$1,22.5*%
G01*
%ADD10R,1.203200X1.303200*%
%ADD11R,1.303200X1.203200*%
%ADD12R,1.761100X0.483200*%
%ADD13R,0.483200X1.761100*%
%ADD14C,2.082800*%
%ADD15R,0.903200X1.203200*%
%ADD16R,0.703200X1.203200*%
%ADD17R,1.003200X1.003200*%
%ADD18R,1.403200X1.303200*%
%ADD19R,1.203200X0.903200*%
%ADD20R,1.203200X0.703200*%
%ADD21R,2.003200X2.803200*%
%ADD22R,2.387600X1.270000*%
%ADD23C,1.603200*%
%ADD24C,0.838200*%
%ADD25R,1.763200X1.763200*%
%ADD26C,1.763200*%
%ADD27R,2.603200X3.003200*%
%ADD28C,1.903200*%
%ADD29C,2.003200*%
%ADD30R,3.003200X1.203200*%
%ADD31R,1.503200X1.703200*%
%ADD32R,4.103200X8.253200*%
%ADD33R,1.803200X2.903200*%
%ADD34R,2.006000X1.083400*%
%ADD35R,2.235200X2.235200*%
%ADD36C,2.235200*%
%ADD37R,0.853200X1.728200*%
%ADD38R,3.303200X2.603200*%
%ADD39R,0.433200X0.953200*%
%ADD40R,0.433200X1.203200*%
%ADD41R,2.003200X3.203200*%
%ADD42C,1.453200*%
%ADD43R,1.903200X2.003200*%
%ADD44C,3.759200*%


D10*
X63500Y592700D03*
X63500Y575700D03*
X88900Y575700D03*
X88900Y592700D03*
X63500Y453000D03*
X63500Y436000D03*
X88900Y436000D03*
X88900Y453000D03*
D11*
X114300Y453000D03*
X114300Y436000D03*
X114300Y592700D03*
X114300Y575700D03*
D12*
X316231Y517800D03*
X316231Y512800D03*
X316231Y507800D03*
X316231Y502800D03*
X316231Y497800D03*
X316231Y492800D03*
X316231Y487800D03*
X316231Y482800D03*
X316231Y477800D03*
X316231Y472800D03*
X316231Y467800D03*
X316231Y462800D03*
D13*
X330000Y449031D03*
X335000Y449031D03*
X340000Y449031D03*
X345000Y449031D03*
X350000Y449031D03*
X355000Y449031D03*
X360000Y449031D03*
X365000Y449031D03*
X370000Y449031D03*
X375000Y449031D03*
X380000Y449031D03*
X385000Y449031D03*
D12*
X398769Y462800D03*
X398769Y467800D03*
X398769Y472800D03*
X398769Y477800D03*
X398769Y482800D03*
X398769Y487800D03*
X398769Y492800D03*
X398769Y497800D03*
X398769Y502800D03*
X398769Y507800D03*
X398769Y512800D03*
X398769Y517800D03*
D13*
X385000Y531569D03*
X380000Y531569D03*
X375000Y531569D03*
X370000Y531569D03*
X365000Y531569D03*
X360000Y531569D03*
X355000Y531569D03*
X350000Y531569D03*
X345000Y531569D03*
X340000Y531569D03*
X335000Y531569D03*
X330000Y531569D03*
D10*
X349250Y414900D03*
X349250Y397900D03*
X279654Y474082D03*
X279654Y457082D03*
X254000Y551007D03*
X254000Y568007D03*
D11*
X342900Y568007D03*
X342900Y551007D03*
D10*
X254000Y473828D03*
X254000Y456828D03*
X279400Y440300D03*
X279400Y423300D03*
D14*
X101600Y25400D03*
X76200Y25400D03*
X50800Y25400D03*
X25400Y25400D03*
D15*
X361650Y551007D03*
D16*
X370650Y551007D03*
X378650Y551007D03*
D15*
X387650Y551007D03*
X387650Y568007D03*
D16*
X378650Y568007D03*
X370650Y568007D03*
D15*
X361650Y568007D03*
D10*
X592700Y120650D03*
X575700Y120650D03*
D17*
X596900Y87750D03*
X596900Y102750D03*
D18*
X369250Y397650D03*
X392750Y397650D03*
X392750Y415150D03*
X369250Y415150D03*
D19*
X136280Y533700D03*
D20*
X136280Y524700D03*
X136280Y516700D03*
D19*
X136280Y507700D03*
X153280Y507700D03*
D20*
X153280Y516700D03*
X153280Y524700D03*
D19*
X153280Y533700D03*
D21*
X20658Y479128D03*
X88158Y479128D03*
D22*
X46658Y560748D03*
D21*
X106158Y553128D03*
D23*
X25158Y516128D03*
X85158Y516128D03*
D21*
X20658Y339555D03*
X88158Y339555D03*
D22*
X46658Y421175D03*
D21*
X106158Y413555D03*
D23*
X25158Y376555D03*
X85158Y376555D03*
D24*
X76200Y609600D03*
X552450Y114300D03*
D25*
X177800Y591300D03*
D26*
X177800Y565900D03*
X177800Y134100D03*
X177800Y540500D03*
X177800Y515100D03*
X177800Y489700D03*
X177800Y464300D03*
X177800Y438900D03*
X177800Y413500D03*
X177800Y388100D03*
X177800Y362700D03*
X177800Y337300D03*
X177800Y311900D03*
X177800Y286500D03*
X177800Y261100D03*
X177800Y235700D03*
X177800Y210300D03*
X177800Y184900D03*
X177800Y159500D03*
X431800Y591300D03*
X431800Y565900D03*
X431800Y540500D03*
X431800Y515100D03*
X431800Y489700D03*
X431800Y464300D03*
X431800Y438900D03*
X431800Y413500D03*
X431800Y388100D03*
X431800Y362700D03*
X431800Y337300D03*
X431800Y311900D03*
X431800Y286500D03*
X431800Y261100D03*
X431800Y235700D03*
X431800Y210300D03*
X431800Y184900D03*
X431800Y159500D03*
X431800Y134100D03*
X203200Y591312D03*
X203200Y565912D03*
X203200Y540512D03*
X203200Y515112D03*
X203200Y489712D03*
X203200Y464312D03*
X203200Y438912D03*
X203200Y413512D03*
X203200Y388112D03*
X203200Y362712D03*
X203200Y337312D03*
X203200Y311912D03*
X203200Y286512D03*
X203200Y261112D03*
X203200Y235712D03*
X203200Y210312D03*
X203200Y184912D03*
X203200Y159512D03*
X203200Y134112D03*
D10*
X279654Y517026D03*
X279654Y534026D03*
X254000Y516574D03*
X254000Y533574D03*
X279654Y551007D03*
X279654Y568007D03*
X317500Y551316D03*
X317500Y568316D03*
D11*
X114300Y313300D03*
X114300Y296300D03*
D10*
X63500Y313300D03*
X63500Y296300D03*
X88900Y296300D03*
X88900Y313300D03*
D21*
X20658Y199982D03*
X88158Y199982D03*
D22*
X46658Y281602D03*
D21*
X106158Y273982D03*
D23*
X25158Y236982D03*
X85158Y236982D03*
D11*
X137160Y262500D03*
X137160Y245500D03*
X137160Y223130D03*
X137160Y206130D03*
D10*
X16900Y68072D03*
X33900Y68072D03*
D17*
X13208Y88004D03*
X13208Y103004D03*
D10*
X546100Y160410D03*
X546100Y177410D03*
X520700Y177410D03*
X520700Y160410D03*
X546100Y300110D03*
X546100Y317110D03*
X520700Y317110D03*
X520700Y300110D03*
D11*
X495300Y300110D03*
X495300Y317110D03*
X495300Y160410D03*
X495300Y177410D03*
D12*
X331469Y244200D03*
X331469Y249200D03*
X331469Y254200D03*
X331469Y259200D03*
X331469Y264200D03*
X331469Y269200D03*
X331469Y274200D03*
X331469Y279200D03*
X331469Y284200D03*
X331469Y289200D03*
X331469Y294200D03*
X331469Y299200D03*
D13*
X317700Y312969D03*
X312700Y312969D03*
X307700Y312969D03*
X302700Y312969D03*
X297700Y312969D03*
X292700Y312969D03*
X287700Y312969D03*
X282700Y312969D03*
X277700Y312969D03*
X272700Y312969D03*
X267700Y312969D03*
X262700Y312969D03*
D12*
X248931Y299200D03*
X248931Y294200D03*
X248931Y289200D03*
X248931Y284200D03*
X248931Y279200D03*
X248931Y274200D03*
X248931Y269200D03*
X248931Y264200D03*
X248931Y259200D03*
X248931Y254200D03*
X248931Y249200D03*
X248931Y244200D03*
D13*
X262700Y230431D03*
X267700Y230431D03*
X272700Y230431D03*
X277700Y230431D03*
X282700Y230431D03*
X287700Y230431D03*
X292700Y230431D03*
X297700Y230431D03*
X302700Y230431D03*
X307700Y230431D03*
X312700Y230431D03*
X317700Y230431D03*
D10*
X368300Y288680D03*
X368300Y305680D03*
X393700Y211700D03*
X393700Y194700D03*
D11*
X304800Y194700D03*
X304800Y211700D03*
D10*
X393700Y288680D03*
X393700Y305680D03*
D14*
X203200Y25400D03*
X177800Y25400D03*
X152400Y25400D03*
X127000Y25400D03*
D15*
X286050Y210938D03*
D16*
X277050Y210938D03*
X269050Y210938D03*
D15*
X260050Y210938D03*
X260050Y193938D03*
D16*
X269050Y193938D03*
X277050Y193938D03*
D15*
X286050Y193938D03*
D18*
X278450Y364350D03*
X254950Y364350D03*
X254950Y346850D03*
X278450Y346850D03*
D19*
X474590Y219410D03*
D20*
X474590Y228410D03*
X474590Y236410D03*
D19*
X474590Y245410D03*
X457590Y245410D03*
D20*
X457590Y236410D03*
X457590Y228410D03*
D19*
X457590Y219410D03*
D21*
X588942Y273982D03*
X521442Y273982D03*
D22*
X562942Y192362D03*
D21*
X503442Y199982D03*
D23*
X584442Y236982D03*
X524442Y236982D03*
D21*
X588942Y413555D03*
X521442Y413555D03*
D22*
X562942Y331935D03*
D21*
X503442Y339555D03*
D23*
X584442Y376555D03*
X524442Y376555D03*
D10*
X368808Y244720D03*
X368808Y227720D03*
X393700Y244720D03*
X393700Y227720D03*
X368300Y211700D03*
X368300Y194700D03*
X330200Y211954D03*
X330200Y194954D03*
D11*
X495300Y439810D03*
X495300Y456810D03*
D10*
X546100Y439810D03*
X546100Y456810D03*
X520700Y456810D03*
X520700Y439810D03*
D21*
X588942Y553128D03*
X521442Y553128D03*
D22*
X562942Y471508D03*
D21*
X503442Y479128D03*
D23*
X584442Y516128D03*
X524442Y516128D03*
D11*
X472440Y494420D03*
X472440Y511420D03*
X472440Y527440D03*
X472440Y544440D03*
D10*
X33900Y120904D03*
X16900Y120904D03*
D17*
X37592Y88004D03*
X37592Y103004D03*
D10*
X304800Y347100D03*
X304800Y364100D03*
X368300Y321700D03*
X368300Y338700D03*
D11*
X254000Y440300D03*
X254000Y423300D03*
X393700Y321700D03*
X393700Y338700D03*
D27*
X438150Y81280D03*
X438150Y20280D03*
X552150Y20280D03*
X552150Y81280D03*
D28*
X495150Y20280D03*
D29*
X495150Y65280D03*
D30*
X374006Y83588D03*
X327006Y83588D03*
D11*
X330200Y131200D03*
X330200Y148200D03*
D31*
X261976Y15748D03*
X242976Y15748D03*
D32*
X133942Y126492D03*
X80942Y126492D03*
D10*
X381000Y131200D03*
X381000Y148200D03*
X266700Y148200D03*
X266700Y131200D03*
D11*
X355600Y148200D03*
X355600Y131200D03*
X304800Y59300D03*
X304800Y42300D03*
D33*
X80488Y66548D03*
X108488Y66548D03*
D34*
X347399Y37884D03*
X347399Y10884D03*
X407489Y10884D03*
X407489Y37884D03*
D35*
X558800Y497840D03*
D36*
X558800Y532840D03*
D35*
X558800Y359410D03*
D36*
X558800Y394410D03*
D35*
X558800Y219710D03*
D36*
X558800Y254710D03*
D35*
X50800Y533400D03*
D36*
X50800Y498400D03*
D35*
X50800Y393700D03*
D36*
X50800Y358700D03*
D35*
X50800Y254000D03*
D36*
X50800Y219000D03*
D37*
X244094Y44000D03*
X256794Y44000D03*
X269494Y44000D03*
X282194Y44000D03*
X282194Y98240D03*
X269494Y98240D03*
X256794Y98240D03*
X244094Y98240D03*
D38*
X263144Y71120D03*
D10*
X292100Y131200D03*
X292100Y148200D03*
D11*
X330200Y347100D03*
X330200Y364100D03*
X323850Y414900D03*
X323850Y397900D03*
D19*
X383150Y355300D03*
D20*
X383150Y364300D03*
X383150Y372300D03*
D19*
X383150Y381300D03*
X366150Y381300D03*
D20*
X366150Y372300D03*
X366150Y364300D03*
D19*
X366150Y355300D03*
X264550Y406700D03*
D20*
X264550Y397700D03*
X264550Y389700D03*
D19*
X264550Y380700D03*
X281550Y380700D03*
D20*
X281550Y389700D03*
X281550Y397700D03*
D19*
X281550Y406700D03*
D26*
X177800Y108712D03*
D35*
X590550Y57150D03*
D36*
X590550Y22150D03*
D26*
X203200Y108712D03*
X431800Y108712D03*
D39*
X456506Y576242D03*
D40*
X460506Y577492D03*
D39*
X464506Y576242D03*
D40*
X468506Y577492D03*
D39*
X472506Y576242D03*
D40*
X476506Y577492D03*
D39*
X480506Y576242D03*
D40*
X484506Y577492D03*
D39*
X488506Y576242D03*
D40*
X492506Y577492D03*
D39*
X496506Y576242D03*
D40*
X500506Y577492D03*
D39*
X504506Y576242D03*
D40*
X508506Y577492D03*
D39*
X512506Y576242D03*
D40*
X516506Y577492D03*
D39*
X520506Y576242D03*
D40*
X524506Y577492D03*
D39*
X528506Y576242D03*
D41*
X506506Y605492D03*
X478506Y605492D03*
D42*
X526256Y599492D02*
X526256Y611992D01*
X458756Y611992D02*
X458756Y599492D01*
D43*
X209550Y90350D03*
X209550Y49350D03*
D44*
X25400Y596900D03*
X584200Y596900D03*
X25400Y152400D03*
X584200Y152400D03*
M02*
