G04 EAGLE Gerber RS-274X export*
G75*
%MOMM*%
%FSLAX34Y34*%
%LPD*%
%INSoldermask Bottom*%
%IPPOS*%
%AMOC8*
5,1,8,0,0,1.08239X$1,22.5*%
G01*
%ADD10C,2.082800*%
%ADD11R,0.838200X1.473200*%
%ADD12C,1.603200*%
%ADD13R,1.763200X1.763200*%
%ADD14C,1.763200*%
%ADD15R,1.473200X2.743200*%
%ADD16C,1.903200*%
%ADD17C,2.003200*%
%ADD18R,2.235200X2.235200*%
%ADD19C,2.235200*%
%ADD20C,1.453200*%
%ADD21C,3.759200*%

G36*
X141670Y582307D02*
X141670Y582307D01*
X141736Y582309D01*
X141779Y582327D01*
X141826Y582335D01*
X141883Y582369D01*
X141943Y582394D01*
X141978Y582425D01*
X142019Y582450D01*
X142061Y582501D01*
X142109Y582545D01*
X142131Y582587D01*
X142160Y582624D01*
X142181Y582686D01*
X142212Y582745D01*
X142220Y582799D01*
X142232Y582836D01*
X142231Y582876D01*
X142239Y582930D01*
X142239Y585470D01*
X142228Y585535D01*
X142226Y585601D01*
X142208Y585644D01*
X142200Y585691D01*
X142166Y585748D01*
X142141Y585808D01*
X142110Y585843D01*
X142085Y585884D01*
X142034Y585926D01*
X141990Y585974D01*
X141948Y585996D01*
X141911Y586025D01*
X141849Y586046D01*
X141790Y586077D01*
X141736Y586085D01*
X141699Y586097D01*
X141659Y586096D01*
X141605Y586104D01*
X137795Y586104D01*
X137730Y586093D01*
X137664Y586091D01*
X137621Y586073D01*
X137574Y586065D01*
X137517Y586031D01*
X137457Y586006D01*
X137422Y585975D01*
X137381Y585950D01*
X137340Y585899D01*
X137291Y585855D01*
X137269Y585813D01*
X137240Y585776D01*
X137219Y585714D01*
X137188Y585655D01*
X137180Y585601D01*
X137168Y585564D01*
X137168Y585561D01*
X137169Y585524D01*
X137161Y585470D01*
X137161Y582930D01*
X137172Y582865D01*
X137174Y582799D01*
X137192Y582756D01*
X137200Y582709D01*
X137234Y582652D01*
X137259Y582592D01*
X137290Y582557D01*
X137315Y582516D01*
X137366Y582475D01*
X137410Y582426D01*
X137452Y582404D01*
X137489Y582375D01*
X137551Y582354D01*
X137610Y582323D01*
X137664Y582315D01*
X137701Y582303D01*
X137741Y582304D01*
X137795Y582296D01*
X141605Y582296D01*
X141670Y582307D01*
G37*
G36*
X471870Y442607D02*
X471870Y442607D01*
X471936Y442609D01*
X471979Y442627D01*
X472026Y442635D01*
X472083Y442669D01*
X472143Y442694D01*
X472178Y442725D01*
X472219Y442750D01*
X472261Y442801D01*
X472309Y442845D01*
X472331Y442887D01*
X472360Y442924D01*
X472381Y442986D01*
X472412Y443045D01*
X472420Y443099D01*
X472432Y443136D01*
X472431Y443176D01*
X472439Y443230D01*
X472439Y445770D01*
X472428Y445835D01*
X472426Y445901D01*
X472408Y445944D01*
X472400Y445991D01*
X472366Y446048D01*
X472341Y446108D01*
X472310Y446143D01*
X472285Y446184D01*
X472234Y446226D01*
X472190Y446274D01*
X472148Y446296D01*
X472111Y446325D01*
X472049Y446346D01*
X471990Y446377D01*
X471936Y446385D01*
X471899Y446397D01*
X471859Y446396D01*
X471805Y446404D01*
X467995Y446404D01*
X467930Y446393D01*
X467864Y446391D01*
X467821Y446373D01*
X467774Y446365D01*
X467717Y446331D01*
X467657Y446306D01*
X467622Y446275D01*
X467581Y446250D01*
X467540Y446199D01*
X467491Y446155D01*
X467469Y446113D01*
X467440Y446076D01*
X467419Y446014D01*
X467388Y445955D01*
X467380Y445901D01*
X467368Y445864D01*
X467368Y445861D01*
X467369Y445824D01*
X467361Y445770D01*
X467361Y443230D01*
X467372Y443165D01*
X467374Y443099D01*
X467392Y443056D01*
X467400Y443009D01*
X467434Y442952D01*
X467459Y442892D01*
X467490Y442857D01*
X467515Y442816D01*
X467566Y442775D01*
X467610Y442726D01*
X467652Y442704D01*
X467689Y442675D01*
X467751Y442654D01*
X467810Y442623D01*
X467864Y442615D01*
X467901Y442603D01*
X467941Y442604D01*
X467995Y442596D01*
X471805Y442596D01*
X471870Y442607D01*
G37*
G36*
X141670Y442607D02*
X141670Y442607D01*
X141736Y442609D01*
X141779Y442627D01*
X141826Y442635D01*
X141883Y442669D01*
X141943Y442694D01*
X141978Y442725D01*
X142019Y442750D01*
X142061Y442801D01*
X142109Y442845D01*
X142131Y442887D01*
X142160Y442924D01*
X142181Y442986D01*
X142212Y443045D01*
X142220Y443099D01*
X142232Y443136D01*
X142231Y443176D01*
X142239Y443230D01*
X142239Y445770D01*
X142228Y445835D01*
X142226Y445901D01*
X142208Y445944D01*
X142200Y445991D01*
X142166Y446048D01*
X142141Y446108D01*
X142110Y446143D01*
X142085Y446184D01*
X142034Y446226D01*
X141990Y446274D01*
X141948Y446296D01*
X141911Y446325D01*
X141849Y446346D01*
X141790Y446377D01*
X141736Y446385D01*
X141699Y446397D01*
X141659Y446396D01*
X141605Y446404D01*
X137795Y446404D01*
X137730Y446393D01*
X137664Y446391D01*
X137621Y446373D01*
X137574Y446365D01*
X137517Y446331D01*
X137457Y446306D01*
X137422Y446275D01*
X137381Y446250D01*
X137340Y446199D01*
X137291Y446155D01*
X137269Y446113D01*
X137240Y446076D01*
X137219Y446014D01*
X137188Y445955D01*
X137180Y445901D01*
X137168Y445864D01*
X137168Y445861D01*
X137169Y445824D01*
X137161Y445770D01*
X137161Y443230D01*
X137172Y443165D01*
X137174Y443099D01*
X137192Y443056D01*
X137200Y443009D01*
X137234Y442952D01*
X137259Y442892D01*
X137290Y442857D01*
X137315Y442816D01*
X137366Y442775D01*
X137410Y442726D01*
X137452Y442704D01*
X137489Y442675D01*
X137551Y442654D01*
X137610Y442623D01*
X137664Y442615D01*
X137701Y442603D01*
X137741Y442604D01*
X137795Y442596D01*
X141605Y442596D01*
X141670Y442607D01*
G37*
G36*
X141670Y302907D02*
X141670Y302907D01*
X141736Y302909D01*
X141779Y302927D01*
X141826Y302935D01*
X141883Y302969D01*
X141943Y302994D01*
X141978Y303025D01*
X142019Y303050D01*
X142061Y303101D01*
X142109Y303145D01*
X142131Y303187D01*
X142160Y303224D01*
X142181Y303286D01*
X142212Y303345D01*
X142220Y303399D01*
X142232Y303436D01*
X142231Y303476D01*
X142239Y303530D01*
X142239Y306070D01*
X142228Y306135D01*
X142226Y306201D01*
X142208Y306244D01*
X142200Y306291D01*
X142166Y306348D01*
X142141Y306408D01*
X142110Y306443D01*
X142085Y306484D01*
X142034Y306526D01*
X141990Y306574D01*
X141948Y306596D01*
X141911Y306625D01*
X141849Y306646D01*
X141790Y306677D01*
X141736Y306685D01*
X141699Y306697D01*
X141659Y306696D01*
X141605Y306704D01*
X137795Y306704D01*
X137730Y306693D01*
X137664Y306691D01*
X137621Y306673D01*
X137574Y306665D01*
X137517Y306631D01*
X137457Y306606D01*
X137422Y306575D01*
X137381Y306550D01*
X137340Y306499D01*
X137291Y306455D01*
X137269Y306413D01*
X137240Y306376D01*
X137219Y306314D01*
X137188Y306255D01*
X137180Y306201D01*
X137168Y306164D01*
X137168Y306161D01*
X137169Y306124D01*
X137161Y306070D01*
X137161Y303530D01*
X137172Y303465D01*
X137174Y303399D01*
X137192Y303356D01*
X137200Y303309D01*
X137234Y303252D01*
X137259Y303192D01*
X137290Y303157D01*
X137315Y303116D01*
X137366Y303075D01*
X137410Y303026D01*
X137452Y303004D01*
X137489Y302975D01*
X137551Y302954D01*
X137610Y302923D01*
X137664Y302915D01*
X137701Y302903D01*
X137741Y302904D01*
X137795Y302896D01*
X141605Y302896D01*
X141670Y302907D01*
G37*
G36*
X471870Y302907D02*
X471870Y302907D01*
X471936Y302909D01*
X471979Y302927D01*
X472026Y302935D01*
X472083Y302969D01*
X472143Y302994D01*
X472178Y303025D01*
X472219Y303050D01*
X472261Y303101D01*
X472309Y303145D01*
X472331Y303187D01*
X472360Y303224D01*
X472381Y303286D01*
X472412Y303345D01*
X472420Y303399D01*
X472432Y303436D01*
X472431Y303476D01*
X472439Y303530D01*
X472439Y306070D01*
X472428Y306135D01*
X472426Y306201D01*
X472408Y306244D01*
X472400Y306291D01*
X472366Y306348D01*
X472341Y306408D01*
X472310Y306443D01*
X472285Y306484D01*
X472234Y306526D01*
X472190Y306574D01*
X472148Y306596D01*
X472111Y306625D01*
X472049Y306646D01*
X471990Y306677D01*
X471936Y306685D01*
X471899Y306697D01*
X471859Y306696D01*
X471805Y306704D01*
X467995Y306704D01*
X467930Y306693D01*
X467864Y306691D01*
X467821Y306673D01*
X467774Y306665D01*
X467717Y306631D01*
X467657Y306606D01*
X467622Y306575D01*
X467581Y306550D01*
X467540Y306499D01*
X467491Y306455D01*
X467469Y306413D01*
X467440Y306376D01*
X467419Y306314D01*
X467388Y306255D01*
X467380Y306201D01*
X467368Y306164D01*
X467368Y306161D01*
X467369Y306124D01*
X467361Y306070D01*
X467361Y303530D01*
X467372Y303465D01*
X467374Y303399D01*
X467392Y303356D01*
X467400Y303309D01*
X467434Y303252D01*
X467459Y303192D01*
X467490Y303157D01*
X467515Y303116D01*
X467566Y303075D01*
X467610Y303026D01*
X467652Y303004D01*
X467689Y302975D01*
X467751Y302954D01*
X467810Y302923D01*
X467864Y302915D01*
X467901Y302903D01*
X467941Y302904D01*
X467995Y302896D01*
X471805Y302896D01*
X471870Y302907D01*
G37*
G36*
X471870Y163207D02*
X471870Y163207D01*
X471936Y163209D01*
X471979Y163227D01*
X472026Y163235D01*
X472083Y163269D01*
X472143Y163294D01*
X472178Y163325D01*
X472219Y163350D01*
X472261Y163401D01*
X472309Y163445D01*
X472331Y163487D01*
X472360Y163524D01*
X472381Y163586D01*
X472412Y163645D01*
X472420Y163699D01*
X472432Y163736D01*
X472431Y163776D01*
X472439Y163830D01*
X472439Y166370D01*
X472428Y166435D01*
X472426Y166501D01*
X472408Y166544D01*
X472400Y166591D01*
X472366Y166648D01*
X472341Y166708D01*
X472310Y166743D01*
X472285Y166784D01*
X472234Y166826D01*
X472190Y166874D01*
X472148Y166896D01*
X472111Y166925D01*
X472049Y166946D01*
X471990Y166977D01*
X471936Y166985D01*
X471899Y166997D01*
X471859Y166996D01*
X471805Y167004D01*
X467995Y167004D01*
X467930Y166993D01*
X467864Y166991D01*
X467821Y166973D01*
X467774Y166965D01*
X467717Y166931D01*
X467657Y166906D01*
X467622Y166875D01*
X467581Y166850D01*
X467540Y166799D01*
X467491Y166755D01*
X467469Y166713D01*
X467440Y166676D01*
X467419Y166614D01*
X467388Y166555D01*
X467380Y166501D01*
X467368Y166464D01*
X467368Y166461D01*
X467369Y166424D01*
X467361Y166370D01*
X467361Y163830D01*
X467372Y163765D01*
X467374Y163699D01*
X467392Y163656D01*
X467400Y163609D01*
X467434Y163552D01*
X467459Y163492D01*
X467490Y163457D01*
X467515Y163416D01*
X467566Y163375D01*
X467610Y163326D01*
X467652Y163304D01*
X467689Y163275D01*
X467751Y163254D01*
X467810Y163223D01*
X467864Y163215D01*
X467901Y163203D01*
X467941Y163204D01*
X467995Y163196D01*
X471805Y163196D01*
X471870Y163207D01*
G37*
G36*
X433770Y48907D02*
X433770Y48907D01*
X433836Y48909D01*
X433879Y48927D01*
X433926Y48935D01*
X433983Y48969D01*
X434043Y48994D01*
X434078Y49025D01*
X434119Y49050D01*
X434161Y49101D01*
X434209Y49145D01*
X434231Y49187D01*
X434260Y49224D01*
X434281Y49286D01*
X434312Y49345D01*
X434320Y49399D01*
X434332Y49436D01*
X434331Y49476D01*
X434339Y49530D01*
X434339Y52070D01*
X434328Y52135D01*
X434326Y52201D01*
X434308Y52244D01*
X434300Y52291D01*
X434266Y52348D01*
X434241Y52408D01*
X434210Y52443D01*
X434185Y52484D01*
X434134Y52526D01*
X434090Y52574D01*
X434048Y52596D01*
X434011Y52625D01*
X433949Y52646D01*
X433890Y52677D01*
X433836Y52685D01*
X433799Y52697D01*
X433759Y52696D01*
X433705Y52704D01*
X429895Y52704D01*
X429830Y52693D01*
X429764Y52691D01*
X429721Y52673D01*
X429674Y52665D01*
X429617Y52631D01*
X429557Y52606D01*
X429522Y52575D01*
X429481Y52550D01*
X429440Y52499D01*
X429391Y52455D01*
X429369Y52413D01*
X429340Y52376D01*
X429319Y52314D01*
X429288Y52255D01*
X429280Y52201D01*
X429268Y52164D01*
X429268Y52161D01*
X429269Y52124D01*
X429261Y52070D01*
X429261Y49530D01*
X429272Y49465D01*
X429274Y49399D01*
X429292Y49356D01*
X429300Y49309D01*
X429334Y49252D01*
X429359Y49192D01*
X429390Y49157D01*
X429415Y49116D01*
X429466Y49075D01*
X429510Y49026D01*
X429552Y49004D01*
X429589Y48975D01*
X429651Y48954D01*
X429710Y48923D01*
X429764Y48915D01*
X429801Y48903D01*
X429841Y48904D01*
X429895Y48896D01*
X433705Y48896D01*
X433770Y48907D01*
G37*
G36*
X395670Y48907D02*
X395670Y48907D01*
X395736Y48909D01*
X395779Y48927D01*
X395826Y48935D01*
X395883Y48969D01*
X395943Y48994D01*
X395978Y49025D01*
X396019Y49050D01*
X396061Y49101D01*
X396109Y49145D01*
X396131Y49187D01*
X396160Y49224D01*
X396181Y49286D01*
X396212Y49345D01*
X396220Y49399D01*
X396232Y49436D01*
X396231Y49476D01*
X396239Y49530D01*
X396239Y52070D01*
X396228Y52135D01*
X396226Y52201D01*
X396208Y52244D01*
X396200Y52291D01*
X396166Y52348D01*
X396141Y52408D01*
X396110Y52443D01*
X396085Y52484D01*
X396034Y52526D01*
X395990Y52574D01*
X395948Y52596D01*
X395911Y52625D01*
X395849Y52646D01*
X395790Y52677D01*
X395736Y52685D01*
X395699Y52697D01*
X395659Y52696D01*
X395605Y52704D01*
X391795Y52704D01*
X391730Y52693D01*
X391664Y52691D01*
X391621Y52673D01*
X391574Y52665D01*
X391517Y52631D01*
X391457Y52606D01*
X391422Y52575D01*
X391381Y52550D01*
X391340Y52499D01*
X391291Y52455D01*
X391269Y52413D01*
X391240Y52376D01*
X391219Y52314D01*
X391188Y52255D01*
X391180Y52201D01*
X391168Y52164D01*
X391168Y52161D01*
X391169Y52124D01*
X391161Y52070D01*
X391161Y49530D01*
X391172Y49465D01*
X391174Y49399D01*
X391192Y49356D01*
X391200Y49309D01*
X391234Y49252D01*
X391259Y49192D01*
X391290Y49157D01*
X391315Y49116D01*
X391366Y49075D01*
X391410Y49026D01*
X391452Y49004D01*
X391489Y48975D01*
X391551Y48954D01*
X391610Y48923D01*
X391664Y48915D01*
X391701Y48903D01*
X391741Y48904D01*
X391795Y48896D01*
X395605Y48896D01*
X395670Y48907D01*
G37*
D10*
X101600Y25400D03*
X76200Y25400D03*
X50800Y25400D03*
X25400Y25400D03*
D11*
X144780Y444500D03*
X134620Y444500D03*
X144780Y584200D03*
X134620Y584200D03*
D12*
X25158Y516128D03*
X85158Y516128D03*
X25158Y376555D03*
X85158Y376555D03*
D13*
X177800Y591300D03*
D14*
X177800Y565900D03*
X177800Y134100D03*
X177800Y540500D03*
X177800Y515100D03*
X177800Y489700D03*
X177800Y464300D03*
X177800Y438900D03*
X177800Y413500D03*
X177800Y388100D03*
X177800Y362700D03*
X177800Y337300D03*
X177800Y311900D03*
X177800Y286500D03*
X177800Y261100D03*
X177800Y235700D03*
X177800Y210300D03*
X177800Y184900D03*
X177800Y159500D03*
X431800Y591300D03*
X431800Y565900D03*
X431800Y540500D03*
X431800Y515100D03*
X431800Y489700D03*
X431800Y464300D03*
X431800Y438900D03*
X431800Y413500D03*
X431800Y388100D03*
X431800Y362700D03*
X431800Y337300D03*
X431800Y311900D03*
X431800Y286500D03*
X431800Y261100D03*
X431800Y235700D03*
X431800Y210300D03*
X431800Y184900D03*
X431800Y159500D03*
X431800Y134100D03*
X203200Y591312D03*
X203200Y565912D03*
X203200Y540512D03*
X203200Y515112D03*
X203200Y489712D03*
X203200Y464312D03*
X203200Y438912D03*
X203200Y413512D03*
X203200Y388112D03*
X203200Y362712D03*
X203200Y337312D03*
X203200Y311912D03*
X203200Y286512D03*
X203200Y261112D03*
X203200Y235712D03*
X203200Y210312D03*
X203200Y184912D03*
X203200Y159512D03*
X203200Y134112D03*
D11*
X144780Y304800D03*
X134620Y304800D03*
D12*
X25158Y236982D03*
X85158Y236982D03*
D15*
X114300Y127000D03*
X88900Y127000D03*
X63500Y127000D03*
D10*
X203200Y25400D03*
X177800Y25400D03*
X152400Y25400D03*
X127000Y25400D03*
D11*
X464820Y304800D03*
X474980Y304800D03*
X464820Y165100D03*
X474980Y165100D03*
D12*
X584442Y236982D03*
X524442Y236982D03*
X584442Y376555D03*
X524442Y376555D03*
D11*
X464820Y444500D03*
X474980Y444500D03*
D12*
X584442Y516128D03*
X524442Y516128D03*
D15*
X292100Y127000D03*
X266700Y127000D03*
X241300Y127000D03*
D16*
X495150Y20280D03*
D17*
X495150Y65280D03*
D11*
X388620Y50800D03*
X398780Y50800D03*
D18*
X558800Y497840D03*
D19*
X558800Y532840D03*
D18*
X558800Y359410D03*
D19*
X558800Y394410D03*
D18*
X558800Y219710D03*
D19*
X558800Y254710D03*
D18*
X50800Y533400D03*
D19*
X50800Y498400D03*
D18*
X50800Y393700D03*
D19*
X50800Y358700D03*
D18*
X50800Y254000D03*
D19*
X50800Y219000D03*
D11*
X436880Y50800D03*
X426720Y50800D03*
D14*
X177800Y108712D03*
D18*
X590550Y57150D03*
D19*
X590550Y22150D03*
D14*
X203200Y108712D03*
X431800Y108712D03*
D20*
X526256Y599492D02*
X526256Y611992D01*
X458756Y611992D02*
X458756Y599492D01*
D21*
X25400Y596900D03*
X584200Y596900D03*
X25400Y152400D03*
X584200Y152400D03*
M02*
